%TF.GenerationSoftware,KiCad,Pcbnew,10.0.6*%
%TF.CreationDate,2026-09-24T10:33:37-03:00*%
%TF.ProjectId,FE_UFPR_4_0,46455f55-4650-4525-9f34-5f302e6b6963,4.0*%
%TF.SameCoordinates,Original*%
%TF.FileFunction,Copper,L3,Inr*%
%TF.FilePolarity,Positive*%
%FSLAX46Y46*%
G04 Gerber Fmt 4.6, Leading zero omitted, Abs format (unit mm)*
G04 Created by KiCad (PCBNEW 10.0.6) date 2026-09-24 10:33:37*
%MOMM*%
%LPD*%
G01*
G04 APERTURE LIST*
G04 Aperture macros list*
%AMRoundRect*
0 Rectangle with rounded corners*
0 $1 Rounding radius*
0 $2 $3 $4 $5 $6 $7 $8 $9 X,Y pos of 4 corners*
0 Add a 4 corners polygon primitive as box body*
4,1,4,$2,$3,$4,$5,$6,$7,$8,$9,$2,$3,0*
0 Add four circle primitives for the rounded corners*
1,1,$1+$1,$2,$3*
1,1,$1+$1,$4,$5*
1,1,$1+$1,$6,$7*
1,1,$1+$1,$8,$9*
0 Add four rect primitives between the rounded corners*
20,1,$1+$1,$2,$3,$4,$5,0*
20,1,$1+$1,$4,$5,$6,$7,0*
20,1,$1+$1,$6,$7,$8,$9,0*
20,1,$1+$1,$8,$9,$2,$3,0*%
G04 Aperture macros list end*
%TA.AperFunction,ComponentPad*%
%ADD10RoundRect,0.250001X-1.399999X1.099999X-1.399999X-1.099999X1.399999X-1.099999X1.399999X1.099999X0*%
%TD*%
%TA.AperFunction,ComponentPad*%
%ADD11O,3.300000X2.700000*%
%TD*%
%TA.AperFunction,ComponentPad*%
%ADD12R,2.800000X2.800000*%
%TD*%
%TA.AperFunction,ComponentPad*%
%ADD13C,2.800000*%
%TD*%
%TA.AperFunction,ComponentPad*%
%ADD14R,2.400000X2.400000*%
%TD*%
%TA.AperFunction,ComponentPad*%
%ADD15C,2.400000*%
%TD*%
%TA.AperFunction,ComponentPad*%
%ADD16R,1.600000X1.600000*%
%TD*%
%TA.AperFunction,ComponentPad*%
%ADD17C,1.600000*%
%TD*%
%TA.AperFunction,ComponentPad*%
%ADD18C,4.000000*%
%TD*%
%TA.AperFunction,ComponentPad*%
%ADD19R,1.700000X1.700000*%
%TD*%
%TA.AperFunction,ComponentPad*%
%ADD20C,1.700000*%
%TD*%
%TA.AperFunction,ComponentPad*%
%ADD21C,0.600000*%
%TD*%
%TA.AperFunction,ComponentPad*%
%ADD22C,1.500000*%
%TD*%
%TA.AperFunction,ViaPad*%
%ADD23C,0.800000*%
%TD*%
%TA.AperFunction,ViaPad*%
%ADD24C,0.600000*%
%TD*%
%TA.AperFunction,ViaPad*%
%ADD25C,1.000000*%
%TD*%
%TA.AperFunction,Conductor*%
%ADD26C,0.400000*%
%TD*%
%TA.AperFunction,Conductor*%
%ADD27C,0.500000*%
%TD*%
%TA.AperFunction,Conductor*%
%ADD28C,0.250000*%
%TD*%
%TA.AperFunction,Conductor*%
%ADD29C,0.300000*%
%TD*%
%ADD30C,0.350000*%
%ADD31C,0.300000*%
G04 APERTURE END LIST*
D10*
%TO.N,+24V_IN*%
%TO.C,J1*%
X257270000Y-94400000D03*
D11*
%TO.N,GND*%
X251770000Y-94400000D03*
%TD*%
D12*
%TO.N,+15V_ISO*%
%TO.C,J3*%
X119060000Y-178390000D03*
D13*
%TO.N,/current_sense/LEM_A_M*%
X119060000Y-182830000D03*
%TO.N,/current_sense/LEM_B_M*%
X119060000Y-187280000D03*
%TO.N,/current_sense/LEM_C_M*%
X119060000Y-191720000D03*
%TO.N,-15V_ISO*%
X119060000Y-196170000D03*
%TO.N,/current_sense/SHIELD_LEM*%
X119060000Y-200610000D03*
%TO.N,unconnected-(J3-Pin_7-Pad7)*%
X109940000Y-200610000D03*
%TO.N,ISO_COM*%
X109940000Y-196170000D03*
X109940000Y-191720000D03*
X109940000Y-187280000D03*
X109940000Y-182830000D03*
X109940000Y-178390000D03*
%TD*%
D14*
%TO.N,PGND_MOD*%
%TO.C,U4*%
X164297500Y-207290000D03*
D15*
%TO.N,+24V_MOD*%
X164297500Y-202210000D03*
%TO.N,+15V_ISO*%
X143977500Y-194590000D03*
%TO.N,ISO_COM*%
X143977500Y-204750000D03*
%TO.N,-15V_ISO*%
X143977500Y-214910000D03*
%TD*%
D16*
%TO.N,/gate_drive/SHIELD_DB37*%
%TO.C,J2*%
X243950000Y-210500000D03*
D17*
%TO.N,/FLT_OC_A_15V*%
X241180000Y-210500000D03*
%TO.N,/gate_drive/PWM_VL_15V*%
X238410000Y-210500000D03*
%TO.N,/gate_drive/PWM_VH_15V*%
X235640000Y-210500000D03*
%TO.N,/FLT_OC_C_15V*%
X232870000Y-210500000D03*
%TO.N,/FLT_OT_15V*%
X230100000Y-210500000D03*
%TO.N,/VBUS_SNS_RAW*%
X227330000Y-210500000D03*
%TO.N,+24V_MOD*%
X224560000Y-210500000D03*
%TO.N,/gate_drive/MOD_AUX15V_1*%
X221790000Y-210500000D03*
%TO.N,PGND_MOD*%
X219020000Y-210500000D03*
%TO.N,/VBUS_RTN*%
X216250000Y-210500000D03*
%TO.N,/ISNS_RTN*%
X213480000Y-210500000D03*
X210710000Y-210500000D03*
%TO.N,unconnected-(J2-Pad14)*%
X207940000Y-210500000D03*
%TO.N,unconnected-(J2-Pad15)*%
X205170000Y-210500000D03*
%TO.N,/FLT_OV_15V*%
X202400000Y-210500000D03*
%TO.N,unconnected-(J2-Pad17)*%
X199630000Y-210500000D03*
%TO.N,unconnected-(J2-Pad18)*%
X196860000Y-210500000D03*
%TO.N,GND*%
X194090000Y-210500000D03*
%TO.N,/gate_drive/PWM_UL_15V*%
X242565000Y-213040000D03*
%TO.N,/gate_drive/PWM_UH_15V*%
X239795000Y-213040000D03*
%TO.N,/FLT_OC_B_15V*%
X237025000Y-213040000D03*
%TO.N,/gate_drive/PWM_WL_15V*%
X234255000Y-213040000D03*
%TO.N,/gate_drive/PWM_WH_15V*%
X231485000Y-213040000D03*
%TO.N,GND*%
X228715000Y-213040000D03*
%TO.N,+24V_MOD*%
X225945000Y-213040000D03*
%TO.N,/gate_drive/MOD_AUX15V_2*%
X223175000Y-213040000D03*
%TO.N,PGND_MOD*%
X220405000Y-213040000D03*
%TO.N,/NTC_1_RAW*%
X217635000Y-213040000D03*
%TO.N,/ISNS_A_RAW*%
X214865000Y-213040000D03*
%TO.N,/ISNS_B_RAW*%
X212095000Y-213040000D03*
%TO.N,/ISNS_C_RAW*%
X209325000Y-213040000D03*
%TO.N,unconnected-(J2-Pad33)*%
X206555000Y-213040000D03*
%TO.N,unconnected-(J2-Pad34)*%
X203785000Y-213040000D03*
%TO.N,unconnected-(J2-Pad35)*%
X201015000Y-213040000D03*
%TO.N,unconnected-(J2-Pad36)*%
X198245000Y-213040000D03*
%TO.N,GND*%
X195475000Y-213040000D03*
D18*
%TO.N,/gate_drive/SHIELD_DB37*%
X187270000Y-211770000D03*
X250770000Y-211770000D03*
%TD*%
D12*
%TO.N,/encoder/ENC_VDD*%
%TO.C,J4*%
X155660000Y-118089999D03*
D13*
%TO.N,/encoder/ENC_SIN_RAW*%
X155660000Y-122529999D03*
%TO.N,GND*%
X155660000Y-126979999D03*
%TO.N,/encoder/ENC_COS_RAW*%
X155660000Y-131419999D03*
%TO.N,unconnected-(J4-Pin_5-Pad5)*%
X155660000Y-135869999D03*
%TO.N,/encoder/MOT_TEMP_RAW*%
X155660000Y-140309999D03*
%TO.N,GND*%
X146540000Y-140309999D03*
%TO.N,unconnected-(J4-Pin_8-Pad8)*%
X146540000Y-135869999D03*
%TO.N,unconnected-(J4-Pin_9-Pad9)*%
X146540000Y-131419999D03*
%TO.N,/encoder/SHIELD_ENC*%
X146540000Y-126979999D03*
%TO.N,unconnected-(J4-Pin_11-Pad11)*%
X146540000Y-122529999D03*
%TO.N,unconnected-(J4-Pin_12-Pad12)*%
X146540000Y-118089999D03*
%TD*%
D19*
%TO.N,unconnected-(J22-Pin_1-Pad1)*%
%TO.C,J22*%
X193950000Y-167400000D03*
D20*
%TO.N,+5V_LP*%
X196490000Y-167400000D03*
%TO.N,unconnected-(J22-Pin_3-Pad3)*%
X193950000Y-169940000D03*
%TO.N,GND*%
X196490000Y-169940000D03*
%TO.N,unconnected-(J22-Pin_5-Pad5)*%
X193950000Y-172480000D03*
%TO.N,unconnected-(J22-Pin_6-Pad6)*%
X196490000Y-172480000D03*
%TO.N,unconnected-(J22-Pin_7-Pad7)*%
X193950000Y-175020000D03*
%TO.N,unconnected-(J22-Pin_8-Pad8)*%
X196490000Y-175020000D03*
%TO.N,unconnected-(J22-Pin_9-Pad9)*%
X193950000Y-177560000D03*
%TO.N,/ISNS_REF_B_ADC*%
X196490000Y-177560000D03*
%TO.N,unconnected-(J22-Pin_11-Pad11)*%
X193950000Y-180100000D03*
%TO.N,/ISNS_A_ADC*%
X196490000Y-180100000D03*
%TO.N,unconnected-(J22-Pin_13-Pad13)*%
X193950000Y-182640000D03*
%TO.N,/ISNS_B_ADC*%
X196490000Y-182640000D03*
%TO.N,/FLT_OV_3V3*%
X193950000Y-185180000D03*
%TO.N,/ISNS_C_ADC*%
X196490000Y-185180000D03*
%TO.N,unconnected-(J22-Pin_17-Pad17)*%
X193950000Y-187720000D03*
%TO.N,/ISNS_REF_A_ADC*%
X196490000Y-187720000D03*
%TO.N,unconnected-(J22-Pin_19-Pad19)*%
X193950000Y-190260000D03*
%TO.N,unconnected-(J22-Pin_20-Pad20)*%
X196490000Y-190260000D03*
%TD*%
D19*
%TO.N,unconnected-(J21-Pin_1-Pad1)*%
%TO.C,J21*%
X237130000Y-103900000D03*
D20*
%TO.N,GND*%
X239670000Y-103900000D03*
%TO.N,unconnected-(J21-Pin_3-Pad3)*%
X237130000Y-106440000D03*
%TO.N,unconnected-(J21-Pin_4-Pad4)*%
X239670000Y-106440000D03*
%TO.N,unconnected-(J21-Pin_5-Pad5)*%
X237130000Y-108980000D03*
%TO.N,unconnected-(J21-Pin_6-Pad6)*%
X239670000Y-108980000D03*
%TO.N,unconnected-(J21-Pin_7-Pad7)*%
X237130000Y-111520000D03*
%TO.N,unconnected-(J21-Pin_8-Pad8)*%
X239670000Y-111520000D03*
%TO.N,/CAN_TX_3V3*%
X237130000Y-114060000D03*
%TO.N,unconnected-(J21-Pin_10-Pad10)*%
X239670000Y-114060000D03*
%TO.N,/CAN_RX_3V3*%
X237130000Y-116600000D03*
%TO.N,unconnected-(J21-Pin_12-Pad12)*%
X239670000Y-116600000D03*
%TO.N,unconnected-(J21-Pin_13-Pad13)*%
X237130000Y-119140000D03*
%TO.N,/SW_START_3V3*%
X239670000Y-119140000D03*
%TO.N,unconnected-(J21-Pin_15-Pad15)*%
X237130000Y-121680000D03*
%TO.N,unconnected-(J21-Pin_16-Pad16)*%
X239670000Y-121680000D03*
%TO.N,unconnected-(J21-Pin_17-Pad17)*%
X237130000Y-124220000D03*
%TO.N,unconnected-(J21-Pin_18-Pad18)*%
X239670000Y-124220000D03*
%TO.N,unconnected-(J21-Pin_19-Pad19)*%
X237130000Y-126760000D03*
%TO.N,/SW_MAIN_3V3*%
X239670000Y-126760000D03*
%TD*%
D21*
%TO.N,GND*%
%TO.C,U1*%
X258095000Y-134450000D03*
X258095000Y-133150000D03*
X258095000Y-131850000D03*
X258095000Y-130550000D03*
X256795000Y-134450000D03*
X256795000Y-133150000D03*
X256795000Y-131850000D03*
X256795000Y-130550000D03*
%TD*%
D12*
%TO.N,/vehicle_io/CAN_H*%
%TO.C,J5*%
X118760000Y-120825000D03*
D13*
%TO.N,/vehicle_io/+5V_VEH*%
X118760000Y-125270000D03*
%TO.N,Net-(J5-Pin_3)*%
X118760000Y-130730000D03*
%TO.N,Net-(J5-Pin_4)*%
X118760000Y-135175000D03*
%TO.N,/vehicle_io/SW_START_RTN*%
X109640000Y-135175000D03*
%TO.N,/vehicle_io/SW_MAIN_RTN*%
X109640000Y-130730000D03*
%TO.N,GND*%
X109640000Y-125270000D03*
%TO.N,/vehicle_io/CAN_L*%
X109640000Y-120825000D03*
%TD*%
D22*
%TO.N,GND*%
%TO.C,TP47*%
X212350000Y-201050000D03*
%TD*%
D19*
%TO.N,unconnected-(J20-Pin_1-Pad1)*%
%TO.C,J20*%
X193950000Y-103900000D03*
D20*
%TO.N,+5V_LP*%
X196490000Y-103900000D03*
%TO.N,unconnected-(J20-Pin_3-Pad3)*%
X193950000Y-106440000D03*
%TO.N,GND*%
X196490000Y-106440000D03*
%TO.N,unconnected-(J20-Pin_5-Pad5)*%
X193950000Y-108980000D03*
%TO.N,unconnected-(J20-Pin_6-Pad6)*%
X196490000Y-108980000D03*
%TO.N,unconnected-(J20-Pin_7-Pad7)*%
X193950000Y-111520000D03*
%TO.N,/NTC_1_ADC*%
X196490000Y-111520000D03*
%TO.N,/launchpad/ISR_PROBE_3V3*%
X193950000Y-114060000D03*
%TO.N,/MOT_TEMP_ADC*%
X196490000Y-114060000D03*
%TO.N,unconnected-(J20-Pin_11-Pad11)*%
X193950000Y-116600000D03*
%TO.N,/MOT_TEMP_REF_ADC*%
X196490000Y-116600000D03*
%TO.N,unconnected-(J20-Pin_13-Pad13)*%
X193950000Y-119140000D03*
%TO.N,/VBUS_ADC*%
X196490000Y-119140000D03*
%TO.N,unconnected-(J20-Pin_15-Pad15)*%
X193950000Y-121680000D03*
%TO.N,/ENC_COS_ADC*%
X196490000Y-121680000D03*
%TO.N,unconnected-(J20-Pin_17-Pad17)*%
X193950000Y-124220000D03*
%TO.N,/ENC_SIN_ADC*%
X196490000Y-124220000D03*
%TO.N,unconnected-(J20-Pin_19-Pad19)*%
X193950000Y-126760000D03*
%TO.N,unconnected-(J20-Pin_20-Pad20)*%
X196490000Y-126760000D03*
%TD*%
D19*
%TO.N,/PWM_UH_3V3*%
%TO.C,J23*%
X237130000Y-167400000D03*
D20*
%TO.N,GND*%
X239670000Y-167400000D03*
%TO.N,/PWM_UL_3V3*%
X237130000Y-169940000D03*
%TO.N,/DRV_EN_3V3*%
X239670000Y-169940000D03*
%TO.N,/PWM_VH_3V3*%
X237130000Y-172480000D03*
%TO.N,/DRV_EN_AUX_3V3*%
X239670000Y-172480000D03*
%TO.N,/PWM_VL_3V3*%
X237130000Y-175020000D03*
%TO.N,unconnected-(J23-Pin_8-Pad8)*%
X239670000Y-175020000D03*
%TO.N,/PWM_WH_3V3*%
X237130000Y-177560000D03*
%TO.N,unconnected-(J23-Pin_10-Pad10)*%
X239670000Y-177560000D03*
%TO.N,/PWM_WL_3V3*%
X237130000Y-180100000D03*
%TO.N,unconnected-(J23-Pin_12-Pad12)*%
X239670000Y-180100000D03*
%TO.N,unconnected-(J23-Pin_13-Pad13)*%
X237130000Y-182640000D03*
%TO.N,/FLT_OT_3V3*%
X239670000Y-182640000D03*
%TO.N,unconnected-(J23-Pin_15-Pad15)*%
X237130000Y-185180000D03*
%TO.N,/FLT_OC_C_3V3*%
X239670000Y-185180000D03*
%TO.N,unconnected-(J23-Pin_17-Pad17)*%
X237130000Y-187720000D03*
%TO.N,/FLT_OC_B_3V3*%
X239670000Y-187720000D03*
%TO.N,unconnected-(J23-Pin_19-Pad19)*%
X237130000Y-190260000D03*
%TO.N,/FLT_OC_A_3V3*%
X239670000Y-190260000D03*
%TD*%
D22*
%TO.N,GND*%
%TO.C,TP46*%
X186200000Y-118700000D03*
%TD*%
D23*
%TO.N,/DRV_EN_AUX_3V3*%
X240450000Y-163400000D03*
X234400000Y-153000000D03*
D24*
%TO.N,GND*%
X254020000Y-149575000D03*
X182000000Y-209800000D03*
X167900000Y-170850000D03*
X129400000Y-91350000D03*
X256682000Y-218519000D03*
X160900000Y-101850000D03*
X259150000Y-198825000D03*
X183800000Y-152600000D03*
X211693000Y-207681000D03*
X205600000Y-136800000D03*
X200993000Y-198517000D03*
X272500000Y-217350000D03*
X182000000Y-210800000D03*
X258670000Y-135456000D03*
X266323000Y-164050000D03*
X204400000Y-134800000D03*
X153400000Y-91350000D03*
X255400000Y-91350000D03*
X202900000Y-101850000D03*
X209900000Y-157850000D03*
X272886000Y-153816000D03*
X237650000Y-148325000D03*
X189900000Y-136850000D03*
X251900000Y-108850000D03*
X257591000Y-193641000D03*
X237900000Y-101850000D03*
X198207000Y-107343000D03*
X244900000Y-108850000D03*
X202825000Y-189500000D03*
X263942000Y-134733000D03*
X189400000Y-91350000D03*
X237641000Y-135116000D03*
X206800000Y-200600000D03*
X173870000Y-110150000D03*
X139900000Y-115850000D03*
X216900000Y-157850000D03*
X216900000Y-122850000D03*
X176863000Y-172593000D03*
X203275000Y-185750000D03*
X180900000Y-163850000D03*
X213417000Y-116138000D03*
X234600000Y-159850000D03*
X153900000Y-108850000D03*
X201550000Y-107325000D03*
X236044000Y-205618000D03*
X129400000Y-115350000D03*
X251795000Y-102750000D03*
X252900000Y-116850000D03*
X147400000Y-91350000D03*
X170600000Y-200200000D03*
X264850000Y-147450000D03*
X247419000Y-192857000D03*
X210900000Y-122850000D03*
X265900000Y-206850000D03*
X230900000Y-150850000D03*
X232969000Y-160268000D03*
X180900000Y-191850000D03*
X179800000Y-154400000D03*
X230193000Y-112006000D03*
X235750000Y-130300000D03*
X203575000Y-178400000D03*
X195400000Y-91350000D03*
X243400000Y-91350000D03*
X258900000Y-101850000D03*
X272831000Y-125611000D03*
X261400000Y-91350000D03*
X173450000Y-107950000D03*
X230125000Y-180105000D03*
X244225000Y-197600000D03*
X239169000Y-205518000D03*
X202575000Y-108800000D03*
X267400000Y-218450000D03*
X272200000Y-132600000D03*
X216900000Y-150850000D03*
X241825000Y-204825000D03*
X187900000Y-115850000D03*
X262750000Y-149100000D03*
X139900000Y-136850000D03*
X187200000Y-154000000D03*
X174900000Y-213850000D03*
X264900000Y-121850000D03*
X260960000Y-135694000D03*
X266400000Y-160800000D03*
X210884000Y-110934000D03*
X230900000Y-122850000D03*
X182000000Y-208800000D03*
X250520000Y-146650000D03*
X168200000Y-195800000D03*
X181900000Y-107850000D03*
X234800000Y-164800000D03*
X169750000Y-124675000D03*
X153900000Y-101850000D03*
X258275000Y-197600000D03*
X167900000Y-207850000D03*
X176858000Y-150333000D03*
X216900000Y-164850000D03*
X186200000Y-152600000D03*
X267400000Y-91350000D03*
X222900000Y-185850000D03*
X160575000Y-124050000D03*
X221817000Y-106328000D03*
X209900000Y-164850000D03*
X265900000Y-178850000D03*
X265900000Y-199850000D03*
X261220000Y-122900000D03*
X168900000Y-136850000D03*
X146900000Y-115850000D03*
X201375000Y-173275000D03*
X204000000Y-200600000D03*
X141400000Y-91350000D03*
X191875000Y-98250000D03*
X188900000Y-193850000D03*
X205400000Y-185800000D03*
X205400000Y-186800000D03*
X231400000Y-91350000D03*
X251900000Y-122850000D03*
X265900000Y-185850000D03*
X216900000Y-135850000D03*
X248841000Y-207566000D03*
X201400000Y-91350000D03*
X272500000Y-175350000D03*
X266400000Y-161600000D03*
X272500000Y-103350000D03*
X167900000Y-108850000D03*
X272500000Y-199350000D03*
X237400000Y-91350000D03*
X228692000Y-173427000D03*
X257750000Y-205925000D03*
X180000000Y-176000000D03*
X250925000Y-204700000D03*
X167900000Y-157850000D03*
X272500000Y-91350000D03*
X202900000Y-157850000D03*
X179800000Y-153600000D03*
X249400000Y-91350000D03*
X169600000Y-197000000D03*
X174900000Y-122850000D03*
X261986000Y-217524000D03*
X245900000Y-136850000D03*
X209916000Y-209016000D03*
X223900000Y-143850000D03*
X230900000Y-129850000D03*
X206975000Y-135600000D03*
X260595000Y-119450000D03*
X159400000Y-91350000D03*
X262550000Y-137475000D03*
X181900000Y-136850000D03*
X202900000Y-143850000D03*
X214582000Y-193381000D03*
X265363000Y-134403000D03*
X264520000Y-115450000D03*
X160625000Y-119800000D03*
X187000000Y-175000000D03*
X244591000Y-194816000D03*
X257625000Y-128650000D03*
X251900000Y-136850000D03*
X229900000Y-136850000D03*
X216900000Y-185850000D03*
X216900000Y-171850000D03*
X216900000Y-130850000D03*
X247718000Y-218556000D03*
X204000000Y-198400000D03*
X190650000Y-169325000D03*
X217800000Y-197200000D03*
X272500000Y-205350000D03*
X233482000Y-182481000D03*
X182000000Y-211800000D03*
X195900000Y-150850000D03*
X242400000Y-185400000D03*
X252900000Y-157850000D03*
X230638000Y-178769000D03*
X167900000Y-143850000D03*
X183400000Y-91350000D03*
X182000000Y-213600000D03*
X219400000Y-91350000D03*
X205400000Y-188800000D03*
X206800000Y-201600000D03*
X256632000Y-214481000D03*
X209900000Y-143850000D03*
X179400000Y-199400000D03*
X271200000Y-132600000D03*
X231200000Y-116000000D03*
X129400000Y-121350000D03*
X251900000Y-198850000D03*
X135400000Y-91350000D03*
X222900000Y-193850000D03*
X195900000Y-143850000D03*
X243200000Y-194750000D03*
X146900000Y-101850000D03*
X223900000Y-170850000D03*
X169600000Y-186875000D03*
X258900000Y-185850000D03*
X204409000Y-205684000D03*
X228542000Y-182777000D03*
X198491000Y-138182000D03*
X244900000Y-115850000D03*
X221750000Y-103685000D03*
X231400000Y-218450000D03*
X167900000Y-150850000D03*
X183400000Y-211800000D03*
X129400000Y-139350000D03*
X235716000Y-157391000D03*
X197987000Y-118664000D03*
X245900000Y-150850000D03*
X272500000Y-145350000D03*
X272500000Y-169350000D03*
X240425000Y-158625000D03*
X176420000Y-149490000D03*
X183400000Y-208800000D03*
X245900000Y-142850000D03*
X195900000Y-156850000D03*
X223900000Y-150850000D03*
X258150000Y-166325000D03*
X233632000Y-163931000D03*
X258670000Y-129544000D03*
X230565000Y-113050000D03*
X209900000Y-150850000D03*
X258900000Y-108850000D03*
X178200000Y-199400000D03*
X217900000Y-108850000D03*
X225700000Y-104750000D03*
X183200000Y-197600000D03*
X174900000Y-136850000D03*
X176475000Y-194600000D03*
X178200000Y-198600000D03*
X272500000Y-181350000D03*
X129400000Y-133350000D03*
X187900000Y-142850000D03*
X272500000Y-121350000D03*
X205400000Y-200600000D03*
X233582000Y-173281000D03*
X205593000Y-172408000D03*
X153900000Y-143850000D03*
X204000000Y-201600000D03*
X223900000Y-157850000D03*
X129400000Y-109350000D03*
X167900000Y-129850000D03*
X167900000Y-164850000D03*
X171600000Y-201200000D03*
X265600000Y-160800000D03*
X272500000Y-97350000D03*
X205400000Y-189800000D03*
X187900000Y-122850000D03*
X185000000Y-152600000D03*
X202825000Y-182100000D03*
X187900000Y-109850000D03*
X250050000Y-131650000D03*
X213400000Y-91350000D03*
X188900000Y-185850000D03*
X207400000Y-91350000D03*
X222900000Y-128850000D03*
X183400000Y-213600000D03*
X212250000Y-182150000D03*
X176370000Y-147590000D03*
X179400000Y-198600000D03*
X153900000Y-129850000D03*
X245394000Y-209432000D03*
X266900000Y-108850000D03*
X245900000Y-129850000D03*
X223900000Y-115850000D03*
X178800000Y-153600000D03*
X202316000Y-196916000D03*
X232994000Y-205518000D03*
X232024000Y-157831000D03*
X213525000Y-102260000D03*
X169650000Y-181175000D03*
X205400000Y-201600000D03*
X236000000Y-164800000D03*
X251900000Y-178850000D03*
X146900000Y-108850000D03*
X232919000Y-169618000D03*
X244900000Y-157850000D03*
X178800000Y-154400000D03*
X208293000Y-201993000D03*
X244900000Y-101850000D03*
X197800000Y-115200000D03*
X176375000Y-169850000D03*
X181900000Y-142850000D03*
X205600000Y-133600000D03*
X175900000Y-185850000D03*
X183400000Y-210800000D03*
X186200000Y-175000000D03*
X168200000Y-197000000D03*
X260450000Y-191775000D03*
X244900000Y-171850000D03*
X187829000Y-174921000D03*
X272500000Y-211350000D03*
X257332000Y-160356000D03*
X180000000Y-177000000D03*
X139900000Y-129850000D03*
X178400000Y-203600000D03*
X189900000Y-212850000D03*
X183400000Y-209800000D03*
X205400000Y-187800000D03*
X202600000Y-201600000D03*
X237400000Y-218450000D03*
X200125000Y-169550000D03*
X229900000Y-199850000D03*
X200121000Y-197263000D03*
X225400000Y-91350000D03*
X230300000Y-170750000D03*
X200175000Y-198275000D03*
X230925000Y-159500000D03*
X205600000Y-134800000D03*
X174900000Y-165850000D03*
X199550000Y-208150000D03*
X204400000Y-135800000D03*
X177400000Y-91350000D03*
X188900000Y-164850000D03*
X181900000Y-122850000D03*
X139900000Y-101850000D03*
X244406000Y-205568000D03*
X242344000Y-205568000D03*
X129400000Y-145350000D03*
X178800000Y-176000000D03*
X202600000Y-200600000D03*
X208900000Y-193850000D03*
X235950000Y-148325000D03*
X182000000Y-212600000D03*
X169600000Y-195800000D03*
X242500000Y-165975000D03*
X199739000Y-113911000D03*
X195900000Y-164850000D03*
X216900000Y-143850000D03*
X234200000Y-168400000D03*
X197800000Y-117600000D03*
X235600000Y-131200000D03*
X205600000Y-135800000D03*
X265900000Y-192850000D03*
X223283000Y-204058000D03*
X208234000Y-205684000D03*
X225400000Y-218450000D03*
X206425000Y-133600000D03*
X204400000Y-136800000D03*
X265900000Y-171850000D03*
X188900000Y-206850000D03*
X265900000Y-213850000D03*
X146900000Y-143850000D03*
X129400000Y-127350000D03*
X167900000Y-213850000D03*
X178800000Y-177000000D03*
X249250000Y-208300000D03*
X228767000Y-164072000D03*
X255313000Y-164932000D03*
X177150000Y-99700000D03*
X233200000Y-168400000D03*
X251900000Y-171850000D03*
X232819000Y-178818000D03*
X216900000Y-178850000D03*
X183400000Y-212600000D03*
X272020000Y-115400000D03*
X272500000Y-163350000D03*
X223900000Y-178850000D03*
X175900000Y-116850000D03*
X245900000Y-123850000D03*
X197306000Y-201643000D03*
X245900000Y-178850000D03*
X258900000Y-178850000D03*
X215566000Y-207859000D03*
X174900000Y-157850000D03*
X272500000Y-187350000D03*
X204800000Y-124200000D03*
X176425000Y-192700000D03*
X241600000Y-185000000D03*
X272500000Y-193350000D03*
X257520000Y-149575000D03*
X223900000Y-122850000D03*
X161900000Y-128850000D03*
X258900000Y-171850000D03*
X222900000Y-135850000D03*
X129400000Y-103350000D03*
X200625000Y-167550000D03*
X139900000Y-122850000D03*
X231900000Y-100850000D03*
X204400000Y-133600000D03*
X219400000Y-218450000D03*
X230325000Y-161400000D03*
X175900000Y-206850000D03*
X259561000Y-162561000D03*
X272500000Y-109350000D03*
X271125000Y-149975000D03*
X204000000Y-197200000D03*
X180900000Y-185850000D03*
X167900000Y-115850000D03*
X257450000Y-194713000D03*
X252624000Y-96317000D03*
X204000000Y-208150000D03*
X202900000Y-150850000D03*
X187200000Y-197400000D03*
D23*
%TO.N,+5V*%
X181800000Y-199200000D03*
D24*
X208400000Y-146000000D03*
X227600000Y-195400000D03*
X194800000Y-196000000D03*
X195600000Y-196000000D03*
X250800000Y-154800000D03*
X193000000Y-195000000D03*
X239200000Y-193200000D03*
D23*
X190200000Y-110200000D03*
D24*
X207000000Y-146000000D03*
X247800000Y-154800000D03*
D23*
X190200000Y-125000000D03*
D24*
X250800000Y-156400000D03*
X225600000Y-193200000D03*
X247800000Y-156400000D03*
X208000000Y-143600000D03*
X208400000Y-147000000D03*
D23*
X208000000Y-141600000D03*
D24*
X207000000Y-141600000D03*
D23*
X181750000Y-176400000D03*
D24*
X225600000Y-194000000D03*
D23*
X181750000Y-154000000D03*
D24*
X249800000Y-155600000D03*
X248800000Y-154800000D03*
D23*
X184600000Y-175200000D03*
D24*
X195600000Y-195000000D03*
X192200000Y-196000000D03*
D23*
X210400000Y-180800000D03*
D24*
X249800000Y-154800000D03*
D23*
X186800000Y-169600000D03*
D24*
X238200000Y-193200000D03*
X247800000Y-155600000D03*
X224600000Y-194800000D03*
X194800000Y-195000000D03*
X192200000Y-195000000D03*
X208000000Y-142600000D03*
X250800000Y-155600000D03*
X224600000Y-194000000D03*
D23*
X208400000Y-166000000D03*
D24*
X207000000Y-143600000D03*
X248800000Y-156400000D03*
X193000000Y-196000000D03*
X225600000Y-194800000D03*
D23*
X180800000Y-106400000D03*
D24*
X226400000Y-194000000D03*
X228200000Y-196000000D03*
X224600000Y-195600000D03*
X238200000Y-194000000D03*
X227000000Y-196000000D03*
X248800000Y-155600000D03*
X249800000Y-156400000D03*
X207000000Y-142600000D03*
X224600000Y-193200000D03*
X239200000Y-194800000D03*
X207000000Y-147000000D03*
X239200000Y-194000000D03*
D23*
%TO.N,+5V_LP*%
X199400000Y-102800000D03*
D24*
%TO.N,/current_sense/ISNS_C_SEL*%
X185000000Y-199900000D03*
X202800000Y-187650000D03*
D23*
%TO.N,+13V5_GATE*%
X266650000Y-140250000D03*
X224000000Y-198000000D03*
D24*
X259200000Y-143400000D03*
D23*
X251850000Y-127050000D03*
D24*
X259200000Y-142600000D03*
X227525000Y-173600000D03*
X227550000Y-164250000D03*
X227347499Y-181947499D03*
X260000000Y-143400000D03*
X260000000Y-142600000D03*
X260000000Y-144200000D03*
D23*
X249800000Y-198600000D03*
X227600000Y-187800000D03*
D24*
X259200000Y-144200000D03*
D23*
X199400000Y-206600000D03*
D24*
%TO.N,/FLT_OC_C_15V*%
X254950000Y-203200000D03*
%TO.N,/ISNS_C_RAW*%
X178000000Y-189200000D03*
X194000000Y-203350000D03*
D23*
%TO.N,+15V_ISO*%
X142400000Y-193000000D03*
D24*
%TO.N,/current_sense/SHIELD_LEM*%
X164900000Y-187500000D03*
D23*
%TO.N,ISO_COM*%
X165800000Y-169400000D03*
X165200000Y-184200000D03*
X165800000Y-197000000D03*
X165800000Y-173600000D03*
X165800000Y-163600000D03*
X176000000Y-184200000D03*
D25*
%TO.N,PGND_MOD*%
X219700000Y-207950000D03*
%TO.N,+24V_MOD*%
X260800000Y-208200000D03*
X267950000Y-125700000D03*
D23*
%TO.N,/gate_drive/PWM_UL_15V*%
X229200000Y-189700000D03*
X243936459Y-202538541D03*
%TO.N,+3V3*%
X242800000Y-188495000D03*
X202800000Y-114000000D03*
D24*
X247600000Y-161600000D03*
D23*
X262200000Y-189000000D03*
X244600000Y-121600000D03*
X240751992Y-130151992D03*
D24*
X244200000Y-161600000D03*
D23*
X233000000Y-119200000D03*
D24*
X245400000Y-163600000D03*
D23*
X202800000Y-135800000D03*
D24*
X244200000Y-163600000D03*
X245400000Y-161600000D03*
D23*
X201000000Y-193000000D03*
D24*
X247600000Y-162700000D03*
X245400000Y-162600000D03*
D23*
X241600000Y-134200000D03*
X205200000Y-127950000D03*
D24*
X244200000Y-164600000D03*
D23*
X198494051Y-193105949D03*
D24*
X244200000Y-162600000D03*
D23*
X202100000Y-127950000D03*
D24*
X245400000Y-164600000D03*
D23*
X257400000Y-187000000D03*
X247000000Y-188800000D03*
D24*
%TO.N,/current_sense/ISNS_VREF*%
X212125000Y-173775000D03*
X205600000Y-181050000D03*
X173000000Y-151800000D03*
X174650000Y-172450000D03*
X173000000Y-196800000D03*
X183800000Y-165000000D03*
X173000000Y-165000000D03*
D23*
%TO.N,/gate_drive/PWM_UH_15V*%
X229892997Y-190488833D03*
X241604164Y-202200000D03*
D24*
%TO.N,/gate_drive/MOD_AUX15V_2*%
X174196930Y-218399996D03*
%TO.N,/encoder/ENC_VREF_HI*%
X210224999Y-126625000D03*
X217800000Y-112400000D03*
X217175000Y-126375000D03*
X203800000Y-120800000D03*
%TO.N,/ISNS_RTN*%
X182600000Y-193000000D03*
X182600000Y-148200000D03*
X209000000Y-203700000D03*
X182600000Y-170200000D03*
D23*
%TO.N,/gate_drive/PWM_VH_15V*%
X225700000Y-188700000D03*
X237950000Y-202200000D03*
D24*
%TO.N,/FLT_OC_B_15V*%
X250700000Y-203200000D03*
D23*
%TO.N,/gate_drive/PWM_WH_15V*%
X231450000Y-202200000D03*
X220700000Y-186950000D03*
D24*
%TO.N,/encoder/ENC_VDD*%
X209800000Y-131600000D03*
X173400000Y-106600000D03*
X209600000Y-123800000D03*
X211800000Y-113150000D03*
X211800000Y-115100000D03*
D23*
%TO.N,/vehicle_io/CAN_L*%
X182300000Y-100500000D03*
X179500000Y-93300000D03*
D24*
%TO.N,/VBUS_RTN*%
X219000000Y-206000000D03*
X228800000Y-205400000D03*
D23*
%TO.N,/gate_drive/PWM_WL_15V*%
X234700000Y-202200000D03*
X221950000Y-186950000D03*
D24*
%TO.N,/ENC_COS_ADC*%
X203513658Y-123043807D03*
X198400000Y-123000000D03*
X199800000Y-128325000D03*
%TO.N,/VBUS_ADC*%
X211650000Y-127700000D03*
X198350000Y-121050000D03*
X214150000Y-139100000D03*
X219200000Y-193000000D03*
%TO.N,/gate_drive/MOD_AUX15V_1*%
X174200000Y-217600000D03*
%TO.N,/FLT_OC_A_15V*%
X247200000Y-203200000D03*
D23*
%TO.N,/gate_drive/PWM_VL_15V*%
X240402082Y-202200000D03*
X224051041Y-187848959D03*
D24*
%TO.N,/FLT_OT_15V*%
X258950000Y-203200000D03*
%TO.N,/FLT_OV_15V*%
X194000000Y-200800000D03*
X202400000Y-205400000D03*
D23*
%TO.N,/gate_drive/GATE_EN_3V3*%
X225450000Y-186950000D03*
X225450000Y-177450000D03*
X224950000Y-167950000D03*
X230950000Y-186950000D03*
X252200000Y-218800000D03*
X231950000Y-167950000D03*
X231950000Y-177450000D03*
X233000000Y-157000000D03*
D24*
%TO.N,Net-(J5-Pin_4)*%
X212650000Y-137150000D03*
%TO.N,/NTC_1_ADC*%
X199450000Y-107400000D03*
X210050000Y-193600000D03*
%TO.N,/encoder/ENC_SIN_RAW*%
X204375000Y-109050000D03*
X217600000Y-120050000D03*
%TO.N,/launchpad/ISR_PROBE_3V3*%
X186200000Y-111000000D03*
%TO.N,/ENC_SIN_ADC*%
X204000000Y-127000000D03*
X200000000Y-124200000D03*
D25*
%TO.N,+24V_PROT*%
X262950000Y-134200000D03*
D24*
%TO.N,/SW_MAIN_3V3*%
X245400000Y-126800000D03*
%TO.N,/encoder/MOT_TEMP_RAW*%
X204500000Y-116400000D03*
X206160662Y-126539339D03*
%TO.N,/vehicle_io/SW_MAIN_RTN*%
X212450000Y-128850000D03*
%TO.N,/MOT_TEMP_ADC*%
X197775000Y-113975000D03*
X200400000Y-133800000D03*
D23*
%TO.N,/gate_drive/GATE_ILOCK_3V3*%
X244600000Y-123000000D03*
X240600000Y-156950000D03*
D24*
%TO.N,/FLT_OV_3V3*%
X186800000Y-188400000D03*
X192800000Y-193200000D03*
%TO.N,Net-(J5-Pin_3)*%
X112600000Y-130729999D03*
X212450000Y-129650000D03*
%TO.N,/power/PWR_U1_EN*%
X261750000Y-131650000D03*
%TO.N,/vehicle_io/+5V_VEH*%
X168300000Y-101500000D03*
%TO.N,/vehicle_io/SW_START_RTN*%
X212650000Y-136250000D03*
%TO.N,/current_sense/ISNS_A_SEL*%
X202600000Y-180300000D03*
X185200000Y-158400000D03*
D23*
%TO.N,/DRV_EN_3V3*%
X239600000Y-153000000D03*
D24*
%TO.N,/current_sense/ISNS_B_SEL*%
X202500000Y-183900000D03*
X185200000Y-180600000D03*
%TD*%
%TO.N,/DRV_EN_AUX_3V3*%
D26*
X239670000Y-172480000D02*
X241670000Y-170480000D01*
X241670000Y-170480000D02*
X241670000Y-164620000D01*
X241670000Y-164620000D02*
X240450000Y-163400000D01*
%TO.N,+5V*%
D27*
X206800000Y-141600000D02*
X207000000Y-141600000D01*
X207000000Y-141600000D02*
X208000000Y-141600000D01*
X190200000Y-125000000D02*
X206800000Y-141600000D01*
%TO.N,+5V_LP*%
X197600000Y-101000000D02*
X199400000Y-102800000D01*
X189000000Y-159910000D02*
X189000000Y-115400000D01*
X187400000Y-101400000D02*
X187800000Y-101000000D01*
X196490000Y-167400000D02*
X189000000Y-159910000D01*
X185400000Y-106800000D02*
X187400000Y-104800000D01*
X187800000Y-101000000D02*
X197600000Y-101000000D01*
X185400000Y-111800000D02*
X185400000Y-106800000D01*
X189000000Y-115400000D02*
X185400000Y-111800000D01*
X187400000Y-104800000D02*
X187400000Y-101400000D01*
%TO.N,+13V5_GATE*%
D28*
X224000000Y-198000000D02*
X227600000Y-194400000D01*
X227600000Y-194400000D02*
X227600000Y-187800000D01*
%TO.N,/ISNS_C_RAW*%
D29*
X194000000Y-203350000D02*
X190350000Y-203350000D01*
X178000000Y-191000000D02*
X178000000Y-189200000D01*
X190350000Y-203350000D02*
X178000000Y-191000000D01*
%TO.N,/gate_drive/SHIELD_DB37*%
D28*
X194775000Y-219275000D02*
X243400000Y-219275000D01*
X243950000Y-218725000D02*
X243950000Y-210500000D01*
X187270000Y-211770000D02*
X194775000Y-219275000D01*
X250770000Y-211770000D02*
X245220000Y-211770000D01*
X245220000Y-211770000D02*
X243950000Y-210500000D01*
X243400000Y-219275000D02*
X243950000Y-218725000D01*
%TO.N,ISO_COM*%
D27*
X176000000Y-184200000D02*
X165200000Y-184200000D01*
%TO.N,+3V3*%
X241800000Y-124400000D02*
X241800000Y-129103984D01*
X202100000Y-127950000D02*
X202800000Y-128650000D01*
X241800000Y-129103984D02*
X240751992Y-130151992D01*
X244600000Y-121600000D02*
X241800000Y-124400000D01*
X202800000Y-114000000D02*
X225200000Y-114000000D01*
X225200000Y-114000000D02*
X230400000Y-119200000D01*
X230400000Y-119200000D02*
X233000000Y-119200000D01*
X202800000Y-128650000D02*
X202800000Y-135800000D01*
%TO.N,/current_sense/ISNS_VREF*%
D29*
X212125000Y-175275000D02*
X212125000Y-173775000D01*
X206350000Y-181050000D02*
X212125000Y-175275000D01*
X205600000Y-181050000D02*
X206350000Y-181050000D01*
%TO.N,/ISNS_RTN*%
X182600000Y-148200000D02*
X182600000Y-170200000D01*
X209000000Y-203700000D02*
X200500000Y-203700000D01*
X194200000Y-197400000D02*
X200500000Y-203700000D01*
X191000000Y-194200000D02*
X191000000Y-197400000D01*
X189800000Y-193000000D02*
X182600000Y-193000000D01*
X189800000Y-193000000D02*
X191000000Y-194200000D01*
X210710000Y-205410000D02*
X210710000Y-210500000D01*
X209000000Y-203700000D02*
X210710000Y-205410000D01*
X182600000Y-170200000D02*
X182600000Y-193000000D01*
X191000000Y-197400000D02*
X194200000Y-197400000D01*
%TO.N,/encoder/ENC_VDD*%
X209800000Y-131600000D02*
X209474999Y-131274999D01*
X209474999Y-131274999D02*
X209474999Y-123925001D01*
X209474999Y-123925001D02*
X209600000Y-123800000D01*
%TO.N,/VBUS_RTN*%
X216250000Y-208750000D02*
X219000000Y-206000000D01*
X216250000Y-210500000D02*
X216250000Y-208750000D01*
%TO.N,/ENC_COS_ADC*%
X198443807Y-123043807D02*
X198400000Y-123000000D01*
X203513658Y-123043807D02*
X198443807Y-123043807D01*
X198400000Y-123000000D02*
X198400000Y-126925000D01*
X198400000Y-126925000D02*
X199800000Y-128325000D01*
%TO.N,/gate_drive/GATE_EN_3V3*%
D26*
X253220000Y-210620000D02*
X253220000Y-217780000D01*
X231950000Y-167950000D02*
X224950000Y-167950000D01*
X230950000Y-188350000D02*
X253220000Y-210620000D01*
X230950000Y-186950000D02*
X230950000Y-188350000D01*
X231950000Y-177450000D02*
X225450000Y-177450000D01*
X230950000Y-186950000D02*
X225450000Y-186950000D01*
X253220000Y-217780000D02*
X252200000Y-218800000D01*
%TO.N,/launchpad/ISR_PROBE_3V3*%
D28*
X187000000Y-111800000D02*
X186200000Y-111000000D01*
X193950000Y-114060000D02*
X191690000Y-111800000D01*
X191690000Y-111800000D02*
X187000000Y-111800000D01*
%TO.N,/MOT_TEMP_ADC*%
D29*
X201600000Y-120069488D02*
X204263658Y-122733146D01*
X200552082Y-127066044D02*
X200552082Y-133647918D01*
X204263658Y-123354468D02*
X200552082Y-127066044D01*
X200552082Y-133647918D02*
X200400000Y-133800000D01*
X197775000Y-113975000D02*
X201600000Y-117800000D01*
X201600000Y-117800000D02*
X201600000Y-120069488D01*
X204263658Y-122733146D02*
X204263658Y-123354468D01*
%TO.N,/gate_drive/GATE_ILOCK_3V3*%
D26*
X242600000Y-156950000D02*
X240600000Y-156950000D01*
X244600000Y-123000000D02*
X244600000Y-154400000D01*
X244600000Y-154400000D02*
X242000000Y-157000000D01*
%TO.N,/FLT_OV_3V3*%
D28*
X192775000Y-188400000D02*
X186800000Y-188400000D01*
X192800000Y-193200000D02*
X192775000Y-193175000D01*
X192775000Y-186355000D02*
X193950000Y-185180000D01*
X192775000Y-193175000D02*
X192775000Y-188400000D01*
X192775000Y-188400000D02*
X192775000Y-186355000D01*
%TO.N,/DRV_EN_3V3*%
D26*
X241020000Y-168590000D02*
X239670000Y-169940000D01*
X239600000Y-165420811D02*
X241020000Y-166840811D01*
X239600000Y-153000000D02*
X239600000Y-165420811D01*
X241020000Y-166840811D02*
X241020000Y-168590000D01*
%TD*%
%TA.AperFunction,Conductor*%
%TO.N,+5V*%
G36*
X249143039Y-145419685D02*
G01*
X249188794Y-145472489D01*
X249200000Y-145524000D01*
X249200000Y-152200000D01*
X251476000Y-152200000D01*
X251543039Y-152219685D01*
X251588794Y-152272489D01*
X251600000Y-152324000D01*
X251600000Y-155676000D01*
X251580315Y-155743039D01*
X251527511Y-155788794D01*
X251476000Y-155800000D01*
X246324000Y-155800000D01*
X246256961Y-155780315D01*
X246211206Y-155727511D01*
X246200000Y-155676000D01*
X246200000Y-151441784D01*
X246219685Y-151374745D01*
X246262003Y-151334395D01*
X246268716Y-151330520D01*
X246380520Y-151218716D01*
X246459577Y-151081784D01*
X246500500Y-150929057D01*
X246500500Y-150770943D01*
X246459577Y-150618216D01*
X246459573Y-150618209D01*
X246380524Y-150481290D01*
X246380518Y-150481282D01*
X246268715Y-150369479D01*
X246261999Y-150365602D01*
X246213784Y-150315034D01*
X246200000Y-150258215D01*
X246200000Y-147600000D01*
X245224500Y-147600000D01*
X245157461Y-147580315D01*
X245111706Y-147527511D01*
X245100500Y-147476000D01*
X245100500Y-145524000D01*
X245120185Y-145456961D01*
X245172989Y-145411206D01*
X245224500Y-145400000D01*
X249076000Y-145400000D01*
X249143039Y-145419685D01*
G37*
%TD.AperFunction*%
%TA.AperFunction,Conductor*%
G36*
X211543039Y-138619685D02*
G01*
X211588794Y-138672489D01*
X211600000Y-138724000D01*
X211600000Y-145400000D01*
X243975500Y-145400000D01*
X244042539Y-145419685D01*
X244088294Y-145472489D01*
X244099500Y-145524000D01*
X244099500Y-147476000D01*
X244079815Y-147543039D01*
X244027011Y-147588794D01*
X243975500Y-147600000D01*
X205924000Y-147600000D01*
X205856961Y-147580315D01*
X205811206Y-147527511D01*
X205800000Y-147476000D01*
X205800000Y-143770943D01*
X209299500Y-143770943D01*
X209299500Y-143929056D01*
X209340423Y-144081783D01*
X209340426Y-144081790D01*
X209419475Y-144218709D01*
X209419479Y-144218714D01*
X209419480Y-144218716D01*
X209531284Y-144330520D01*
X209531286Y-144330521D01*
X209531290Y-144330524D01*
X209668209Y-144409573D01*
X209668216Y-144409577D01*
X209820943Y-144450500D01*
X209820945Y-144450500D01*
X209979055Y-144450500D01*
X209979057Y-144450500D01*
X210131784Y-144409577D01*
X210268716Y-144330520D01*
X210380520Y-144218716D01*
X210459577Y-144081784D01*
X210500500Y-143929057D01*
X210500500Y-143770943D01*
X210459577Y-143618216D01*
X210459573Y-143618209D01*
X210380524Y-143481290D01*
X210380518Y-143481282D01*
X210268717Y-143369481D01*
X210268709Y-143369475D01*
X210131790Y-143290426D01*
X210131786Y-143290424D01*
X210131784Y-143290423D01*
X209979057Y-143249500D01*
X209820943Y-143249500D01*
X209668216Y-143290423D01*
X209668209Y-143290426D01*
X209531290Y-143369475D01*
X209531282Y-143369481D01*
X209419481Y-143481282D01*
X209419475Y-143481290D01*
X209340426Y-143618209D01*
X209340423Y-143618216D01*
X209299500Y-143770943D01*
X205800000Y-143770943D01*
X205800000Y-138724000D01*
X205819685Y-138656961D01*
X205872489Y-138611206D01*
X205924000Y-138600000D01*
X211476000Y-138600000D01*
X211543039Y-138619685D01*
G37*
%TD.AperFunction*%
%TD*%
%TA.AperFunction,Conductor*%
%TO.N,+3V3*%
G36*
X256774923Y-160619685D02*
G01*
X256815271Y-160662001D01*
X256851475Y-160724709D01*
X256851479Y-160724714D01*
X256851480Y-160724716D01*
X256963284Y-160836520D01*
X256963286Y-160836521D01*
X256963290Y-160836524D01*
X257100209Y-160915573D01*
X257100216Y-160915577D01*
X257252943Y-160956500D01*
X257252945Y-160956500D01*
X257411055Y-160956500D01*
X257411057Y-160956500D01*
X257563784Y-160915577D01*
X257700716Y-160836520D01*
X257812520Y-160724716D01*
X257814283Y-160721661D01*
X257848729Y-160662001D01*
X257899295Y-160613785D01*
X257956116Y-160600000D01*
X259676000Y-160600000D01*
X259743039Y-160619685D01*
X259788794Y-160672489D01*
X259800000Y-160724000D01*
X259800000Y-161841757D01*
X259780315Y-161908796D01*
X259727511Y-161954551D01*
X259658353Y-161964495D01*
X259643916Y-161961534D01*
X259640057Y-161960500D01*
X259481943Y-161960500D01*
X259329216Y-162001423D01*
X259329209Y-162001426D01*
X259192290Y-162080475D01*
X259192282Y-162080481D01*
X259080481Y-162192282D01*
X259080475Y-162192290D01*
X259001426Y-162329209D01*
X259001423Y-162329216D01*
X258960500Y-162481943D01*
X258960500Y-162640056D01*
X259001423Y-162792783D01*
X259001426Y-162792790D01*
X259080475Y-162929709D01*
X259080479Y-162929714D01*
X259080480Y-162929716D01*
X259192284Y-163041520D01*
X259192286Y-163041521D01*
X259192290Y-163041524D01*
X259280907Y-163092686D01*
X259329216Y-163120577D01*
X259481943Y-163161500D01*
X259481945Y-163161500D01*
X259640054Y-163161500D01*
X259640057Y-163161500D01*
X259643908Y-163160468D01*
X259647282Y-163160548D01*
X259648113Y-163160439D01*
X259648130Y-163160568D01*
X259713756Y-163162131D01*
X259771619Y-163201293D01*
X259799123Y-163265522D01*
X259800000Y-163280243D01*
X259800000Y-187600000D01*
X263476000Y-187600000D01*
X263543039Y-187619685D01*
X263588794Y-187672489D01*
X263600000Y-187724000D01*
X263600000Y-194676000D01*
X263580315Y-194743039D01*
X263527511Y-194788794D01*
X263476000Y-194800000D01*
X258174500Y-194800000D01*
X258107461Y-194780315D01*
X258061706Y-194727511D01*
X258050500Y-194676000D01*
X258050500Y-194633945D01*
X258050500Y-194633943D01*
X258009577Y-194481216D01*
X257989987Y-194447284D01*
X257930524Y-194344290D01*
X257930518Y-194344282D01*
X257914248Y-194328012D01*
X257880763Y-194266689D01*
X257885747Y-194196997D01*
X257927619Y-194141064D01*
X257939925Y-194132945D01*
X257959716Y-194121520D01*
X258071520Y-194009716D01*
X258150577Y-193872784D01*
X258191500Y-193720057D01*
X258191500Y-193561943D01*
X258150577Y-193409216D01*
X258109183Y-193337518D01*
X258071524Y-193272290D01*
X258071518Y-193272282D01*
X257959717Y-193160481D01*
X257959709Y-193160475D01*
X257822790Y-193081426D01*
X257822786Y-193081424D01*
X257822784Y-193081423D01*
X257670057Y-193040500D01*
X257511943Y-193040500D01*
X257359216Y-193081423D01*
X257359209Y-193081426D01*
X257222290Y-193160475D01*
X257222282Y-193160481D01*
X257110481Y-193272282D01*
X257110475Y-193272290D01*
X257031426Y-193409209D01*
X257031423Y-193409216D01*
X256990500Y-193561943D01*
X256990500Y-193720056D01*
X257031423Y-193872783D01*
X257031426Y-193872790D01*
X257110475Y-194009709D01*
X257110481Y-194009717D01*
X257126751Y-194025987D01*
X257160236Y-194087310D01*
X257155252Y-194157002D01*
X257113380Y-194212935D01*
X257101073Y-194221053D01*
X257081290Y-194232475D01*
X257081282Y-194232481D01*
X256969481Y-194344282D01*
X256969475Y-194344290D01*
X256890426Y-194481209D01*
X256890423Y-194481216D01*
X256849500Y-194633943D01*
X256849500Y-194676000D01*
X256829815Y-194743039D01*
X256777011Y-194788794D01*
X256725500Y-194800000D01*
X245303544Y-194800000D01*
X245236505Y-194780315D01*
X245190750Y-194727511D01*
X245183771Y-194708100D01*
X245150577Y-194584216D01*
X245115068Y-194522712D01*
X245071524Y-194447290D01*
X245071518Y-194447282D01*
X244959717Y-194335481D01*
X244959709Y-194335475D01*
X244822790Y-194256426D01*
X244822786Y-194256424D01*
X244822784Y-194256423D01*
X244670057Y-194215500D01*
X244511943Y-194215500D01*
X244359216Y-194256423D01*
X244359209Y-194256426D01*
X244222290Y-194335475D01*
X244222282Y-194335481D01*
X244110481Y-194447282D01*
X244110475Y-194447290D01*
X244031426Y-194584209D01*
X244031421Y-194584220D01*
X244024116Y-194611484D01*
X243987751Y-194671144D01*
X243924904Y-194701672D01*
X243855528Y-194693377D01*
X243801651Y-194648891D01*
X243784568Y-194611484D01*
X243759577Y-194518216D01*
X243738211Y-194481209D01*
X243680524Y-194381290D01*
X243680518Y-194381282D01*
X243568717Y-194269481D01*
X243568709Y-194269475D01*
X243431790Y-194190426D01*
X243431786Y-194190424D01*
X243431784Y-194190423D01*
X243279057Y-194149500D01*
X243120943Y-194149500D01*
X242968216Y-194190423D01*
X242968209Y-194190426D01*
X242831290Y-194269475D01*
X242831282Y-194269481D01*
X242719481Y-194381282D01*
X242719475Y-194381290D01*
X242640422Y-194518215D01*
X242638560Y-194522712D01*
X242594719Y-194577115D01*
X242528424Y-194599179D01*
X242460725Y-194581899D01*
X242413115Y-194530761D01*
X242400000Y-194475258D01*
X242400000Y-192777943D01*
X246818500Y-192777943D01*
X246818500Y-192936057D01*
X246857452Y-193081426D01*
X246859423Y-193088783D01*
X246859426Y-193088790D01*
X246938475Y-193225709D01*
X246938479Y-193225714D01*
X246938480Y-193225716D01*
X247050284Y-193337520D01*
X247050286Y-193337521D01*
X247050290Y-193337524D01*
X247174454Y-193409209D01*
X247187216Y-193416577D01*
X247339943Y-193457500D01*
X247339945Y-193457500D01*
X247498055Y-193457500D01*
X247498057Y-193457500D01*
X247650784Y-193416577D01*
X247787716Y-193337520D01*
X247899520Y-193225716D01*
X247978577Y-193088784D01*
X248019500Y-192936057D01*
X248019500Y-192777943D01*
X247978577Y-192625216D01*
X247978573Y-192625209D01*
X247899524Y-192488290D01*
X247899518Y-192488282D01*
X247787717Y-192376481D01*
X247787709Y-192376475D01*
X247650790Y-192297426D01*
X247650786Y-192297424D01*
X247650784Y-192297423D01*
X247498057Y-192256500D01*
X247339943Y-192256500D01*
X247187216Y-192297423D01*
X247187209Y-192297426D01*
X247050290Y-192376475D01*
X247050282Y-192376481D01*
X246938481Y-192488282D01*
X246938475Y-192488290D01*
X246859426Y-192625209D01*
X246859423Y-192625216D01*
X246818500Y-192777943D01*
X242400000Y-192777943D01*
X242400000Y-191695943D01*
X259849500Y-191695943D01*
X259849500Y-191854056D01*
X259890423Y-192006783D01*
X259890426Y-192006790D01*
X259969475Y-192143709D01*
X259969479Y-192143714D01*
X259969480Y-192143716D01*
X260081284Y-192255520D01*
X260081286Y-192255521D01*
X260081290Y-192255524D01*
X260153868Y-192297426D01*
X260218216Y-192334577D01*
X260370943Y-192375500D01*
X260370945Y-192375500D01*
X260529055Y-192375500D01*
X260529057Y-192375500D01*
X260681784Y-192334577D01*
X260818716Y-192255520D01*
X260930520Y-192143716D01*
X261009577Y-192006784D01*
X261050500Y-191854057D01*
X261050500Y-191695943D01*
X261009577Y-191543216D01*
X261009573Y-191543209D01*
X260930524Y-191406290D01*
X260930518Y-191406282D01*
X260818717Y-191294481D01*
X260818709Y-191294475D01*
X260681790Y-191215426D01*
X260681786Y-191215424D01*
X260681784Y-191215423D01*
X260529057Y-191174500D01*
X260370943Y-191174500D01*
X260218216Y-191215423D01*
X260218209Y-191215426D01*
X260081290Y-191294475D01*
X260081282Y-191294481D01*
X259969481Y-191406282D01*
X259969475Y-191406290D01*
X259890426Y-191543209D01*
X259890423Y-191543216D01*
X259849500Y-191695943D01*
X242400000Y-191695943D01*
X242400000Y-187724000D01*
X242419685Y-187656961D01*
X242472489Y-187611206D01*
X242524000Y-187600000D01*
X255000000Y-187600000D01*
X255000000Y-185770943D01*
X258299500Y-185770943D01*
X258299500Y-185929056D01*
X258340423Y-186081783D01*
X258340426Y-186081790D01*
X258419475Y-186218709D01*
X258419479Y-186218714D01*
X258419480Y-186218716D01*
X258531284Y-186330520D01*
X258531286Y-186330521D01*
X258531290Y-186330524D01*
X258668209Y-186409573D01*
X258668216Y-186409577D01*
X258820943Y-186450500D01*
X258820945Y-186450500D01*
X258979055Y-186450500D01*
X258979057Y-186450500D01*
X259131784Y-186409577D01*
X259268716Y-186330520D01*
X259380520Y-186218716D01*
X259459577Y-186081784D01*
X259500500Y-185929057D01*
X259500500Y-185770943D01*
X259459577Y-185618216D01*
X259425722Y-185559577D01*
X259380524Y-185481290D01*
X259380518Y-185481282D01*
X259268717Y-185369481D01*
X259268709Y-185369475D01*
X259131790Y-185290426D01*
X259131786Y-185290424D01*
X259131784Y-185290423D01*
X258979057Y-185249500D01*
X258820943Y-185249500D01*
X258668216Y-185290423D01*
X258668209Y-185290426D01*
X258531290Y-185369475D01*
X258531282Y-185369481D01*
X258419481Y-185481282D01*
X258419475Y-185481290D01*
X258340426Y-185618209D01*
X258340423Y-185618216D01*
X258299500Y-185770943D01*
X255000000Y-185770943D01*
X255000000Y-178770943D01*
X258299500Y-178770943D01*
X258299500Y-178929056D01*
X258340423Y-179081783D01*
X258340426Y-179081790D01*
X258419475Y-179218709D01*
X258419479Y-179218714D01*
X258419480Y-179218716D01*
X258531284Y-179330520D01*
X258531286Y-179330521D01*
X258531290Y-179330524D01*
X258668209Y-179409573D01*
X258668216Y-179409577D01*
X258820943Y-179450500D01*
X258820945Y-179450500D01*
X258979055Y-179450500D01*
X258979057Y-179450500D01*
X259131784Y-179409577D01*
X259268716Y-179330520D01*
X259380520Y-179218716D01*
X259459577Y-179081784D01*
X259500500Y-178929057D01*
X259500500Y-178770943D01*
X259459577Y-178618216D01*
X259459573Y-178618209D01*
X259380524Y-178481290D01*
X259380518Y-178481282D01*
X259268717Y-178369481D01*
X259268709Y-178369475D01*
X259131790Y-178290426D01*
X259131786Y-178290424D01*
X259131784Y-178290423D01*
X258979057Y-178249500D01*
X258820943Y-178249500D01*
X258668216Y-178290423D01*
X258668209Y-178290426D01*
X258531290Y-178369475D01*
X258531282Y-178369481D01*
X258419481Y-178481282D01*
X258419475Y-178481290D01*
X258340426Y-178618209D01*
X258340423Y-178618216D01*
X258299500Y-178770943D01*
X255000000Y-178770943D01*
X255000000Y-171770943D01*
X258299500Y-171770943D01*
X258299500Y-171929056D01*
X258340423Y-172081783D01*
X258340426Y-172081790D01*
X258419475Y-172218709D01*
X258419479Y-172218714D01*
X258419480Y-172218716D01*
X258531284Y-172330520D01*
X258531286Y-172330521D01*
X258531290Y-172330524D01*
X258668209Y-172409573D01*
X258668216Y-172409577D01*
X258820943Y-172450500D01*
X258820945Y-172450500D01*
X258979055Y-172450500D01*
X258979057Y-172450500D01*
X259131784Y-172409577D01*
X259268716Y-172330520D01*
X259380520Y-172218716D01*
X259459577Y-172081784D01*
X259500500Y-171929057D01*
X259500500Y-171770943D01*
X259459577Y-171618216D01*
X259459573Y-171618209D01*
X259380524Y-171481290D01*
X259380518Y-171481282D01*
X259268717Y-171369481D01*
X259268709Y-171369475D01*
X259131790Y-171290426D01*
X259131786Y-171290424D01*
X259131784Y-171290423D01*
X258979057Y-171249500D01*
X258820943Y-171249500D01*
X258668216Y-171290423D01*
X258668209Y-171290426D01*
X258531290Y-171369475D01*
X258531282Y-171369481D01*
X258419481Y-171481282D01*
X258419475Y-171481290D01*
X258340426Y-171618209D01*
X258340423Y-171618216D01*
X258299500Y-171770943D01*
X255000000Y-171770943D01*
X255000000Y-166245943D01*
X257549500Y-166245943D01*
X257549500Y-166404057D01*
X257563290Y-166455520D01*
X257590423Y-166556783D01*
X257590426Y-166556790D01*
X257669475Y-166693709D01*
X257669479Y-166693714D01*
X257669480Y-166693716D01*
X257781284Y-166805520D01*
X257781286Y-166805521D01*
X257781290Y-166805524D01*
X257918209Y-166884573D01*
X257918216Y-166884577D01*
X258070943Y-166925500D01*
X258070945Y-166925500D01*
X258229055Y-166925500D01*
X258229057Y-166925500D01*
X258381784Y-166884577D01*
X258518716Y-166805520D01*
X258630520Y-166693716D01*
X258709577Y-166556784D01*
X258750500Y-166404057D01*
X258750500Y-166245943D01*
X258709577Y-166093216D01*
X258686969Y-166054057D01*
X258630524Y-165956290D01*
X258630518Y-165956282D01*
X258518717Y-165844481D01*
X258518709Y-165844475D01*
X258381790Y-165765426D01*
X258381786Y-165765424D01*
X258381784Y-165765423D01*
X258229057Y-165724500D01*
X258070943Y-165724500D01*
X257918216Y-165765423D01*
X257918209Y-165765426D01*
X257781290Y-165844475D01*
X257781282Y-165844481D01*
X257669481Y-165956282D01*
X257669475Y-165956290D01*
X257590426Y-166093209D01*
X257590423Y-166093216D01*
X257549500Y-166245943D01*
X255000000Y-166245943D01*
X255000000Y-165631414D01*
X255019685Y-165564375D01*
X255072489Y-165518620D01*
X255141647Y-165508676D01*
X255156067Y-165511633D01*
X255233943Y-165532500D01*
X255233947Y-165532500D01*
X255392055Y-165532500D01*
X255392057Y-165532500D01*
X255544784Y-165491577D01*
X255681716Y-165412520D01*
X255793520Y-165300716D01*
X255872577Y-165163784D01*
X255913500Y-165011057D01*
X255913500Y-164852943D01*
X255872577Y-164700216D01*
X255872573Y-164700209D01*
X255793524Y-164563290D01*
X255793518Y-164563282D01*
X255681717Y-164451481D01*
X255681709Y-164451475D01*
X255544790Y-164372426D01*
X255544786Y-164372424D01*
X255544784Y-164372423D01*
X255392057Y-164331500D01*
X255233943Y-164331500D01*
X255081216Y-164372423D01*
X255081209Y-164372426D01*
X254944290Y-164451475D01*
X254944282Y-164451481D01*
X254832481Y-164563282D01*
X254832475Y-164563290D01*
X254753426Y-164700209D01*
X254753423Y-164700216D01*
X254712500Y-164852943D01*
X254712500Y-165011058D01*
X254721302Y-165043908D01*
X254719639Y-165113758D01*
X254680475Y-165171620D01*
X254616247Y-165199123D01*
X254601527Y-165200000D01*
X243524000Y-165200000D01*
X243456961Y-165180315D01*
X243411206Y-165127511D01*
X243400000Y-165076000D01*
X243400000Y-160724000D01*
X243419685Y-160656961D01*
X243472489Y-160611206D01*
X243524000Y-160600000D01*
X256707884Y-160600000D01*
X256774923Y-160619685D01*
G37*
%TD.AperFunction*%
%TD*%
%TA.AperFunction,Conductor*%
%TO.N,+5V*%
G36*
X195943039Y-194019685D02*
G01*
X195988794Y-194072489D01*
X196000000Y-194124000D01*
X196000000Y-196276000D01*
X195980315Y-196343039D01*
X195927511Y-196388794D01*
X195876000Y-196400000D01*
X191924000Y-196400000D01*
X191856961Y-196380315D01*
X191811206Y-196327511D01*
X191800000Y-196276000D01*
X191800000Y-194124000D01*
X191819685Y-194056961D01*
X191872489Y-194011206D01*
X191924000Y-194000000D01*
X195876000Y-194000000D01*
X195943039Y-194019685D01*
G37*
%TD.AperFunction*%
%TD*%
D30*
X240450000Y-163400000D03*
X234400000Y-153000000D03*
D31*
X254020000Y-149575000D03*
X182000000Y-209800000D03*
X167900000Y-170850000D03*
X129400000Y-91350000D03*
X256682000Y-218519000D03*
X160900000Y-101850000D03*
X259150000Y-198825000D03*
X183800000Y-152600000D03*
X211693000Y-207681000D03*
X205600000Y-136800000D03*
X200993000Y-198517000D03*
X272500000Y-217350000D03*
X182000000Y-210800000D03*
X258670000Y-135456000D03*
X266323000Y-164050000D03*
X204400000Y-134800000D03*
X153400000Y-91350000D03*
X255400000Y-91350000D03*
X202900000Y-101850000D03*
X209900000Y-157850000D03*
X272886000Y-153816000D03*
X237650000Y-148325000D03*
X189900000Y-136850000D03*
X251900000Y-108850000D03*
X257591000Y-193641000D03*
X237900000Y-101850000D03*
X198207000Y-107343000D03*
X244900000Y-108850000D03*
X202825000Y-189500000D03*
X263942000Y-134733000D03*
X189400000Y-91350000D03*
X237641000Y-135116000D03*
X206800000Y-200600000D03*
X173870000Y-110150000D03*
X139900000Y-115850000D03*
X216900000Y-157850000D03*
X216900000Y-122850000D03*
X176863000Y-172593000D03*
X203275000Y-185750000D03*
X180900000Y-163850000D03*
X213417000Y-116138000D03*
X234600000Y-159850000D03*
X153900000Y-108850000D03*
X201550000Y-107325000D03*
X236044000Y-205618000D03*
X129400000Y-115350000D03*
X251795000Y-102750000D03*
X252900000Y-116850000D03*
X147400000Y-91350000D03*
X170600000Y-200200000D03*
X264850000Y-147450000D03*
X247419000Y-192857000D03*
X210900000Y-122850000D03*
X265900000Y-206850000D03*
X230900000Y-150850000D03*
X232969000Y-160268000D03*
X180900000Y-191850000D03*
X179800000Y-154400000D03*
X230193000Y-112006000D03*
X235750000Y-130300000D03*
X203575000Y-178400000D03*
X195400000Y-91350000D03*
X243400000Y-91350000D03*
X258900000Y-101850000D03*
X272831000Y-125611000D03*
X261400000Y-91350000D03*
X173450000Y-107950000D03*
X230125000Y-180105000D03*
X244225000Y-197600000D03*
X239169000Y-205518000D03*
X202575000Y-108800000D03*
X267400000Y-218450000D03*
X272200000Y-132600000D03*
X216900000Y-150850000D03*
X241825000Y-204825000D03*
X187900000Y-115850000D03*
X262750000Y-149100000D03*
X139900000Y-136850000D03*
X187200000Y-154000000D03*
X174900000Y-213850000D03*
X264900000Y-121850000D03*
X260960000Y-135694000D03*
X266400000Y-160800000D03*
X210884000Y-110934000D03*
X230900000Y-122850000D03*
X182000000Y-208800000D03*
X250520000Y-146650000D03*
X168200000Y-195800000D03*
X181900000Y-107850000D03*
X234800000Y-164800000D03*
X169750000Y-124675000D03*
X153900000Y-101850000D03*
X258275000Y-197600000D03*
X167900000Y-207850000D03*
X176858000Y-150333000D03*
X216900000Y-164850000D03*
X186200000Y-152600000D03*
X267400000Y-91350000D03*
X222900000Y-185850000D03*
X160575000Y-124050000D03*
X221817000Y-106328000D03*
X209900000Y-164850000D03*
X265900000Y-178850000D03*
X265900000Y-199850000D03*
X261220000Y-122900000D03*
X168900000Y-136850000D03*
X146900000Y-115850000D03*
X201375000Y-173275000D03*
X204000000Y-200600000D03*
X141400000Y-91350000D03*
X191875000Y-98250000D03*
X188900000Y-193850000D03*
X205400000Y-185800000D03*
X205400000Y-186800000D03*
X231400000Y-91350000D03*
X251900000Y-122850000D03*
X265900000Y-185850000D03*
X216900000Y-135850000D03*
X248841000Y-207566000D03*
X201400000Y-91350000D03*
X272500000Y-175350000D03*
X266400000Y-161600000D03*
X272500000Y-103350000D03*
X167900000Y-108850000D03*
X272500000Y-199350000D03*
X237400000Y-91350000D03*
X228692000Y-173427000D03*
X257750000Y-205925000D03*
X180000000Y-176000000D03*
X250925000Y-204700000D03*
X167900000Y-157850000D03*
X272500000Y-91350000D03*
X202900000Y-157850000D03*
X179800000Y-153600000D03*
X249400000Y-91350000D03*
X169600000Y-197000000D03*
X174900000Y-122850000D03*
X261986000Y-217524000D03*
X245900000Y-136850000D03*
X209916000Y-209016000D03*
X223900000Y-143850000D03*
X230900000Y-129850000D03*
X206975000Y-135600000D03*
X260595000Y-119450000D03*
X159400000Y-91350000D03*
X262550000Y-137475000D03*
X181900000Y-136850000D03*
X202900000Y-143850000D03*
X214582000Y-193381000D03*
X265363000Y-134403000D03*
X264520000Y-115450000D03*
X160625000Y-119800000D03*
X187000000Y-175000000D03*
X244591000Y-194816000D03*
X257625000Y-128650000D03*
X251900000Y-136850000D03*
X229900000Y-136850000D03*
X216900000Y-185850000D03*
X216900000Y-171850000D03*
X216900000Y-130850000D03*
X247718000Y-218556000D03*
X204000000Y-198400000D03*
X190650000Y-169325000D03*
X217800000Y-197200000D03*
X272500000Y-205350000D03*
X233482000Y-182481000D03*
X182000000Y-211800000D03*
X195900000Y-150850000D03*
X242400000Y-185400000D03*
X252900000Y-157850000D03*
X230638000Y-178769000D03*
X167900000Y-143850000D03*
X183400000Y-91350000D03*
X182000000Y-213600000D03*
X219400000Y-91350000D03*
X205400000Y-188800000D03*
X206800000Y-201600000D03*
X256632000Y-214481000D03*
X209900000Y-143850000D03*
X179400000Y-199400000D03*
X271200000Y-132600000D03*
X231200000Y-116000000D03*
X129400000Y-121350000D03*
X251900000Y-198850000D03*
X135400000Y-91350000D03*
X222900000Y-193850000D03*
X195900000Y-143850000D03*
X243200000Y-194750000D03*
X146900000Y-101850000D03*
X223900000Y-170850000D03*
X169600000Y-186875000D03*
X258900000Y-185850000D03*
X204409000Y-205684000D03*
X228542000Y-182777000D03*
X198491000Y-138182000D03*
X244900000Y-115850000D03*
X221750000Y-103685000D03*
X231400000Y-218450000D03*
X167900000Y-150850000D03*
X183400000Y-211800000D03*
X129400000Y-139350000D03*
X235716000Y-157391000D03*
X197987000Y-118664000D03*
X245900000Y-150850000D03*
X272500000Y-145350000D03*
X272500000Y-169350000D03*
X240425000Y-158625000D03*
X176420000Y-149490000D03*
X183400000Y-208800000D03*
X245900000Y-142850000D03*
X195900000Y-156850000D03*
X223900000Y-150850000D03*
X258150000Y-166325000D03*
X233632000Y-163931000D03*
X258670000Y-129544000D03*
X230565000Y-113050000D03*
X209900000Y-150850000D03*
X258900000Y-108850000D03*
X178200000Y-199400000D03*
X217900000Y-108850000D03*
X225700000Y-104750000D03*
X183200000Y-197600000D03*
X174900000Y-136850000D03*
X176475000Y-194600000D03*
X178200000Y-198600000D03*
X272500000Y-181350000D03*
X129400000Y-133350000D03*
X187900000Y-142850000D03*
X272500000Y-121350000D03*
X205400000Y-200600000D03*
X233582000Y-173281000D03*
X205593000Y-172408000D03*
X153900000Y-143850000D03*
X204000000Y-201600000D03*
X223900000Y-157850000D03*
X129400000Y-109350000D03*
X167900000Y-129850000D03*
X167900000Y-164850000D03*
X171600000Y-201200000D03*
X265600000Y-160800000D03*
X272500000Y-97350000D03*
X205400000Y-189800000D03*
X187900000Y-122850000D03*
X185000000Y-152600000D03*
X202825000Y-182100000D03*
X187900000Y-109850000D03*
X250050000Y-131650000D03*
X213400000Y-91350000D03*
X188900000Y-185850000D03*
X207400000Y-91350000D03*
X222900000Y-128850000D03*
X183400000Y-213600000D03*
X212250000Y-182150000D03*
X176370000Y-147590000D03*
X179400000Y-198600000D03*
X153900000Y-129850000D03*
X245394000Y-209432000D03*
X266900000Y-108850000D03*
X245900000Y-129850000D03*
X223900000Y-115850000D03*
X178800000Y-153600000D03*
X202316000Y-196916000D03*
X232994000Y-205518000D03*
X232024000Y-157831000D03*
X213525000Y-102260000D03*
X169650000Y-181175000D03*
X205400000Y-201600000D03*
X236000000Y-164800000D03*
X251900000Y-178850000D03*
X146900000Y-108850000D03*
X232919000Y-169618000D03*
X244900000Y-157850000D03*
X178800000Y-154400000D03*
X208293000Y-201993000D03*
X244900000Y-101850000D03*
X197800000Y-115200000D03*
X176375000Y-169850000D03*
X181900000Y-142850000D03*
X205600000Y-133600000D03*
X175900000Y-185850000D03*
X183400000Y-210800000D03*
X186200000Y-175000000D03*
X168200000Y-197000000D03*
X260450000Y-191775000D03*
X244900000Y-171850000D03*
X187829000Y-174921000D03*
X272500000Y-211350000D03*
X257332000Y-160356000D03*
X180000000Y-177000000D03*
X139900000Y-129850000D03*
X178400000Y-203600000D03*
X189900000Y-212850000D03*
X183400000Y-209800000D03*
X205400000Y-187800000D03*
X202600000Y-201600000D03*
X237400000Y-218450000D03*
X200125000Y-169550000D03*
X229900000Y-199850000D03*
X200121000Y-197263000D03*
X225400000Y-91350000D03*
X230300000Y-170750000D03*
X200175000Y-198275000D03*
X230925000Y-159500000D03*
X205600000Y-134800000D03*
X174900000Y-165850000D03*
X199550000Y-208150000D03*
X204400000Y-135800000D03*
X177400000Y-91350000D03*
X188900000Y-164850000D03*
X181900000Y-122850000D03*
X139900000Y-101850000D03*
X244406000Y-205568000D03*
X242344000Y-205568000D03*
X129400000Y-145350000D03*
X178800000Y-176000000D03*
X202600000Y-200600000D03*
X208900000Y-193850000D03*
X235950000Y-148325000D03*
X182000000Y-212600000D03*
X169600000Y-195800000D03*
X242500000Y-165975000D03*
X199739000Y-113911000D03*
X195900000Y-164850000D03*
X216900000Y-143850000D03*
X234200000Y-168400000D03*
X197800000Y-117600000D03*
X235600000Y-131200000D03*
X205600000Y-135800000D03*
X265900000Y-192850000D03*
X223283000Y-204058000D03*
X208234000Y-205684000D03*
X225400000Y-218450000D03*
X206425000Y-133600000D03*
X204400000Y-136800000D03*
X265900000Y-171850000D03*
X188900000Y-206850000D03*
X265900000Y-213850000D03*
X146900000Y-143850000D03*
X129400000Y-127350000D03*
X167900000Y-213850000D03*
X178800000Y-177000000D03*
X249250000Y-208300000D03*
X228767000Y-164072000D03*
X255313000Y-164932000D03*
X177150000Y-99700000D03*
X233200000Y-168400000D03*
X251900000Y-171850000D03*
X232819000Y-178818000D03*
X216900000Y-178850000D03*
X183400000Y-212600000D03*
X272020000Y-115400000D03*
X272500000Y-163350000D03*
X223900000Y-178850000D03*
X175900000Y-116850000D03*
X245900000Y-123850000D03*
X197306000Y-201643000D03*
X245900000Y-178850000D03*
X258900000Y-178850000D03*
X215566000Y-207859000D03*
X174900000Y-157850000D03*
X272500000Y-187350000D03*
X204800000Y-124200000D03*
X176425000Y-192700000D03*
X241600000Y-185000000D03*
X272500000Y-193350000D03*
X257520000Y-149575000D03*
X223900000Y-122850000D03*
X161900000Y-128850000D03*
X258900000Y-171850000D03*
X222900000Y-135850000D03*
X129400000Y-103350000D03*
X200625000Y-167550000D03*
X139900000Y-122850000D03*
X231900000Y-100850000D03*
X204400000Y-133600000D03*
X219400000Y-218450000D03*
X230325000Y-161400000D03*
X175900000Y-206850000D03*
X259561000Y-162561000D03*
X272500000Y-109350000D03*
X271125000Y-149975000D03*
X204000000Y-197200000D03*
X180900000Y-185850000D03*
X167900000Y-115850000D03*
X257450000Y-194713000D03*
X252624000Y-96317000D03*
X204000000Y-208150000D03*
X202900000Y-150850000D03*
X187200000Y-197400000D03*
D30*
X181800000Y-199200000D03*
D31*
X208400000Y-146000000D03*
X227600000Y-195400000D03*
X194800000Y-196000000D03*
X195600000Y-196000000D03*
X250800000Y-154800000D03*
X193000000Y-195000000D03*
X239200000Y-193200000D03*
D30*
X190200000Y-110200000D03*
D31*
X207000000Y-146000000D03*
X247800000Y-154800000D03*
D30*
X190200000Y-125000000D03*
D31*
X250800000Y-156400000D03*
X225600000Y-193200000D03*
X247800000Y-156400000D03*
X208000000Y-143600000D03*
X208400000Y-147000000D03*
D30*
X208000000Y-141600000D03*
D31*
X207000000Y-141600000D03*
D30*
X181750000Y-176400000D03*
D31*
X225600000Y-194000000D03*
D30*
X181750000Y-154000000D03*
D31*
X249800000Y-155600000D03*
X248800000Y-154800000D03*
D30*
X184600000Y-175200000D03*
D31*
X195600000Y-195000000D03*
X192200000Y-196000000D03*
D30*
X210400000Y-180800000D03*
D31*
X249800000Y-154800000D03*
D30*
X186800000Y-169600000D03*
D31*
X238200000Y-193200000D03*
X247800000Y-155600000D03*
X224600000Y-194800000D03*
X194800000Y-195000000D03*
X192200000Y-195000000D03*
X208000000Y-142600000D03*
X250800000Y-155600000D03*
X224600000Y-194000000D03*
D30*
X208400000Y-166000000D03*
D31*
X207000000Y-143600000D03*
X248800000Y-156400000D03*
X193000000Y-196000000D03*
X225600000Y-194800000D03*
D30*
X180800000Y-106400000D03*
D31*
X226400000Y-194000000D03*
X228200000Y-196000000D03*
X224600000Y-195600000D03*
X238200000Y-194000000D03*
X227000000Y-196000000D03*
X248800000Y-155600000D03*
X249800000Y-156400000D03*
X207000000Y-142600000D03*
X224600000Y-193200000D03*
X239200000Y-194800000D03*
X207000000Y-147000000D03*
X239200000Y-194000000D03*
D30*
X199400000Y-102800000D03*
D31*
X185000000Y-199900000D03*
X202800000Y-187650000D03*
D30*
X266650000Y-140250000D03*
X224000000Y-198000000D03*
D31*
X259200000Y-143400000D03*
D30*
X251850000Y-127050000D03*
D31*
X259200000Y-142600000D03*
X227525000Y-173600000D03*
X227550000Y-164250000D03*
X227347499Y-181947499D03*
X260000000Y-143400000D03*
X260000000Y-142600000D03*
X260000000Y-144200000D03*
D30*
X249800000Y-198600000D03*
X227600000Y-187800000D03*
D31*
X259200000Y-144200000D03*
D30*
X199400000Y-206600000D03*
D31*
X254950000Y-203200000D03*
X178000000Y-189200000D03*
X194000000Y-203350000D03*
D30*
X142400000Y-193000000D03*
D31*
X164900000Y-187500000D03*
D30*
X165800000Y-169400000D03*
X165200000Y-184200000D03*
X165800000Y-197000000D03*
X165800000Y-173600000D03*
X165800000Y-163600000D03*
X176000000Y-184200000D03*
X219700000Y-207950000D03*
X260800000Y-208200000D03*
X267950000Y-125700000D03*
X229200000Y-189700000D03*
X243936459Y-202538541D03*
X242800000Y-188495000D03*
X202800000Y-114000000D03*
D31*
X247600000Y-161600000D03*
D30*
X262200000Y-189000000D03*
X244600000Y-121600000D03*
X240751992Y-130151992D03*
D31*
X244200000Y-161600000D03*
D30*
X233000000Y-119200000D03*
D31*
X245400000Y-163600000D03*
D30*
X202800000Y-135800000D03*
D31*
X244200000Y-163600000D03*
X245400000Y-161600000D03*
D30*
X201000000Y-193000000D03*
D31*
X247600000Y-162700000D03*
X245400000Y-162600000D03*
D30*
X241600000Y-134200000D03*
X205200000Y-127950000D03*
D31*
X244200000Y-164600000D03*
D30*
X198494051Y-193105949D03*
D31*
X244200000Y-162600000D03*
D30*
X202100000Y-127950000D03*
D31*
X245400000Y-164600000D03*
D30*
X257400000Y-187000000D03*
X247000000Y-188800000D03*
D31*
X212125000Y-173775000D03*
X205600000Y-181050000D03*
X173000000Y-151800000D03*
X174650000Y-172450000D03*
X173000000Y-196800000D03*
X183800000Y-165000000D03*
X173000000Y-165000000D03*
D30*
X229892997Y-190488833D03*
X241604164Y-202200000D03*
D31*
X174196930Y-218399996D03*
X210224999Y-126625000D03*
X217800000Y-112400000D03*
X217175000Y-126375000D03*
X203800000Y-120800000D03*
X182600000Y-193000000D03*
X182600000Y-148200000D03*
X209000000Y-203700000D03*
X182600000Y-170200000D03*
D30*
X225700000Y-188700000D03*
X237950000Y-202200000D03*
D31*
X250700000Y-203200000D03*
D30*
X231450000Y-202200000D03*
X220700000Y-186950000D03*
D31*
X209800000Y-131600000D03*
X173400000Y-106600000D03*
X209600000Y-123800000D03*
X211800000Y-113150000D03*
X211800000Y-115100000D03*
D30*
X182300000Y-100500000D03*
X179500000Y-93300000D03*
D31*
X219000000Y-206000000D03*
X228800000Y-205400000D03*
D30*
X234700000Y-202200000D03*
X221950000Y-186950000D03*
D31*
X203513658Y-123043807D03*
X198400000Y-123000000D03*
X199800000Y-128325000D03*
X211650000Y-127700000D03*
X198350000Y-121050000D03*
X214150000Y-139100000D03*
X219200000Y-193000000D03*
X174200000Y-217600000D03*
X247200000Y-203200000D03*
D30*
X240402082Y-202200000D03*
X224051041Y-187848959D03*
D31*
X258950000Y-203200000D03*
X194000000Y-200800000D03*
X202400000Y-205400000D03*
D30*
X225450000Y-186950000D03*
X225450000Y-177450000D03*
X224950000Y-167950000D03*
X230950000Y-186950000D03*
X252200000Y-218800000D03*
X231950000Y-167950000D03*
X231950000Y-177450000D03*
X233000000Y-157000000D03*
D31*
X212650000Y-137150000D03*
X199450000Y-107400000D03*
X210050000Y-193600000D03*
X204375000Y-109050000D03*
X217600000Y-120050000D03*
X186200000Y-111000000D03*
X204000000Y-127000000D03*
X200000000Y-124200000D03*
D30*
X262950000Y-134200000D03*
D31*
X245400000Y-126800000D03*
X204500000Y-116400000D03*
X206160662Y-126539339D03*
X212450000Y-128850000D03*
X197775000Y-113975000D03*
X200400000Y-133800000D03*
D30*
X244600000Y-123000000D03*
X240600000Y-156950000D03*
D31*
X186800000Y-188400000D03*
X192800000Y-193200000D03*
X112600000Y-130729999D03*
X212450000Y-129650000D03*
X261750000Y-131650000D03*
X168300000Y-101500000D03*
X212650000Y-136250000D03*
X202600000Y-180300000D03*
X185200000Y-158400000D03*
D30*
X239600000Y-153000000D03*
D31*
X202500000Y-183900000D03*
X185200000Y-180600000D03*
D30*
X257270000Y-94400000D03*
X251770000Y-94400000D03*
X125170000Y-207040000D03*
X125170000Y-171960000D03*
X103830000Y-207040000D03*
X103830000Y-171960000D03*
X119060000Y-178390000D03*
X119060000Y-182830000D03*
X119060000Y-187280000D03*
X119060000Y-191720000D03*
X119060000Y-196170000D03*
X119060000Y-200610000D03*
X109940000Y-200610000D03*
X109940000Y-196170000D03*
X109940000Y-191720000D03*
X109940000Y-187280000D03*
X109940000Y-182830000D03*
X109940000Y-178390000D03*
X164297500Y-207290000D03*
X164297500Y-202210000D03*
X143977500Y-194590000D03*
X143977500Y-204750000D03*
X143977500Y-214910000D03*
X268950000Y-94900000D03*
X243950000Y-210500000D03*
X241180000Y-210500000D03*
X238410000Y-210500000D03*
X235640000Y-210500000D03*
X232870000Y-210500000D03*
X230100000Y-210500000D03*
X227330000Y-210500000D03*
X224560000Y-210500000D03*
X221790000Y-210500000D03*
X219020000Y-210500000D03*
X216250000Y-210500000D03*
X213480000Y-210500000D03*
X210710000Y-210500000D03*
X207940000Y-210500000D03*
X205170000Y-210500000D03*
X202400000Y-210500000D03*
X199630000Y-210500000D03*
X196860000Y-210500000D03*
X194090000Y-210500000D03*
X242565000Y-213040000D03*
X239795000Y-213040000D03*
X237025000Y-213040000D03*
X234255000Y-213040000D03*
X231485000Y-213040000D03*
X228715000Y-213040000D03*
X225945000Y-213040000D03*
X223175000Y-213040000D03*
X220405000Y-213040000D03*
X217635000Y-213040000D03*
X214865000Y-213040000D03*
X212095000Y-213040000D03*
X209325000Y-213040000D03*
X206555000Y-213040000D03*
X203785000Y-213040000D03*
X201015000Y-213040000D03*
X198245000Y-213040000D03*
X195475000Y-213040000D03*
X187270000Y-211770000D03*
X250770000Y-211770000D03*
X268950000Y-214900000D03*
X161770000Y-146739999D03*
X161770000Y-111659999D03*
X140430000Y-146739999D03*
X140430000Y-111659999D03*
X155660000Y-118089999D03*
X155660000Y-122529999D03*
X155660000Y-126979999D03*
X155660000Y-131419999D03*
X155660000Y-135869999D03*
X155660000Y-140309999D03*
X146540000Y-140309999D03*
X146540000Y-135869999D03*
X146540000Y-131419999D03*
X146540000Y-126979999D03*
X146540000Y-122529999D03*
X146540000Y-118089999D03*
X193950000Y-167400000D03*
X196490000Y-167400000D03*
X193950000Y-169940000D03*
X196490000Y-169940000D03*
X193950000Y-172480000D03*
X196490000Y-172480000D03*
X193950000Y-175020000D03*
X196490000Y-175020000D03*
X193950000Y-177560000D03*
X196490000Y-177560000D03*
X193950000Y-180100000D03*
X196490000Y-180100000D03*
X193950000Y-182640000D03*
X196490000Y-182640000D03*
X193950000Y-185180000D03*
X196490000Y-185180000D03*
X193950000Y-187720000D03*
X196490000Y-187720000D03*
X193950000Y-190260000D03*
X196490000Y-190260000D03*
X237130000Y-103900000D03*
X239670000Y-103900000D03*
X237130000Y-106440000D03*
X239670000Y-106440000D03*
X237130000Y-108980000D03*
X239670000Y-108980000D03*
X237130000Y-111520000D03*
X239670000Y-111520000D03*
X237130000Y-114060000D03*
X239670000Y-114060000D03*
X237130000Y-116600000D03*
X239670000Y-116600000D03*
X237130000Y-119140000D03*
X239670000Y-119140000D03*
X237130000Y-121680000D03*
X239670000Y-121680000D03*
X237130000Y-124220000D03*
X239670000Y-124220000D03*
X237130000Y-126760000D03*
X239670000Y-126760000D03*
D31*
X258095000Y-134450000D03*
X258095000Y-133150000D03*
X258095000Y-131850000D03*
X258095000Y-130550000D03*
X256795000Y-134450000D03*
X256795000Y-133150000D03*
X256795000Y-131850000D03*
X256795000Y-130550000D03*
D30*
X124870000Y-141600000D03*
X124870000Y-114400000D03*
X103530000Y-141600000D03*
X103530000Y-114400000D03*
X118760000Y-120825000D03*
X118760000Y-125270000D03*
X118760000Y-130730000D03*
X118760000Y-135175000D03*
X109640000Y-135175000D03*
X109640000Y-130730000D03*
X109640000Y-125270000D03*
X109640000Y-120825000D03*
X212350000Y-201050000D03*
X101000000Y-95000000D03*
X193950000Y-103900000D03*
X196490000Y-103900000D03*
X193950000Y-106440000D03*
X196490000Y-106440000D03*
X193950000Y-108980000D03*
X196490000Y-108980000D03*
X193950000Y-111520000D03*
X196490000Y-111520000D03*
X193950000Y-114060000D03*
X196490000Y-114060000D03*
X193950000Y-116600000D03*
X196490000Y-116600000D03*
X193950000Y-119140000D03*
X196490000Y-119140000D03*
X193950000Y-121680000D03*
X196490000Y-121680000D03*
X193950000Y-124220000D03*
X196490000Y-124220000D03*
X193950000Y-126760000D03*
X196490000Y-126760000D03*
X237130000Y-167400000D03*
X239670000Y-167400000D03*
X237130000Y-169940000D03*
X239670000Y-169940000D03*
X237130000Y-172480000D03*
X239670000Y-172480000D03*
X237130000Y-175020000D03*
X239670000Y-175020000D03*
X237130000Y-177560000D03*
X239670000Y-177560000D03*
X237130000Y-180100000D03*
X239670000Y-180100000D03*
X237130000Y-182640000D03*
X239670000Y-182640000D03*
X237130000Y-185180000D03*
X239670000Y-185180000D03*
X237130000Y-187720000D03*
X239670000Y-187720000D03*
X237130000Y-190260000D03*
X239670000Y-190260000D03*
X136600000Y-214900000D03*
X186200000Y-118700000D03*
M02*
