%TF.GenerationSoftware,KiCad,Pcbnew,10.0.6*%
%TF.CreationDate,2026-09-24T10:33:37-03:00*%
%TF.ProjectId,FE_UFPR_4_0,46455f55-4650-4525-9f34-5f302e6b6963,4.0*%
%TF.SameCoordinates,Original*%
%TF.FileFunction,Soldermask,Top*%
%TF.FilePolarity,Negative*%
%FSLAX46Y46*%
G04 Gerber Fmt 4.6, Leading zero omitted, Abs format (unit mm)*
G04 Created by KiCad (PCBNEW 10.0.6) date 2026-09-24 10:33:37*
%MOMM*%
%LPD*%
G01*
G04 APERTURE LIST*
G04 Aperture macros list*
%AMRoundRect*
0 Rectangle with rounded corners*
0 $1 Rounding radius*
0 $2 $3 $4 $5 $6 $7 $8 $9 X,Y pos of 4 corners*
0 Add a 4 corners polygon primitive as box body*
4,1,4,$2,$3,$4,$5,$6,$7,$8,$9,$2,$3,0*
0 Add four circle primitives for the rounded corners*
1,1,$1+$1,$2,$3*
1,1,$1+$1,$4,$5*
1,1,$1+$1,$6,$7*
1,1,$1+$1,$8,$9*
0 Add four rect primitives between the rounded corners*
20,1,$1+$1,$2,$3,$4,$5,0*
20,1,$1+$1,$4,$5,$6,$7,0*
20,1,$1+$1,$6,$7,$8,$9,0*
20,1,$1+$1,$8,$9,$2,$3,0*%
G04 Aperture macros list end*
%ADD10RoundRect,0.200000X0.275000X-0.200000X0.275000X0.200000X-0.275000X0.200000X-0.275000X-0.200000X0*%
%ADD11RoundRect,0.250000X0.650000X-1.000000X0.650000X1.000000X-0.650000X1.000000X-0.650000X-1.000000X0*%
%ADD12RoundRect,0.200000X0.200000X0.275000X-0.200000X0.275000X-0.200000X-0.275000X0.200000X-0.275000X0*%
%ADD13RoundRect,0.200000X-0.275000X0.200000X-0.275000X-0.200000X0.275000X-0.200000X0.275000X0.200000X0*%
%ADD14RoundRect,0.225000X-0.225000X-0.250000X0.225000X-0.250000X0.225000X0.250000X-0.225000X0.250000X0*%
%ADD15RoundRect,0.250001X-1.399999X1.099999X-1.399999X-1.099999X1.399999X-1.099999X1.399999X1.099999X0*%
%ADD16O,3.300000X2.700000*%
%ADD17C,3.500000*%
%ADD18R,2.800000X2.800000*%
%ADD19C,2.800000*%
%ADD20R,2.400000X2.400000*%
%ADD21C,2.400000*%
%ADD22C,1.500000*%
%ADD23RoundRect,0.200000X-0.200000X-0.275000X0.200000X-0.275000X0.200000X0.275000X-0.200000X0.275000X0*%
%ADD24RoundRect,0.218750X0.256250X-0.218750X0.256250X0.218750X-0.256250X0.218750X-0.256250X-0.218750X0*%
%ADD25RoundRect,0.249999X-0.850001X-3.500001X0.850001X-3.500001X0.850001X3.500001X-0.850001X3.500001X0*%
%ADD26RoundRect,0.250000X-0.312500X-0.625000X0.312500X-0.625000X0.312500X0.625000X-0.312500X0.625000X0*%
%ADD27RoundRect,0.050000X-0.100000X0.285000X-0.100000X-0.285000X0.100000X-0.285000X0.100000X0.285000X0*%
%ADD28RoundRect,0.225000X0.225000X0.250000X-0.225000X0.250000X-0.225000X-0.250000X0.225000X-0.250000X0*%
%ADD29RoundRect,0.250000X-0.650000X0.325000X-0.650000X-0.325000X0.650000X-0.325000X0.650000X0.325000X0*%
%ADD30R,1.500000X1.000000*%
%ADD31RoundRect,0.250000X-0.250000X-0.475000X0.250000X-0.475000X0.250000X0.475000X-0.250000X0.475000X0*%
%ADD32RoundRect,0.250000X0.250000X0.475000X-0.250000X0.475000X-0.250000X-0.475000X0.250000X-0.475000X0*%
%ADD33RoundRect,0.150000X0.587500X0.150000X-0.587500X0.150000X-0.587500X-0.150000X0.587500X-0.150000X0*%
%ADD34RoundRect,0.150000X-0.150000X0.825000X-0.150000X-0.825000X0.150000X-0.825000X0.150000X0.825000X0*%
%ADD35RoundRect,0.250000X-0.475000X0.250000X-0.475000X-0.250000X0.475000X-0.250000X0.475000X0.250000X0*%
%ADD36C,4.300000*%
%ADD37RoundRect,0.225000X-0.250000X0.225000X-0.250000X-0.225000X0.250000X-0.225000X0.250000X0.225000X0*%
%ADD38R,1.600000X1.600000*%
%ADD39C,1.600000*%
%ADD40C,4.000000*%
%ADD41RoundRect,0.150000X0.825000X0.150000X-0.825000X0.150000X-0.825000X-0.150000X0.825000X-0.150000X0*%
%ADD42RoundRect,0.250000X-0.625000X0.375000X-0.625000X-0.375000X0.625000X-0.375000X0.625000X0.375000X0*%
%ADD43RoundRect,0.218750X-0.256250X0.218750X-0.256250X-0.218750X0.256250X-0.218750X0.256250X0.218750X0*%
%ADD44RoundRect,0.250000X0.475000X-0.250000X0.475000X0.250000X-0.475000X0.250000X-0.475000X-0.250000X0*%
%ADD45RoundRect,0.150000X-0.512500X-0.150000X0.512500X-0.150000X0.512500X0.150000X-0.512500X0.150000X0*%
%ADD46RoundRect,0.218750X0.218750X0.256250X-0.218750X0.256250X-0.218750X-0.256250X0.218750X-0.256250X0*%
%ADD47R,1.000000X1.500000*%
%ADD48RoundRect,0.218750X-0.218750X-0.256250X0.218750X-0.256250X0.218750X0.256250X-0.218750X0.256250X0*%
%ADD49RoundRect,0.325000X-0.325000X-0.425000X0.325000X-0.425000X0.325000X0.425000X-0.325000X0.425000X0*%
%ADD50RoundRect,0.218750X0.381250X-0.218750X0.381250X0.218750X-0.381250X0.218750X-0.381250X-0.218750X0*%
%ADD51RoundRect,0.150000X-0.587500X-0.150000X0.587500X-0.150000X0.587500X0.150000X-0.587500X0.150000X0*%
%ADD52RoundRect,0.250000X0.650000X-0.325000X0.650000X0.325000X-0.650000X0.325000X-0.650000X-0.325000X0*%
%ADD53RoundRect,0.225000X-0.450000X-0.225000X0.450000X-0.225000X0.450000X0.225000X-0.450000X0.225000X0*%
%ADD54RoundRect,0.150000X0.150000X-0.512500X0.150000X0.512500X-0.150000X0.512500X-0.150000X-0.512500X0*%
%ADD55RoundRect,0.225000X0.250000X-0.225000X0.250000X0.225000X-0.250000X0.225000X-0.250000X-0.225000X0*%
%ADD56R,1.700000X1.700000*%
%ADD57C,1.700000*%
%ADD58RoundRect,0.250000X1.000000X-1.400000X1.000000X1.400000X-1.000000X1.400000X-1.000000X-1.400000X0*%
%ADD59RoundRect,0.249999X0.450001X1.850001X-0.450001X1.850001X-0.450001X-1.850001X0.450001X-1.850001X0*%
%ADD60R,2.600000X3.100000*%
%ADD61R,1.550000X0.600000*%
%ADD62RoundRect,0.225000X-0.375000X0.225000X-0.375000X-0.225000X0.375000X-0.225000X0.375000X0.225000X0*%
%ADD63RoundRect,0.250000X0.350000X-0.850000X0.350000X0.850000X-0.350000X0.850000X-0.350000X-0.850000X0*%
%ADD64RoundRect,0.249997X2.650003X-2.950003X2.650003X2.950003X-2.650003X2.950003X-2.650003X-2.950003X0*%
%ADD65RoundRect,0.250000X-0.325000X-0.650000X0.325000X-0.650000X0.325000X0.650000X-0.325000X0.650000X0*%
%ADD66RoundRect,0.250000X-0.375000X-0.625000X0.375000X-0.625000X0.375000X0.625000X-0.375000X0.625000X0*%
%ADD67RoundRect,0.375000X0.625000X0.375000X-0.625000X0.375000X-0.625000X-0.375000X0.625000X-0.375000X0*%
%ADD68RoundRect,0.500000X0.500000X1.400000X-0.500000X1.400000X-0.500000X-1.400000X0.500000X-1.400000X0*%
%ADD69RoundRect,0.250000X1.000000X-1.950000X1.000000X1.950000X-1.000000X1.950000X-1.000000X-1.950000X0*%
%ADD70RoundRect,0.150000X0.150000X-0.825000X0.150000X0.825000X-0.150000X0.825000X-0.150000X-0.825000X0*%
%ADD71RoundRect,0.250000X-0.730000X-1.325000X0.730000X-1.325000X0.730000X1.325000X-0.730000X1.325000X0*%
%ADD72RoundRect,0.150000X-0.150000X0.512500X-0.150000X-0.512500X0.150000X-0.512500X0.150000X0.512500X0*%
%ADD73RoundRect,0.150000X0.150000X-0.587500X0.150000X0.587500X-0.150000X0.587500X-0.150000X-0.587500X0*%
%ADD74RoundRect,0.250000X-1.000000X-0.650000X1.000000X-0.650000X1.000000X0.650000X-1.000000X0.650000X0*%
%ADD75C,0.350000*%
G04 APERTURE END LIST*
%TO.C,JP6*%
G36*
X183600000Y-100350000D02*
G01*
X185100000Y-100350000D01*
X185100000Y-100650000D01*
X183600000Y-100650000D01*
X183600000Y-100350000D01*
G37*
%TO.C,JP2*%
G36*
X259800000Y-216200000D02*
G01*
X260100000Y-216200000D01*
X260100000Y-217700000D01*
X259800000Y-217700000D01*
X259800000Y-216200000D01*
G37*
%TO.C,JP1*%
G36*
X247200000Y-122150000D02*
G01*
X248700000Y-122150000D01*
X248700000Y-123750000D01*
X247200000Y-123750000D01*
X247200000Y-122150000D01*
G37*
%TO.C,JP3*%
G36*
X184345000Y-155590000D02*
G01*
X185945000Y-155590000D01*
X185945000Y-157090000D01*
X184345000Y-157090000D01*
X184345000Y-155590000D01*
G37*
%TO.C,JP4*%
G36*
X184350000Y-177850000D02*
G01*
X185950000Y-177850000D01*
X185950000Y-179350000D01*
X184350000Y-179350000D01*
X184350000Y-177850000D01*
G37*
%TO.C,JP5*%
G36*
X184400000Y-200700000D02*
G01*
X186000000Y-200700000D01*
X186000000Y-202200000D01*
X184400000Y-202200000D01*
X184400000Y-200700000D01*
G37*
%TD*%
D10*
%TO.C,R31*%
X235950000Y-151200000D03*
X235950000Y-149550000D03*
%TD*%
D11*
%TO.C,D12*%
X190200000Y-107900000D03*
X190200000Y-103900000D03*
%TD*%
D12*
%TO.C,R98*%
X200975000Y-187650000D03*
X199325000Y-187650000D03*
%TD*%
D13*
%TO.C,R44*%
X256200000Y-200050000D03*
X256200000Y-201700000D03*
%TD*%
%TO.C,R87*%
X179300000Y-189225000D03*
X179300000Y-190875000D03*
%TD*%
D10*
%TO.C,R41*%
X232350000Y-181600000D03*
X232350000Y-179950000D03*
%TD*%
D14*
%TO.C,C43*%
X253950000Y-214950000D03*
X255500000Y-214950000D03*
%TD*%
D15*
%TO.C,J1*%
X257270000Y-94400000D03*
D16*
X251770000Y-94400000D03*
%TD*%
D17*
%TO.C,J3*%
X125170000Y-207040000D03*
X125170000Y-171960000D03*
X103830000Y-207040000D03*
X103830000Y-171960000D03*
D18*
X119060000Y-178390000D03*
D19*
X119060000Y-182830000D03*
X119060000Y-187280000D03*
X119060000Y-191720000D03*
X119060000Y-196170000D03*
X119060000Y-200610000D03*
X109940000Y-200610000D03*
X109940000Y-196170000D03*
X109940000Y-191720000D03*
X109940000Y-187280000D03*
X109940000Y-182830000D03*
X109940000Y-178390000D03*
%TD*%
D20*
%TO.C,U4*%
X164297500Y-207290000D03*
D21*
X164297500Y-202210000D03*
X143977500Y-194590000D03*
X143977500Y-204750000D03*
X143977500Y-214910000D03*
%TD*%
D12*
%TO.C,R18*%
X223500000Y-165600000D03*
X221850000Y-165600000D03*
%TD*%
D22*
%TO.C,TP39*%
X171900000Y-126000000D03*
%TD*%
D12*
%TO.C,R111*%
X213925000Y-123450000D03*
X212275000Y-123450000D03*
%TD*%
D10*
%TO.C,R121*%
X229400000Y-115575000D03*
X229400000Y-113925000D03*
%TD*%
D12*
%TO.C,R73*%
X176220000Y-153490000D03*
X174570000Y-153490000D03*
%TD*%
D22*
%TO.C,TP45*%
X186200000Y-114200000D03*
%TD*%
D23*
%TO.C,R24*%
X243275000Y-208300000D03*
X244925000Y-208300000D03*
%TD*%
D22*
%TO.C,TP18*%
X171600000Y-218150000D03*
%TD*%
D23*
%TO.C,R82*%
X174600000Y-177600000D03*
X176250000Y-177600000D03*
%TD*%
D12*
%TO.C,R110*%
X217200000Y-125200000D03*
X215550000Y-125200000D03*
%TD*%
D24*
%TO.C,D9*%
X248850000Y-218087500D03*
X248850000Y-216512500D03*
%TD*%
D25*
%TO.C,L1*%
X253950000Y-140950000D03*
X259950000Y-140950000D03*
%TD*%
D26*
%TO.C,R93*%
X173037500Y-204950000D03*
X175962500Y-204950000D03*
%TD*%
D13*
%TO.C,R90*%
X181000000Y-193050000D03*
X181000000Y-194700000D03*
%TD*%
D23*
%TO.C,R109*%
X214700000Y-118450000D03*
X216350000Y-118450000D03*
%TD*%
D26*
%TO.C,R68*%
X173145000Y-157440000D03*
X176070000Y-157440000D03*
%TD*%
D27*
%TO.C,U2*%
X267770000Y-150210000D03*
X267270000Y-150210000D03*
X266770000Y-150210000D03*
X266270000Y-150210000D03*
X266270000Y-151690000D03*
X266770000Y-151690000D03*
X267270000Y-151690000D03*
X267770000Y-151690000D03*
%TD*%
D23*
%TO.C,R25*%
X246375000Y-208300000D03*
X248025000Y-208300000D03*
%TD*%
D10*
%TO.C,R37*%
X232500000Y-163050000D03*
X232500000Y-161400000D03*
%TD*%
D12*
%TO.C,R19*%
X223550000Y-163050000D03*
X221900000Y-163050000D03*
%TD*%
D14*
%TO.C,C34*%
X227525000Y-170750000D03*
X229075000Y-170750000D03*
%TD*%
D28*
%TO.C,C6*%
X252825000Y-131650000D03*
X251275000Y-131650000D03*
%TD*%
D14*
%TO.C,C39*%
X237150000Y-206650000D03*
X238700000Y-206650000D03*
%TD*%
D10*
%TO.C,R48*%
X247450000Y-197600000D03*
X247450000Y-195950000D03*
%TD*%
D29*
%TO.C,C94*%
X135800000Y-204025000D03*
X135800000Y-206975000D03*
%TD*%
D12*
%TO.C,R21*%
X223300000Y-172350000D03*
X221650000Y-172350000D03*
%TD*%
D23*
%TO.C,R28*%
X230875000Y-206650000D03*
X232525000Y-206650000D03*
%TD*%
D28*
%TO.C,C103*%
X213300000Y-111800000D03*
X211750000Y-111800000D03*
%TD*%
%TO.C,C70*%
X210650000Y-206550000D03*
X209100000Y-206550000D03*
%TD*%
D30*
%TO.C,JP6*%
X184350000Y-101150000D03*
X184350000Y-99850000D03*
%TD*%
D14*
%TO.C,C42*%
X234025000Y-206750000D03*
X235575000Y-206750000D03*
%TD*%
D31*
%TO.C,C29*%
X227375000Y-178205000D03*
X229275000Y-178205000D03*
%TD*%
D32*
%TO.C,C104*%
X208500000Y-123550000D03*
X206600000Y-123550000D03*
%TD*%
D33*
%TO.C,D11*%
X202100000Y-131000000D03*
X202100000Y-129100000D03*
X200225000Y-130050000D03*
%TD*%
D34*
%TO.C,U14*%
X181775000Y-196810000D03*
X180505000Y-196810000D03*
X179235000Y-196810000D03*
X177965000Y-196810000D03*
X177965000Y-201760000D03*
X179235000Y-201760000D03*
X180505000Y-201760000D03*
X181775000Y-201760000D03*
%TD*%
D22*
%TO.C,TP14*%
X231450000Y-204150000D03*
%TD*%
D14*
%TO.C,C96*%
X168050000Y-184000000D03*
X169600000Y-184000000D03*
%TD*%
D35*
%TO.C,C20*%
X258200000Y-159300000D03*
X258200000Y-161200000D03*
%TD*%
D10*
%TO.C,R59*%
X219200000Y-196450000D03*
X219200000Y-194800000D03*
%TD*%
D22*
%TO.C,TP41*%
X186200000Y-126700000D03*
%TD*%
D10*
%TO.C,R84*%
X180700000Y-182675000D03*
X180700000Y-181025000D03*
%TD*%
D31*
%TO.C,C86*%
X199475000Y-174750000D03*
X201375000Y-174750000D03*
%TD*%
D22*
%TO.C,TP32*%
X189200000Y-174950000D03*
%TD*%
D36*
%TO.C,H2*%
X268950000Y-94900000D03*
%TD*%
D23*
%TO.C,R114*%
X207100000Y-112100000D03*
X208750000Y-112100000D03*
%TD*%
D28*
%TO.C,C111*%
X209750000Y-135600000D03*
X208200000Y-135600000D03*
%TD*%
D22*
%TO.C,TP12*%
X237750000Y-204100000D03*
%TD*%
%TO.C,TP17*%
X168800000Y-218200000D03*
%TD*%
D10*
%TO.C,R72*%
X180695000Y-160415000D03*
X180695000Y-158765000D03*
%TD*%
D13*
%TO.C,R116*%
X204850000Y-118150000D03*
X204850000Y-119800000D03*
%TD*%
D37*
%TO.C,C88*%
X212250000Y-179375000D03*
X212250000Y-180925000D03*
%TD*%
D26*
%TO.C,R69*%
X172987500Y-159850000D03*
X175912500Y-159850000D03*
%TD*%
D12*
%TO.C,R117*%
X204775000Y-121950000D03*
X203125000Y-121950000D03*
%TD*%
D10*
%TO.C,R115*%
X201250000Y-119775000D03*
X201250000Y-118125000D03*
%TD*%
D38*
%TO.C,J2*%
X243950000Y-210500000D03*
D39*
X241180000Y-210500000D03*
X238410000Y-210500000D03*
X235640000Y-210500000D03*
X232870000Y-210500000D03*
X230100000Y-210500000D03*
X227330000Y-210500000D03*
X224560000Y-210500000D03*
X221790000Y-210500000D03*
X219020000Y-210500000D03*
X216250000Y-210500000D03*
X213480000Y-210500000D03*
X210710000Y-210500000D03*
X207940000Y-210500000D03*
X205170000Y-210500000D03*
X202400000Y-210500000D03*
X199630000Y-210500000D03*
X196860000Y-210500000D03*
X194090000Y-210500000D03*
X242565000Y-213040000D03*
X239795000Y-213040000D03*
X237025000Y-213040000D03*
X234255000Y-213040000D03*
X231485000Y-213040000D03*
X228715000Y-213040000D03*
X225945000Y-213040000D03*
X223175000Y-213040000D03*
X220405000Y-213040000D03*
X217635000Y-213040000D03*
X214865000Y-213040000D03*
X212095000Y-213040000D03*
X209325000Y-213040000D03*
X206555000Y-213040000D03*
X203785000Y-213040000D03*
X201015000Y-213040000D03*
X198245000Y-213040000D03*
X195475000Y-213040000D03*
D40*
X187270000Y-211770000D03*
X250770000Y-211770000D03*
%TD*%
D41*
%TO.C,U7*%
X230250000Y-185560000D03*
X230250000Y-184290000D03*
X230250000Y-183020000D03*
X230250000Y-181750000D03*
X225300000Y-181750000D03*
X225300000Y-183020000D03*
X225300000Y-184290000D03*
X225300000Y-185560000D03*
%TD*%
D23*
%TO.C,R126*%
X213750000Y-137150000D03*
X215400000Y-137150000D03*
%TD*%
D28*
%TO.C,C63*%
X179195000Y-149490000D03*
X177645000Y-149490000D03*
%TD*%
D29*
%TO.C,C92*%
X135000000Y-195425000D03*
X135000000Y-198375000D03*
%TD*%
D31*
%TO.C,C61*%
X199200000Y-108800000D03*
X201100000Y-108800000D03*
%TD*%
D23*
%TO.C,R56*%
X196125000Y-202775000D03*
X197775000Y-202775000D03*
%TD*%
D14*
%TO.C,C99*%
X171125000Y-119700000D03*
X172675000Y-119700000D03*
%TD*%
D37*
%TO.C,C55*%
X260450000Y-189000000D03*
X260450000Y-190550000D03*
%TD*%
D13*
%TO.C,R55*%
X259150000Y-195950000D03*
X259150000Y-197600000D03*
%TD*%
D14*
%TO.C,C49*%
X242175000Y-193950000D03*
X243725000Y-193950000D03*
%TD*%
D34*
%TO.C,U13*%
X181725000Y-173960000D03*
X180455000Y-173960000D03*
X179185000Y-173960000D03*
X177915000Y-173960000D03*
X177915000Y-178910000D03*
X179185000Y-178910000D03*
X180455000Y-178910000D03*
X181725000Y-178910000D03*
%TD*%
D22*
%TO.C,TP6*%
X136600000Y-193000000D03*
%TD*%
%TO.C,TP34*%
X189200000Y-197450000D03*
%TD*%
%TO.C,TP48*%
X186200000Y-109450000D03*
%TD*%
D37*
%TO.C,C15*%
X264850000Y-144675000D03*
X264850000Y-146225000D03*
%TD*%
D36*
%TO.C,H4*%
X268950000Y-214900000D03*
%TD*%
D33*
%TO.C,D10*%
X206987500Y-131100000D03*
X206987500Y-129200000D03*
X205112500Y-130150000D03*
%TD*%
D37*
%TO.C,C62*%
X185645000Y-149740000D03*
X185645000Y-151290000D03*
%TD*%
D23*
%TO.C,R27*%
X240225000Y-206700000D03*
X241875000Y-206700000D03*
%TD*%
D22*
%TO.C,TP35*%
X189000000Y-205200000D03*
%TD*%
D42*
%TO.C,F2*%
X267950000Y-121050000D03*
X267950000Y-123850000D03*
%TD*%
D13*
%TO.C,R63*%
X179245000Y-144115000D03*
X179245000Y-145765000D03*
%TD*%
D14*
%TO.C,C87*%
X184600000Y-176600000D03*
X186150000Y-176600000D03*
%TD*%
D12*
%TO.C,R101*%
X201025000Y-191350000D03*
X199375000Y-191350000D03*
%TD*%
%TO.C,R62*%
X211825000Y-195500000D03*
X210175000Y-195500000D03*
%TD*%
D14*
%TO.C,C108*%
X207100000Y-113900000D03*
X208650000Y-113900000D03*
%TD*%
D12*
%TO.C,R120*%
X228575000Y-104750000D03*
X226925000Y-104750000D03*
%TD*%
D43*
%TO.C,D5*%
X271795000Y-133775000D03*
X271795000Y-135350000D03*
%TD*%
D37*
%TO.C,C69*%
X185650000Y-172000000D03*
X185650000Y-173550000D03*
%TD*%
D28*
%TO.C,C67*%
X176195000Y-151640000D03*
X174645000Y-151640000D03*
%TD*%
D13*
%TO.C,R45*%
X257800000Y-200000000D03*
X257800000Y-201650000D03*
%TD*%
D22*
%TO.C,TP38*%
X171900000Y-117700000D03*
%TD*%
D44*
%TO.C,C59*%
X199350000Y-120000000D03*
X199350000Y-118100000D03*
%TD*%
D13*
%TO.C,R51*%
X195450000Y-198950000D03*
X195450000Y-200600000D03*
%TD*%
D23*
%TO.C,R71*%
X177470000Y-159590000D03*
X179120000Y-159590000D03*
%TD*%
D13*
%TO.C,R76*%
X183750000Y-171950000D03*
X183750000Y-173600000D03*
%TD*%
D45*
%TO.C,U21*%
X237162500Y-129350000D03*
X237162500Y-130300000D03*
X237162500Y-131250000D03*
X239437500Y-131250000D03*
X239437500Y-130300000D03*
X239437500Y-129350000D03*
%TD*%
D10*
%TO.C,R36*%
X232500000Y-166050000D03*
X232500000Y-164400000D03*
%TD*%
D13*
%TO.C,R64*%
X180945000Y-147940000D03*
X180945000Y-149590000D03*
%TD*%
D22*
%TO.C,TP53*%
X171800000Y-138800000D03*
%TD*%
D44*
%TO.C,C16*%
X257520000Y-152950000D03*
X257520000Y-151050000D03*
%TD*%
D22*
%TO.C,TP52*%
X247820000Y-119150000D03*
%TD*%
D10*
%TO.C,R132*%
X199100000Y-116475000D03*
X199100000Y-114825000D03*
%TD*%
D46*
%TO.C,D7*%
X265097500Y-164050000D03*
X263522500Y-164050000D03*
%TD*%
D22*
%TO.C,TP22*%
X216750000Y-201050000D03*
%TD*%
D47*
%TO.C,JP2*%
X259300000Y-216950000D03*
X260600000Y-216950000D03*
%TD*%
D22*
%TO.C,TP24*%
X251600000Y-189000000D03*
%TD*%
D31*
%TO.C,C82*%
X199450000Y-185750000D03*
X201350000Y-185750000D03*
%TD*%
D41*
%TO.C,U16*%
X212050000Y-121000000D03*
X212050000Y-119730000D03*
X212050000Y-118460000D03*
X212050000Y-117190000D03*
X207100000Y-117190000D03*
X207100000Y-118460000D03*
X207100000Y-119730000D03*
X207100000Y-121000000D03*
%TD*%
D13*
%TO.C,R53*%
X245450000Y-195950000D03*
X245450000Y-197600000D03*
%TD*%
D12*
%TO.C,R91*%
X179300000Y-192700000D03*
X177650000Y-192700000D03*
%TD*%
D26*
%TO.C,R92*%
X173200000Y-202550000D03*
X176125000Y-202550000D03*
%TD*%
D48*
%TO.C,D4*%
X262445000Y-122900000D03*
X264020000Y-122900000D03*
%TD*%
D22*
%TO.C,TP1*%
X271795000Y-127950000D03*
%TD*%
%TO.C,TP7*%
X139500000Y-209000000D03*
%TD*%
D14*
%TO.C,C32*%
X227550000Y-161400000D03*
X229100000Y-161400000D03*
%TD*%
D49*
%TO.C,U19*%
X224300000Y-129580000D03*
X224300000Y-132120000D03*
X233300000Y-132120000D03*
X233300000Y-129580000D03*
%TD*%
D13*
%TO.C,R65*%
X183745000Y-149690000D03*
X183745000Y-151340000D03*
%TD*%
D23*
%TO.C,R29*%
X234000000Y-208300000D03*
X235650000Y-208300000D03*
%TD*%
D50*
%TO.C,FB1*%
X209800000Y-139525000D03*
X209800000Y-137400000D03*
%TD*%
D51*
%TO.C,D2*%
X268150000Y-111550000D03*
X268150000Y-113450000D03*
X270025000Y-112500000D03*
%TD*%
D28*
%TO.C,C48*%
X202325000Y-208150000D03*
X200775000Y-208150000D03*
%TD*%
D31*
%TO.C,C85*%
X199450000Y-189500000D03*
X201350000Y-189500000D03*
%TD*%
%TO.C,C97*%
X170495000Y-110150000D03*
X172395000Y-110150000D03*
%TD*%
%TO.C,C121*%
X199200000Y-112550000D03*
X201100000Y-112550000D03*
%TD*%
D12*
%TO.C,R79*%
X179250000Y-169850000D03*
X177600000Y-169850000D03*
%TD*%
D32*
%TO.C,C112*%
X209800000Y-133600000D03*
X207900000Y-133600000D03*
%TD*%
D12*
%TO.C,R66*%
X179245000Y-147590000D03*
X177595000Y-147590000D03*
%TD*%
D14*
%TO.C,C100*%
X171225000Y-123500000D03*
X172775000Y-123500000D03*
%TD*%
D41*
%TO.C,U5*%
X230475000Y-166855000D03*
X230475000Y-165585000D03*
X230475000Y-164315000D03*
X230475000Y-163045000D03*
X225525000Y-163045000D03*
X225525000Y-164315000D03*
X225525000Y-165585000D03*
X225525000Y-166855000D03*
%TD*%
D28*
%TO.C,C116*%
X232875000Y-112475000D03*
X231325000Y-112475000D03*
%TD*%
D14*
%TO.C,C41*%
X230950000Y-208300000D03*
X232500000Y-208300000D03*
%TD*%
D29*
%TO.C,C2*%
X262550000Y-132875000D03*
X262550000Y-135825000D03*
%TD*%
D22*
%TO.C,TP33*%
X189400000Y-181000000D03*
%TD*%
D12*
%TO.C,R89*%
X206875000Y-208150000D03*
X205225000Y-208150000D03*
%TD*%
D37*
%TO.C,C56*%
X246950000Y-190175000D03*
X246950000Y-191725000D03*
%TD*%
D12*
%TO.C,R97*%
X176275000Y-198600000D03*
X174625000Y-198600000D03*
%TD*%
D13*
%TO.C,R32*%
X239000000Y-156975000D03*
X239000000Y-158625000D03*
%TD*%
D22*
%TO.C,TP36*%
X173950000Y-149450000D03*
%TD*%
D10*
%TO.C,R96*%
X180750000Y-205525000D03*
X180750000Y-203875000D03*
%TD*%
D14*
%TO.C,C51*%
X255175000Y-192775000D03*
X256725000Y-192775000D03*
%TD*%
D22*
%TO.C,TP5*%
X261050000Y-203800000D03*
%TD*%
D17*
%TO.C,J4*%
X161770000Y-146739999D03*
X161770000Y-111659999D03*
X140430000Y-146739999D03*
X140430000Y-111659999D03*
D18*
X155660000Y-118089999D03*
D19*
X155660000Y-122529999D03*
X155660000Y-126979999D03*
X155660000Y-131419999D03*
X155660000Y-135869999D03*
X155660000Y-140309999D03*
X146540000Y-140309999D03*
X146540000Y-135869999D03*
X146540000Y-131419999D03*
X146540000Y-126979999D03*
X146540000Y-122529999D03*
X146540000Y-118089999D03*
%TD*%
D22*
%TO.C,TP29*%
X252600000Y-204400000D03*
%TD*%
D10*
%TO.C,R38*%
X232450000Y-175400000D03*
X232450000Y-173750000D03*
%TD*%
D37*
%TO.C,C72*%
X168200000Y-167825000D03*
X168200000Y-169375000D03*
%TD*%
D23*
%TO.C,R125*%
X235125000Y-134250000D03*
X236775000Y-134250000D03*
%TD*%
D22*
%TO.C,TP30*%
X189350000Y-151700000D03*
%TD*%
D13*
%TO.C,R54*%
X257050000Y-195950000D03*
X257050000Y-197600000D03*
%TD*%
D12*
%TO.C,R130*%
X200725000Y-110650000D03*
X199075000Y-110650000D03*
%TD*%
D34*
%TO.C,U12*%
X181720000Y-151700000D03*
X180450000Y-151700000D03*
X179180000Y-151700000D03*
X177910000Y-151700000D03*
X177910000Y-156650000D03*
X179180000Y-156650000D03*
X180450000Y-156650000D03*
X181720000Y-156650000D03*
%TD*%
D29*
%TO.C,C3*%
X265250000Y-130475000D03*
X265250000Y-133425000D03*
%TD*%
D10*
%TO.C,R34*%
X251350000Y-218075000D03*
X251350000Y-216425000D03*
%TD*%
D31*
%TO.C,C91*%
X188750000Y-170800000D03*
X190650000Y-170800000D03*
%TD*%
D13*
%TO.C,R33*%
X234600000Y-156975000D03*
X234600000Y-158625000D03*
%TD*%
D12*
%TO.C,R20*%
X223300000Y-174900000D03*
X221650000Y-174900000D03*
%TD*%
D37*
%TO.C,C45*%
X249700000Y-203150000D03*
X249700000Y-204700000D03*
%TD*%
%TO.C,C24*%
X170700000Y-203850000D03*
X170700000Y-205400000D03*
%TD*%
D22*
%TO.C,TP8*%
X137500000Y-165000000D03*
%TD*%
D23*
%TO.C,R104*%
X168000000Y-185650000D03*
X169650000Y-185650000D03*
%TD*%
D32*
%TO.C,C83*%
X203500000Y-169550000D03*
X201600000Y-169550000D03*
%TD*%
%TO.C,C57*%
X244400000Y-167450000D03*
X242500000Y-167450000D03*
%TD*%
D52*
%TO.C,C10*%
X267950000Y-138425000D03*
X267950000Y-135475000D03*
%TD*%
D53*
%TO.C,L3*%
X201800000Y-97950000D03*
X201800000Y-100450000D03*
X206350000Y-100450000D03*
X206350000Y-97950000D03*
%TD*%
D37*
%TO.C,C95*%
X138100000Y-204725000D03*
X138100000Y-206275000D03*
%TD*%
D10*
%TO.C,R14*%
X271795000Y-138600000D03*
X271795000Y-136950000D03*
%TD*%
D54*
%TO.C,U9*%
X243450000Y-191950000D03*
X244400000Y-191950000D03*
X245350000Y-191950000D03*
X245350000Y-189675000D03*
X244400000Y-189675000D03*
X243450000Y-189675000D03*
%TD*%
D28*
%TO.C,C118*%
X240050000Y-134250000D03*
X238500000Y-134250000D03*
%TD*%
D55*
%TO.C,C60*%
X216750000Y-208225000D03*
X216750000Y-206675000D03*
%TD*%
D24*
%TO.C,D8*%
X139300000Y-198287500D03*
X139300000Y-196712500D03*
%TD*%
D14*
%TO.C,C53*%
X197400000Y-198275000D03*
X198950000Y-198275000D03*
%TD*%
D37*
%TO.C,C47*%
X257750000Y-203150000D03*
X257750000Y-204700000D03*
%TD*%
D56*
%TO.C,J22*%
X193950000Y-167400000D03*
D57*
X196490000Y-167400000D03*
X193950000Y-169940000D03*
X196490000Y-169940000D03*
X193950000Y-172480000D03*
X196490000Y-172480000D03*
X193950000Y-175020000D03*
X196490000Y-175020000D03*
X193950000Y-177560000D03*
X196490000Y-177560000D03*
X193950000Y-180100000D03*
X196490000Y-180100000D03*
X193950000Y-182640000D03*
X196490000Y-182640000D03*
X193950000Y-185180000D03*
X196490000Y-185180000D03*
X193950000Y-187720000D03*
X196490000Y-187720000D03*
X193950000Y-190260000D03*
X196490000Y-190260000D03*
%TD*%
D13*
%TO.C,R75*%
X179250000Y-166375000D03*
X179250000Y-168025000D03*
%TD*%
D14*
%TO.C,C38*%
X246425000Y-206700000D03*
X247975000Y-206700000D03*
%TD*%
D10*
%TO.C,R15*%
X250520000Y-152950000D03*
X250520000Y-151300000D03*
%TD*%
D31*
%TO.C,C68*%
X199450000Y-178400000D03*
X201350000Y-178400000D03*
%TD*%
D23*
%TO.C,R123*%
X213600000Y-129650000D03*
X215250000Y-129650000D03*
%TD*%
D56*
%TO.C,J21*%
X237130000Y-103900000D03*
D57*
X239670000Y-103900000D03*
X237130000Y-106440000D03*
X239670000Y-106440000D03*
X237130000Y-108980000D03*
X239670000Y-108980000D03*
X237130000Y-111520000D03*
X239670000Y-111520000D03*
X237130000Y-114060000D03*
X239670000Y-114060000D03*
X237130000Y-116600000D03*
X239670000Y-116600000D03*
X237130000Y-119140000D03*
X239670000Y-119140000D03*
X237130000Y-121680000D03*
X239670000Y-121680000D03*
X237130000Y-124220000D03*
X239670000Y-124220000D03*
X237130000Y-126760000D03*
X239670000Y-126760000D03*
%TD*%
D31*
%TO.C,C31*%
X227550000Y-159500000D03*
X229450000Y-159500000D03*
%TD*%
D22*
%TO.C,TP27*%
X244000000Y-183000000D03*
%TD*%
D37*
%TO.C,C65*%
X168200000Y-162025000D03*
X168200000Y-163575000D03*
%TD*%
D58*
%TO.C,D1*%
X251395000Y-119450000D03*
X258195000Y-119450000D03*
%TD*%
D13*
%TO.C,R5*%
X253050000Y-127025000D03*
X253050000Y-128675000D03*
%TD*%
D59*
%TO.C,L2*%
X264020000Y-154950000D03*
X260320000Y-154950000D03*
%TD*%
D22*
%TO.C,TP21*%
X219050000Y-204350000D03*
%TD*%
D31*
%TO.C,C110*%
X199600000Y-121950000D03*
X201500000Y-121950000D03*
%TD*%
D10*
%TO.C,R47*%
X240950000Y-197600000D03*
X240950000Y-195950000D03*
%TD*%
D60*
%TO.C,U1*%
X257445000Y-132500000D03*
D61*
X260145000Y-134405000D03*
X260145000Y-133135000D03*
X260145000Y-131865000D03*
X260145000Y-130595000D03*
X254745000Y-130595000D03*
X254745000Y-131865000D03*
X254745000Y-133135000D03*
X254745000Y-134405000D03*
%TD*%
D26*
%TO.C,R81*%
X173037500Y-182100000D03*
X175962500Y-182100000D03*
%TD*%
D10*
%TO.C,R39*%
X232450000Y-172400000D03*
X232450000Y-170750000D03*
%TD*%
D22*
%TO.C,TP25*%
X249000000Y-189000000D03*
%TD*%
%TO.C,TP2*%
X272020000Y-142450000D03*
%TD*%
D12*
%TO.C,R85*%
X176225000Y-175750000D03*
X174575000Y-175750000D03*
%TD*%
D17*
%TO.C,J5*%
X124870000Y-141600000D03*
X124870000Y-114400000D03*
X103530000Y-141600000D03*
X103530000Y-114400000D03*
D18*
X118760000Y-120825000D03*
D19*
X118760000Y-125270000D03*
X118760000Y-130730000D03*
X118760000Y-135175000D03*
X109640000Y-135175000D03*
X109640000Y-130730000D03*
X109640000Y-125270000D03*
X109640000Y-120825000D03*
%TD*%
D23*
%TO.C,R103*%
X168000000Y-182400000D03*
X169650000Y-182400000D03*
%TD*%
D51*
%TO.C,D13*%
X188512500Y-97300000D03*
X188512500Y-99200000D03*
X190387500Y-98250000D03*
%TD*%
D62*
%TO.C,D15*%
X221650000Y-137150000D03*
X221650000Y-140450000D03*
%TD*%
D30*
%TO.C,JP1*%
X247950000Y-124250000D03*
X247950000Y-122950000D03*
X247950000Y-121650000D03*
%TD*%
D10*
%TO.C,R50*%
X261550000Y-197600000D03*
X261550000Y-195950000D03*
%TD*%
D37*
%TO.C,C54*%
X201450000Y-194500000D03*
X201450000Y-196050000D03*
%TD*%
D28*
%TO.C,C77*%
X206825000Y-206550000D03*
X205275000Y-206550000D03*
%TD*%
%TO.C,C50*%
X246725000Y-193950000D03*
X245175000Y-193950000D03*
%TD*%
D14*
%TO.C,C89*%
X184825000Y-198550000D03*
X186375000Y-198550000D03*
%TD*%
D23*
%TO.C,R16*%
X259925000Y-164050000D03*
X261575000Y-164050000D03*
%TD*%
%TO.C,R10*%
X270370000Y-155950000D03*
X272020000Y-155950000D03*
%TD*%
D35*
%TO.C,C18*%
X260400000Y-159300000D03*
X260400000Y-161200000D03*
%TD*%
D23*
%TO.C,R26*%
X237100000Y-208350000D03*
X238750000Y-208350000D03*
%TD*%
D14*
%TO.C,C105*%
X214750000Y-116600000D03*
X216300000Y-116600000D03*
%TD*%
D37*
%TO.C,C109*%
X202950000Y-118200000D03*
X202950000Y-119750000D03*
%TD*%
D23*
%TO.C,R6*%
X254750000Y-128650000D03*
X256400000Y-128650000D03*
%TD*%
D13*
%TO.C,R17*%
X139300000Y-191675000D03*
X139300000Y-193325000D03*
%TD*%
D12*
%TO.C,R77*%
X210700000Y-208150000D03*
X209050000Y-208150000D03*
%TD*%
D22*
%TO.C,TP47*%
X212350000Y-201050000D03*
%TD*%
D10*
%TO.C,R112*%
X202000000Y-126825000D03*
X202000000Y-125175000D03*
%TD*%
%TO.C,R122*%
X184350000Y-97375000D03*
X184350000Y-95725000D03*
%TD*%
%TO.C,R105*%
X213275000Y-109985000D03*
X213275000Y-108335000D03*
%TD*%
D22*
%TO.C,TP40*%
X186200000Y-123200000D03*
%TD*%
D55*
%TO.C,C58*%
X229250000Y-208225000D03*
X229250000Y-206675000D03*
%TD*%
D52*
%TO.C,C9*%
X265295000Y-138450000D03*
X265295000Y-135500000D03*
%TD*%
D13*
%TO.C,R88*%
X183800000Y-194800000D03*
X183800000Y-196450000D03*
%TD*%
D12*
%TO.C,R60*%
X216775000Y-195450000D03*
X215125000Y-195450000D03*
%TD*%
D55*
%TO.C,C66*%
X182445000Y-160390000D03*
X182445000Y-158840000D03*
%TD*%
D14*
%TO.C,C90*%
X184650000Y-154000000D03*
X186200000Y-154000000D03*
%TD*%
D44*
%TO.C,C17*%
X254020000Y-152950000D03*
X254020000Y-151050000D03*
%TD*%
D23*
%TO.C,R11*%
X270370000Y-152950000D03*
X272020000Y-152950000D03*
%TD*%
%TO.C,R35*%
X253900000Y-218050000D03*
X255550000Y-218050000D03*
%TD*%
D32*
%TO.C,C117*%
X233000000Y-114325000D03*
X231100000Y-114325000D03*
%TD*%
D28*
%TO.C,C71*%
X179200000Y-171750000D03*
X177650000Y-171750000D03*
%TD*%
D31*
%TO.C,C33*%
X227550000Y-168950000D03*
X229450000Y-168950000D03*
%TD*%
D22*
%TO.C,TP10*%
X243300000Y-204000000D03*
%TD*%
D23*
%TO.C,R106*%
X217100000Y-105735000D03*
X218750000Y-105735000D03*
%TD*%
%TO.C,R127*%
X217050000Y-137150000D03*
X218700000Y-137150000D03*
%TD*%
D63*
%TO.C,Q1*%
X265520000Y-108900000D03*
D64*
X267800000Y-102600000D03*
D63*
X270080000Y-108900000D03*
%TD*%
D65*
%TO.C,C36*%
X227550000Y-157200000D03*
X230500000Y-157200000D03*
%TD*%
D22*
%TO.C,TP16*%
X244000000Y-178800000D03*
%TD*%
D29*
%TO.C,C23*%
X168650000Y-203125000D03*
X168650000Y-206075000D03*
%TD*%
D47*
%TO.C,JP3*%
X186445000Y-156340000D03*
X185145000Y-156340000D03*
X183845000Y-156340000D03*
%TD*%
D23*
%TO.C,R113*%
X203625000Y-110350000D03*
X205275000Y-110350000D03*
%TD*%
D52*
%TO.C,C5*%
X224450000Y-208175000D03*
X224450000Y-205225000D03*
%TD*%
D55*
%TO.C,C80*%
X182500000Y-205500000D03*
X182500000Y-203950000D03*
%TD*%
D41*
%TO.C,U6*%
X230400000Y-176210000D03*
X230400000Y-174940000D03*
X230400000Y-173670000D03*
X230400000Y-172400000D03*
X225450000Y-172400000D03*
X225450000Y-173670000D03*
X225450000Y-174940000D03*
X225450000Y-176210000D03*
%TD*%
D10*
%TO.C,R57*%
X221950000Y-199850000D03*
X221950000Y-198200000D03*
%TD*%
D12*
%TO.C,R100*%
X203650000Y-171650000D03*
X202000000Y-171650000D03*
%TD*%
D66*
%TO.C,F3*%
X170550000Y-104450000D03*
X173350000Y-104450000D03*
%TD*%
D14*
%TO.C,C13*%
X267175000Y-153250000D03*
X268725000Y-153250000D03*
%TD*%
D22*
%TO.C,TP4*%
X271020000Y-167950000D03*
%TD*%
D67*
%TO.C,U3*%
X253900000Y-163900000D03*
X253900000Y-161600000D03*
D68*
X247600000Y-161600000D03*
D67*
X253900000Y-159300000D03*
%TD*%
D10*
%TO.C,R49*%
X254800000Y-197600000D03*
X254800000Y-195950000D03*
%TD*%
D13*
%TO.C,R131*%
X202850000Y-114800000D03*
X202850000Y-116450000D03*
%TD*%
D22*
%TO.C,TP19*%
X221750000Y-204300000D03*
%TD*%
D26*
%TO.C,R80*%
X173150000Y-179700000D03*
X176075000Y-179700000D03*
%TD*%
D22*
%TO.C,TP44*%
X171900000Y-113700000D03*
%TD*%
D34*
%TO.C,U15*%
X210455000Y-173775000D03*
X209185000Y-173775000D03*
X207915000Y-173775000D03*
X206645000Y-173775000D03*
X206645000Y-178725000D03*
X207915000Y-178725000D03*
X209185000Y-178725000D03*
X210455000Y-178725000D03*
%TD*%
D69*
%TO.C,C1*%
X251795000Y-113100000D03*
X251795000Y-105700000D03*
%TD*%
D37*
%TO.C,C76*%
X185700000Y-194850000D03*
X185700000Y-196400000D03*
%TD*%
D36*
%TO.C,H1*%
X101000000Y-95000000D03*
%TD*%
D44*
%TO.C,C101*%
X213525000Y-105635000D03*
X213525000Y-103735000D03*
%TD*%
D22*
%TO.C,TP28*%
X185000000Y-188400000D03*
%TD*%
D54*
%TO.C,U10*%
X256500000Y-191050000D03*
X257450000Y-191050000D03*
X258400000Y-191050000D03*
X258400000Y-188775000D03*
X257450000Y-188775000D03*
X256500000Y-188775000D03*
%TD*%
D22*
%TO.C,TP3*%
X271020000Y-162450000D03*
%TD*%
D23*
%TO.C,R8*%
X266225000Y-148450000D03*
X267875000Y-148450000D03*
%TD*%
D37*
%TO.C,C4*%
X272020000Y-112625000D03*
X272020000Y-114175000D03*
%TD*%
D23*
%TO.C,R95*%
X177525000Y-204700000D03*
X179175000Y-204700000D03*
%TD*%
D22*
%TO.C,TP11*%
X246000000Y-204000000D03*
%TD*%
D49*
%TO.C,U20*%
X224300000Y-137130000D03*
X224300000Y-139670000D03*
X233300000Y-139670000D03*
X233300000Y-137130000D03*
%TD*%
D22*
%TO.C,TP26*%
X254200000Y-189000000D03*
%TD*%
D56*
%TO.C,J20*%
X193950000Y-103900000D03*
D57*
X196490000Y-103900000D03*
X193950000Y-106440000D03*
X196490000Y-106440000D03*
X193950000Y-108980000D03*
X196490000Y-108980000D03*
X193950000Y-111520000D03*
X196490000Y-111520000D03*
X193950000Y-114060000D03*
X196490000Y-114060000D03*
X193950000Y-116600000D03*
X196490000Y-116600000D03*
X193950000Y-119140000D03*
X196490000Y-119140000D03*
X193950000Y-121680000D03*
X196490000Y-121680000D03*
X193950000Y-124220000D03*
X196490000Y-124220000D03*
X193950000Y-126760000D03*
X196490000Y-126760000D03*
%TD*%
D22*
%TO.C,TP15*%
X234700000Y-204100000D03*
%TD*%
D14*
%TO.C,C30*%
X227350000Y-180105000D03*
X228900000Y-180105000D03*
%TD*%
D37*
%TO.C,C8*%
X252450000Y-133275000D03*
X252450000Y-134825000D03*
%TD*%
D28*
%TO.C,C74*%
X176200000Y-173900000D03*
X174650000Y-173900000D03*
%TD*%
D35*
%TO.C,C114*%
X199250000Y-104400000D03*
X199250000Y-106300000D03*
%TD*%
D14*
%TO.C,C98*%
X170675000Y-107950000D03*
X172225000Y-107950000D03*
%TD*%
D55*
%TO.C,C11*%
X270250000Y-137725000D03*
X270250000Y-136175000D03*
%TD*%
D22*
%TO.C,TP50*%
X184350000Y-104550000D03*
%TD*%
D56*
%TO.C,J23*%
X237130000Y-167400000D03*
D57*
X239670000Y-167400000D03*
X237130000Y-169940000D03*
X239670000Y-169940000D03*
X237130000Y-172480000D03*
X239670000Y-172480000D03*
X237130000Y-175020000D03*
X239670000Y-175020000D03*
X237130000Y-177560000D03*
X239670000Y-177560000D03*
X237130000Y-180100000D03*
X239670000Y-180100000D03*
X237130000Y-182640000D03*
X239670000Y-182640000D03*
X237130000Y-185180000D03*
X239670000Y-185180000D03*
X237130000Y-187720000D03*
X239670000Y-187720000D03*
X237130000Y-190260000D03*
X239670000Y-190260000D03*
%TD*%
D14*
%TO.C,C40*%
X240275000Y-208300000D03*
X241825000Y-208300000D03*
%TD*%
D37*
%TO.C,C22*%
X256200000Y-162450000D03*
X256200000Y-164000000D03*
%TD*%
%TO.C,C46*%
X256200000Y-203150000D03*
X256200000Y-204700000D03*
%TD*%
D10*
%TO.C,R40*%
X232350000Y-184600000D03*
X232350000Y-182950000D03*
%TD*%
D35*
%TO.C,C21*%
X258150000Y-162950000D03*
X258150000Y-164850000D03*
%TD*%
D13*
%TO.C,R1*%
X264520000Y-112575000D03*
X264520000Y-114225000D03*
%TD*%
D22*
%TO.C,TP49*%
X184400000Y-93100000D03*
%TD*%
D28*
%TO.C,C78*%
X179250000Y-194600000D03*
X177700000Y-194600000D03*
%TD*%
%TO.C,C106*%
X213900000Y-125200000D03*
X212350000Y-125200000D03*
%TD*%
D31*
%TO.C,C75*%
X199450000Y-182100000D03*
X201350000Y-182100000D03*
%TD*%
D10*
%TO.C,R61*%
X213450000Y-195500000D03*
X213450000Y-193850000D03*
%TD*%
D12*
%TO.C,R99*%
X208400000Y-167550000D03*
X206750000Y-167550000D03*
%TD*%
D54*
%TO.C,U11*%
X197450000Y-196550000D03*
X198400000Y-196550000D03*
X199350000Y-196550000D03*
X199350000Y-194275000D03*
X198400000Y-194275000D03*
X197450000Y-194275000D03*
%TD*%
D22*
%TO.C,TP9*%
X271770000Y-124550000D03*
%TD*%
D13*
%TO.C,R58*%
X219200000Y-198300000D03*
X219200000Y-199950000D03*
%TD*%
D23*
%TO.C,R13*%
X262370000Y-119400000D03*
X264020000Y-119400000D03*
%TD*%
%TO.C,R128*%
X235150000Y-136000000D03*
X236800000Y-136000000D03*
%TD*%
D12*
%TO.C,R67*%
X214475000Y-208150000D03*
X212825000Y-208150000D03*
%TD*%
D44*
%TO.C,C122*%
X200950000Y-116400000D03*
X200950000Y-114500000D03*
%TD*%
D47*
%TO.C,JP4*%
X186450000Y-178600000D03*
X185150000Y-178600000D03*
X183850000Y-178600000D03*
%TD*%
D37*
%TO.C,C79*%
X168200000Y-172025000D03*
X168200000Y-173575000D03*
%TD*%
D47*
%TO.C,JP5*%
X186500000Y-201450000D03*
X185200000Y-201450000D03*
X183900000Y-201450000D03*
%TD*%
D12*
%TO.C,R102*%
X201000000Y-176550000D03*
X199350000Y-176550000D03*
%TD*%
D29*
%TO.C,C14*%
X262750000Y-144500000D03*
X262750000Y-147450000D03*
%TD*%
D12*
%TO.C,R74*%
X201025000Y-180300000D03*
X199375000Y-180300000D03*
%TD*%
D10*
%TO.C,R129*%
X195800000Y-136350000D03*
X195800000Y-134700000D03*
%TD*%
D23*
%TO.C,R124*%
X216950000Y-129650000D03*
X218600000Y-129650000D03*
%TD*%
%TO.C,R107*%
X218875000Y-103685000D03*
X220525000Y-103685000D03*
%TD*%
D41*
%TO.C,U17*%
X220450000Y-111190000D03*
X220450000Y-109920000D03*
X220450000Y-108650000D03*
X220450000Y-107380000D03*
X215500000Y-107380000D03*
X215500000Y-108650000D03*
X215500000Y-109920000D03*
X215500000Y-111190000D03*
%TD*%
D35*
%TO.C,C107*%
X200000000Y-125250000D03*
X200000000Y-127150000D03*
%TD*%
D23*
%TO.C,R46*%
X200700000Y-206550000D03*
X202350000Y-206550000D03*
%TD*%
%TO.C,R70*%
X174595000Y-155340000D03*
X176245000Y-155340000D03*
%TD*%
D28*
%TO.C,C52*%
X259725000Y-192775000D03*
X258175000Y-192775000D03*
%TD*%
D22*
%TO.C,TP13*%
X240350000Y-204050000D03*
%TD*%
D12*
%TO.C,R22*%
X223200000Y-184300000D03*
X221550000Y-184300000D03*
%TD*%
D43*
%TO.C,D6*%
X250520000Y-147875000D03*
X250520000Y-149450000D03*
%TD*%
D37*
%TO.C,C19*%
X256200000Y-159275000D03*
X256200000Y-160825000D03*
%TD*%
D62*
%TO.C,D14*%
X221750000Y-129550000D03*
X221750000Y-132850000D03*
%TD*%
D70*
%TO.C,U18*%
X230095000Y-110250000D03*
X231365000Y-110250000D03*
X232635000Y-110250000D03*
X233905000Y-110250000D03*
X233905000Y-105300000D03*
X232635000Y-105300000D03*
X231365000Y-105300000D03*
X230095000Y-105300000D03*
%TD*%
D37*
%TO.C,C115*%
X201550000Y-104550000D03*
X201550000Y-106100000D03*
%TD*%
D71*
%TO.C,F1*%
X257065000Y-100900000D03*
X261975000Y-100900000D03*
%TD*%
D72*
%TO.C,U8*%
X237850000Y-152950000D03*
X236900000Y-152950000D03*
X235950000Y-152950000D03*
X235950000Y-155225000D03*
X236900000Y-155225000D03*
X237850000Y-155225000D03*
%TD*%
D12*
%TO.C,R86*%
X201025000Y-183900000D03*
X199375000Y-183900000D03*
%TD*%
D36*
%TO.C,H3*%
X136600000Y-214900000D03*
%TD*%
D44*
%TO.C,C102*%
X222925000Y-108685000D03*
X222925000Y-106785000D03*
%TD*%
D12*
%TO.C,R23*%
X223200000Y-181750000D03*
X221550000Y-181750000D03*
%TD*%
D73*
%TO.C,D18*%
X199550000Y-137137500D03*
X201450000Y-137137500D03*
X200500000Y-135262500D03*
%TD*%
D55*
%TO.C,C73*%
X182450000Y-182650000D03*
X182450000Y-181100000D03*
%TD*%
D28*
%TO.C,C81*%
X176250000Y-196750000D03*
X174700000Y-196750000D03*
%TD*%
D13*
%TO.C,R43*%
X249700000Y-200050000D03*
X249700000Y-201700000D03*
%TD*%
D14*
%TO.C,C37*%
X243325000Y-206700000D03*
X244875000Y-206700000D03*
%TD*%
D28*
%TO.C,C12*%
X266020000Y-159450000D03*
X264470000Y-159450000D03*
%TD*%
%TO.C,C84*%
X203400000Y-167550000D03*
X201850000Y-167550000D03*
%TD*%
D74*
%TO.C,D16*%
X176650000Y-104450000D03*
X180650000Y-104450000D03*
%TD*%
D22*
%TO.C,TP46*%
X186200000Y-118700000D03*
%TD*%
%TO.C,TP51*%
X247820000Y-126750000D03*
%TD*%
D13*
%TO.C,R9*%
X269450000Y-148325000D03*
X269450000Y-149975000D03*
%TD*%
%TO.C,R12*%
X266450000Y-155750000D03*
X266450000Y-157400000D03*
%TD*%
D12*
%TO.C,R108*%
X216325000Y-120250000D03*
X214675000Y-120250000D03*
%TD*%
D28*
%TO.C,C64*%
X214425000Y-206550000D03*
X212875000Y-206550000D03*
%TD*%
D23*
%TO.C,R83*%
X177475000Y-181850000D03*
X179125000Y-181850000D03*
%TD*%
%TO.C,R94*%
X174650000Y-200450000D03*
X176300000Y-200450000D03*
%TD*%
D13*
%TO.C,R52*%
X242950000Y-195950000D03*
X242950000Y-197600000D03*
%TD*%
D37*
%TO.C,C35*%
X236900000Y-157025000D03*
X236900000Y-158575000D03*
%TD*%
D13*
%TO.C,R42*%
X248200000Y-200050000D03*
X248200000Y-201700000D03*
%TD*%
D10*
%TO.C,R30*%
X237650000Y-151200000D03*
X237650000Y-149550000D03*
%TD*%
D13*
%TO.C,R78*%
X180950000Y-170200000D03*
X180950000Y-171850000D03*
%TD*%
D22*
%TO.C,TP31*%
X189200000Y-155200000D03*
%TD*%
D37*
%TO.C,C44*%
X248200000Y-203125000D03*
X248200000Y-204675000D03*
%TD*%
%TO.C,C93*%
X137300000Y-196125000D03*
X137300000Y-197675000D03*
%TD*%
D75*
X257270000Y-94400000D03*
X251770000Y-94400000D03*
X125170000Y-207040000D03*
X125170000Y-171960000D03*
X103830000Y-207040000D03*
X103830000Y-171960000D03*
X119060000Y-178390000D03*
X119060000Y-182830000D03*
X119060000Y-187280000D03*
X119060000Y-191720000D03*
X119060000Y-196170000D03*
X119060000Y-200610000D03*
X109940000Y-200610000D03*
X109940000Y-196170000D03*
X109940000Y-191720000D03*
X109940000Y-187280000D03*
X109940000Y-182830000D03*
X109940000Y-178390000D03*
X164297500Y-207290000D03*
X164297500Y-202210000D03*
X143977500Y-194590000D03*
X143977500Y-204750000D03*
X143977500Y-214910000D03*
X268950000Y-94900000D03*
X243950000Y-210500000D03*
X241180000Y-210500000D03*
X238410000Y-210500000D03*
X235640000Y-210500000D03*
X232870000Y-210500000D03*
X230100000Y-210500000D03*
X227330000Y-210500000D03*
X224560000Y-210500000D03*
X221790000Y-210500000D03*
X219020000Y-210500000D03*
X216250000Y-210500000D03*
X213480000Y-210500000D03*
X210710000Y-210500000D03*
X207940000Y-210500000D03*
X205170000Y-210500000D03*
X202400000Y-210500000D03*
X199630000Y-210500000D03*
X196860000Y-210500000D03*
X194090000Y-210500000D03*
X242565000Y-213040000D03*
X239795000Y-213040000D03*
X237025000Y-213040000D03*
X234255000Y-213040000D03*
X231485000Y-213040000D03*
X228715000Y-213040000D03*
X225945000Y-213040000D03*
X223175000Y-213040000D03*
X220405000Y-213040000D03*
X217635000Y-213040000D03*
X214865000Y-213040000D03*
X212095000Y-213040000D03*
X209325000Y-213040000D03*
X206555000Y-213040000D03*
X203785000Y-213040000D03*
X201015000Y-213040000D03*
X198245000Y-213040000D03*
X195475000Y-213040000D03*
X187270000Y-211770000D03*
X250770000Y-211770000D03*
X268950000Y-214900000D03*
X161770000Y-146739999D03*
X161770000Y-111659999D03*
X140430000Y-146739999D03*
X140430000Y-111659999D03*
X155660000Y-118089999D03*
X155660000Y-122529999D03*
X155660000Y-126979999D03*
X155660000Y-131419999D03*
X155660000Y-135869999D03*
X155660000Y-140309999D03*
X146540000Y-140309999D03*
X146540000Y-135869999D03*
X146540000Y-131419999D03*
X146540000Y-126979999D03*
X146540000Y-122529999D03*
X146540000Y-118089999D03*
X193950000Y-167400000D03*
X196490000Y-167400000D03*
X193950000Y-169940000D03*
X196490000Y-169940000D03*
X193950000Y-172480000D03*
X196490000Y-172480000D03*
X193950000Y-175020000D03*
X196490000Y-175020000D03*
X193950000Y-177560000D03*
X196490000Y-177560000D03*
X193950000Y-180100000D03*
X196490000Y-180100000D03*
X193950000Y-182640000D03*
X196490000Y-182640000D03*
X193950000Y-185180000D03*
X196490000Y-185180000D03*
X193950000Y-187720000D03*
X196490000Y-187720000D03*
X193950000Y-190260000D03*
X196490000Y-190260000D03*
X237130000Y-103900000D03*
X239670000Y-103900000D03*
X237130000Y-106440000D03*
X239670000Y-106440000D03*
X237130000Y-108980000D03*
X239670000Y-108980000D03*
X237130000Y-111520000D03*
X239670000Y-111520000D03*
X237130000Y-114060000D03*
X239670000Y-114060000D03*
X237130000Y-116600000D03*
X239670000Y-116600000D03*
X237130000Y-119140000D03*
X239670000Y-119140000D03*
X237130000Y-121680000D03*
X239670000Y-121680000D03*
X237130000Y-124220000D03*
X239670000Y-124220000D03*
X237130000Y-126760000D03*
X239670000Y-126760000D03*
X124870000Y-141600000D03*
X124870000Y-114400000D03*
X103530000Y-141600000D03*
X103530000Y-114400000D03*
X118760000Y-120825000D03*
X118760000Y-125270000D03*
X118760000Y-130730000D03*
X118760000Y-135175000D03*
X109640000Y-135175000D03*
X109640000Y-130730000D03*
X109640000Y-125270000D03*
X109640000Y-120825000D03*
X212350000Y-201050000D03*
X101000000Y-95000000D03*
X193950000Y-103900000D03*
X196490000Y-103900000D03*
X193950000Y-106440000D03*
X196490000Y-106440000D03*
X193950000Y-108980000D03*
X196490000Y-108980000D03*
X193950000Y-111520000D03*
X196490000Y-111520000D03*
X193950000Y-114060000D03*
X196490000Y-114060000D03*
X193950000Y-116600000D03*
X196490000Y-116600000D03*
X193950000Y-119140000D03*
X196490000Y-119140000D03*
X193950000Y-121680000D03*
X196490000Y-121680000D03*
X193950000Y-124220000D03*
X196490000Y-124220000D03*
X193950000Y-126760000D03*
X196490000Y-126760000D03*
X237130000Y-167400000D03*
X239670000Y-167400000D03*
X237130000Y-169940000D03*
X239670000Y-169940000D03*
X237130000Y-172480000D03*
X239670000Y-172480000D03*
X237130000Y-175020000D03*
X239670000Y-175020000D03*
X237130000Y-177560000D03*
X239670000Y-177560000D03*
X237130000Y-180100000D03*
X239670000Y-180100000D03*
X237130000Y-182640000D03*
X239670000Y-182640000D03*
X237130000Y-185180000D03*
X239670000Y-185180000D03*
X237130000Y-187720000D03*
X239670000Y-187720000D03*
X237130000Y-190260000D03*
X239670000Y-190260000D03*
X136600000Y-214900000D03*
X186200000Y-118700000D03*
M02*
