%TF.GenerationSoftware,KiCad,Pcbnew,10.0.6*%
%TF.CreationDate,2026-09-23T19:27:56-03:00*%
%TF.ProjectId,FE_UFPR_4_0,46455f55-4650-4525-9f34-5f302e6b6963,4.0*%
%TF.SameCoordinates,Original*%
%TF.FileFunction,Drillmap*%
%TF.FilePolarity,Positive*%
%FSLAX45Y45*%
G04 Gerber Fmt 4.5, Leading zero omitted, Abs format (unit mm)*
G04 Created by KiCad (PCBNEW 10.0.6) date 2026-09-23 19:27:56*
%MOMM*%
%LPD*%
G01*
G04 APERTURE LIST*
%ADD10C,0.100000*%
%ADD11C,0.200000*%
%ADD12C,0.220000*%
%ADD13C,0.430000*%
G04 APERTURE END LIST*
D10*
X12795000Y-8990000D02*
X18935000Y-8990000D01*
X12795000Y-21990000D02*
X12795000Y-8990000D01*
X18935000Y-8990000D02*
X27395000Y-8990000D01*
X27395000Y-8990000D02*
X27395000Y-21990000D01*
X27395000Y-21990000D02*
X12795000Y-21990000D01*
D11*
D12*
X15739550Y-10573250D02*
X15959550Y-10793250D01*
X15959550Y-10573250D02*
X15739550Y-10793250D01*
X15739550Y-14002250D02*
X15959550Y-14222250D01*
X15959550Y-14002250D02*
X15739550Y-14222250D01*
X15740000Y-15160000D02*
X15960000Y-15380000D01*
X15960000Y-15160000D02*
X15740000Y-15380000D01*
X15740000Y-18589000D02*
X15960000Y-18809000D01*
X15960000Y-18589000D02*
X15740000Y-18809000D01*
D13*
X13510000Y-9490000D02*
G75*
G02*
X13080000Y-9490000I-215000J0D01*
G01*
X13080000Y-9490000D02*
G75*
G02*
X13510000Y-9490000I215000J0D01*
G01*
X13510000Y-21490000D02*
G75*
G02*
X13080000Y-21490000I-215000J0D01*
G01*
X13080000Y-21490000D02*
G75*
G02*
X13510000Y-21490000I215000J0D01*
G01*
X27110000Y-9490000D02*
G75*
G02*
X26680000Y-9490000I-215000J0D01*
G01*
X26680000Y-9490000D02*
G75*
G02*
X27110000Y-9490000I215000J0D01*
G01*
X27110000Y-21490000D02*
G75*
G02*
X26680000Y-21490000I-215000J0D01*
G01*
X26680000Y-21490000D02*
G75*
G02*
X27110000Y-21490000I215000J0D01*
G01*
D11*
X13050777Y-22306484D02*
X13050777Y-22106484D01*
X13050777Y-22106484D02*
X13098396Y-22106484D01*
X13098396Y-22106484D02*
X13126967Y-22116008D01*
X13126967Y-22116008D02*
X13146015Y-22135055D01*
X13146015Y-22135055D02*
X13155539Y-22154103D01*
X13155539Y-22154103D02*
X13165062Y-22192198D01*
X13165062Y-22192198D02*
X13165062Y-22220770D01*
X13165062Y-22220770D02*
X13155539Y-22258865D01*
X13155539Y-22258865D02*
X13146015Y-22277912D01*
X13146015Y-22277912D02*
X13126967Y-22296960D01*
X13126967Y-22296960D02*
X13098396Y-22306484D01*
X13098396Y-22306484D02*
X13050777Y-22306484D01*
X13250777Y-22306484D02*
X13250777Y-22173150D01*
X13250777Y-22211246D02*
X13260301Y-22192198D01*
X13260301Y-22192198D02*
X13269824Y-22182674D01*
X13269824Y-22182674D02*
X13288872Y-22173150D01*
X13288872Y-22173150D02*
X13307920Y-22173150D01*
X13374586Y-22306484D02*
X13374586Y-22173150D01*
X13374586Y-22106484D02*
X13365062Y-22116008D01*
X13365062Y-22116008D02*
X13374586Y-22125531D01*
X13374586Y-22125531D02*
X13384110Y-22116008D01*
X13384110Y-22116008D02*
X13374586Y-22106484D01*
X13374586Y-22106484D02*
X13374586Y-22125531D01*
X13498396Y-22306484D02*
X13479348Y-22296960D01*
X13479348Y-22296960D02*
X13469824Y-22277912D01*
X13469824Y-22277912D02*
X13469824Y-22106484D01*
X13603158Y-22306484D02*
X13584110Y-22296960D01*
X13584110Y-22296960D02*
X13574586Y-22277912D01*
X13574586Y-22277912D02*
X13574586Y-22106484D01*
X13831729Y-22306484D02*
X13831729Y-22106484D01*
X13831729Y-22106484D02*
X13898396Y-22249341D01*
X13898396Y-22249341D02*
X13965062Y-22106484D01*
X13965062Y-22106484D02*
X13965062Y-22306484D01*
X14146015Y-22306484D02*
X14146015Y-22201722D01*
X14146015Y-22201722D02*
X14136491Y-22182674D01*
X14136491Y-22182674D02*
X14117443Y-22173150D01*
X14117443Y-22173150D02*
X14079348Y-22173150D01*
X14079348Y-22173150D02*
X14060301Y-22182674D01*
X14146015Y-22296960D02*
X14126967Y-22306484D01*
X14126967Y-22306484D02*
X14079348Y-22306484D01*
X14079348Y-22306484D02*
X14060301Y-22296960D01*
X14060301Y-22296960D02*
X14050777Y-22277912D01*
X14050777Y-22277912D02*
X14050777Y-22258865D01*
X14050777Y-22258865D02*
X14060301Y-22239817D01*
X14060301Y-22239817D02*
X14079348Y-22230293D01*
X14079348Y-22230293D02*
X14126967Y-22230293D01*
X14126967Y-22230293D02*
X14146015Y-22220770D01*
X14241253Y-22173150D02*
X14241253Y-22373150D01*
X14241253Y-22182674D02*
X14260301Y-22173150D01*
X14260301Y-22173150D02*
X14298396Y-22173150D01*
X14298396Y-22173150D02*
X14317443Y-22182674D01*
X14317443Y-22182674D02*
X14326967Y-22192198D01*
X14326967Y-22192198D02*
X14336491Y-22211246D01*
X14336491Y-22211246D02*
X14336491Y-22268389D01*
X14336491Y-22268389D02*
X14326967Y-22287436D01*
X14326967Y-22287436D02*
X14317443Y-22296960D01*
X14317443Y-22296960D02*
X14298396Y-22306484D01*
X14298396Y-22306484D02*
X14260301Y-22306484D01*
X14260301Y-22306484D02*
X14241253Y-22296960D01*
X14422205Y-22287436D02*
X14431729Y-22296960D01*
X14431729Y-22296960D02*
X14422205Y-22306484D01*
X14422205Y-22306484D02*
X14412682Y-22296960D01*
X14412682Y-22296960D02*
X14422205Y-22287436D01*
X14422205Y-22287436D02*
X14422205Y-22306484D01*
X14422205Y-22182674D02*
X14431729Y-22192198D01*
X14431729Y-22192198D02*
X14422205Y-22201722D01*
X14422205Y-22201722D02*
X14412682Y-22192198D01*
X14412682Y-22192198D02*
X14422205Y-22182674D01*
X14422205Y-22182674D02*
X14422205Y-22201722D01*
X12590000Y-22535000D02*
X12790000Y-22735000D01*
X12790000Y-22535000D02*
X12590000Y-22735000D01*
X13041253Y-22545531D02*
X13050777Y-22536008D01*
X13050777Y-22536008D02*
X13069824Y-22526484D01*
X13069824Y-22526484D02*
X13117443Y-22526484D01*
X13117443Y-22526484D02*
X13136491Y-22536008D01*
X13136491Y-22536008D02*
X13146015Y-22545531D01*
X13146015Y-22545531D02*
X13155539Y-22564579D01*
X13155539Y-22564579D02*
X13155539Y-22583627D01*
X13155539Y-22583627D02*
X13146015Y-22612198D01*
X13146015Y-22612198D02*
X13031729Y-22726484D01*
X13031729Y-22726484D02*
X13155539Y-22726484D01*
X13250777Y-22716960D02*
X13250777Y-22726484D01*
X13250777Y-22726484D02*
X13241253Y-22745531D01*
X13241253Y-22745531D02*
X13231729Y-22755055D01*
X13326967Y-22545531D02*
X13336491Y-22536008D01*
X13336491Y-22536008D02*
X13355539Y-22526484D01*
X13355539Y-22526484D02*
X13403158Y-22526484D01*
X13403158Y-22526484D02*
X13422205Y-22536008D01*
X13422205Y-22536008D02*
X13431729Y-22545531D01*
X13431729Y-22545531D02*
X13441253Y-22564579D01*
X13441253Y-22564579D02*
X13441253Y-22583627D01*
X13441253Y-22583627D02*
X13431729Y-22612198D01*
X13431729Y-22612198D02*
X13317443Y-22726484D01*
X13317443Y-22726484D02*
X13441253Y-22726484D01*
X13565062Y-22526484D02*
X13584110Y-22526484D01*
X13584110Y-22526484D02*
X13603158Y-22536008D01*
X13603158Y-22536008D02*
X13612682Y-22545531D01*
X13612682Y-22545531D02*
X13622205Y-22564579D01*
X13622205Y-22564579D02*
X13631729Y-22602674D01*
X13631729Y-22602674D02*
X13631729Y-22650293D01*
X13631729Y-22650293D02*
X13622205Y-22688388D01*
X13622205Y-22688388D02*
X13612682Y-22707436D01*
X13612682Y-22707436D02*
X13603158Y-22716960D01*
X13603158Y-22716960D02*
X13584110Y-22726484D01*
X13584110Y-22726484D02*
X13565062Y-22726484D01*
X13565062Y-22726484D02*
X13546015Y-22716960D01*
X13546015Y-22716960D02*
X13536491Y-22707436D01*
X13536491Y-22707436D02*
X13526967Y-22688388D01*
X13526967Y-22688388D02*
X13517443Y-22650293D01*
X13517443Y-22650293D02*
X13517443Y-22602674D01*
X13517443Y-22602674D02*
X13526967Y-22564579D01*
X13526967Y-22564579D02*
X13536491Y-22545531D01*
X13536491Y-22545531D02*
X13546015Y-22536008D01*
X13546015Y-22536008D02*
X13565062Y-22526484D01*
X13755539Y-22526484D02*
X13774586Y-22526484D01*
X13774586Y-22526484D02*
X13793634Y-22536008D01*
X13793634Y-22536008D02*
X13803158Y-22545531D01*
X13803158Y-22545531D02*
X13812682Y-22564579D01*
X13812682Y-22564579D02*
X13822205Y-22602674D01*
X13822205Y-22602674D02*
X13822205Y-22650293D01*
X13822205Y-22650293D02*
X13812682Y-22688388D01*
X13812682Y-22688388D02*
X13803158Y-22707436D01*
X13803158Y-22707436D02*
X13793634Y-22716960D01*
X13793634Y-22716960D02*
X13774586Y-22726484D01*
X13774586Y-22726484D02*
X13755539Y-22726484D01*
X13755539Y-22726484D02*
X13736491Y-22716960D01*
X13736491Y-22716960D02*
X13726967Y-22707436D01*
X13726967Y-22707436D02*
X13717443Y-22688388D01*
X13717443Y-22688388D02*
X13707920Y-22650293D01*
X13707920Y-22650293D02*
X13707920Y-22602674D01*
X13707920Y-22602674D02*
X13717443Y-22564579D01*
X13717443Y-22564579D02*
X13726967Y-22545531D01*
X13726967Y-22545531D02*
X13736491Y-22536008D01*
X13736491Y-22536008D02*
X13755539Y-22526484D01*
X13907920Y-22726484D02*
X13907920Y-22593150D01*
X13907920Y-22612198D02*
X13917443Y-22602674D01*
X13917443Y-22602674D02*
X13936491Y-22593150D01*
X13936491Y-22593150D02*
X13965063Y-22593150D01*
X13965063Y-22593150D02*
X13984110Y-22602674D01*
X13984110Y-22602674D02*
X13993634Y-22621722D01*
X13993634Y-22621722D02*
X13993634Y-22726484D01*
X13993634Y-22621722D02*
X14003158Y-22602674D01*
X14003158Y-22602674D02*
X14022205Y-22593150D01*
X14022205Y-22593150D02*
X14050777Y-22593150D01*
X14050777Y-22593150D02*
X14069824Y-22602674D01*
X14069824Y-22602674D02*
X14079348Y-22621722D01*
X14079348Y-22621722D02*
X14079348Y-22726484D01*
X14174586Y-22726484D02*
X14174586Y-22593150D01*
X14174586Y-22612198D02*
X14184110Y-22602674D01*
X14184110Y-22602674D02*
X14203158Y-22593150D01*
X14203158Y-22593150D02*
X14231729Y-22593150D01*
X14231729Y-22593150D02*
X14250777Y-22602674D01*
X14250777Y-22602674D02*
X14260301Y-22621722D01*
X14260301Y-22621722D02*
X14260301Y-22726484D01*
X14260301Y-22621722D02*
X14269824Y-22602674D01*
X14269824Y-22602674D02*
X14288872Y-22593150D01*
X14288872Y-22593150D02*
X14317443Y-22593150D01*
X14317443Y-22593150D02*
X14336491Y-22602674D01*
X14336491Y-22602674D02*
X14346015Y-22621722D01*
X14346015Y-22621722D02*
X14346015Y-22726484D01*
X14736491Y-22516960D02*
X14565063Y-22774103D01*
X14993634Y-22526484D02*
X15012682Y-22526484D01*
X15012682Y-22526484D02*
X15031729Y-22536008D01*
X15031729Y-22536008D02*
X15041253Y-22545531D01*
X15041253Y-22545531D02*
X15050777Y-22564579D01*
X15050777Y-22564579D02*
X15060301Y-22602674D01*
X15060301Y-22602674D02*
X15060301Y-22650293D01*
X15060301Y-22650293D02*
X15050777Y-22688388D01*
X15050777Y-22688388D02*
X15041253Y-22707436D01*
X15041253Y-22707436D02*
X15031729Y-22716960D01*
X15031729Y-22716960D02*
X15012682Y-22726484D01*
X15012682Y-22726484D02*
X14993634Y-22726484D01*
X14993634Y-22726484D02*
X14974586Y-22716960D01*
X14974586Y-22716960D02*
X14965063Y-22707436D01*
X14965063Y-22707436D02*
X14955539Y-22688388D01*
X14955539Y-22688388D02*
X14946015Y-22650293D01*
X14946015Y-22650293D02*
X14946015Y-22602674D01*
X14946015Y-22602674D02*
X14955539Y-22564579D01*
X14955539Y-22564579D02*
X14965063Y-22545531D01*
X14965063Y-22545531D02*
X14974586Y-22536008D01*
X14974586Y-22536008D02*
X14993634Y-22526484D01*
X15155539Y-22716960D02*
X15155539Y-22726484D01*
X15155539Y-22726484D02*
X15146015Y-22745531D01*
X15146015Y-22745531D02*
X15136491Y-22755055D01*
X15279348Y-22526484D02*
X15298396Y-22526484D01*
X15298396Y-22526484D02*
X15317444Y-22536008D01*
X15317444Y-22536008D02*
X15326967Y-22545531D01*
X15326967Y-22545531D02*
X15336491Y-22564579D01*
X15336491Y-22564579D02*
X15346015Y-22602674D01*
X15346015Y-22602674D02*
X15346015Y-22650293D01*
X15346015Y-22650293D02*
X15336491Y-22688388D01*
X15336491Y-22688388D02*
X15326967Y-22707436D01*
X15326967Y-22707436D02*
X15317444Y-22716960D01*
X15317444Y-22716960D02*
X15298396Y-22726484D01*
X15298396Y-22726484D02*
X15279348Y-22726484D01*
X15279348Y-22726484D02*
X15260301Y-22716960D01*
X15260301Y-22716960D02*
X15250777Y-22707436D01*
X15250777Y-22707436D02*
X15241253Y-22688388D01*
X15241253Y-22688388D02*
X15231729Y-22650293D01*
X15231729Y-22650293D02*
X15231729Y-22602674D01*
X15231729Y-22602674D02*
X15241253Y-22564579D01*
X15241253Y-22564579D02*
X15250777Y-22545531D01*
X15250777Y-22545531D02*
X15260301Y-22536008D01*
X15260301Y-22536008D02*
X15279348Y-22526484D01*
X15460301Y-22612198D02*
X15441253Y-22602674D01*
X15441253Y-22602674D02*
X15431729Y-22593150D01*
X15431729Y-22593150D02*
X15422206Y-22574103D01*
X15422206Y-22574103D02*
X15422206Y-22564579D01*
X15422206Y-22564579D02*
X15431729Y-22545531D01*
X15431729Y-22545531D02*
X15441253Y-22536008D01*
X15441253Y-22536008D02*
X15460301Y-22526484D01*
X15460301Y-22526484D02*
X15498396Y-22526484D01*
X15498396Y-22526484D02*
X15517444Y-22536008D01*
X15517444Y-22536008D02*
X15526967Y-22545531D01*
X15526967Y-22545531D02*
X15536491Y-22564579D01*
X15536491Y-22564579D02*
X15536491Y-22574103D01*
X15536491Y-22574103D02*
X15526967Y-22593150D01*
X15526967Y-22593150D02*
X15517444Y-22602674D01*
X15517444Y-22602674D02*
X15498396Y-22612198D01*
X15498396Y-22612198D02*
X15460301Y-22612198D01*
X15460301Y-22612198D02*
X15441253Y-22621722D01*
X15441253Y-22621722D02*
X15431729Y-22631246D01*
X15431729Y-22631246D02*
X15422206Y-22650293D01*
X15422206Y-22650293D02*
X15422206Y-22688388D01*
X15422206Y-22688388D02*
X15431729Y-22707436D01*
X15431729Y-22707436D02*
X15441253Y-22716960D01*
X15441253Y-22716960D02*
X15460301Y-22726484D01*
X15460301Y-22726484D02*
X15498396Y-22726484D01*
X15498396Y-22726484D02*
X15517444Y-22716960D01*
X15517444Y-22716960D02*
X15526967Y-22707436D01*
X15526967Y-22707436D02*
X15536491Y-22688388D01*
X15536491Y-22688388D02*
X15536491Y-22650293D01*
X15536491Y-22650293D02*
X15526967Y-22631246D01*
X15526967Y-22631246D02*
X15517444Y-22621722D01*
X15517444Y-22621722D02*
X15498396Y-22612198D01*
X15707920Y-22526484D02*
X15669825Y-22526484D01*
X15669825Y-22526484D02*
X15650777Y-22536008D01*
X15650777Y-22536008D02*
X15641253Y-22545531D01*
X15641253Y-22545531D02*
X15622206Y-22574103D01*
X15622206Y-22574103D02*
X15612682Y-22612198D01*
X15612682Y-22612198D02*
X15612682Y-22688388D01*
X15612682Y-22688388D02*
X15622206Y-22707436D01*
X15622206Y-22707436D02*
X15631729Y-22716960D01*
X15631729Y-22716960D02*
X15650777Y-22726484D01*
X15650777Y-22726484D02*
X15688872Y-22726484D01*
X15688872Y-22726484D02*
X15707920Y-22716960D01*
X15707920Y-22716960D02*
X15717444Y-22707436D01*
X15717444Y-22707436D02*
X15726967Y-22688388D01*
X15726967Y-22688388D02*
X15726967Y-22640769D01*
X15726967Y-22640769D02*
X15717444Y-22621722D01*
X15717444Y-22621722D02*
X15707920Y-22612198D01*
X15707920Y-22612198D02*
X15688872Y-22602674D01*
X15688872Y-22602674D02*
X15650777Y-22602674D01*
X15650777Y-22602674D02*
X15631729Y-22612198D01*
X15631729Y-22612198D02*
X15622206Y-22621722D01*
X15622206Y-22621722D02*
X15612682Y-22640769D01*
X15898396Y-22526484D02*
X15860301Y-22526484D01*
X15860301Y-22526484D02*
X15841253Y-22536008D01*
X15841253Y-22536008D02*
X15831729Y-22545531D01*
X15831729Y-22545531D02*
X15812682Y-22574103D01*
X15812682Y-22574103D02*
X15803158Y-22612198D01*
X15803158Y-22612198D02*
X15803158Y-22688388D01*
X15803158Y-22688388D02*
X15812682Y-22707436D01*
X15812682Y-22707436D02*
X15822206Y-22716960D01*
X15822206Y-22716960D02*
X15841253Y-22726484D01*
X15841253Y-22726484D02*
X15879348Y-22726484D01*
X15879348Y-22726484D02*
X15898396Y-22716960D01*
X15898396Y-22716960D02*
X15907920Y-22707436D01*
X15907920Y-22707436D02*
X15917444Y-22688388D01*
X15917444Y-22688388D02*
X15917444Y-22640769D01*
X15917444Y-22640769D02*
X15907920Y-22621722D01*
X15907920Y-22621722D02*
X15898396Y-22612198D01*
X15898396Y-22612198D02*
X15879348Y-22602674D01*
X15879348Y-22602674D02*
X15841253Y-22602674D01*
X15841253Y-22602674D02*
X15822206Y-22612198D01*
X15822206Y-22612198D02*
X15812682Y-22621722D01*
X15812682Y-22621722D02*
X15803158Y-22640769D01*
X15993634Y-22526484D02*
X15993634Y-22564579D01*
X16069825Y-22526484D02*
X16069825Y-22564579D01*
X16365063Y-22802674D02*
X16355539Y-22793150D01*
X16355539Y-22793150D02*
X16336491Y-22764579D01*
X16336491Y-22764579D02*
X16326968Y-22745531D01*
X16326968Y-22745531D02*
X16317444Y-22716960D01*
X16317444Y-22716960D02*
X16307920Y-22669341D01*
X16307920Y-22669341D02*
X16307920Y-22631246D01*
X16307920Y-22631246D02*
X16317444Y-22583627D01*
X16317444Y-22583627D02*
X16326968Y-22555055D01*
X16326968Y-22555055D02*
X16336491Y-22536008D01*
X16336491Y-22536008D02*
X16355539Y-22507436D01*
X16355539Y-22507436D02*
X16365063Y-22497912D01*
X16526968Y-22593150D02*
X16526968Y-22726484D01*
X16479348Y-22516960D02*
X16431729Y-22659817D01*
X16431729Y-22659817D02*
X16555539Y-22659817D01*
X16784111Y-22726484D02*
X16784111Y-22526484D01*
X16869825Y-22726484D02*
X16869825Y-22621722D01*
X16869825Y-22621722D02*
X16860301Y-22602674D01*
X16860301Y-22602674D02*
X16841253Y-22593150D01*
X16841253Y-22593150D02*
X16812682Y-22593150D01*
X16812682Y-22593150D02*
X16793634Y-22602674D01*
X16793634Y-22602674D02*
X16784111Y-22612198D01*
X16993634Y-22726484D02*
X16974587Y-22716960D01*
X16974587Y-22716960D02*
X16965063Y-22707436D01*
X16965063Y-22707436D02*
X16955539Y-22688388D01*
X16955539Y-22688388D02*
X16955539Y-22631246D01*
X16955539Y-22631246D02*
X16965063Y-22612198D01*
X16965063Y-22612198D02*
X16974587Y-22602674D01*
X16974587Y-22602674D02*
X16993634Y-22593150D01*
X16993634Y-22593150D02*
X17022206Y-22593150D01*
X17022206Y-22593150D02*
X17041253Y-22602674D01*
X17041253Y-22602674D02*
X17050777Y-22612198D01*
X17050777Y-22612198D02*
X17060301Y-22631246D01*
X17060301Y-22631246D02*
X17060301Y-22688388D01*
X17060301Y-22688388D02*
X17050777Y-22707436D01*
X17050777Y-22707436D02*
X17041253Y-22716960D01*
X17041253Y-22716960D02*
X17022206Y-22726484D01*
X17022206Y-22726484D02*
X16993634Y-22726484D01*
X17174587Y-22726484D02*
X17155539Y-22716960D01*
X17155539Y-22716960D02*
X17146015Y-22697912D01*
X17146015Y-22697912D02*
X17146015Y-22526484D01*
X17326968Y-22716960D02*
X17307920Y-22726484D01*
X17307920Y-22726484D02*
X17269825Y-22726484D01*
X17269825Y-22726484D02*
X17250777Y-22716960D01*
X17250777Y-22716960D02*
X17241253Y-22697912D01*
X17241253Y-22697912D02*
X17241253Y-22621722D01*
X17241253Y-22621722D02*
X17250777Y-22602674D01*
X17250777Y-22602674D02*
X17269825Y-22593150D01*
X17269825Y-22593150D02*
X17307920Y-22593150D01*
X17307920Y-22593150D02*
X17326968Y-22602674D01*
X17326968Y-22602674D02*
X17336492Y-22621722D01*
X17336492Y-22621722D02*
X17336492Y-22640769D01*
X17336492Y-22640769D02*
X17241253Y-22659817D01*
X17412682Y-22716960D02*
X17431730Y-22726484D01*
X17431730Y-22726484D02*
X17469825Y-22726484D01*
X17469825Y-22726484D02*
X17488873Y-22716960D01*
X17488873Y-22716960D02*
X17498396Y-22697912D01*
X17498396Y-22697912D02*
X17498396Y-22688388D01*
X17498396Y-22688388D02*
X17488873Y-22669341D01*
X17488873Y-22669341D02*
X17469825Y-22659817D01*
X17469825Y-22659817D02*
X17441253Y-22659817D01*
X17441253Y-22659817D02*
X17422206Y-22650293D01*
X17422206Y-22650293D02*
X17412682Y-22631246D01*
X17412682Y-22631246D02*
X17412682Y-22621722D01*
X17412682Y-22621722D02*
X17422206Y-22602674D01*
X17422206Y-22602674D02*
X17441253Y-22593150D01*
X17441253Y-22593150D02*
X17469825Y-22593150D01*
X17469825Y-22593150D02*
X17488873Y-22602674D01*
X17565063Y-22802674D02*
X17574587Y-22793150D01*
X17574587Y-22793150D02*
X17593634Y-22764579D01*
X17593634Y-22764579D02*
X17603158Y-22745531D01*
X17603158Y-22745531D02*
X17612682Y-22716960D01*
X17612682Y-22716960D02*
X17622206Y-22669341D01*
X17622206Y-22669341D02*
X17622206Y-22631246D01*
X17622206Y-22631246D02*
X17612682Y-22583627D01*
X17612682Y-22583627D02*
X17603158Y-22555055D01*
X17603158Y-22555055D02*
X17593634Y-22536008D01*
X17593634Y-22536008D02*
X17574587Y-22507436D01*
X17574587Y-22507436D02*
X17565063Y-22497912D01*
X17926968Y-22802674D02*
X17917444Y-22793150D01*
X17917444Y-22793150D02*
X17898396Y-22764579D01*
X17898396Y-22764579D02*
X17888873Y-22745531D01*
X17888873Y-22745531D02*
X17879349Y-22716960D01*
X17879349Y-22716960D02*
X17869825Y-22669341D01*
X17869825Y-22669341D02*
X17869825Y-22631246D01*
X17869825Y-22631246D02*
X17879349Y-22583627D01*
X17879349Y-22583627D02*
X17888873Y-22555055D01*
X17888873Y-22555055D02*
X17898396Y-22536008D01*
X17898396Y-22536008D02*
X17917444Y-22507436D01*
X17917444Y-22507436D02*
X17926968Y-22497912D01*
X18003158Y-22593150D02*
X18003158Y-22726484D01*
X18003158Y-22612198D02*
X18012682Y-22602674D01*
X18012682Y-22602674D02*
X18031730Y-22593150D01*
X18031730Y-22593150D02*
X18060301Y-22593150D01*
X18060301Y-22593150D02*
X18079349Y-22602674D01*
X18079349Y-22602674D02*
X18088873Y-22621722D01*
X18088873Y-22621722D02*
X18088873Y-22726484D01*
X18212682Y-22726484D02*
X18193634Y-22716960D01*
X18193634Y-22716960D02*
X18184111Y-22707436D01*
X18184111Y-22707436D02*
X18174587Y-22688388D01*
X18174587Y-22688388D02*
X18174587Y-22631246D01*
X18174587Y-22631246D02*
X18184111Y-22612198D01*
X18184111Y-22612198D02*
X18193634Y-22602674D01*
X18193634Y-22602674D02*
X18212682Y-22593150D01*
X18212682Y-22593150D02*
X18241254Y-22593150D01*
X18241254Y-22593150D02*
X18260301Y-22602674D01*
X18260301Y-22602674D02*
X18269825Y-22612198D01*
X18269825Y-22612198D02*
X18279349Y-22631246D01*
X18279349Y-22631246D02*
X18279349Y-22688388D01*
X18279349Y-22688388D02*
X18269825Y-22707436D01*
X18269825Y-22707436D02*
X18260301Y-22716960D01*
X18260301Y-22716960D02*
X18241254Y-22726484D01*
X18241254Y-22726484D02*
X18212682Y-22726484D01*
X18336492Y-22593150D02*
X18412682Y-22593150D01*
X18365063Y-22526484D02*
X18365063Y-22697912D01*
X18365063Y-22697912D02*
X18374587Y-22716960D01*
X18374587Y-22716960D02*
X18393634Y-22726484D01*
X18393634Y-22726484D02*
X18412682Y-22726484D01*
X18631730Y-22593150D02*
X18631730Y-22793150D01*
X18631730Y-22602674D02*
X18650777Y-22593150D01*
X18650777Y-22593150D02*
X18688873Y-22593150D01*
X18688873Y-22593150D02*
X18707920Y-22602674D01*
X18707920Y-22602674D02*
X18717444Y-22612198D01*
X18717444Y-22612198D02*
X18726968Y-22631246D01*
X18726968Y-22631246D02*
X18726968Y-22688388D01*
X18726968Y-22688388D02*
X18717444Y-22707436D01*
X18717444Y-22707436D02*
X18707920Y-22716960D01*
X18707920Y-22716960D02*
X18688873Y-22726484D01*
X18688873Y-22726484D02*
X18650777Y-22726484D01*
X18650777Y-22726484D02*
X18631730Y-22716960D01*
X18841254Y-22726484D02*
X18822206Y-22716960D01*
X18822206Y-22716960D02*
X18812682Y-22697912D01*
X18812682Y-22697912D02*
X18812682Y-22526484D01*
X19003158Y-22726484D02*
X19003158Y-22621722D01*
X19003158Y-22621722D02*
X18993635Y-22602674D01*
X18993635Y-22602674D02*
X18974587Y-22593150D01*
X18974587Y-22593150D02*
X18936492Y-22593150D01*
X18936492Y-22593150D02*
X18917444Y-22602674D01*
X19003158Y-22716960D02*
X18984111Y-22726484D01*
X18984111Y-22726484D02*
X18936492Y-22726484D01*
X18936492Y-22726484D02*
X18917444Y-22716960D01*
X18917444Y-22716960D02*
X18907920Y-22697912D01*
X18907920Y-22697912D02*
X18907920Y-22678865D01*
X18907920Y-22678865D02*
X18917444Y-22659817D01*
X18917444Y-22659817D02*
X18936492Y-22650293D01*
X18936492Y-22650293D02*
X18984111Y-22650293D01*
X18984111Y-22650293D02*
X19003158Y-22640769D01*
X19069825Y-22593150D02*
X19146015Y-22593150D01*
X19098396Y-22526484D02*
X19098396Y-22697912D01*
X19098396Y-22697912D02*
X19107920Y-22716960D01*
X19107920Y-22716960D02*
X19126968Y-22726484D01*
X19126968Y-22726484D02*
X19146015Y-22726484D01*
X19288873Y-22716960D02*
X19269825Y-22726484D01*
X19269825Y-22726484D02*
X19231730Y-22726484D01*
X19231730Y-22726484D02*
X19212682Y-22716960D01*
X19212682Y-22716960D02*
X19203158Y-22697912D01*
X19203158Y-22697912D02*
X19203158Y-22621722D01*
X19203158Y-22621722D02*
X19212682Y-22602674D01*
X19212682Y-22602674D02*
X19231730Y-22593150D01*
X19231730Y-22593150D02*
X19269825Y-22593150D01*
X19269825Y-22593150D02*
X19288873Y-22602674D01*
X19288873Y-22602674D02*
X19298396Y-22621722D01*
X19298396Y-22621722D02*
X19298396Y-22640769D01*
X19298396Y-22640769D02*
X19203158Y-22659817D01*
X19469825Y-22726484D02*
X19469825Y-22526484D01*
X19469825Y-22716960D02*
X19450777Y-22726484D01*
X19450777Y-22726484D02*
X19412682Y-22726484D01*
X19412682Y-22726484D02*
X19393635Y-22716960D01*
X19393635Y-22716960D02*
X19384111Y-22707436D01*
X19384111Y-22707436D02*
X19374587Y-22688388D01*
X19374587Y-22688388D02*
X19374587Y-22631246D01*
X19374587Y-22631246D02*
X19384111Y-22612198D01*
X19384111Y-22612198D02*
X19393635Y-22602674D01*
X19393635Y-22602674D02*
X19412682Y-22593150D01*
X19412682Y-22593150D02*
X19450777Y-22593150D01*
X19450777Y-22593150D02*
X19469825Y-22602674D01*
X19546016Y-22802674D02*
X19555539Y-22793150D01*
X19555539Y-22793150D02*
X19574587Y-22764579D01*
X19574587Y-22764579D02*
X19584111Y-22745531D01*
X19584111Y-22745531D02*
X19593635Y-22716960D01*
X19593635Y-22716960D02*
X19603158Y-22669341D01*
X19603158Y-22669341D02*
X19603158Y-22631246D01*
X19603158Y-22631246D02*
X19593635Y-22583627D01*
X19593635Y-22583627D02*
X19584111Y-22555055D01*
X19584111Y-22555055D02*
X19574587Y-22536008D01*
X19574587Y-22536008D02*
X19555539Y-22507436D01*
X19555539Y-22507436D02*
X19546016Y-22497912D01*
X12790000Y-22955000D02*
G75*
G02*
X12590000Y-22955000I-100000J0D01*
G01*
X12590000Y-22955000D02*
G75*
G02*
X12790000Y-22955000I100000J0D01*
G01*
X13136491Y-22913150D02*
X13136491Y-23046484D01*
X13088872Y-22836960D02*
X13041253Y-22979817D01*
X13041253Y-22979817D02*
X13165062Y-22979817D01*
X13250777Y-23036960D02*
X13250777Y-23046484D01*
X13250777Y-23046484D02*
X13241253Y-23065531D01*
X13241253Y-23065531D02*
X13231729Y-23075055D01*
X13317443Y-22846484D02*
X13441253Y-22846484D01*
X13441253Y-22846484D02*
X13374586Y-22922674D01*
X13374586Y-22922674D02*
X13403158Y-22922674D01*
X13403158Y-22922674D02*
X13422205Y-22932198D01*
X13422205Y-22932198D02*
X13431729Y-22941722D01*
X13431729Y-22941722D02*
X13441253Y-22960769D01*
X13441253Y-22960769D02*
X13441253Y-23008388D01*
X13441253Y-23008388D02*
X13431729Y-23027436D01*
X13431729Y-23027436D02*
X13422205Y-23036960D01*
X13422205Y-23036960D02*
X13403158Y-23046484D01*
X13403158Y-23046484D02*
X13346015Y-23046484D01*
X13346015Y-23046484D02*
X13326967Y-23036960D01*
X13326967Y-23036960D02*
X13317443Y-23027436D01*
X13565062Y-22846484D02*
X13584110Y-22846484D01*
X13584110Y-22846484D02*
X13603158Y-22856008D01*
X13603158Y-22856008D02*
X13612682Y-22865531D01*
X13612682Y-22865531D02*
X13622205Y-22884579D01*
X13622205Y-22884579D02*
X13631729Y-22922674D01*
X13631729Y-22922674D02*
X13631729Y-22970293D01*
X13631729Y-22970293D02*
X13622205Y-23008388D01*
X13622205Y-23008388D02*
X13612682Y-23027436D01*
X13612682Y-23027436D02*
X13603158Y-23036960D01*
X13603158Y-23036960D02*
X13584110Y-23046484D01*
X13584110Y-23046484D02*
X13565062Y-23046484D01*
X13565062Y-23046484D02*
X13546015Y-23036960D01*
X13546015Y-23036960D02*
X13536491Y-23027436D01*
X13536491Y-23027436D02*
X13526967Y-23008388D01*
X13526967Y-23008388D02*
X13517443Y-22970293D01*
X13517443Y-22970293D02*
X13517443Y-22922674D01*
X13517443Y-22922674D02*
X13526967Y-22884579D01*
X13526967Y-22884579D02*
X13536491Y-22865531D01*
X13536491Y-22865531D02*
X13546015Y-22856008D01*
X13546015Y-22856008D02*
X13565062Y-22846484D01*
X13755539Y-22846484D02*
X13774586Y-22846484D01*
X13774586Y-22846484D02*
X13793634Y-22856008D01*
X13793634Y-22856008D02*
X13803158Y-22865531D01*
X13803158Y-22865531D02*
X13812682Y-22884579D01*
X13812682Y-22884579D02*
X13822205Y-22922674D01*
X13822205Y-22922674D02*
X13822205Y-22970293D01*
X13822205Y-22970293D02*
X13812682Y-23008388D01*
X13812682Y-23008388D02*
X13803158Y-23027436D01*
X13803158Y-23027436D02*
X13793634Y-23036960D01*
X13793634Y-23036960D02*
X13774586Y-23046484D01*
X13774586Y-23046484D02*
X13755539Y-23046484D01*
X13755539Y-23046484D02*
X13736491Y-23036960D01*
X13736491Y-23036960D02*
X13726967Y-23027436D01*
X13726967Y-23027436D02*
X13717443Y-23008388D01*
X13717443Y-23008388D02*
X13707920Y-22970293D01*
X13707920Y-22970293D02*
X13707920Y-22922674D01*
X13707920Y-22922674D02*
X13717443Y-22884579D01*
X13717443Y-22884579D02*
X13726967Y-22865531D01*
X13726967Y-22865531D02*
X13736491Y-22856008D01*
X13736491Y-22856008D02*
X13755539Y-22846484D01*
X13907920Y-23046484D02*
X13907920Y-22913150D01*
X13907920Y-22932198D02*
X13917443Y-22922674D01*
X13917443Y-22922674D02*
X13936491Y-22913150D01*
X13936491Y-22913150D02*
X13965063Y-22913150D01*
X13965063Y-22913150D02*
X13984110Y-22922674D01*
X13984110Y-22922674D02*
X13993634Y-22941722D01*
X13993634Y-22941722D02*
X13993634Y-23046484D01*
X13993634Y-22941722D02*
X14003158Y-22922674D01*
X14003158Y-22922674D02*
X14022205Y-22913150D01*
X14022205Y-22913150D02*
X14050777Y-22913150D01*
X14050777Y-22913150D02*
X14069824Y-22922674D01*
X14069824Y-22922674D02*
X14079348Y-22941722D01*
X14079348Y-22941722D02*
X14079348Y-23046484D01*
X14174586Y-23046484D02*
X14174586Y-22913150D01*
X14174586Y-22932198D02*
X14184110Y-22922674D01*
X14184110Y-22922674D02*
X14203158Y-22913150D01*
X14203158Y-22913150D02*
X14231729Y-22913150D01*
X14231729Y-22913150D02*
X14250777Y-22922674D01*
X14250777Y-22922674D02*
X14260301Y-22941722D01*
X14260301Y-22941722D02*
X14260301Y-23046484D01*
X14260301Y-22941722D02*
X14269824Y-22922674D01*
X14269824Y-22922674D02*
X14288872Y-22913150D01*
X14288872Y-22913150D02*
X14317443Y-22913150D01*
X14317443Y-22913150D02*
X14336491Y-22922674D01*
X14336491Y-22922674D02*
X14346015Y-22941722D01*
X14346015Y-22941722D02*
X14346015Y-23046484D01*
X14736491Y-22836960D02*
X14565063Y-23094103D01*
X14993634Y-22846484D02*
X15012682Y-22846484D01*
X15012682Y-22846484D02*
X15031729Y-22856008D01*
X15031729Y-22856008D02*
X15041253Y-22865531D01*
X15041253Y-22865531D02*
X15050777Y-22884579D01*
X15050777Y-22884579D02*
X15060301Y-22922674D01*
X15060301Y-22922674D02*
X15060301Y-22970293D01*
X15060301Y-22970293D02*
X15050777Y-23008388D01*
X15050777Y-23008388D02*
X15041253Y-23027436D01*
X15041253Y-23027436D02*
X15031729Y-23036960D01*
X15031729Y-23036960D02*
X15012682Y-23046484D01*
X15012682Y-23046484D02*
X14993634Y-23046484D01*
X14993634Y-23046484D02*
X14974586Y-23036960D01*
X14974586Y-23036960D02*
X14965063Y-23027436D01*
X14965063Y-23027436D02*
X14955539Y-23008388D01*
X14955539Y-23008388D02*
X14946015Y-22970293D01*
X14946015Y-22970293D02*
X14946015Y-22922674D01*
X14946015Y-22922674D02*
X14955539Y-22884579D01*
X14955539Y-22884579D02*
X14965063Y-22865531D01*
X14965063Y-22865531D02*
X14974586Y-22856008D01*
X14974586Y-22856008D02*
X14993634Y-22846484D01*
X15155539Y-23036960D02*
X15155539Y-23046484D01*
X15155539Y-23046484D02*
X15146015Y-23065531D01*
X15146015Y-23065531D02*
X15136491Y-23075055D01*
X15346015Y-23046484D02*
X15231729Y-23046484D01*
X15288872Y-23046484D02*
X15288872Y-22846484D01*
X15288872Y-22846484D02*
X15269825Y-22875055D01*
X15269825Y-22875055D02*
X15250777Y-22894103D01*
X15250777Y-22894103D02*
X15231729Y-22903627D01*
X15517444Y-22846484D02*
X15479348Y-22846484D01*
X15479348Y-22846484D02*
X15460301Y-22856008D01*
X15460301Y-22856008D02*
X15450777Y-22865531D01*
X15450777Y-22865531D02*
X15431729Y-22894103D01*
X15431729Y-22894103D02*
X15422206Y-22932198D01*
X15422206Y-22932198D02*
X15422206Y-23008388D01*
X15422206Y-23008388D02*
X15431729Y-23027436D01*
X15431729Y-23027436D02*
X15441253Y-23036960D01*
X15441253Y-23036960D02*
X15460301Y-23046484D01*
X15460301Y-23046484D02*
X15498396Y-23046484D01*
X15498396Y-23046484D02*
X15517444Y-23036960D01*
X15517444Y-23036960D02*
X15526967Y-23027436D01*
X15526967Y-23027436D02*
X15536491Y-23008388D01*
X15536491Y-23008388D02*
X15536491Y-22960769D01*
X15536491Y-22960769D02*
X15526967Y-22941722D01*
X15526967Y-22941722D02*
X15517444Y-22932198D01*
X15517444Y-22932198D02*
X15498396Y-22922674D01*
X15498396Y-22922674D02*
X15460301Y-22922674D01*
X15460301Y-22922674D02*
X15441253Y-22932198D01*
X15441253Y-22932198D02*
X15431729Y-22941722D01*
X15431729Y-22941722D02*
X15422206Y-22960769D01*
X15631729Y-23046484D02*
X15669825Y-23046484D01*
X15669825Y-23046484D02*
X15688872Y-23036960D01*
X15688872Y-23036960D02*
X15698396Y-23027436D01*
X15698396Y-23027436D02*
X15717444Y-22998865D01*
X15717444Y-22998865D02*
X15726967Y-22960769D01*
X15726967Y-22960769D02*
X15726967Y-22884579D01*
X15726967Y-22884579D02*
X15717444Y-22865531D01*
X15717444Y-22865531D02*
X15707920Y-22856008D01*
X15707920Y-22856008D02*
X15688872Y-22846484D01*
X15688872Y-22846484D02*
X15650777Y-22846484D01*
X15650777Y-22846484D02*
X15631729Y-22856008D01*
X15631729Y-22856008D02*
X15622206Y-22865531D01*
X15622206Y-22865531D02*
X15612682Y-22884579D01*
X15612682Y-22884579D02*
X15612682Y-22932198D01*
X15612682Y-22932198D02*
X15622206Y-22951246D01*
X15622206Y-22951246D02*
X15631729Y-22960769D01*
X15631729Y-22960769D02*
X15650777Y-22970293D01*
X15650777Y-22970293D02*
X15688872Y-22970293D01*
X15688872Y-22970293D02*
X15707920Y-22960769D01*
X15707920Y-22960769D02*
X15717444Y-22951246D01*
X15717444Y-22951246D02*
X15726967Y-22932198D01*
X15793634Y-22846484D02*
X15917444Y-22846484D01*
X15917444Y-22846484D02*
X15850777Y-22922674D01*
X15850777Y-22922674D02*
X15879348Y-22922674D01*
X15879348Y-22922674D02*
X15898396Y-22932198D01*
X15898396Y-22932198D02*
X15907920Y-22941722D01*
X15907920Y-22941722D02*
X15917444Y-22960769D01*
X15917444Y-22960769D02*
X15917444Y-23008388D01*
X15917444Y-23008388D02*
X15907920Y-23027436D01*
X15907920Y-23027436D02*
X15898396Y-23036960D01*
X15898396Y-23036960D02*
X15879348Y-23046484D01*
X15879348Y-23046484D02*
X15822206Y-23046484D01*
X15822206Y-23046484D02*
X15803158Y-23036960D01*
X15803158Y-23036960D02*
X15793634Y-23027436D01*
X15993634Y-22846484D02*
X15993634Y-22884579D01*
X16069825Y-22846484D02*
X16069825Y-22884579D01*
X16365063Y-23122674D02*
X16355539Y-23113150D01*
X16355539Y-23113150D02*
X16336491Y-23084579D01*
X16336491Y-23084579D02*
X16326968Y-23065531D01*
X16326968Y-23065531D02*
X16317444Y-23036960D01*
X16317444Y-23036960D02*
X16307920Y-22989341D01*
X16307920Y-22989341D02*
X16307920Y-22951246D01*
X16307920Y-22951246D02*
X16317444Y-22903627D01*
X16317444Y-22903627D02*
X16326968Y-22875055D01*
X16326968Y-22875055D02*
X16336491Y-22856008D01*
X16336491Y-22856008D02*
X16355539Y-22827436D01*
X16355539Y-22827436D02*
X16365063Y-22817912D01*
X16526968Y-22913150D02*
X16526968Y-23046484D01*
X16479348Y-22836960D02*
X16431729Y-22979817D01*
X16431729Y-22979817D02*
X16555539Y-22979817D01*
X16784111Y-23046484D02*
X16784111Y-22846484D01*
X16869825Y-23046484D02*
X16869825Y-22941722D01*
X16869825Y-22941722D02*
X16860301Y-22922674D01*
X16860301Y-22922674D02*
X16841253Y-22913150D01*
X16841253Y-22913150D02*
X16812682Y-22913150D01*
X16812682Y-22913150D02*
X16793634Y-22922674D01*
X16793634Y-22922674D02*
X16784111Y-22932198D01*
X16993634Y-23046484D02*
X16974587Y-23036960D01*
X16974587Y-23036960D02*
X16965063Y-23027436D01*
X16965063Y-23027436D02*
X16955539Y-23008388D01*
X16955539Y-23008388D02*
X16955539Y-22951246D01*
X16955539Y-22951246D02*
X16965063Y-22932198D01*
X16965063Y-22932198D02*
X16974587Y-22922674D01*
X16974587Y-22922674D02*
X16993634Y-22913150D01*
X16993634Y-22913150D02*
X17022206Y-22913150D01*
X17022206Y-22913150D02*
X17041253Y-22922674D01*
X17041253Y-22922674D02*
X17050777Y-22932198D01*
X17050777Y-22932198D02*
X17060301Y-22951246D01*
X17060301Y-22951246D02*
X17060301Y-23008388D01*
X17060301Y-23008388D02*
X17050777Y-23027436D01*
X17050777Y-23027436D02*
X17041253Y-23036960D01*
X17041253Y-23036960D02*
X17022206Y-23046484D01*
X17022206Y-23046484D02*
X16993634Y-23046484D01*
X17174587Y-23046484D02*
X17155539Y-23036960D01*
X17155539Y-23036960D02*
X17146015Y-23017912D01*
X17146015Y-23017912D02*
X17146015Y-22846484D01*
X17326968Y-23036960D02*
X17307920Y-23046484D01*
X17307920Y-23046484D02*
X17269825Y-23046484D01*
X17269825Y-23046484D02*
X17250777Y-23036960D01*
X17250777Y-23036960D02*
X17241253Y-23017912D01*
X17241253Y-23017912D02*
X17241253Y-22941722D01*
X17241253Y-22941722D02*
X17250777Y-22922674D01*
X17250777Y-22922674D02*
X17269825Y-22913150D01*
X17269825Y-22913150D02*
X17307920Y-22913150D01*
X17307920Y-22913150D02*
X17326968Y-22922674D01*
X17326968Y-22922674D02*
X17336492Y-22941722D01*
X17336492Y-22941722D02*
X17336492Y-22960769D01*
X17336492Y-22960769D02*
X17241253Y-22979817D01*
X17412682Y-23036960D02*
X17431730Y-23046484D01*
X17431730Y-23046484D02*
X17469825Y-23046484D01*
X17469825Y-23046484D02*
X17488873Y-23036960D01*
X17488873Y-23036960D02*
X17498396Y-23017912D01*
X17498396Y-23017912D02*
X17498396Y-23008388D01*
X17498396Y-23008388D02*
X17488873Y-22989341D01*
X17488873Y-22989341D02*
X17469825Y-22979817D01*
X17469825Y-22979817D02*
X17441253Y-22979817D01*
X17441253Y-22979817D02*
X17422206Y-22970293D01*
X17422206Y-22970293D02*
X17412682Y-22951246D01*
X17412682Y-22951246D02*
X17412682Y-22941722D01*
X17412682Y-22941722D02*
X17422206Y-22922674D01*
X17422206Y-22922674D02*
X17441253Y-22913150D01*
X17441253Y-22913150D02*
X17469825Y-22913150D01*
X17469825Y-22913150D02*
X17488873Y-22922674D01*
X17565063Y-23122674D02*
X17574587Y-23113150D01*
X17574587Y-23113150D02*
X17593634Y-23084579D01*
X17593634Y-23084579D02*
X17603158Y-23065531D01*
X17603158Y-23065531D02*
X17612682Y-23036960D01*
X17612682Y-23036960D02*
X17622206Y-22989341D01*
X17622206Y-22989341D02*
X17622206Y-22951246D01*
X17622206Y-22951246D02*
X17612682Y-22903627D01*
X17612682Y-22903627D02*
X17603158Y-22875055D01*
X17603158Y-22875055D02*
X17593634Y-22856008D01*
X17593634Y-22856008D02*
X17574587Y-22827436D01*
X17574587Y-22827436D02*
X17565063Y-22817912D01*
X17926968Y-23122674D02*
X17917444Y-23113150D01*
X17917444Y-23113150D02*
X17898396Y-23084579D01*
X17898396Y-23084579D02*
X17888873Y-23065531D01*
X17888873Y-23065531D02*
X17879349Y-23036960D01*
X17879349Y-23036960D02*
X17869825Y-22989341D01*
X17869825Y-22989341D02*
X17869825Y-22951246D01*
X17869825Y-22951246D02*
X17879349Y-22903627D01*
X17879349Y-22903627D02*
X17888873Y-22875055D01*
X17888873Y-22875055D02*
X17898396Y-22856008D01*
X17898396Y-22856008D02*
X17917444Y-22827436D01*
X17917444Y-22827436D02*
X17926968Y-22817912D01*
X18003158Y-22913150D02*
X18003158Y-23046484D01*
X18003158Y-22932198D02*
X18012682Y-22922674D01*
X18012682Y-22922674D02*
X18031730Y-22913150D01*
X18031730Y-22913150D02*
X18060301Y-22913150D01*
X18060301Y-22913150D02*
X18079349Y-22922674D01*
X18079349Y-22922674D02*
X18088873Y-22941722D01*
X18088873Y-22941722D02*
X18088873Y-23046484D01*
X18212682Y-23046484D02*
X18193634Y-23036960D01*
X18193634Y-23036960D02*
X18184111Y-23027436D01*
X18184111Y-23027436D02*
X18174587Y-23008388D01*
X18174587Y-23008388D02*
X18174587Y-22951246D01*
X18174587Y-22951246D02*
X18184111Y-22932198D01*
X18184111Y-22932198D02*
X18193634Y-22922674D01*
X18193634Y-22922674D02*
X18212682Y-22913150D01*
X18212682Y-22913150D02*
X18241254Y-22913150D01*
X18241254Y-22913150D02*
X18260301Y-22922674D01*
X18260301Y-22922674D02*
X18269825Y-22932198D01*
X18269825Y-22932198D02*
X18279349Y-22951246D01*
X18279349Y-22951246D02*
X18279349Y-23008388D01*
X18279349Y-23008388D02*
X18269825Y-23027436D01*
X18269825Y-23027436D02*
X18260301Y-23036960D01*
X18260301Y-23036960D02*
X18241254Y-23046484D01*
X18241254Y-23046484D02*
X18212682Y-23046484D01*
X18336492Y-22913150D02*
X18412682Y-22913150D01*
X18365063Y-22846484D02*
X18365063Y-23017912D01*
X18365063Y-23017912D02*
X18374587Y-23036960D01*
X18374587Y-23036960D02*
X18393634Y-23046484D01*
X18393634Y-23046484D02*
X18412682Y-23046484D01*
X18631730Y-22913150D02*
X18631730Y-23113150D01*
X18631730Y-22922674D02*
X18650777Y-22913150D01*
X18650777Y-22913150D02*
X18688873Y-22913150D01*
X18688873Y-22913150D02*
X18707920Y-22922674D01*
X18707920Y-22922674D02*
X18717444Y-22932198D01*
X18717444Y-22932198D02*
X18726968Y-22951246D01*
X18726968Y-22951246D02*
X18726968Y-23008388D01*
X18726968Y-23008388D02*
X18717444Y-23027436D01*
X18717444Y-23027436D02*
X18707920Y-23036960D01*
X18707920Y-23036960D02*
X18688873Y-23046484D01*
X18688873Y-23046484D02*
X18650777Y-23046484D01*
X18650777Y-23046484D02*
X18631730Y-23036960D01*
X18841254Y-23046484D02*
X18822206Y-23036960D01*
X18822206Y-23036960D02*
X18812682Y-23017912D01*
X18812682Y-23017912D02*
X18812682Y-22846484D01*
X19003158Y-23046484D02*
X19003158Y-22941722D01*
X19003158Y-22941722D02*
X18993635Y-22922674D01*
X18993635Y-22922674D02*
X18974587Y-22913150D01*
X18974587Y-22913150D02*
X18936492Y-22913150D01*
X18936492Y-22913150D02*
X18917444Y-22922674D01*
X19003158Y-23036960D02*
X18984111Y-23046484D01*
X18984111Y-23046484D02*
X18936492Y-23046484D01*
X18936492Y-23046484D02*
X18917444Y-23036960D01*
X18917444Y-23036960D02*
X18907920Y-23017912D01*
X18907920Y-23017912D02*
X18907920Y-22998865D01*
X18907920Y-22998865D02*
X18917444Y-22979817D01*
X18917444Y-22979817D02*
X18936492Y-22970293D01*
X18936492Y-22970293D02*
X18984111Y-22970293D01*
X18984111Y-22970293D02*
X19003158Y-22960769D01*
X19069825Y-22913150D02*
X19146015Y-22913150D01*
X19098396Y-22846484D02*
X19098396Y-23017912D01*
X19098396Y-23017912D02*
X19107920Y-23036960D01*
X19107920Y-23036960D02*
X19126968Y-23046484D01*
X19126968Y-23046484D02*
X19146015Y-23046484D01*
X19288873Y-23036960D02*
X19269825Y-23046484D01*
X19269825Y-23046484D02*
X19231730Y-23046484D01*
X19231730Y-23046484D02*
X19212682Y-23036960D01*
X19212682Y-23036960D02*
X19203158Y-23017912D01*
X19203158Y-23017912D02*
X19203158Y-22941722D01*
X19203158Y-22941722D02*
X19212682Y-22922674D01*
X19212682Y-22922674D02*
X19231730Y-22913150D01*
X19231730Y-22913150D02*
X19269825Y-22913150D01*
X19269825Y-22913150D02*
X19288873Y-22922674D01*
X19288873Y-22922674D02*
X19298396Y-22941722D01*
X19298396Y-22941722D02*
X19298396Y-22960769D01*
X19298396Y-22960769D02*
X19203158Y-22979817D01*
X19469825Y-23046484D02*
X19469825Y-22846484D01*
X19469825Y-23036960D02*
X19450777Y-23046484D01*
X19450777Y-23046484D02*
X19412682Y-23046484D01*
X19412682Y-23046484D02*
X19393635Y-23036960D01*
X19393635Y-23036960D02*
X19384111Y-23027436D01*
X19384111Y-23027436D02*
X19374587Y-23008388D01*
X19374587Y-23008388D02*
X19374587Y-22951246D01*
X19374587Y-22951246D02*
X19384111Y-22932198D01*
X19384111Y-22932198D02*
X19393635Y-22922674D01*
X19393635Y-22922674D02*
X19412682Y-22913150D01*
X19412682Y-22913150D02*
X19450777Y-22913150D01*
X19450777Y-22913150D02*
X19469825Y-22922674D01*
X19546016Y-23122674D02*
X19555539Y-23113150D01*
X19555539Y-23113150D02*
X19574587Y-23084579D01*
X19574587Y-23084579D02*
X19584111Y-23065531D01*
X19584111Y-23065531D02*
X19593635Y-23036960D01*
X19593635Y-23036960D02*
X19603158Y-22989341D01*
X19603158Y-22989341D02*
X19603158Y-22951246D01*
X19603158Y-22951246D02*
X19593635Y-22903627D01*
X19593635Y-22903627D02*
X19584111Y-22875055D01*
X19584111Y-22875055D02*
X19574587Y-22856008D01*
X19574587Y-22856008D02*
X19555539Y-22827436D01*
X19555539Y-22827436D02*
X19546016Y-22817912D01*
M02*
