%TF.GenerationSoftware,KiCad,Pcbnew,10.0.6*%
%TF.CreationDate,2026-09-24T10:43:24-03:00*%
%TF.ProjectId,FE_UFPR_4_0,46455f55-4650-4525-9f34-5f302e6b6963,4.0*%
%TF.SameCoordinates,Original*%
%TF.FileFunction,Legend,Bot*%
%TF.FilePolarity,Positive*%
%FSLAX46Y46*%
G04 Gerber Fmt 4.6, Leading zero omitted, Abs format (unit mm)*
G04 Created by KiCad (PCBNEW 10.0.6) date 2026-09-24 10:43:24*
%MOMM*%
%LPD*%
G01*
G04 APERTURE LIST*
%ADD10C,0.250000*%
%ADD11C,0.300000*%
%ADD12C,0.150000*%
%ADD13C,0.120000*%
%ADD14C,0.000000*%
G04 APERTURE END LIST*
D10*
X158997431Y-176264619D02*
X158997431Y-175264619D01*
X158997431Y-175645571D02*
X158902193Y-175597952D01*
X158902193Y-175597952D02*
X158711717Y-175597952D01*
X158711717Y-175597952D02*
X158616479Y-175645571D01*
X158616479Y-175645571D02*
X158568860Y-175693190D01*
X158568860Y-175693190D02*
X158521241Y-175788428D01*
X158521241Y-175788428D02*
X158521241Y-176074142D01*
X158521241Y-176074142D02*
X158568860Y-176169380D01*
X158568860Y-176169380D02*
X158616479Y-176217000D01*
X158616479Y-176217000D02*
X158711717Y-176264619D01*
X158711717Y-176264619D02*
X158902193Y-176264619D01*
X158902193Y-176264619D02*
X158997431Y-176217000D01*
X158187907Y-175597952D02*
X157949812Y-176264619D01*
X157711717Y-175597952D02*
X157949812Y-176264619D01*
X157949812Y-176264619D02*
X158045050Y-176502714D01*
X158045050Y-176502714D02*
X158092669Y-176550333D01*
X158092669Y-176550333D02*
X158187907Y-176597952D01*
X156283145Y-175264619D02*
X156283145Y-175978904D01*
X156283145Y-175978904D02*
X156330764Y-176121761D01*
X156330764Y-176121761D02*
X156426002Y-176217000D01*
X156426002Y-176217000D02*
X156568859Y-176264619D01*
X156568859Y-176264619D02*
X156664097Y-176264619D01*
X155664097Y-176264619D02*
X155759335Y-176217000D01*
X155759335Y-176217000D02*
X155806954Y-176169380D01*
X155806954Y-176169380D02*
X155854573Y-176074142D01*
X155854573Y-176074142D02*
X155854573Y-175788428D01*
X155854573Y-175788428D02*
X155806954Y-175693190D01*
X155806954Y-175693190D02*
X155759335Y-175645571D01*
X155759335Y-175645571D02*
X155664097Y-175597952D01*
X155664097Y-175597952D02*
X155521240Y-175597952D01*
X155521240Y-175597952D02*
X155426002Y-175645571D01*
X155426002Y-175645571D02*
X155378383Y-175693190D01*
X155378383Y-175693190D02*
X155330764Y-175788428D01*
X155330764Y-175788428D02*
X155330764Y-176074142D01*
X155330764Y-176074142D02*
X155378383Y-176169380D01*
X155378383Y-176169380D02*
X155426002Y-176217000D01*
X155426002Y-176217000D02*
X155521240Y-176264619D01*
X155521240Y-176264619D02*
X155664097Y-176264619D01*
X154949811Y-176217000D02*
X154854573Y-176264619D01*
X154854573Y-176264619D02*
X154664097Y-176264619D01*
X154664097Y-176264619D02*
X154568859Y-176217000D01*
X154568859Y-176217000D02*
X154521240Y-176121761D01*
X154521240Y-176121761D02*
X154521240Y-176074142D01*
X154521240Y-176074142D02*
X154568859Y-175978904D01*
X154568859Y-175978904D02*
X154664097Y-175931285D01*
X154664097Y-175931285D02*
X154806954Y-175931285D01*
X154806954Y-175931285D02*
X154902192Y-175883666D01*
X154902192Y-175883666D02*
X154949811Y-175788428D01*
X154949811Y-175788428D02*
X154949811Y-175740809D01*
X154949811Y-175740809D02*
X154902192Y-175645571D01*
X154902192Y-175645571D02*
X154806954Y-175597952D01*
X154806954Y-175597952D02*
X154664097Y-175597952D01*
X154664097Y-175597952D02*
X154568859Y-175645571D01*
X153711716Y-176217000D02*
X153806954Y-176264619D01*
X153806954Y-176264619D02*
X153997430Y-176264619D01*
X153997430Y-176264619D02*
X154092668Y-176217000D01*
X154092668Y-176217000D02*
X154140287Y-176121761D01*
X154140287Y-176121761D02*
X154140287Y-175740809D01*
X154140287Y-175740809D02*
X154092668Y-175645571D01*
X154092668Y-175645571D02*
X153997430Y-175597952D01*
X153997430Y-175597952D02*
X153806954Y-175597952D01*
X153806954Y-175597952D02*
X153711716Y-175645571D01*
X153711716Y-175645571D02*
X153664097Y-175740809D01*
X153664097Y-175740809D02*
X153664097Y-175836047D01*
X153664097Y-175836047D02*
X154140287Y-175931285D01*
X153806954Y-175217000D02*
X153949811Y-175359857D01*
X152521239Y-175978904D02*
X152045049Y-175978904D01*
X152616477Y-176264619D02*
X152283144Y-175264619D01*
X152283144Y-175264619D02*
X151949811Y-176264619D01*
X151616477Y-176264619D02*
X151616477Y-175597952D01*
X151616477Y-175788428D02*
X151568858Y-175693190D01*
X151568858Y-175693190D02*
X151521239Y-175645571D01*
X151521239Y-175645571D02*
X151426001Y-175597952D01*
X151426001Y-175597952D02*
X151330763Y-175597952D01*
X150997429Y-176264619D02*
X150997429Y-175597952D01*
X150997429Y-175264619D02*
X151045048Y-175312238D01*
X151045048Y-175312238D02*
X150997429Y-175359857D01*
X150997429Y-175359857D02*
X150949810Y-175312238D01*
X150949810Y-175312238D02*
X150997429Y-175264619D01*
X150997429Y-175264619D02*
X150997429Y-175359857D01*
X150568858Y-176217000D02*
X150473620Y-176264619D01*
X150473620Y-176264619D02*
X150283144Y-176264619D01*
X150283144Y-176264619D02*
X150187906Y-176217000D01*
X150187906Y-176217000D02*
X150140287Y-176121761D01*
X150140287Y-176121761D02*
X150140287Y-176074142D01*
X150140287Y-176074142D02*
X150187906Y-175978904D01*
X150187906Y-175978904D02*
X150283144Y-175931285D01*
X150283144Y-175931285D02*
X150426001Y-175931285D01*
X150426001Y-175931285D02*
X150521239Y-175883666D01*
X150521239Y-175883666D02*
X150568858Y-175788428D01*
X150568858Y-175788428D02*
X150568858Y-175740809D01*
X150568858Y-175740809D02*
X150521239Y-175645571D01*
X150521239Y-175645571D02*
X150426001Y-175597952D01*
X150426001Y-175597952D02*
X150283144Y-175597952D01*
X150283144Y-175597952D02*
X150187906Y-175645571D01*
X149854572Y-175597952D02*
X149473620Y-175597952D01*
X149711715Y-175264619D02*
X149711715Y-176121761D01*
X149711715Y-176121761D02*
X149664096Y-176217000D01*
X149664096Y-176217000D02*
X149568858Y-176264619D01*
X149568858Y-176264619D02*
X149473620Y-176264619D01*
X149140286Y-176264619D02*
X149140286Y-175597952D01*
X149140286Y-175264619D02*
X149187905Y-175312238D01*
X149187905Y-175312238D02*
X149140286Y-175359857D01*
X149140286Y-175359857D02*
X149092667Y-175312238D01*
X149092667Y-175312238D02*
X149140286Y-175264619D01*
X149140286Y-175264619D02*
X149140286Y-175359857D01*
X148235525Y-176264619D02*
X148235525Y-175264619D01*
X148235525Y-176217000D02*
X148330763Y-176264619D01*
X148330763Y-176264619D02*
X148521239Y-176264619D01*
X148521239Y-176264619D02*
X148616477Y-176217000D01*
X148616477Y-176217000D02*
X148664096Y-176169380D01*
X148664096Y-176169380D02*
X148711715Y-176074142D01*
X148711715Y-176074142D02*
X148711715Y-175788428D01*
X148711715Y-175788428D02*
X148664096Y-175693190D01*
X148664096Y-175693190D02*
X148616477Y-175645571D01*
X148616477Y-175645571D02*
X148521239Y-175597952D01*
X148521239Y-175597952D02*
X148330763Y-175597952D01*
X148330763Y-175597952D02*
X148235525Y-175645571D01*
X147378382Y-176217000D02*
X147473620Y-176264619D01*
X147473620Y-176264619D02*
X147664096Y-176264619D01*
X147664096Y-176264619D02*
X147759334Y-176217000D01*
X147759334Y-176217000D02*
X147806953Y-176121761D01*
X147806953Y-176121761D02*
X147806953Y-175740809D01*
X147806953Y-175740809D02*
X147759334Y-175645571D01*
X147759334Y-175645571D02*
X147664096Y-175597952D01*
X147664096Y-175597952D02*
X147473620Y-175597952D01*
X147473620Y-175597952D02*
X147378382Y-175645571D01*
X147378382Y-175645571D02*
X147330763Y-175740809D01*
X147330763Y-175740809D02*
X147330763Y-175836047D01*
X147330763Y-175836047D02*
X147806953Y-175931285D01*
X146949810Y-176217000D02*
X146854572Y-176264619D01*
X146854572Y-176264619D02*
X146664096Y-176264619D01*
X146664096Y-176264619D02*
X146568858Y-176217000D01*
X146568858Y-176217000D02*
X146521239Y-176121761D01*
X146521239Y-176121761D02*
X146521239Y-176074142D01*
X146521239Y-176074142D02*
X146568858Y-175978904D01*
X146568858Y-175978904D02*
X146664096Y-175931285D01*
X146664096Y-175931285D02*
X146806953Y-175931285D01*
X146806953Y-175931285D02*
X146902191Y-175883666D01*
X146902191Y-175883666D02*
X146949810Y-175788428D01*
X146949810Y-175788428D02*
X146949810Y-175740809D01*
X146949810Y-175740809D02*
X146902191Y-175645571D01*
X146902191Y-175645571D02*
X146806953Y-175597952D01*
X146806953Y-175597952D02*
X146664096Y-175597952D01*
X146664096Y-175597952D02*
X146568858Y-175645571D01*
X144997429Y-175740809D02*
X144854572Y-175788428D01*
X144854572Y-175788428D02*
X144806953Y-175836047D01*
X144806953Y-175836047D02*
X144759334Y-175931285D01*
X144759334Y-175931285D02*
X144759334Y-176074142D01*
X144759334Y-176074142D02*
X144806953Y-176169380D01*
X144806953Y-176169380D02*
X144854572Y-176217000D01*
X144854572Y-176217000D02*
X144949810Y-176264619D01*
X144949810Y-176264619D02*
X145330762Y-176264619D01*
X145330762Y-176264619D02*
X145330762Y-175264619D01*
X145330762Y-175264619D02*
X144997429Y-175264619D01*
X144997429Y-175264619D02*
X144902191Y-175312238D01*
X144902191Y-175312238D02*
X144854572Y-175359857D01*
X144854572Y-175359857D02*
X144806953Y-175455095D01*
X144806953Y-175455095D02*
X144806953Y-175550333D01*
X144806953Y-175550333D02*
X144854572Y-175645571D01*
X144854572Y-175645571D02*
X144902191Y-175693190D01*
X144902191Y-175693190D02*
X144997429Y-175740809D01*
X144997429Y-175740809D02*
X145330762Y-175740809D01*
X143902191Y-176264619D02*
X143902191Y-175740809D01*
X143902191Y-175740809D02*
X143949810Y-175645571D01*
X143949810Y-175645571D02*
X144045048Y-175597952D01*
X144045048Y-175597952D02*
X144235524Y-175597952D01*
X144235524Y-175597952D02*
X144330762Y-175645571D01*
X143902191Y-176217000D02*
X143997429Y-176264619D01*
X143997429Y-176264619D02*
X144235524Y-176264619D01*
X144235524Y-176264619D02*
X144330762Y-176217000D01*
X144330762Y-176217000D02*
X144378381Y-176121761D01*
X144378381Y-176121761D02*
X144378381Y-176026523D01*
X144378381Y-176026523D02*
X144330762Y-175931285D01*
X144330762Y-175931285D02*
X144235524Y-175883666D01*
X144235524Y-175883666D02*
X143997429Y-175883666D01*
X143997429Y-175883666D02*
X143902191Y-175836047D01*
X143426000Y-176264619D02*
X143426000Y-175597952D01*
X143426000Y-175264619D02*
X143473619Y-175312238D01*
X143473619Y-175312238D02*
X143426000Y-175359857D01*
X143426000Y-175359857D02*
X143378381Y-175312238D01*
X143378381Y-175312238D02*
X143426000Y-175264619D01*
X143426000Y-175264619D02*
X143426000Y-175359857D01*
X142806953Y-176264619D02*
X142902191Y-176217000D01*
X142902191Y-176217000D02*
X142949810Y-176121761D01*
X142949810Y-176121761D02*
X142949810Y-175264619D01*
D11*
X162245489Y-174200828D02*
X162245489Y-172700828D01*
X162245489Y-172700828D02*
X161745489Y-173772257D01*
X161745489Y-173772257D02*
X161245489Y-172700828D01*
X161245489Y-172700828D02*
X161245489Y-174200828D01*
X160245488Y-172700828D02*
X159959774Y-172700828D01*
X159959774Y-172700828D02*
X159816917Y-172772257D01*
X159816917Y-172772257D02*
X159674060Y-172915114D01*
X159674060Y-172915114D02*
X159602631Y-173200828D01*
X159602631Y-173200828D02*
X159602631Y-173700828D01*
X159602631Y-173700828D02*
X159674060Y-173986542D01*
X159674060Y-173986542D02*
X159816917Y-174129400D01*
X159816917Y-174129400D02*
X159959774Y-174200828D01*
X159959774Y-174200828D02*
X160245488Y-174200828D01*
X160245488Y-174200828D02*
X160388346Y-174129400D01*
X160388346Y-174129400D02*
X160531203Y-173986542D01*
X160531203Y-173986542D02*
X160602631Y-173700828D01*
X160602631Y-173700828D02*
X160602631Y-173200828D01*
X160602631Y-173200828D02*
X160531203Y-172915114D01*
X160531203Y-172915114D02*
X160388346Y-172772257D01*
X160388346Y-172772257D02*
X160245488Y-172700828D01*
X159174059Y-172700828D02*
X158316917Y-172700828D01*
X158745488Y-174200828D02*
X158745488Y-172700828D01*
X157531202Y-172700828D02*
X157245488Y-172700828D01*
X157245488Y-172700828D02*
X157102631Y-172772257D01*
X157102631Y-172772257D02*
X156959774Y-172915114D01*
X156959774Y-172915114D02*
X156888345Y-173200828D01*
X156888345Y-173200828D02*
X156888345Y-173700828D01*
X156888345Y-173700828D02*
X156959774Y-173986542D01*
X156959774Y-173986542D02*
X157102631Y-174129400D01*
X157102631Y-174129400D02*
X157245488Y-174200828D01*
X157245488Y-174200828D02*
X157531202Y-174200828D01*
X157531202Y-174200828D02*
X157674060Y-174129400D01*
X157674060Y-174129400D02*
X157816917Y-173986542D01*
X157816917Y-173986542D02*
X157888345Y-173700828D01*
X157888345Y-173700828D02*
X157888345Y-173200828D01*
X157888345Y-173200828D02*
X157816917Y-172915114D01*
X157816917Y-172915114D02*
X157674060Y-172772257D01*
X157674060Y-172772257D02*
X157531202Y-172700828D01*
X155388345Y-174200828D02*
X155888345Y-173486542D01*
X156245488Y-174200828D02*
X156245488Y-172700828D01*
X156245488Y-172700828D02*
X155674059Y-172700828D01*
X155674059Y-172700828D02*
X155531202Y-172772257D01*
X155531202Y-172772257D02*
X155459773Y-172843685D01*
X155459773Y-172843685D02*
X155388345Y-172986542D01*
X155388345Y-172986542D02*
X155388345Y-173200828D01*
X155388345Y-173200828D02*
X155459773Y-173343685D01*
X155459773Y-173343685D02*
X155531202Y-173415114D01*
X155531202Y-173415114D02*
X155674059Y-173486542D01*
X155674059Y-173486542D02*
X156245488Y-173486542D01*
X152745488Y-174057971D02*
X152816916Y-174129400D01*
X152816916Y-174129400D02*
X153031202Y-174200828D01*
X153031202Y-174200828D02*
X153174059Y-174200828D01*
X153174059Y-174200828D02*
X153388345Y-174129400D01*
X153388345Y-174129400D02*
X153531202Y-173986542D01*
X153531202Y-173986542D02*
X153602631Y-173843685D01*
X153602631Y-173843685D02*
X153674059Y-173557971D01*
X153674059Y-173557971D02*
X153674059Y-173343685D01*
X153674059Y-173343685D02*
X153602631Y-173057971D01*
X153602631Y-173057971D02*
X153531202Y-172915114D01*
X153531202Y-172915114D02*
X153388345Y-172772257D01*
X153388345Y-172772257D02*
X153174059Y-172700828D01*
X153174059Y-172700828D02*
X153031202Y-172700828D01*
X153031202Y-172700828D02*
X152816916Y-172772257D01*
X152816916Y-172772257D02*
X152745488Y-172843685D01*
X151816916Y-172700828D02*
X151531202Y-172700828D01*
X151531202Y-172700828D02*
X151388345Y-172772257D01*
X151388345Y-172772257D02*
X151245488Y-172915114D01*
X151245488Y-172915114D02*
X151174059Y-173200828D01*
X151174059Y-173200828D02*
X151174059Y-173700828D01*
X151174059Y-173700828D02*
X151245488Y-173986542D01*
X151245488Y-173986542D02*
X151388345Y-174129400D01*
X151388345Y-174129400D02*
X151531202Y-174200828D01*
X151531202Y-174200828D02*
X151816916Y-174200828D01*
X151816916Y-174200828D02*
X151959774Y-174129400D01*
X151959774Y-174129400D02*
X152102631Y-173986542D01*
X152102631Y-173986542D02*
X152174059Y-173700828D01*
X152174059Y-173700828D02*
X152174059Y-173200828D01*
X152174059Y-173200828D02*
X152102631Y-172915114D01*
X152102631Y-172915114D02*
X151959774Y-172772257D01*
X151959774Y-172772257D02*
X151816916Y-172700828D01*
X150531202Y-174200828D02*
X150531202Y-172700828D01*
X150531202Y-172700828D02*
X149674059Y-174200828D01*
X149674059Y-174200828D02*
X149674059Y-172700828D01*
X149174058Y-172700828D02*
X148316916Y-172700828D01*
X148745487Y-174200828D02*
X148745487Y-172700828D01*
X146959773Y-174200828D02*
X147459773Y-173486542D01*
X147816916Y-174200828D02*
X147816916Y-172700828D01*
X147816916Y-172700828D02*
X147245487Y-172700828D01*
X147245487Y-172700828D02*
X147102630Y-172772257D01*
X147102630Y-172772257D02*
X147031201Y-172843685D01*
X147031201Y-172843685D02*
X146959773Y-172986542D01*
X146959773Y-172986542D02*
X146959773Y-173200828D01*
X146959773Y-173200828D02*
X147031201Y-173343685D01*
X147031201Y-173343685D02*
X147102630Y-173415114D01*
X147102630Y-173415114D02*
X147245487Y-173486542D01*
X147245487Y-173486542D02*
X147816916Y-173486542D01*
X146031201Y-172700828D02*
X145745487Y-172700828D01*
X145745487Y-172700828D02*
X145602630Y-172772257D01*
X145602630Y-172772257D02*
X145459773Y-172915114D01*
X145459773Y-172915114D02*
X145388344Y-173200828D01*
X145388344Y-173200828D02*
X145388344Y-173700828D01*
X145388344Y-173700828D02*
X145459773Y-173986542D01*
X145459773Y-173986542D02*
X145602630Y-174129400D01*
X145602630Y-174129400D02*
X145745487Y-174200828D01*
X145745487Y-174200828D02*
X146031201Y-174200828D01*
X146031201Y-174200828D02*
X146174059Y-174129400D01*
X146174059Y-174129400D02*
X146316916Y-173986542D01*
X146316916Y-173986542D02*
X146388344Y-173700828D01*
X146388344Y-173700828D02*
X146388344Y-173200828D01*
X146388344Y-173200828D02*
X146316916Y-172915114D01*
X146316916Y-172915114D02*
X146174059Y-172772257D01*
X146174059Y-172772257D02*
X146031201Y-172700828D01*
X144031201Y-174200828D02*
X144745487Y-174200828D01*
X144745487Y-174200828D02*
X144745487Y-172700828D01*
X142816915Y-174200828D02*
X143531201Y-174200828D01*
X143531201Y-174200828D02*
X143531201Y-172700828D01*
X142316915Y-173415114D02*
X141816915Y-173415114D01*
X141602629Y-174200828D02*
X142316915Y-174200828D01*
X142316915Y-174200828D02*
X142316915Y-172700828D01*
X142316915Y-172700828D02*
X141602629Y-172700828D01*
X140102629Y-174200828D02*
X140602629Y-173486542D01*
X140959772Y-174200828D02*
X140959772Y-172700828D01*
X140959772Y-172700828D02*
X140388343Y-172700828D01*
X140388343Y-172700828D02*
X140245486Y-172772257D01*
X140245486Y-172772257D02*
X140174057Y-172843685D01*
X140174057Y-172843685D02*
X140102629Y-172986542D01*
X140102629Y-172986542D02*
X140102629Y-173200828D01*
X140102629Y-173200828D02*
X140174057Y-173343685D01*
X140174057Y-173343685D02*
X140245486Y-173415114D01*
X140245486Y-173415114D02*
X140388343Y-173486542D01*
X140388343Y-173486542D02*
X140959772Y-173486542D01*
X137674058Y-173200828D02*
X137674058Y-174200828D01*
X138031200Y-172629400D02*
X138388343Y-173700828D01*
X138388343Y-173700828D02*
X137459772Y-173700828D01*
X136888344Y-174057971D02*
X136816915Y-174129400D01*
X136816915Y-174129400D02*
X136888344Y-174200828D01*
X136888344Y-174200828D02*
X136959772Y-174129400D01*
X136959772Y-174129400D02*
X136888344Y-174057971D01*
X136888344Y-174057971D02*
X136888344Y-174200828D01*
X135888343Y-172700828D02*
X135745486Y-172700828D01*
X135745486Y-172700828D02*
X135602629Y-172772257D01*
X135602629Y-172772257D02*
X135531201Y-172843685D01*
X135531201Y-172843685D02*
X135459772Y-172986542D01*
X135459772Y-172986542D02*
X135388343Y-173272257D01*
X135388343Y-173272257D02*
X135388343Y-173629400D01*
X135388343Y-173629400D02*
X135459772Y-173915114D01*
X135459772Y-173915114D02*
X135531201Y-174057971D01*
X135531201Y-174057971D02*
X135602629Y-174129400D01*
X135602629Y-174129400D02*
X135745486Y-174200828D01*
X135745486Y-174200828D02*
X135888343Y-174200828D01*
X135888343Y-174200828D02*
X136031201Y-174129400D01*
X136031201Y-174129400D02*
X136102629Y-174057971D01*
X136102629Y-174057971D02*
X136174058Y-173915114D01*
X136174058Y-173915114D02*
X136245486Y-173629400D01*
X136245486Y-173629400D02*
X136245486Y-173272257D01*
X136245486Y-173272257D02*
X136174058Y-172986542D01*
X136174058Y-172986542D02*
X136102629Y-172843685D01*
X136102629Y-172843685D02*
X136031201Y-172772257D01*
X136031201Y-172772257D02*
X135888343Y-172700828D01*
D12*
X266728069Y-132958333D02*
X266251878Y-132625000D01*
X266728069Y-132386905D02*
X265728069Y-132386905D01*
X265728069Y-132386905D02*
X265728069Y-132767857D01*
X265728069Y-132767857D02*
X265775688Y-132863095D01*
X265775688Y-132863095D02*
X265823307Y-132910714D01*
X265823307Y-132910714D02*
X265918545Y-132958333D01*
X265918545Y-132958333D02*
X266061402Y-132958333D01*
X266061402Y-132958333D02*
X266156640Y-132910714D01*
X266156640Y-132910714D02*
X266204259Y-132863095D01*
X266204259Y-132863095D02*
X266251878Y-132767857D01*
X266251878Y-132767857D02*
X266251878Y-132386905D01*
X265728069Y-133291667D02*
X265728069Y-133910714D01*
X265728069Y-133910714D02*
X266109021Y-133577381D01*
X266109021Y-133577381D02*
X266109021Y-133720238D01*
X266109021Y-133720238D02*
X266156640Y-133815476D01*
X266156640Y-133815476D02*
X266204259Y-133863095D01*
X266204259Y-133863095D02*
X266299497Y-133910714D01*
X266299497Y-133910714D02*
X266537592Y-133910714D01*
X266537592Y-133910714D02*
X266632830Y-133863095D01*
X266632830Y-133863095D02*
X266680450Y-133815476D01*
X266680450Y-133815476D02*
X266728069Y-133720238D01*
X266728069Y-133720238D02*
X266728069Y-133434524D01*
X266728069Y-133434524D02*
X266680450Y-133339286D01*
X266680450Y-133339286D02*
X266632830Y-133291667D01*
X261581569Y-131958333D02*
X261105378Y-131625000D01*
X261581569Y-131386905D02*
X260581569Y-131386905D01*
X260581569Y-131386905D02*
X260581569Y-131767857D01*
X260581569Y-131767857D02*
X260629188Y-131863095D01*
X260629188Y-131863095D02*
X260676807Y-131910714D01*
X260676807Y-131910714D02*
X260772045Y-131958333D01*
X260772045Y-131958333D02*
X260914902Y-131958333D01*
X260914902Y-131958333D02*
X261010140Y-131910714D01*
X261010140Y-131910714D02*
X261057759Y-131863095D01*
X261057759Y-131863095D02*
X261105378Y-131767857D01*
X261105378Y-131767857D02*
X261105378Y-131386905D01*
X260676807Y-132339286D02*
X260629188Y-132386905D01*
X260629188Y-132386905D02*
X260581569Y-132482143D01*
X260581569Y-132482143D02*
X260581569Y-132720238D01*
X260581569Y-132720238D02*
X260629188Y-132815476D01*
X260629188Y-132815476D02*
X260676807Y-132863095D01*
X260676807Y-132863095D02*
X260772045Y-132910714D01*
X260772045Y-132910714D02*
X260867283Y-132910714D01*
X260867283Y-132910714D02*
X261010140Y-132863095D01*
X261010140Y-132863095D02*
X261581569Y-132291667D01*
X261581569Y-132291667D02*
X261581569Y-132910714D01*
%TO.C,C26*%
D13*
X114040580Y-180490000D02*
X113759420Y-180490000D01*
X114040580Y-181510000D02*
X113759420Y-181510000D01*
%TO.C,R119*%
X150862742Y-123977500D02*
X151337258Y-123977500D01*
X150862742Y-125022500D02*
X151337258Y-125022500D01*
%TO.C,C27*%
X113638748Y-195465000D02*
X114161252Y-195465000D01*
X113638748Y-196935000D02*
X114161252Y-196935000D01*
%TO.C,C120*%
X151240580Y-136490000D02*
X150959420Y-136490000D01*
X151240580Y-137510000D02*
X150959420Y-137510000D01*
%TO.C,C28*%
X113759420Y-193090000D02*
X114040580Y-193090000D01*
X113759420Y-194110000D02*
X114040580Y-194110000D01*
D14*
%TO.C,LOGO\u002A\u002A*%
G36*
X156090900Y-168258700D02*
G01*
X156144900Y-168260800D01*
X156174000Y-168264900D01*
X156201000Y-168277400D01*
X156223900Y-168291900D01*
X156242600Y-168310600D01*
X156259200Y-168331400D01*
X156271700Y-168352200D01*
X156280000Y-168375100D01*
X156282100Y-168397900D01*
X156280000Y-168418700D01*
X156267500Y-168451900D01*
X156248800Y-168479000D01*
X156213500Y-168497700D01*
X156161600Y-168512200D01*
X156084700Y-168522600D01*
X155980800Y-168530900D01*
X155841600Y-168535100D01*
X155664900Y-168539200D01*
X155517400Y-168539200D01*
X155403100Y-168541300D01*
X155313800Y-168541300D01*
X155245200Y-168539200D01*
X155195300Y-168535100D01*
X155160000Y-168528800D01*
X155133000Y-168520500D01*
X155108100Y-168508100D01*
X155091400Y-168497700D01*
X155076900Y-168487300D01*
X155064400Y-168476900D01*
X155056100Y-168466500D01*
X155049900Y-168454000D01*
X155045700Y-168441600D01*
X155041600Y-168427000D01*
X155041600Y-168410400D01*
X155045700Y-168377100D01*
X155056100Y-168350100D01*
X155074800Y-168327300D01*
X155103900Y-168308600D01*
X155143400Y-168296100D01*
X155193200Y-168285700D01*
X155253500Y-168277400D01*
X155328300Y-168273200D01*
X155494500Y-168267000D01*
X155648300Y-168260800D01*
X155787500Y-168258700D01*
X155910100Y-168256600D01*
X156011900Y-168256600D01*
X156090900Y-168258700D01*
G37*
G36*
X138946000Y-169960500D02*
G01*
X138991700Y-169985500D01*
X139041600Y-170022900D01*
X139074800Y-170056100D01*
X139103900Y-170093500D01*
X139126800Y-170137100D01*
X139147500Y-170187000D01*
X139166200Y-170245200D01*
X139180800Y-170315800D01*
X139195300Y-170399000D01*
X139207800Y-170498700D01*
X139214000Y-170546500D01*
X139222300Y-170588100D01*
X139228600Y-170627500D01*
X139236900Y-170662900D01*
X139247300Y-170694000D01*
X139257700Y-170723100D01*
X139270100Y-170750100D01*
X139282600Y-170775100D01*
X139303400Y-170812500D01*
X139315800Y-170847800D01*
X139322100Y-170876900D01*
X139320000Y-170901800D01*
X139307500Y-170926800D01*
X139288800Y-170947500D01*
X139261800Y-170968300D01*
X139224400Y-170989100D01*
X139187000Y-171005700D01*
X139151700Y-171018200D01*
X139116400Y-171026500D01*
X139081000Y-171030600D01*
X139045700Y-171028600D01*
X139008300Y-171024400D01*
X138966800Y-171014000D01*
X138925200Y-171001600D01*
X138900300Y-170993200D01*
X138875300Y-170987000D01*
X138850400Y-170982900D01*
X138823400Y-170980800D01*
X138792200Y-170980800D01*
X138756900Y-170980800D01*
X138717400Y-170984900D01*
X138669600Y-170991200D01*
X138619700Y-170995300D01*
X138578200Y-170999500D01*
X138547000Y-171001600D01*
X138520000Y-171001600D01*
X138499200Y-170999500D01*
X138480500Y-170993200D01*
X138463900Y-170987000D01*
X138447300Y-170976600D01*
X138426500Y-170960000D01*
X138411900Y-170941300D01*
X138403600Y-170920500D01*
X138401600Y-170899700D01*
X138407800Y-170879000D01*
X138418200Y-170860300D01*
X138434800Y-170841600D01*
X138459700Y-170824900D01*
X138474300Y-170818700D01*
X138493000Y-170814500D01*
X138515800Y-170810400D01*
X138540800Y-170808300D01*
X138571900Y-170806200D01*
X138607300Y-170808300D01*
X138648800Y-170808300D01*
X138694500Y-170812500D01*
X138763100Y-170816600D01*
X138819200Y-170816600D01*
X138864900Y-170810400D01*
X138898200Y-170802100D01*
X138925200Y-170785500D01*
X138943900Y-170762600D01*
X138958400Y-170733500D01*
X138968800Y-170696100D01*
X138973000Y-170658700D01*
X138970900Y-170613000D01*
X138966800Y-170559000D01*
X138956400Y-170502900D01*
X138946000Y-170446800D01*
X138931400Y-170394800D01*
X138914800Y-170353200D01*
X138898200Y-170322100D01*
X138875300Y-170288800D01*
X138854500Y-170253500D01*
X138835800Y-170222300D01*
X138821300Y-170189100D01*
X138808800Y-170160000D01*
X138800500Y-170130900D01*
X138794300Y-170106000D01*
X138792200Y-170083100D01*
X138798400Y-170031200D01*
X138813000Y-169991700D01*
X138835800Y-169964700D01*
X138867000Y-169950100D01*
X138904400Y-169948100D01*
X138946000Y-169960500D01*
G37*
G36*
X155719000Y-166201600D02*
G01*
X155743900Y-166207800D01*
X155764700Y-166220300D01*
X155785500Y-166239000D01*
X155800000Y-166261800D01*
X155808300Y-166286800D01*
X155810400Y-166315800D01*
X155804200Y-166344900D01*
X155793800Y-166376100D01*
X155777100Y-166409300D01*
X155752200Y-166440500D01*
X155739700Y-166455100D01*
X155727300Y-166471700D01*
X155714800Y-166488300D01*
X155700300Y-166504900D01*
X155687800Y-166521600D01*
X155677400Y-166538200D01*
X155667000Y-166552700D01*
X155658700Y-166565200D01*
X155650400Y-166577700D01*
X155637900Y-166592200D01*
X155625500Y-166604700D01*
X155608800Y-166619200D01*
X155592200Y-166631700D01*
X155575600Y-166644200D01*
X155559000Y-166654500D01*
X155542300Y-166664900D01*
X155523600Y-166673200D01*
X155507000Y-166685700D01*
X155488300Y-166698200D01*
X155471700Y-166710600D01*
X155455100Y-166725200D01*
X155440500Y-166739700D01*
X155428100Y-166754300D01*
X155417700Y-166766800D01*
X155407300Y-166779200D01*
X155394800Y-166791700D01*
X155380300Y-166804200D01*
X155365700Y-166816600D01*
X155349100Y-166829100D01*
X155332500Y-166837400D01*
X155315800Y-166845700D01*
X155301300Y-166851900D01*
X155284700Y-166858200D01*
X155268100Y-166866500D01*
X155253500Y-166874800D01*
X155239000Y-166887300D01*
X155224400Y-166897700D01*
X155211900Y-166912200D01*
X155201600Y-166924700D01*
X155193200Y-166939200D01*
X155172500Y-166966200D01*
X155141300Y-166993200D01*
X155101800Y-167020300D01*
X155058200Y-167045200D01*
X155012500Y-167068100D01*
X154966800Y-167084700D01*
X154923100Y-167097100D01*
X154885700Y-167101300D01*
X154864900Y-167097100D01*
X154842100Y-167088800D01*
X154823400Y-167074300D01*
X154806800Y-167055600D01*
X154792200Y-167034800D01*
X154781800Y-167007800D01*
X154773500Y-166980800D01*
X154771400Y-166951700D01*
X154773500Y-166928800D01*
X154781800Y-166906000D01*
X154794300Y-166883100D01*
X154810900Y-166862300D01*
X154829600Y-166841600D01*
X154850400Y-166822900D01*
X154873200Y-166810400D01*
X154898200Y-166800000D01*
X154906500Y-166795800D01*
X154914800Y-166789600D01*
X154925200Y-166781300D01*
X154935600Y-166770900D01*
X154948100Y-166758400D01*
X154958400Y-166743900D01*
X154968800Y-166729400D01*
X154977100Y-166714800D01*
X154987500Y-166700300D01*
X154997900Y-166685700D01*
X155010400Y-166671200D01*
X155022900Y-166658700D01*
X155037400Y-166646200D01*
X155049900Y-166635800D01*
X155062300Y-166627500D01*
X155074800Y-166623400D01*
X155089400Y-166615100D01*
X155108100Y-166600500D01*
X155135100Y-166581800D01*
X155164200Y-166559000D01*
X155197400Y-166529900D01*
X155230600Y-166498700D01*
X155268100Y-166465500D01*
X155303400Y-166430100D01*
X155340800Y-166396900D01*
X155376100Y-166363600D01*
X155409300Y-166332500D01*
X155442600Y-166303400D01*
X155469600Y-166278400D01*
X155494500Y-166259700D01*
X155513200Y-166245200D01*
X155525700Y-166236900D01*
X155559000Y-166222300D01*
X155592200Y-166209900D01*
X155625500Y-166201600D01*
X155658700Y-166197400D01*
X155689900Y-166197400D01*
X155719000Y-166201600D01*
G37*
G36*
X155010400Y-169943900D02*
G01*
X155054000Y-169946000D01*
X155085200Y-169948100D01*
X155099700Y-169950100D01*
X155120500Y-169960500D01*
X155139200Y-169973000D01*
X155153800Y-169987500D01*
X155168300Y-170008300D01*
X155180800Y-170035300D01*
X155191200Y-170070600D01*
X155203600Y-170112200D01*
X155216100Y-170162100D01*
X155224400Y-170193200D01*
X155234800Y-170228600D01*
X155247300Y-170268100D01*
X155261800Y-170307500D01*
X155276400Y-170347000D01*
X155293000Y-170386500D01*
X155307500Y-170421800D01*
X155324200Y-170455100D01*
X155342900Y-170498700D01*
X155359500Y-170536100D01*
X155374000Y-170573500D01*
X155384400Y-170608800D01*
X155392700Y-170644200D01*
X155401000Y-170681600D01*
X155405200Y-170721000D01*
X155409300Y-170762600D01*
X155413500Y-170810400D01*
X155413500Y-170847800D01*
X155413500Y-170876900D01*
X155411400Y-170901800D01*
X155407300Y-170920500D01*
X155401000Y-170935100D01*
X155390600Y-170949600D01*
X155376100Y-170964200D01*
X155342900Y-170991200D01*
X155309600Y-171003600D01*
X155276400Y-171003600D01*
X155247300Y-170989100D01*
X155218200Y-170960000D01*
X155193200Y-170918400D01*
X155172500Y-170862300D01*
X155153800Y-170793800D01*
X155143400Y-170750100D01*
X155133000Y-170714800D01*
X155124700Y-170687800D01*
X155112200Y-170667000D01*
X155099700Y-170650400D01*
X155083100Y-170635800D01*
X155062300Y-170623400D01*
X155035300Y-170606800D01*
X155006200Y-170594300D01*
X154981300Y-170581800D01*
X154952200Y-170575600D01*
X154919000Y-170569400D01*
X154877400Y-170565200D01*
X154827500Y-170563100D01*
X154765200Y-170561000D01*
X154686200Y-170561000D01*
X154590600Y-170561000D01*
X154515800Y-170556900D01*
X154457700Y-170550600D01*
X154414000Y-170542300D01*
X154384900Y-170527800D01*
X154366200Y-170511200D01*
X154360000Y-170488300D01*
X154360000Y-170459200D01*
X154368300Y-170432200D01*
X154382900Y-170411400D01*
X154405700Y-170394800D01*
X154439000Y-170382300D01*
X154480500Y-170374000D01*
X154534500Y-170369900D01*
X154601000Y-170369900D01*
X154682100Y-170374000D01*
X154748600Y-170378200D01*
X154800500Y-170380300D01*
X154840000Y-170380300D01*
X154867000Y-170378200D01*
X154887800Y-170374000D01*
X154902300Y-170365700D01*
X154914800Y-170355300D01*
X154925200Y-170338700D01*
X154939700Y-170315800D01*
X154950100Y-170293000D01*
X154956400Y-170268100D01*
X154956400Y-170245200D01*
X154952200Y-170224400D01*
X154946000Y-170201600D01*
X154933500Y-170180800D01*
X154916900Y-170160000D01*
X154898200Y-170143400D01*
X154877400Y-170130900D01*
X154850400Y-170120500D01*
X154810900Y-170114300D01*
X154756900Y-170112200D01*
X154684200Y-170110100D01*
X154588600Y-170112200D01*
X154463900Y-170114300D01*
X154389100Y-170114300D01*
X154326800Y-170112200D01*
X154279000Y-170108100D01*
X154243600Y-170101800D01*
X154218700Y-170089300D01*
X154202100Y-170074800D01*
X154191700Y-170056100D01*
X154189600Y-170031200D01*
X154191700Y-170006200D01*
X154204200Y-169985500D01*
X154227000Y-169970900D01*
X154266500Y-169958400D01*
X154324700Y-169952200D01*
X154407800Y-169946000D01*
X154515800Y-169943900D01*
X154657100Y-169941800D01*
X154740300Y-169941800D01*
X154817100Y-169941800D01*
X154889900Y-169941800D01*
X154956400Y-169941800D01*
X155010400Y-169943900D01*
G37*
G36*
X155093500Y-161347500D02*
G01*
X155106000Y-161351700D01*
X155120500Y-161357900D01*
X155137100Y-161366200D01*
X155155800Y-161378700D01*
X155176600Y-161391200D01*
X155197400Y-161403600D01*
X155218200Y-161418200D01*
X155261800Y-161451400D01*
X155297100Y-161478400D01*
X155326200Y-161503400D01*
X155347000Y-161530400D01*
X155365700Y-161557400D01*
X155380300Y-161590700D01*
X155394800Y-161630100D01*
X155409300Y-161677900D01*
X155417700Y-161707000D01*
X155428100Y-161731900D01*
X155440500Y-161756900D01*
X155453000Y-161781800D01*
X155465500Y-161802600D01*
X155482100Y-161823400D01*
X155498700Y-161842100D01*
X155517400Y-161860800D01*
X155540300Y-161881600D01*
X155559000Y-161902300D01*
X155571400Y-161921000D01*
X155581800Y-161941800D01*
X155588100Y-161964700D01*
X155594300Y-161995800D01*
X155596400Y-162035300D01*
X155598400Y-162083100D01*
X155606800Y-162239000D01*
X155525700Y-162320000D01*
X155502900Y-162342900D01*
X155477900Y-162361600D01*
X155453000Y-162380300D01*
X155423900Y-162396900D01*
X155392700Y-162411400D01*
X155355300Y-162426000D01*
X155309600Y-162442600D01*
X155259700Y-162457100D01*
X155211900Y-162473800D01*
X155168300Y-162488300D01*
X155130900Y-162502900D01*
X155097700Y-162517400D01*
X155068600Y-162531900D01*
X155043600Y-162548600D01*
X155020800Y-162565200D01*
X155000000Y-162583900D01*
X154983400Y-162600500D01*
X154966800Y-162617100D01*
X154946000Y-162635800D01*
X154927300Y-162654500D01*
X154908600Y-162673200D01*
X154887800Y-162689900D01*
X154871200Y-162708600D01*
X154854500Y-162723100D01*
X154840000Y-162737700D01*
X154823400Y-162752200D01*
X154806800Y-162768800D01*
X154792200Y-162785500D01*
X154777700Y-162800000D01*
X154765200Y-162814500D01*
X154754800Y-162827000D01*
X154746500Y-162837400D01*
X154723600Y-162856100D01*
X154692500Y-162870600D01*
X154655100Y-162879000D01*
X154615600Y-162885200D01*
X154571900Y-162883100D01*
X154532500Y-162876900D01*
X154495100Y-162866500D01*
X154461800Y-162849900D01*
X154445200Y-162833200D01*
X154430600Y-162812500D01*
X154424400Y-162785500D01*
X154422300Y-162756400D01*
X154426500Y-162719000D01*
X154434800Y-162677400D01*
X154449300Y-162627500D01*
X154470100Y-162571400D01*
X154478400Y-162546500D01*
X154486800Y-162513200D01*
X154497100Y-162473800D01*
X154509600Y-162426000D01*
X154520000Y-162376100D01*
X154532500Y-162322100D01*
X154542900Y-162266000D01*
X154555300Y-162209900D01*
X154567800Y-162141300D01*
X154580300Y-162083100D01*
X154592700Y-162031200D01*
X154603100Y-161985500D01*
X154615600Y-161948100D01*
X154628100Y-161916900D01*
X154640500Y-161889900D01*
X154655100Y-161867000D01*
X154667500Y-161848300D01*
X154680000Y-161825500D01*
X154692500Y-161800500D01*
X154707000Y-161771400D01*
X154721600Y-161740300D01*
X154736100Y-161707000D01*
X154748600Y-161675800D01*
X154761000Y-161642600D01*
X154779700Y-161596900D01*
X154794300Y-161559500D01*
X154810900Y-161530400D01*
X154825500Y-161505500D01*
X154846200Y-161484700D01*
X154869100Y-161463900D01*
X154900300Y-161443100D01*
X154937700Y-161420300D01*
X154962600Y-161405700D01*
X154985500Y-161391200D01*
X155010400Y-161378700D01*
X155031200Y-161368300D01*
X155049900Y-161357900D01*
X155066500Y-161351700D01*
X155079000Y-161347500D01*
X155087300Y-161345500D01*
X155093500Y-161347500D01*
G37*
G36*
X149181800Y-170315800D02*
G01*
X149190100Y-170361600D01*
X149198400Y-170401000D01*
X149206800Y-170436400D01*
X149215100Y-170469600D01*
X149227500Y-170500800D01*
X149237900Y-170529900D01*
X149252500Y-170556900D01*
X149267000Y-170583900D01*
X149304400Y-170648300D01*
X149333500Y-170712700D01*
X149352200Y-170775100D01*
X149362600Y-170833200D01*
X149364700Y-170885200D01*
X149354300Y-170928800D01*
X149335600Y-170962100D01*
X149308600Y-170987000D01*
X149285700Y-170995300D01*
X149260800Y-170997400D01*
X149235800Y-170993200D01*
X149210900Y-170984900D01*
X149186000Y-170970400D01*
X149161000Y-170951700D01*
X149138200Y-170926800D01*
X149115300Y-170897700D01*
X149104900Y-170881000D01*
X149090400Y-170862300D01*
X149075800Y-170839500D01*
X149059200Y-170814500D01*
X149042600Y-170789600D01*
X149023900Y-170764700D01*
X149007300Y-170737700D01*
X148992700Y-170714800D01*
X148955300Y-170662900D01*
X148926200Y-170621300D01*
X148899200Y-170592200D01*
X148874300Y-170571400D01*
X148847300Y-170556900D01*
X148820300Y-170550600D01*
X148784900Y-170546500D01*
X148743400Y-170548600D01*
X148695600Y-170552700D01*
X148643600Y-170561000D01*
X148587500Y-170575600D01*
X148535600Y-170592200D01*
X148487800Y-170610900D01*
X148448300Y-170629600D01*
X148419200Y-170648300D01*
X148404700Y-170664900D01*
X148402600Y-170673200D01*
X148400500Y-170685700D01*
X148396400Y-170700300D01*
X148392200Y-170719000D01*
X148390100Y-170737700D01*
X148386000Y-170760500D01*
X148381800Y-170781300D01*
X148379700Y-170804200D01*
X148367300Y-170864400D01*
X148346500Y-170916400D01*
X148319500Y-170957900D01*
X148290400Y-170987000D01*
X148255100Y-171001600D01*
X148219700Y-171005700D01*
X148184400Y-170993200D01*
X148151200Y-170964200D01*
X148138700Y-170949600D01*
X148130400Y-170933000D01*
X148124200Y-170912200D01*
X148117900Y-170883100D01*
X148115800Y-170847800D01*
X148113800Y-170802100D01*
X148111700Y-170741800D01*
X148111700Y-170667000D01*
X148111700Y-170415600D01*
X148024400Y-170376100D01*
X148001600Y-170365700D01*
X147982900Y-170353200D01*
X147964200Y-170342900D01*
X147951700Y-170330400D01*
X147939200Y-170317900D01*
X147928800Y-170303400D01*
X147920500Y-170286800D01*
X147914300Y-170270100D01*
X147909870Y-170253500D01*
X148207300Y-170253500D01*
X148209400Y-170274300D01*
X148217700Y-170295100D01*
X148240500Y-170311700D01*
X148271700Y-170328300D01*
X148317400Y-170342900D01*
X148371400Y-170353200D01*
X148440000Y-170363600D01*
X148519000Y-170371900D01*
X148610400Y-170378200D01*
X148681000Y-170380300D01*
X148737100Y-170382300D01*
X148778700Y-170384400D01*
X148809900Y-170382300D01*
X148832700Y-170378200D01*
X148849400Y-170369900D01*
X148863900Y-170359500D01*
X148876400Y-170347000D01*
X148897100Y-170320000D01*
X148909600Y-170293000D01*
X148911700Y-170268100D01*
X148903400Y-170243100D01*
X148884700Y-170218200D01*
X148855600Y-170193200D01*
X148816100Y-170168300D01*
X148766200Y-170141300D01*
X148714300Y-170116400D01*
X148666500Y-170099700D01*
X148622900Y-170087300D01*
X148579200Y-170085200D01*
X148533500Y-170087300D01*
X148483600Y-170097700D01*
X148425500Y-170114300D01*
X148356900Y-170139200D01*
X148317400Y-170153800D01*
X148282100Y-170170400D01*
X148255100Y-170187000D01*
X148234300Y-170201600D01*
X148219700Y-170218200D01*
X148211400Y-170236900D01*
X148207300Y-170253500D01*
X147909870Y-170253500D01*
X147906000Y-170239000D01*
X147903900Y-170203600D01*
X147901800Y-170166200D01*
X147906000Y-170126800D01*
X147912200Y-170087300D01*
X147920500Y-170051900D01*
X147930900Y-170022900D01*
X147943400Y-170000000D01*
X147974500Y-169975100D01*
X148028600Y-169956400D01*
X148101300Y-169941800D01*
X148184400Y-169931400D01*
X148273800Y-169927300D01*
X148363100Y-169929300D01*
X148450400Y-169937700D01*
X148527300Y-169952200D01*
X148554300Y-169958400D01*
X148577100Y-169964700D01*
X148597900Y-169966800D01*
X148616600Y-169966800D01*
X148633200Y-169964700D01*
X148651900Y-169958400D01*
X148670700Y-169952200D01*
X148693500Y-169941800D01*
X148730900Y-169925200D01*
X148768300Y-169914800D01*
X148803600Y-169910600D01*
X148841000Y-169908600D01*
X148880500Y-169912700D01*
X148920000Y-169923100D01*
X148961600Y-169937700D01*
X149007300Y-169956400D01*
X149048800Y-169977100D01*
X149080000Y-169997900D01*
X149107000Y-170022900D01*
X149125700Y-170054000D01*
X149142300Y-170095600D01*
X149154800Y-170151700D01*
X149167300Y-170224400D01*
X149174200Y-170268100D01*
X149181800Y-170315800D01*
G37*
G36*
X142206200Y-169952200D02*
G01*
X142231200Y-169960500D01*
X142254000Y-169975100D01*
X142270600Y-169993800D01*
X142276900Y-170006200D01*
X142283100Y-170024900D01*
X142291400Y-170045700D01*
X142297700Y-170070600D01*
X142306000Y-170099700D01*
X142312200Y-170128800D01*
X142318400Y-170160000D01*
X142322600Y-170191200D01*
X142333000Y-170251400D01*
X142341300Y-170301300D01*
X142351700Y-170344900D01*
X142362100Y-170382300D01*
X142376600Y-170415600D01*
X142393200Y-170446800D01*
X142411900Y-170482100D01*
X142436900Y-170519500D01*
X142461800Y-170561000D01*
X142478400Y-170600500D01*
X142488800Y-170642100D01*
X142490900Y-170681600D01*
X142484700Y-170721000D01*
X142472200Y-170760500D01*
X142451400Y-170802100D01*
X142424400Y-170843600D01*
X142382900Y-170893500D01*
X142347500Y-170933000D01*
X142312200Y-170964200D01*
X142274800Y-170984900D01*
X142233200Y-170999500D01*
X142181300Y-171009900D01*
X142119000Y-171016100D01*
X142042100Y-171020300D01*
X141998400Y-171022300D01*
X141952700Y-171022300D01*
X141909100Y-171022300D01*
X141865500Y-171020300D01*
X141826000Y-171018200D01*
X141788600Y-171016100D01*
X141757400Y-171014000D01*
X141732500Y-171009900D01*
X141709600Y-171005700D01*
X141682600Y-171001600D01*
X141653500Y-170995300D01*
X141622300Y-170991200D01*
X141591200Y-170987000D01*
X141562100Y-170982900D01*
X141533000Y-170978700D01*
X141506000Y-170976600D01*
X141470600Y-170972500D01*
X141441600Y-170966200D01*
X141418700Y-170960000D01*
X141395800Y-170953800D01*
X141377100Y-170945500D01*
X141360500Y-170933000D01*
X141343900Y-170920500D01*
X141329400Y-170903900D01*
X141316900Y-170889400D01*
X141300300Y-170872700D01*
X141281600Y-170854000D01*
X141262900Y-170833200D01*
X141242100Y-170810400D01*
X141221300Y-170787500D01*
X141200500Y-170764700D01*
X141179700Y-170743900D01*
X141150600Y-170712700D01*
X141125700Y-170683600D01*
X141109100Y-170658700D01*
X141094500Y-170633800D01*
X141084200Y-170606800D01*
X141073800Y-170573500D01*
X141065500Y-170534000D01*
X141059200Y-170486200D01*
X141053000Y-170453000D01*
X141046800Y-170417700D01*
X141038400Y-170380300D01*
X141032200Y-170344900D01*
X141023900Y-170307500D01*
X141015600Y-170274300D01*
X141009400Y-170245200D01*
X141003100Y-170218200D01*
X140996900Y-170195300D01*
X140990600Y-170170400D01*
X140984400Y-170147500D01*
X140978200Y-170124700D01*
X140971900Y-170103900D01*
X140967800Y-170085200D01*
X140963600Y-170070600D01*
X140961600Y-170058200D01*
X140957400Y-170047800D01*
X140957400Y-170037400D01*
X140959500Y-170027000D01*
X140961600Y-170018700D01*
X140967800Y-170010400D01*
X140974000Y-170004200D01*
X140984400Y-169995800D01*
X140994800Y-169989600D01*
X141019700Y-169979200D01*
X141048800Y-169970900D01*
X141080000Y-169966800D01*
X141111200Y-169964700D01*
X141142300Y-169966800D01*
X141171400Y-169970900D01*
X141194300Y-169979200D01*
X141213000Y-169989600D01*
X141223400Y-170004200D01*
X141235800Y-170027000D01*
X141246200Y-170060300D01*
X141256600Y-170101800D01*
X141269100Y-170153800D01*
X141277400Y-170209900D01*
X141287800Y-170276400D01*
X141296100Y-170349100D01*
X141300300Y-170382300D01*
X141304400Y-170411400D01*
X141310600Y-170434300D01*
X141319000Y-170455100D01*
X141327300Y-170471700D01*
X141335600Y-170488300D01*
X141348100Y-170502900D01*
X141362600Y-170515300D01*
X141375100Y-170527800D01*
X141387500Y-170542300D01*
X141400000Y-170559000D01*
X141414500Y-170579700D01*
X141429100Y-170600500D01*
X141441600Y-170623400D01*
X141454000Y-170646200D01*
X141464400Y-170669100D01*
X141479000Y-170698200D01*
X141491400Y-170723100D01*
X141503900Y-170741800D01*
X141514300Y-170758400D01*
X141526800Y-170770900D01*
X141541300Y-170779200D01*
X141555800Y-170785500D01*
X141570400Y-170791700D01*
X141584900Y-170793800D01*
X141599500Y-170797900D01*
X141616100Y-170802100D01*
X141632700Y-170806200D01*
X141651400Y-170810400D01*
X141668100Y-170814500D01*
X141684700Y-170818700D01*
X141701300Y-170822900D01*
X141717900Y-170827000D01*
X141738700Y-170829100D01*
X141761600Y-170833200D01*
X141786500Y-170835300D01*
X141811400Y-170837400D01*
X141836400Y-170839500D01*
X141861300Y-170841600D01*
X141886200Y-170841600D01*
X141919500Y-170841600D01*
X141948600Y-170839500D01*
X141971400Y-170835300D01*
X141992200Y-170829100D01*
X142008800Y-170820800D01*
X142027500Y-170806200D01*
X142046200Y-170787500D01*
X142069100Y-170764700D01*
X142089900Y-170743900D01*
X142106500Y-170723100D01*
X142116900Y-170706500D01*
X142125200Y-170691900D01*
X142131400Y-170675300D01*
X142131400Y-170660800D01*
X142131400Y-170644200D01*
X142127300Y-170625500D01*
X142125200Y-170608800D01*
X142121000Y-170586000D01*
X142114800Y-170556900D01*
X142110700Y-170525700D01*
X142104400Y-170490400D01*
X142098200Y-170450900D01*
X142091900Y-170413500D01*
X142085700Y-170374000D01*
X142079500Y-170334500D01*
X142073200Y-170295100D01*
X142067000Y-170257700D01*
X142060800Y-170220300D01*
X142054500Y-170184900D01*
X142050400Y-170155800D01*
X142046200Y-170130900D01*
X142042100Y-170112200D01*
X142040000Y-170089300D01*
X142037900Y-170072700D01*
X142037900Y-170056100D01*
X142040000Y-170041600D01*
X142044200Y-170029100D01*
X142052500Y-170016600D01*
X142060800Y-170004200D01*
X142073200Y-169991700D01*
X142096100Y-169973000D01*
X142123100Y-169958400D01*
X142152200Y-169950100D01*
X142179200Y-169948100D01*
X142206200Y-169952200D01*
G37*
G36*
X136315300Y-170502900D02*
G01*
X136327800Y-170517400D01*
X136344400Y-170531900D01*
X136359000Y-170544400D01*
X136375600Y-170554800D01*
X136390100Y-170565200D01*
X136404700Y-170573500D01*
X136421300Y-170583900D01*
X136435800Y-170594300D01*
X136450400Y-170608800D01*
X136462900Y-170623400D01*
X136475300Y-170637900D01*
X136485700Y-170652500D01*
X136494000Y-170669100D01*
X136502300Y-170683600D01*
X136512700Y-170698200D01*
X136525200Y-170714800D01*
X136537700Y-170731400D01*
X136552200Y-170746000D01*
X136568800Y-170758400D01*
X136583400Y-170770900D01*
X136597900Y-170781300D01*
X136624900Y-170797900D01*
X136647800Y-170814500D01*
X136664400Y-170833200D01*
X136676900Y-170849900D01*
X136685200Y-170868600D01*
X136687300Y-170887300D01*
X136687300Y-170906000D01*
X136683100Y-170926800D01*
X136666500Y-170957900D01*
X136643600Y-170980800D01*
X136616600Y-170993200D01*
X136583400Y-170995300D01*
X136550100Y-170989100D01*
X136514800Y-170974500D01*
X136481600Y-170949600D01*
X136448300Y-170916400D01*
X136415100Y-170879000D01*
X136373500Y-170847800D01*
X136325700Y-170820800D01*
X136269600Y-170802100D01*
X136201000Y-170785500D01*
X136117900Y-170775100D01*
X136022300Y-170766800D01*
X135908100Y-170762600D01*
X135847800Y-170760500D01*
X135789600Y-170760500D01*
X135733500Y-170760500D01*
X135683600Y-170760500D01*
X135640000Y-170760500D01*
X135602600Y-170762600D01*
X135575600Y-170764700D01*
X135561000Y-170766800D01*
X135548600Y-170770900D01*
X135536100Y-170779200D01*
X135523600Y-170787500D01*
X135511200Y-170797900D01*
X135500800Y-170812500D01*
X135488300Y-170827000D01*
X135477900Y-170843600D01*
X135467500Y-170862300D01*
X135444700Y-170901800D01*
X135421800Y-170935100D01*
X135399000Y-170960000D01*
X135374000Y-170978700D01*
X135349100Y-170989100D01*
X135322100Y-170995300D01*
X135293000Y-170993200D01*
X135261800Y-170984900D01*
X135232700Y-170972500D01*
X135207800Y-170957900D01*
X135189100Y-170939200D01*
X135174500Y-170920500D01*
X135168300Y-170897700D01*
X135164200Y-170872700D01*
X135166200Y-170845700D01*
X135174500Y-170814500D01*
X135180800Y-170797900D01*
X135184900Y-170775100D01*
X135193200Y-170748100D01*
X135199500Y-170719000D01*
X135207800Y-170685700D01*
X135214000Y-170652500D01*
X135222300Y-170617100D01*
X135228600Y-170581800D01*
X135236900Y-170542300D01*
X135245200Y-170502900D01*
X135257700Y-170465500D01*
X135259551Y-170459200D01*
X135613000Y-170459200D01*
X135617100Y-170484200D01*
X135629600Y-170509100D01*
X135648300Y-170531900D01*
X135671200Y-170550600D01*
X135702300Y-170569400D01*
X135735600Y-170581800D01*
X135770900Y-170590100D01*
X135808300Y-170592200D01*
X135868600Y-170588100D01*
X135914300Y-170573500D01*
X135951700Y-170552700D01*
X135974500Y-170525700D01*
X135982900Y-170492500D01*
X135978700Y-170457100D01*
X135960000Y-170417700D01*
X135924700Y-170378200D01*
X135912200Y-170365700D01*
X135899700Y-170351200D01*
X135889400Y-170338700D01*
X135881000Y-170326200D01*
X135872700Y-170315800D01*
X135866500Y-170303400D01*
X135864400Y-170295100D01*
X135862300Y-170286800D01*
X135858200Y-170255600D01*
X135847800Y-170226500D01*
X135833200Y-170205700D01*
X135814500Y-170189100D01*
X135789600Y-170180800D01*
X135764700Y-170180800D01*
X135737700Y-170187000D01*
X135710700Y-170201600D01*
X135696100Y-170218200D01*
X135679500Y-170245200D01*
X135662900Y-170276400D01*
X135648300Y-170313800D01*
X135633800Y-170353200D01*
X135623400Y-170392700D01*
X135615100Y-170428100D01*
X135613000Y-170459200D01*
X135259551Y-170459200D01*
X135268100Y-170430100D01*
X135282600Y-170394800D01*
X135297100Y-170363600D01*
X135311700Y-170332500D01*
X135330400Y-170301300D01*
X135344900Y-170276400D01*
X135359500Y-170249300D01*
X135374000Y-170218200D01*
X135388600Y-170189100D01*
X135403100Y-170157900D01*
X135415600Y-170128800D01*
X135426000Y-170101800D01*
X135436400Y-170076900D01*
X135442600Y-170056100D01*
X135453000Y-170033200D01*
X135461300Y-170012500D01*
X135471700Y-169993800D01*
X135482100Y-169977100D01*
X135492500Y-169964700D01*
X135500800Y-169954300D01*
X135509100Y-169948100D01*
X135540300Y-169935600D01*
X135581800Y-169929300D01*
X135629600Y-169925200D01*
X135679500Y-169927300D01*
X135727300Y-169931400D01*
X135770900Y-169939700D01*
X135804200Y-169950100D01*
X135827000Y-169964700D01*
X135833200Y-169973000D01*
X135841600Y-169981300D01*
X135847800Y-169993800D01*
X135856100Y-170006200D01*
X135862300Y-170018700D01*
X135870700Y-170031200D01*
X135876900Y-170043600D01*
X135881000Y-170056100D01*
X135887300Y-170068600D01*
X135895600Y-170083100D01*
X135903900Y-170093500D01*
X135916400Y-170106000D01*
X135928800Y-170116400D01*
X135943400Y-170126800D01*
X135960000Y-170135100D01*
X135976600Y-170143400D01*
X135993200Y-170151700D01*
X136009900Y-170162100D01*
X136024400Y-170172500D01*
X136039000Y-170184900D01*
X136051400Y-170199500D01*
X136063900Y-170214000D01*
X136074300Y-170230600D01*
X136082600Y-170247300D01*
X136093000Y-170261800D01*
X136101300Y-170278400D01*
X136113800Y-170293000D01*
X136126200Y-170305500D01*
X136138700Y-170317900D01*
X136151200Y-170328300D01*
X136165700Y-170338700D01*
X136178200Y-170344900D01*
X136192700Y-170351200D01*
X136205200Y-170361600D01*
X136219700Y-170371900D01*
X136234300Y-170384400D01*
X136246800Y-170401000D01*
X136259200Y-170415600D01*
X136269600Y-170432200D01*
X136280000Y-170450900D01*
X136290400Y-170467500D01*
X136300800Y-170486200D01*
X136306200Y-170492500D01*
X136315300Y-170502900D01*
G37*
G36*
X152637400Y-170563100D02*
G01*
X152641600Y-170598400D01*
X152639500Y-170631700D01*
X152629100Y-170664900D01*
X152612500Y-170698200D01*
X152585500Y-170733500D01*
X152570900Y-170752200D01*
X152556400Y-170773000D01*
X152539700Y-170793800D01*
X152525200Y-170814500D01*
X152510600Y-170835300D01*
X152496100Y-170854000D01*
X152485700Y-170872700D01*
X152475300Y-170887300D01*
X152452500Y-170916400D01*
X152427500Y-170941300D01*
X152396400Y-170962100D01*
X152359000Y-170978700D01*
X152313200Y-170991200D01*
X152263400Y-171001600D01*
X152203100Y-171007800D01*
X152136600Y-171009900D01*
X152049400Y-171011900D01*
X151949600Y-171007800D01*
X151843600Y-171003600D01*
X151737700Y-170997400D01*
X151637900Y-170989100D01*
X151554800Y-170978700D01*
X151490400Y-170970400D01*
X151457100Y-170960000D01*
X151419700Y-170935100D01*
X151365700Y-170895600D01*
X151303400Y-170843600D01*
X151236900Y-170785500D01*
X151172500Y-170727300D01*
X151116400Y-170673200D01*
X151072700Y-170627500D01*
X151047800Y-170598400D01*
X151033200Y-170565200D01*
X151018700Y-170529900D01*
X151008300Y-170490400D01*
X151002100Y-170446800D01*
X150995800Y-170403100D01*
X150993800Y-170357400D01*
X150994163Y-170349100D01*
X151280500Y-170349100D01*
X151280500Y-170371900D01*
X151280500Y-170394800D01*
X151280500Y-170428100D01*
X151282600Y-170455100D01*
X151286800Y-170477900D01*
X151290900Y-170494500D01*
X151301300Y-170511200D01*
X151313800Y-170525700D01*
X151330400Y-170540300D01*
X151351200Y-170559000D01*
X151365700Y-170571400D01*
X151382300Y-170586000D01*
X151396900Y-170602600D01*
X151413500Y-170619200D01*
X151426000Y-170637900D01*
X151440500Y-170654500D01*
X151450900Y-170673200D01*
X151461300Y-170689900D01*
X151473800Y-170714800D01*
X151486200Y-170735600D01*
X151500800Y-170750100D01*
X151519500Y-170762600D01*
X151544400Y-170773000D01*
X151579700Y-170783400D01*
X151625500Y-170793800D01*
X151685700Y-170806200D01*
X151743900Y-170816600D01*
X151791700Y-170824900D01*
X151833200Y-170831200D01*
X151868600Y-170833200D01*
X151906000Y-170833200D01*
X151943400Y-170829100D01*
X151987000Y-170820800D01*
X152039000Y-170812500D01*
X152109600Y-170795800D01*
X152165700Y-170781300D01*
X152207300Y-170762600D01*
X152236400Y-170737700D01*
X152257100Y-170708600D01*
X152269600Y-170671200D01*
X152275800Y-170621300D01*
X152277900Y-170561000D01*
X152277900Y-170523600D01*
X152275800Y-170492500D01*
X152271700Y-170465500D01*
X152267500Y-170440500D01*
X152259200Y-170419700D01*
X152248800Y-170396900D01*
X152236400Y-170376100D01*
X152217700Y-170351200D01*
X152182300Y-170305500D01*
X152149100Y-170266000D01*
X152115800Y-170234800D01*
X152082600Y-170207800D01*
X152047300Y-170184900D01*
X152007800Y-170166200D01*
X151962100Y-170149600D01*
X151910100Y-170135100D01*
X151835300Y-170118400D01*
X151768800Y-170106000D01*
X151708600Y-170097700D01*
X151654500Y-170097700D01*
X151602600Y-170101800D01*
X151550600Y-170114300D01*
X151498700Y-170130900D01*
X151442600Y-170155800D01*
X151413500Y-170168300D01*
X151388600Y-170180800D01*
X151363600Y-170195300D01*
X151342900Y-170207800D01*
X151324200Y-170220300D01*
X151309600Y-170232700D01*
X151299200Y-170241000D01*
X151293000Y-170249300D01*
X151290900Y-170259700D01*
X151288800Y-170272200D01*
X151286800Y-170288800D01*
X151284700Y-170305500D01*
X151282600Y-170326200D01*
X151280500Y-170349100D01*
X150994163Y-170349100D01*
X150995800Y-170311700D01*
X151000000Y-170266000D01*
X151006200Y-170236900D01*
X151012500Y-170211900D01*
X151020800Y-170187000D01*
X151033200Y-170164200D01*
X151047800Y-170141300D01*
X151068600Y-170118400D01*
X151093500Y-170089300D01*
X151124700Y-170058200D01*
X151151700Y-170033200D01*
X151178700Y-170010400D01*
X151203600Y-169989600D01*
X151228600Y-169973000D01*
X151253500Y-169956400D01*
X151276400Y-169943900D01*
X151299200Y-169935600D01*
X151322100Y-169927300D01*
X151338700Y-169921000D01*
X151359500Y-169912700D01*
X151378200Y-169904400D01*
X151396900Y-169894000D01*
X151415600Y-169881600D01*
X151434300Y-169869100D01*
X151448800Y-169856600D01*
X151461300Y-169844200D01*
X151484200Y-169819200D01*
X151507000Y-169802600D01*
X151527800Y-169790100D01*
X151548600Y-169783900D01*
X151569400Y-169783900D01*
X151590100Y-169790100D01*
X151608800Y-169802600D01*
X151629600Y-169819200D01*
X151635800Y-169829600D01*
X151646200Y-169837900D01*
X151654500Y-169850400D01*
X151664900Y-169860800D01*
X151675300Y-169871200D01*
X151683600Y-169883600D01*
X151694000Y-169894000D01*
X151700300Y-169902300D01*
X151712700Y-169916900D01*
X151725200Y-169927300D01*
X151741800Y-169935600D01*
X151760500Y-169939700D01*
X151787500Y-169943900D01*
X151820800Y-169946000D01*
X151862300Y-169948100D01*
X151914300Y-169948100D01*
X151984900Y-169950100D01*
X152047300Y-169954300D01*
X152099200Y-169962600D01*
X152144900Y-169973000D01*
X152184400Y-169989600D01*
X152215600Y-170008300D01*
X152242600Y-170033200D01*
X152265500Y-170060300D01*
X152273800Y-170072700D01*
X152284200Y-170085200D01*
X152296600Y-170097700D01*
X152311200Y-170110100D01*
X152325700Y-170120500D01*
X152340300Y-170130900D01*
X152354800Y-170139200D01*
X152369400Y-170145500D01*
X152396400Y-170157900D01*
X152419200Y-170170400D01*
X152437900Y-170182900D01*
X152454500Y-170197400D01*
X152467000Y-170214000D01*
X152477400Y-170232700D01*
X152487800Y-170255600D01*
X152496100Y-170280500D01*
X152500300Y-170293000D01*
X152506500Y-170307500D01*
X152514800Y-170326200D01*
X152523100Y-170344900D01*
X152533500Y-170365700D01*
X152546000Y-170386500D01*
X152556400Y-170405200D01*
X152568800Y-170426000D01*
X152600000Y-170477900D01*
X152622900Y-170523600D01*
X152637400Y-170563100D01*
G37*
G36*
X145853000Y-169914800D02*
G01*
X145913200Y-169929300D01*
X145942300Y-169939700D01*
X145967300Y-169954300D01*
X145988100Y-169970900D01*
X146006800Y-169993800D01*
X146023400Y-170018700D01*
X146035800Y-170049900D01*
X146046200Y-170085200D01*
X146056600Y-170124700D01*
X146062900Y-170155800D01*
X146071200Y-170187000D01*
X146083600Y-170218200D01*
X146098200Y-170251400D01*
X146114800Y-170288800D01*
X146135600Y-170328300D01*
X146160500Y-170369900D01*
X146189600Y-170417700D01*
X146204200Y-170446800D01*
X146218700Y-170488300D01*
X146233200Y-170540300D01*
X146245700Y-170596400D01*
X146256100Y-170658700D01*
X146264400Y-170721000D01*
X146270700Y-170781300D01*
X146272700Y-170837400D01*
X146268600Y-170864400D01*
X146260300Y-170891400D01*
X146245700Y-170920500D01*
X146229100Y-170947500D01*
X146210400Y-170970400D01*
X146189600Y-170991200D01*
X146170900Y-171003600D01*
X146152200Y-171007800D01*
X146129400Y-171003600D01*
X146108600Y-170993200D01*
X146087800Y-170972500D01*
X146069100Y-170947500D01*
X146050400Y-170912200D01*
X146033800Y-170872700D01*
X146017100Y-170824900D01*
X146000500Y-170770900D01*
X145983900Y-170704400D01*
X145963100Y-170642100D01*
X145940300Y-170586000D01*
X145915300Y-170534000D01*
X145890400Y-170488300D01*
X145865500Y-170450900D01*
X145840500Y-170423900D01*
X145815600Y-170405200D01*
X145778200Y-170388600D01*
X145744900Y-170384400D01*
X145715800Y-170388600D01*
X145693000Y-170405200D01*
X145674300Y-170432200D01*
X145659700Y-170467500D01*
X145651400Y-170515300D01*
X145649400Y-170571400D01*
X145645200Y-170658700D01*
X145634800Y-170735600D01*
X145614000Y-170804200D01*
X145587000Y-170862300D01*
X145553800Y-170914300D01*
X145510100Y-170953800D01*
X145460300Y-170987000D01*
X145402100Y-171009900D01*
X145377100Y-171016100D01*
X145354300Y-171022300D01*
X145335600Y-171024400D01*
X145319000Y-171024400D01*
X145300300Y-171022300D01*
X145283600Y-171018200D01*
X145264900Y-171011900D01*
X145244200Y-171001600D01*
X145229600Y-170993200D01*
X145215100Y-170987000D01*
X145202600Y-170978700D01*
X145192200Y-170970400D01*
X145183900Y-170964200D01*
X145177700Y-170955800D01*
X145173500Y-170949600D01*
X145171400Y-170945500D01*
X145167300Y-170937100D01*
X145156900Y-170922600D01*
X145142300Y-170903900D01*
X145119500Y-170879000D01*
X145094500Y-170851900D01*
X145063400Y-170820800D01*
X145032200Y-170787500D01*
X144996900Y-170752200D01*
X144955300Y-170710600D01*
X144917900Y-170671200D01*
X144884700Y-170633800D01*
X144853500Y-170600500D01*
X144828600Y-170567300D01*
X144807800Y-170536100D01*
X144791200Y-170509100D01*
X144778700Y-170482100D01*
X144762100Y-170446800D01*
X144743400Y-170419700D01*
X144722600Y-170399000D01*
X144701800Y-170386500D01*
X144679000Y-170382300D01*
X144654000Y-170384400D01*
X144629100Y-170394800D01*
X144600000Y-170413500D01*
X144587500Y-170421800D01*
X144579200Y-170432200D01*
X144573000Y-170444700D01*
X144570900Y-170461300D01*
X144570900Y-170484200D01*
X144573000Y-170513200D01*
X144579200Y-170554800D01*
X144587500Y-170604700D01*
X144604200Y-170704400D01*
X144616600Y-170777100D01*
X144624900Y-170833200D01*
X144627000Y-170870600D01*
X144627000Y-170897700D01*
X144620800Y-170916400D01*
X144612500Y-170930900D01*
X144600000Y-170945500D01*
X144579200Y-170962100D01*
X144558400Y-170974500D01*
X144533500Y-170982900D01*
X144508600Y-170984900D01*
X144481600Y-170982900D01*
X144458700Y-170976600D01*
X144435800Y-170966200D01*
X144419200Y-170949600D01*
X144410900Y-170939200D01*
X144402600Y-170924700D01*
X144394300Y-170901800D01*
X144386000Y-170876900D01*
X144377700Y-170849900D01*
X144369400Y-170818700D01*
X144361000Y-170785500D01*
X144352700Y-170752200D01*
X144344400Y-170714800D01*
X144336100Y-170679500D01*
X144325700Y-170646200D01*
X144315300Y-170615100D01*
X144302900Y-170586000D01*
X144292500Y-170561000D01*
X144280000Y-170540300D01*
X144267500Y-170521600D01*
X144248800Y-170490400D01*
X144230100Y-170444700D01*
X144213500Y-170392700D01*
X144196900Y-170330400D01*
X144184400Y-170266000D01*
X144174000Y-170197400D01*
X144167800Y-170130900D01*
X144165700Y-170064400D01*
X144169900Y-170022900D01*
X144178200Y-169987500D01*
X144194800Y-169958400D01*
X144217700Y-169937700D01*
X144248800Y-169923100D01*
X144288300Y-169912700D01*
X144334000Y-169910600D01*
X144388100Y-169912700D01*
X144433800Y-169919000D01*
X144473200Y-169927300D01*
X144506500Y-169937700D01*
X144535600Y-169952200D01*
X144560500Y-169970900D01*
X144581300Y-169991700D01*
X144597900Y-170018700D01*
X144612500Y-170047800D01*
X144616600Y-170058200D01*
X144624900Y-170068600D01*
X144635300Y-170081000D01*
X144645700Y-170093500D01*
X144658200Y-170103900D01*
X144672700Y-170116400D01*
X144687300Y-170126800D01*
X144701800Y-170137100D01*
X144716400Y-170145500D01*
X144730900Y-170157900D01*
X144745500Y-170170400D01*
X144760000Y-170184900D01*
X144772500Y-170199500D01*
X144782900Y-170214000D01*
X144791200Y-170226500D01*
X144797400Y-170241000D01*
X144805700Y-170255600D01*
X144814000Y-170270100D01*
X144826500Y-170284700D01*
X144839000Y-170297100D01*
X144853500Y-170311700D01*
X144870100Y-170324200D01*
X144886800Y-170334500D01*
X144905500Y-170344900D01*
X144926200Y-170355300D01*
X144942900Y-170367800D01*
X144959500Y-170380300D01*
X144974000Y-170394800D01*
X144988600Y-170409300D01*
X144999000Y-170426000D01*
X145009400Y-170442600D01*
X145017700Y-170459200D01*
X145026000Y-170475800D01*
X145034300Y-170490400D01*
X145046800Y-170507000D01*
X145059200Y-170523600D01*
X145073800Y-170538200D01*
X145088300Y-170552700D01*
X145102900Y-170563100D01*
X145119500Y-170573500D01*
X145134000Y-170583900D01*
X145148600Y-170594300D01*
X145163100Y-170604700D01*
X145177700Y-170617100D01*
X145192200Y-170629600D01*
X145204700Y-170642100D01*
X145213000Y-170654500D01*
X145221300Y-170667000D01*
X145240000Y-170687800D01*
X145260800Y-170704400D01*
X145283600Y-170712700D01*
X145306500Y-170716900D01*
X145329400Y-170714800D01*
X145348100Y-170706500D01*
X145364700Y-170691900D01*
X145377100Y-170671200D01*
X145381300Y-170656600D01*
X145385500Y-170640000D01*
X145391700Y-170617100D01*
X145397900Y-170592200D01*
X145402100Y-170563100D01*
X145408300Y-170531900D01*
X145414500Y-170500800D01*
X145418700Y-170467500D01*
X145424900Y-170428100D01*
X145433200Y-170390600D01*
X145441600Y-170359500D01*
X145449900Y-170328300D01*
X145462300Y-170301300D01*
X145472700Y-170274300D01*
X145487300Y-170251400D01*
X145501800Y-170228600D01*
X145514300Y-170209900D01*
X145526800Y-170191200D01*
X145539200Y-170168300D01*
X145549600Y-170147500D01*
X145562100Y-170124700D01*
X145570400Y-170103900D01*
X145578700Y-170085200D01*
X145584900Y-170068600D01*
X145605700Y-170018700D01*
X145632700Y-169979200D01*
X145663900Y-169948100D01*
X145703400Y-169927300D01*
X145747000Y-169914800D01*
X145796900Y-169910600D01*
X145853000Y-169914800D01*
G37*
G36*
X147384400Y-164838400D02*
G01*
X147588100Y-164842600D01*
X147719000Y-164846800D01*
X147795800Y-164853000D01*
X147835300Y-164863400D01*
X147856100Y-164877900D01*
X147868600Y-164888300D01*
X147881000Y-164900800D01*
X147893500Y-164919500D01*
X147906000Y-164938200D01*
X147920500Y-164959000D01*
X147933000Y-164981800D01*
X147945500Y-165004700D01*
X147955800Y-165027500D01*
X147966200Y-165052500D01*
X147976600Y-165079500D01*
X147989100Y-165106500D01*
X148001600Y-165135600D01*
X148016100Y-165164700D01*
X148028600Y-165191700D01*
X148039000Y-165218700D01*
X148051400Y-165241600D01*
X148061800Y-165268600D01*
X148074300Y-165301800D01*
X148084700Y-165341300D01*
X148097100Y-165384900D01*
X148109600Y-165434800D01*
X148122100Y-165484700D01*
X148132500Y-165536600D01*
X148140800Y-165588600D01*
X148151200Y-165644700D01*
X148161600Y-165700800D01*
X148174000Y-165752700D01*
X148188600Y-165804700D01*
X148201000Y-165854500D01*
X148215600Y-165898200D01*
X148230100Y-165939700D01*
X148244700Y-165977100D01*
X148259200Y-166010400D01*
X148273800Y-166051900D01*
X148288300Y-166099700D01*
X148304900Y-166151700D01*
X148319500Y-166205700D01*
X148334000Y-166259700D01*
X148346500Y-166313800D01*
X148359000Y-166367800D01*
X148369400Y-166417700D01*
X148381800Y-166471700D01*
X148394300Y-166521600D01*
X148408800Y-166571400D01*
X148421300Y-166617100D01*
X148435800Y-166656600D01*
X148448300Y-166691900D01*
X148458700Y-166716900D01*
X148471200Y-166739700D01*
X148481600Y-166766800D01*
X148494000Y-166795800D01*
X148504400Y-166827000D01*
X148514800Y-166858200D01*
X148523100Y-166889300D01*
X148531400Y-166918400D01*
X148537700Y-166945500D01*
X148560500Y-167063900D01*
X148581300Y-167159500D01*
X148597900Y-167234300D01*
X148612500Y-167292500D01*
X148624900Y-167338200D01*
X148637400Y-167371400D01*
X148649900Y-167400500D01*
X148662300Y-167423400D01*
X148672700Y-167442100D01*
X148683100Y-167471200D01*
X148695600Y-167506500D01*
X148708100Y-167550100D01*
X148720500Y-167597900D01*
X148733000Y-167649900D01*
X148745500Y-167703900D01*
X148757900Y-167757900D01*
X148770400Y-167814000D01*
X148782900Y-167872200D01*
X148797400Y-167930400D01*
X148814000Y-167986500D01*
X148828600Y-168040500D01*
X148843100Y-168088300D01*
X148857700Y-168127800D01*
X148870100Y-168161000D01*
X148882600Y-168192200D01*
X148897100Y-168231700D01*
X148911700Y-168277400D01*
X148926200Y-168327300D01*
X148938700Y-168379200D01*
X148953200Y-168431200D01*
X148963600Y-168485200D01*
X148974000Y-168535100D01*
X148986500Y-168593200D01*
X148999000Y-168649400D01*
X149011400Y-168703400D01*
X149028100Y-168755300D01*
X149042600Y-168805200D01*
X149059200Y-168853000D01*
X149077900Y-168898700D01*
X149094500Y-168940300D01*
X149117400Y-168990100D01*
X149134000Y-169033800D01*
X149148600Y-169071200D01*
X149156900Y-169106500D01*
X149165200Y-169139700D01*
X149169400Y-169177100D01*
X149171400Y-169218700D01*
X149171400Y-169266500D01*
X149171400Y-169353800D01*
X149167300Y-169416100D01*
X149140300Y-169461800D01*
X149082100Y-169490900D01*
X148980300Y-169505500D01*
X148818200Y-169513800D01*
X148583400Y-169517900D01*
X148265500Y-169517900D01*
X148099200Y-169520000D01*
X147943400Y-169520000D01*
X147797900Y-169517900D01*
X147667000Y-169517900D01*
X147556900Y-169515800D01*
X147471700Y-169513800D01*
X147409400Y-169509600D01*
X147380300Y-169507500D01*
X147359500Y-169499200D01*
X147342900Y-169490900D01*
X147324200Y-169478400D01*
X147307500Y-169457700D01*
X147288800Y-169432700D01*
X147266000Y-169397400D01*
X147241000Y-169353800D01*
X147209900Y-169297700D01*
X147180800Y-169241600D01*
X147155800Y-169191700D01*
X147135100Y-169143900D01*
X147118400Y-169098200D01*
X147103900Y-169050400D01*
X147091400Y-168998400D01*
X147079000Y-168940300D01*
X147066500Y-168871700D01*
X147056100Y-168817700D01*
X147043600Y-168763600D01*
X147031200Y-168711700D01*
X147018700Y-168663900D01*
X147004200Y-168616100D01*
X146989600Y-168572500D01*
X146975100Y-168535100D01*
X146960500Y-168499700D01*
X146946000Y-168468600D01*
X146933500Y-168435300D01*
X146921000Y-168397900D01*
X146908600Y-168360500D01*
X146896100Y-168321000D01*
X146887800Y-168283600D01*
X146879500Y-168248300D01*
X146873200Y-168215100D01*
X146862900Y-168144400D01*
X146850400Y-168084200D01*
X146840000Y-168036400D01*
X146827500Y-167994800D01*
X146815100Y-167963600D01*
X146800500Y-167938700D01*
X146783900Y-167920000D01*
X146765200Y-167905500D01*
X146744400Y-167899200D01*
X146707000Y-167893000D01*
X146648800Y-167888800D01*
X146574000Y-167884700D01*
X146476400Y-167880500D01*
X146355800Y-167876400D01*
X146212500Y-167872200D01*
X146044200Y-167870100D01*
X145869600Y-167868100D01*
X145722100Y-167863900D01*
X145601600Y-167859700D01*
X145506000Y-167855600D01*
X145431200Y-167851400D01*
X145377100Y-167845200D01*
X145341800Y-167839000D01*
X145321000Y-167832700D01*
X145298200Y-167816100D01*
X145277400Y-167793200D01*
X145258700Y-167762100D01*
X145242100Y-167724700D01*
X145225500Y-167679000D01*
X145210900Y-167622900D01*
X145196400Y-167554300D01*
X145183900Y-167475300D01*
X145175600Y-167431700D01*
X145165200Y-167386000D01*
X145154800Y-167340300D01*
X145140300Y-167294500D01*
X145127800Y-167248800D01*
X145111200Y-167205200D01*
X145096600Y-167163600D01*
X145077900Y-167124200D01*
X145059200Y-167078400D01*
X145042600Y-167036900D01*
X145030100Y-166999500D01*
X145019700Y-166966200D01*
X145013500Y-166933000D01*
X145007300Y-166899700D01*
X145005200Y-166864400D01*
X145005200Y-166827000D01*
X145005200Y-166754300D01*
X145013500Y-166700300D01*
X145034300Y-166662900D01*
X145082100Y-166635800D01*
X145161000Y-166621300D01*
X145283600Y-166613000D01*
X145456100Y-166610900D01*
X145686800Y-166608800D01*
X145807300Y-166608800D01*
X145921600Y-166606800D01*
X146027500Y-166604700D01*
X146121000Y-166602600D01*
X146200000Y-166600500D01*
X146262300Y-166598400D01*
X146306000Y-166596400D01*
X146328800Y-166592200D01*
X146376600Y-166567300D01*
X146401600Y-166525700D01*
X146407800Y-166473800D01*
X146397400Y-166413500D01*
X146368300Y-166351200D01*
X146324700Y-166293000D01*
X146268600Y-166245200D01*
X146202100Y-166207800D01*
X146177100Y-166203600D01*
X146133500Y-166199500D01*
X146071200Y-166195300D01*
X145992200Y-166191200D01*
X145892500Y-166189100D01*
X145776100Y-166189100D01*
X145641000Y-166187000D01*
X145489400Y-166187000D01*
X145210900Y-166189100D01*
X145001000Y-166182900D01*
X144849400Y-166170400D01*
X144741300Y-166141300D01*
X144670700Y-166095600D01*
X144622900Y-166024900D01*
X144589600Y-165927300D01*
X144556400Y-165796400D01*
X144546000Y-165750700D01*
X144533500Y-165704900D01*
X144521000Y-165659200D01*
X144506500Y-165615600D01*
X144491900Y-165574000D01*
X144479500Y-165536600D01*
X144467000Y-165505500D01*
X144454500Y-165480500D01*
X144429600Y-165424400D01*
X144406800Y-165362100D01*
X144386000Y-165297700D01*
X144369400Y-165231200D01*
X144356900Y-165166800D01*
X144348600Y-165106500D01*
X144346500Y-165054500D01*
X144348600Y-165015100D01*
X144352700Y-164998400D01*
X144359000Y-164981800D01*
X144367300Y-164965200D01*
X144375600Y-164948600D01*
X144386000Y-164931900D01*
X144398400Y-164917400D01*
X144410900Y-164902900D01*
X144425500Y-164890400D01*
X144489900Y-164836400D01*
X146146000Y-164836400D01*
X146682100Y-164836400D01*
X147089400Y-164836400D01*
X147384400Y-164838400D01*
G37*
G36*
X144255100Y-166783400D02*
G01*
X144269600Y-166822900D01*
X144282100Y-166856100D01*
X144292500Y-166881000D01*
X144304900Y-166908100D01*
X144317400Y-166941300D01*
X144331900Y-166982900D01*
X144344400Y-167028600D01*
X144359000Y-167076400D01*
X144371400Y-167128300D01*
X144383900Y-167180300D01*
X144394300Y-167230100D01*
X144406800Y-167282100D01*
X144419200Y-167336100D01*
X144431700Y-167392200D01*
X144448300Y-167446200D01*
X144462900Y-167500300D01*
X144477400Y-167548100D01*
X144491900Y-167589600D01*
X144506500Y-167624900D01*
X144519000Y-167660300D01*
X144533500Y-167706000D01*
X144550100Y-167755800D01*
X144564700Y-167809900D01*
X144581300Y-167868100D01*
X144595800Y-167928300D01*
X144608300Y-167986500D01*
X144620800Y-168042600D01*
X144633200Y-168100800D01*
X144645700Y-168156900D01*
X144660300Y-168213000D01*
X144674800Y-168264900D01*
X144687300Y-168312700D01*
X144701800Y-168354300D01*
X144716400Y-168389600D01*
X144728800Y-168416600D01*
X144741300Y-168445700D01*
X144753800Y-168479000D01*
X144766200Y-168516400D01*
X144778700Y-168557900D01*
X144791200Y-168605700D01*
X144801600Y-168655600D01*
X144811900Y-168707500D01*
X144822300Y-168763600D01*
X144832700Y-168823900D01*
X144843100Y-168877900D01*
X144853500Y-168925700D01*
X144863900Y-168967300D01*
X144876400Y-169002600D01*
X144888800Y-169031700D01*
X144901300Y-169058700D01*
X144913800Y-169081600D01*
X144936600Y-169119000D01*
X144953200Y-169156400D01*
X144967800Y-169191700D01*
X144976100Y-169227000D01*
X144980300Y-169264400D01*
X144978200Y-169301800D01*
X144974000Y-169339200D01*
X144965700Y-169380800D01*
X144951200Y-169424400D01*
X144930400Y-169459700D01*
X144888800Y-169482600D01*
X144816100Y-169499200D01*
X144701800Y-169509600D01*
X144531400Y-169515800D01*
X144298700Y-169517900D01*
X143987000Y-169517900D01*
X143157900Y-169517900D01*
X143083100Y-169461800D01*
X143049900Y-169432700D01*
X143018700Y-169401600D01*
X142995800Y-169368300D01*
X142975100Y-169328800D01*
X142956400Y-169281000D01*
X142941800Y-169227000D01*
X142927300Y-169160500D01*
X142914800Y-169083600D01*
X142906500Y-169037900D01*
X142898200Y-168990100D01*
X142885700Y-168942300D01*
X142873200Y-168894500D01*
X142860800Y-168846800D01*
X142846200Y-168801000D01*
X142829600Y-168757400D01*
X142815100Y-168715800D01*
X142798400Y-168678400D01*
X142783900Y-168636900D01*
X142769400Y-168593200D01*
X142752700Y-168549600D01*
X142740300Y-168506000D01*
X142727800Y-168464400D01*
X142717400Y-168427000D01*
X142709100Y-168391700D01*
X142700800Y-168360500D01*
X142690400Y-168327300D01*
X142680000Y-168298200D01*
X142669600Y-168269100D01*
X142659200Y-168242100D01*
X142648800Y-168219200D01*
X142636400Y-168200500D01*
X142626000Y-168186000D01*
X142578200Y-168129900D01*
X142060800Y-168127800D01*
X141836400Y-168123600D01*
X141641000Y-168117400D01*
X141468600Y-168109100D01*
X141319000Y-168094500D01*
X141188100Y-168077900D01*
X141075800Y-168055100D01*
X140980300Y-168030100D01*
X140899200Y-167999000D01*
X140866000Y-167984400D01*
X140830600Y-167971900D01*
X140793200Y-167957400D01*
X140753800Y-167942900D01*
X140716400Y-167928300D01*
X140676900Y-167915800D01*
X140641600Y-167903400D01*
X140608300Y-167893000D01*
X140577100Y-167882600D01*
X140546000Y-167872200D01*
X140514800Y-167859700D01*
X140489900Y-167847300D01*
X140464900Y-167834800D01*
X140444200Y-167822300D01*
X140425500Y-167809900D01*
X140413000Y-167797400D01*
X140400500Y-167784900D01*
X140386000Y-167772500D01*
X140367300Y-167757900D01*
X140346500Y-167743400D01*
X140325700Y-167726800D01*
X140302900Y-167712200D01*
X140280000Y-167697700D01*
X140259200Y-167685200D01*
X140201000Y-167645700D01*
X140134500Y-167593800D01*
X140063900Y-167529300D01*
X139993200Y-167458700D01*
X139924700Y-167383900D01*
X139864400Y-167311200D01*
X139814500Y-167242600D01*
X139779200Y-167184400D01*
X139766800Y-167159500D01*
X139752200Y-167134500D01*
X139739700Y-167109600D01*
X139725200Y-167084700D01*
X139710700Y-167061800D01*
X139696100Y-167041000D01*
X139683600Y-167022300D01*
X139673200Y-167007800D01*
X139662900Y-166991200D01*
X139652500Y-166970400D01*
X139640000Y-166945500D01*
X139627500Y-166916400D01*
X139615100Y-166885200D01*
X139602600Y-166851900D01*
X139592200Y-166816600D01*
X139581800Y-166783400D01*
X139571400Y-166748100D01*
X139559000Y-166708600D01*
X139546500Y-166669100D01*
X139531900Y-166627500D01*
X139515300Y-166588100D01*
X139500800Y-166548600D01*
X139486200Y-166513200D01*
X139478460Y-166496600D01*
X141385500Y-166496600D01*
X141464400Y-166633800D01*
X141489400Y-166675300D01*
X141510100Y-166708600D01*
X141528800Y-166733500D01*
X141547500Y-166754300D01*
X141568300Y-166768800D01*
X141589100Y-166781300D01*
X141616100Y-166791700D01*
X141649400Y-166802100D01*
X141707500Y-166816600D01*
X141782300Y-166829100D01*
X141865500Y-166839500D01*
X141950700Y-166845700D01*
X142031700Y-166849900D01*
X142104400Y-166847800D01*
X142160500Y-166843600D01*
X142193800Y-166835300D01*
X142218700Y-166816600D01*
X142237400Y-166795800D01*
X142247800Y-166770900D01*
X142251900Y-166741800D01*
X142249900Y-166708600D01*
X142241600Y-166671200D01*
X142227000Y-166629600D01*
X142204200Y-166583900D01*
X142191700Y-166559000D01*
X142179200Y-166529900D01*
X142166800Y-166500800D01*
X142154300Y-166471700D01*
X142143900Y-166442600D01*
X142133500Y-166415600D01*
X142125200Y-166390600D01*
X142116900Y-166367800D01*
X142110700Y-166347000D01*
X142104400Y-166326200D01*
X142094000Y-166307500D01*
X142085700Y-166288800D01*
X142075300Y-166272200D01*
X142064900Y-166257700D01*
X142056600Y-166245200D01*
X142046200Y-166239000D01*
X142019200Y-166226500D01*
X141973500Y-166218200D01*
X141915300Y-166211900D01*
X141848800Y-166207800D01*
X141778200Y-166207800D01*
X141707500Y-166211900D01*
X141643100Y-166218200D01*
X141587000Y-166228600D01*
X141555800Y-166236900D01*
X141528800Y-166247300D01*
X141506000Y-166259700D01*
X141487300Y-166276400D01*
X141468600Y-166299200D01*
X141454000Y-166328300D01*
X141437400Y-166363600D01*
X141418700Y-166407300D01*
X141385500Y-166496600D01*
X139478460Y-166496600D01*
X139471700Y-166482100D01*
X139450900Y-166436400D01*
X139434300Y-166396900D01*
X139421800Y-166361600D01*
X139415600Y-166324200D01*
X139409400Y-166278400D01*
X139407300Y-166224400D01*
X139405200Y-166153800D01*
X139405200Y-166062300D01*
X139405200Y-165781800D01*
X139482100Y-165623900D01*
X139498700Y-165592700D01*
X139513200Y-165561600D01*
X139525700Y-165532500D01*
X139538200Y-165507500D01*
X139548600Y-165484700D01*
X139554800Y-165466000D01*
X139559000Y-165451400D01*
X139561000Y-165445200D01*
X139571400Y-165416100D01*
X139598400Y-165378700D01*
X139637900Y-165333000D01*
X139687800Y-165285200D01*
X139741800Y-165235300D01*
X139800000Y-165189600D01*
X139854000Y-165152200D01*
X139903900Y-165123100D01*
X139930900Y-165110700D01*
X139957900Y-165098200D01*
X139984900Y-165083600D01*
X140011900Y-165069100D01*
X140036900Y-165056600D01*
X140059700Y-165044200D01*
X140078400Y-165031700D01*
X140095100Y-165023400D01*
X140130400Y-165004700D01*
X140178200Y-164986000D01*
X140242600Y-164969400D01*
X140321600Y-164952700D01*
X140419200Y-164934000D01*
X140539700Y-164917400D01*
X140681000Y-164898700D01*
X140845200Y-164877900D01*
X140961600Y-164865500D01*
X141071700Y-164855100D01*
X141192200Y-164848800D01*
X141333500Y-164842600D01*
X141506000Y-164840500D01*
X141722100Y-164838400D01*
X141992200Y-164838400D01*
X142330900Y-164838400D01*
X142619700Y-164838400D01*
X142862900Y-164840500D01*
X143066500Y-164842600D01*
X143230600Y-164844700D01*
X143359500Y-164848800D01*
X143455100Y-164853000D01*
X143523600Y-164859200D01*
X143565200Y-164865500D01*
X143623400Y-164882100D01*
X143671200Y-164898700D01*
X143706500Y-164921600D01*
X143733500Y-164950600D01*
X143756400Y-164990100D01*
X143773000Y-165042100D01*
X143787500Y-165110700D01*
X143802100Y-165195800D01*
X143808300Y-165229100D01*
X143816600Y-165264400D01*
X143824900Y-165301800D01*
X143837400Y-165339200D01*
X143847800Y-165376600D01*
X143860300Y-165414000D01*
X143872700Y-165447300D01*
X143885200Y-165476400D01*
X143899700Y-165507500D01*
X143914300Y-165544900D01*
X143926800Y-165588600D01*
X143941300Y-165634300D01*
X143953800Y-165682100D01*
X143966200Y-165731900D01*
X143978700Y-165781800D01*
X143987000Y-165831700D01*
X143997400Y-165881600D01*
X144007800Y-165933500D01*
X144020300Y-165983400D01*
X144034800Y-166031200D01*
X144047300Y-166076900D01*
X144061800Y-166120500D01*
X144076400Y-166157900D01*
X144090900Y-166191200D01*
X144105500Y-166224400D01*
X144120000Y-166261800D01*
X144134500Y-166305500D01*
X144149100Y-166351200D01*
X144161600Y-166401000D01*
X144176100Y-166450900D01*
X144186500Y-166502900D01*
X144196900Y-166550600D01*
X144207300Y-166598400D01*
X144217700Y-166646200D01*
X144230100Y-166694000D01*
X144242600Y-166741800D01*
X144255100Y-166783400D01*
G37*
G36*
X138983400Y-166764700D02*
G01*
X138995800Y-166820800D01*
X139008300Y-166876900D01*
X139018700Y-166930900D01*
X139033200Y-166987000D01*
X139045700Y-167041000D01*
X139060300Y-167093000D01*
X139074800Y-167140800D01*
X139087300Y-167180300D01*
X139099700Y-167215600D01*
X139112200Y-167240500D01*
X139122600Y-167265500D01*
X139135100Y-167298700D01*
X139147500Y-167336100D01*
X139160000Y-167379700D01*
X139172500Y-167425500D01*
X139182900Y-167473200D01*
X139193200Y-167523100D01*
X139203600Y-167570900D01*
X139214000Y-167624900D01*
X139224400Y-167679000D01*
X139236900Y-167726800D01*
X139251400Y-167774500D01*
X139263900Y-167816100D01*
X139278400Y-167857700D01*
X139293000Y-167893000D01*
X139309600Y-167926200D01*
X139324200Y-167959500D01*
X139338700Y-167996900D01*
X139353200Y-168036400D01*
X139367800Y-168080000D01*
X139380300Y-168127800D01*
X139392700Y-168179700D01*
X139403100Y-168233800D01*
X139415600Y-168291900D01*
X139426000Y-168346000D01*
X139436400Y-168400000D01*
X139448800Y-168451900D01*
X139461300Y-168501800D01*
X139475800Y-168547500D01*
X139490400Y-168591200D01*
X139504900Y-168628600D01*
X139517400Y-168661800D01*
X139531900Y-168690900D01*
X139544400Y-168724200D01*
X139556900Y-168757400D01*
X139567300Y-168792700D01*
X139579700Y-168828100D01*
X139588100Y-168861300D01*
X139596400Y-168892500D01*
X139600500Y-168919500D01*
X139606800Y-168946500D01*
X139610900Y-168977700D01*
X139617100Y-169013000D01*
X139623400Y-169046200D01*
X139629600Y-169081600D01*
X139635800Y-169116900D01*
X139642100Y-169150100D01*
X139646200Y-169179200D01*
X139656600Y-169239500D01*
X139660800Y-169293500D01*
X139660800Y-169343400D01*
X139656600Y-169387000D01*
X139648300Y-169422300D01*
X139635800Y-169453500D01*
X139619200Y-169476400D01*
X139598400Y-169493000D01*
X139575600Y-169499200D01*
X139531900Y-169503400D01*
X139465500Y-169507500D01*
X139374000Y-169511700D01*
X139259700Y-169513800D01*
X139116400Y-169515800D01*
X138946000Y-169515800D01*
X138746500Y-169515800D01*
X138418200Y-169513800D01*
X138173000Y-169511700D01*
X137998400Y-169501300D01*
X137882100Y-169478400D01*
X137809400Y-169441000D01*
X137765700Y-169384900D01*
X137738700Y-169301800D01*
X137711700Y-169193800D01*
X137703400Y-169152200D01*
X137690900Y-169108600D01*
X137678400Y-169062900D01*
X137663900Y-169017100D01*
X137649400Y-168971400D01*
X137634800Y-168927800D01*
X137620300Y-168886200D01*
X137605700Y-168850900D01*
X137593200Y-168815600D01*
X137580800Y-168776100D01*
X137568300Y-168734500D01*
X137555800Y-168690900D01*
X137545500Y-168647300D01*
X137535100Y-168603600D01*
X137526800Y-168562100D01*
X137520500Y-168526800D01*
X137510100Y-168451900D01*
X137497700Y-168389600D01*
X137485200Y-168335600D01*
X137472700Y-168294000D01*
X137456100Y-168262900D01*
X137441600Y-168240000D01*
X137422900Y-168229600D01*
X137406200Y-168227500D01*
X137379200Y-168244200D01*
X137346000Y-168287800D01*
X137312700Y-168350100D01*
X137275300Y-168431200D01*
X137237900Y-168526800D01*
X137200500Y-168632700D01*
X137167300Y-168747000D01*
X137136100Y-168865500D01*
X137111200Y-168956900D01*
X137077900Y-169054500D01*
X137038400Y-169152200D01*
X136996900Y-169245700D01*
X136951200Y-169330900D01*
X136909600Y-169401600D01*
X136868100Y-169457700D01*
X136834800Y-169488800D01*
X136735100Y-169501300D01*
X136508600Y-169509600D01*
X136196900Y-169515800D01*
X135843600Y-169517900D01*
X135490400Y-169515800D01*
X135178700Y-169511700D01*
X134950100Y-169503400D01*
X134848300Y-169493000D01*
X134827500Y-169480500D01*
X134813000Y-169463900D01*
X134800500Y-169445200D01*
X134792200Y-169420300D01*
X134788100Y-169393200D01*
X134786000Y-169357900D01*
X134788100Y-169318400D01*
X134794300Y-169270600D01*
X134798400Y-169239500D01*
X134804700Y-169210400D01*
X134810900Y-169183400D01*
X134821300Y-169158400D01*
X134833800Y-169133500D01*
X134850400Y-169106500D01*
X134869100Y-169079500D01*
X134889900Y-169050400D01*
X134910600Y-169025500D01*
X134929400Y-168996400D01*
X134946000Y-168967300D01*
X134964700Y-168934000D01*
X134979200Y-168900800D01*
X134995800Y-168867500D01*
X135008300Y-168832200D01*
X135020800Y-168796900D01*
X135031200Y-168765700D01*
X135043600Y-168732500D01*
X135058200Y-168697100D01*
X135074800Y-168661800D01*
X135091400Y-168626500D01*
X135108100Y-168595300D01*
X135124700Y-168566200D01*
X135141300Y-168541300D01*
X135155800Y-168518400D01*
X135170400Y-168493500D01*
X135184900Y-168466500D01*
X135197400Y-168439500D01*
X135207800Y-168414500D01*
X135216100Y-168389600D01*
X135224400Y-168368800D01*
X135228600Y-168350100D01*
X135232700Y-168331400D01*
X135236900Y-168310600D01*
X135245200Y-168291900D01*
X135253500Y-168271200D01*
X135261800Y-168250400D01*
X135272200Y-168231700D01*
X135282600Y-168213000D01*
X135293000Y-168198400D01*
X135309600Y-168173500D01*
X135326200Y-168148600D01*
X135342900Y-168119500D01*
X135359500Y-168086200D01*
X135380300Y-168044700D01*
X135405200Y-167990600D01*
X135436400Y-167926200D01*
X135471700Y-167845200D01*
X135486200Y-167814000D01*
X135494500Y-167789100D01*
X135500800Y-167770400D01*
X135502900Y-167753800D01*
X135502900Y-167739200D01*
X135498700Y-167726800D01*
X135490400Y-167712200D01*
X135480000Y-167693500D01*
X135457100Y-167666500D01*
X135428100Y-167637400D01*
X135390600Y-167610400D01*
X135349100Y-167581300D01*
X135301300Y-167556400D01*
X135247300Y-167531400D01*
X135191200Y-167508600D01*
X135130900Y-167487800D01*
X135024900Y-167444200D01*
X134914800Y-167377700D01*
X134802600Y-167294500D01*
X134694500Y-167196900D01*
X134592700Y-167088800D01*
X134503400Y-166976600D01*
X134430700Y-166862300D01*
X134378700Y-166752200D01*
X134362100Y-166712700D01*
X134347500Y-166679500D01*
X134335100Y-166652500D01*
X134320500Y-166631700D01*
X134308100Y-166613000D01*
X134293500Y-166600500D01*
X134279000Y-166590100D01*
X134262300Y-166581800D01*
X134200000Y-166556900D01*
X134200000Y-166367800D01*
X136134500Y-166367800D01*
X136134500Y-166390600D01*
X136136600Y-166419700D01*
X136140800Y-166442600D01*
X136147000Y-166465500D01*
X136153200Y-166488300D01*
X136163600Y-166513200D01*
X136174000Y-166536100D01*
X136186500Y-166561000D01*
X136201000Y-166583900D01*
X136217700Y-166606800D01*
X136232200Y-166627500D01*
X136248800Y-166648300D01*
X136263400Y-166669100D01*
X136277900Y-166689900D01*
X136292500Y-166708600D01*
X136304900Y-166727300D01*
X136315300Y-166741800D01*
X136323600Y-166754300D01*
X136334000Y-166766800D01*
X136350700Y-166779200D01*
X136369400Y-166791700D01*
X136394300Y-166804200D01*
X136423400Y-166816600D01*
X136458700Y-166831200D01*
X136502300Y-166843600D01*
X136552200Y-166858200D01*
X136639500Y-166883100D01*
X136714300Y-166899700D01*
X136778700Y-166910100D01*
X136832700Y-166914300D01*
X136878400Y-166910100D01*
X136915800Y-166901800D01*
X136947000Y-166885200D01*
X136974000Y-166862300D01*
X136996900Y-166839500D01*
X137011400Y-166812500D01*
X137019700Y-166785500D01*
X137023900Y-166756400D01*
X137019700Y-166725200D01*
X137011400Y-166691900D01*
X136994800Y-166654500D01*
X136974000Y-166615100D01*
X136963600Y-166594300D01*
X136951200Y-166571400D01*
X136940800Y-166544400D01*
X136930400Y-166515300D01*
X136922100Y-166486200D01*
X136913800Y-166457100D01*
X136905500Y-166430100D01*
X136901300Y-166403100D01*
X136890900Y-166351200D01*
X136880500Y-166305500D01*
X136870100Y-166266000D01*
X136857700Y-166230600D01*
X136845200Y-166201600D01*
X136832700Y-166176600D01*
X136818200Y-166157900D01*
X136803600Y-166143400D01*
X136772500Y-166122600D01*
X136726800Y-166108100D01*
X136672700Y-166097700D01*
X136612500Y-166089300D01*
X136552200Y-166087300D01*
X136494000Y-166091400D01*
X136440000Y-166097700D01*
X136396400Y-166112200D01*
X136381800Y-166118400D01*
X136363100Y-166130900D01*
X136342300Y-166143400D01*
X136319500Y-166160000D01*
X136296600Y-166176600D01*
X136273800Y-166195300D01*
X136250900Y-166216100D01*
X136228100Y-166234800D01*
X136196900Y-166266000D01*
X136171900Y-166290900D01*
X136153200Y-166311700D01*
X136142900Y-166330400D01*
X136136600Y-166347000D01*
X136134500Y-166367800D01*
X134200000Y-166367800D01*
X134200000Y-166041600D01*
X134200000Y-165526200D01*
X134251900Y-165507500D01*
X134264400Y-165501300D01*
X134281000Y-165490900D01*
X134299700Y-165474300D01*
X134320500Y-165453500D01*
X134343400Y-165430600D01*
X134366200Y-165403600D01*
X134389100Y-165374500D01*
X134414000Y-165345500D01*
X134445200Y-165306000D01*
X134472200Y-165270600D01*
X134499200Y-165241600D01*
X134526200Y-165216600D01*
X134553200Y-165195800D01*
X134582300Y-165175100D01*
X134613500Y-165156400D01*
X134648800Y-165137700D01*
X134675800Y-165125200D01*
X134702900Y-165110700D01*
X134727800Y-165098200D01*
X134750600Y-165083600D01*
X134773500Y-165071200D01*
X134790100Y-165058700D01*
X134806800Y-165050400D01*
X134815100Y-165042100D01*
X134844200Y-165019200D01*
X134873200Y-165000500D01*
X134908600Y-164983900D01*
X134952200Y-164969400D01*
X135006200Y-164956900D01*
X135074800Y-164944400D01*
X135160000Y-164931900D01*
X135266000Y-164917400D01*
X135330400Y-164909100D01*
X135396900Y-164900800D01*
X135461300Y-164892500D01*
X135521600Y-164882100D01*
X135577700Y-164875800D01*
X135625500Y-164867500D01*
X135664900Y-164861300D01*
X135694000Y-164857100D01*
X135741800Y-164853000D01*
X135833200Y-164848800D01*
X135962100Y-164844700D01*
X136128300Y-164842600D01*
X136321600Y-164840500D01*
X136543900Y-164838400D01*
X136787000Y-164836400D01*
X137046800Y-164836400D01*
X138287300Y-164836400D01*
X138384900Y-164921600D01*
X138403600Y-164940300D01*
X138424400Y-164956900D01*
X138443100Y-164975600D01*
X138459700Y-164994300D01*
X138474300Y-165010900D01*
X138486800Y-165025500D01*
X138497100Y-165037900D01*
X138503400Y-165048300D01*
X138507500Y-165060800D01*
X138515800Y-165085700D01*
X138524200Y-165119000D01*
X138534500Y-165160500D01*
X138547000Y-165206200D01*
X138559500Y-165258200D01*
X138569900Y-165314300D01*
X138582300Y-165372500D01*
X138596900Y-165432700D01*
X138609400Y-165493000D01*
X138623900Y-165551200D01*
X138640500Y-165605200D01*
X138655100Y-165655100D01*
X138669600Y-165700800D01*
X138682100Y-165736100D01*
X138694500Y-165763100D01*
X138707000Y-165790100D01*
X138719500Y-165823400D01*
X138731900Y-165862900D01*
X138744400Y-165906500D01*
X138759000Y-165954300D01*
X138771400Y-166004200D01*
X138781800Y-166054000D01*
X138792200Y-166106000D01*
X138802600Y-166155800D01*
X138815100Y-166207800D01*
X138827500Y-166261800D01*
X138842100Y-166313800D01*
X138854500Y-166361600D01*
X138869100Y-166407300D01*
X138883600Y-166446800D01*
X138896100Y-166477900D01*
X138908600Y-166511200D01*
X138923100Y-166550600D01*
X138937700Y-166598400D01*
X138954300Y-166650400D01*
X138968800Y-166706500D01*
X138981300Y-166756400D01*
X138983400Y-166764700D01*
G37*
G36*
X155178700Y-160807300D02*
G01*
X155249300Y-160807300D01*
X155311700Y-160809400D01*
X155365700Y-160811400D01*
X155405200Y-160813500D01*
X155432200Y-160815600D01*
X155442600Y-160819700D01*
X155446800Y-160821800D01*
X155448800Y-160828100D01*
X155450900Y-160832200D01*
X155453000Y-160840500D01*
X155455100Y-160846800D01*
X155455100Y-160855100D01*
X155457100Y-160863400D01*
X155457100Y-160869600D01*
X155459200Y-160877900D01*
X155461300Y-160888300D01*
X155467500Y-160898700D01*
X155473800Y-160907000D01*
X155482100Y-160917400D01*
X155492500Y-160927800D01*
X155502900Y-160936100D01*
X155515300Y-160944400D01*
X155529900Y-160954800D01*
X155548600Y-160971400D01*
X155571400Y-160990100D01*
X155598400Y-161015100D01*
X155629600Y-161042100D01*
X155660800Y-161071200D01*
X155691900Y-161102300D01*
X155723100Y-161133500D01*
X155781300Y-161189600D01*
X155829100Y-161233200D01*
X155870600Y-161266500D01*
X155908100Y-161291400D01*
X155939200Y-161306000D01*
X155968300Y-161314300D01*
X155997400Y-161312200D01*
X156024400Y-161306000D01*
X156063900Y-161301800D01*
X156151200Y-161299700D01*
X156273800Y-161301800D01*
X156415100Y-161303900D01*
X156566800Y-161308100D01*
X156716400Y-161314300D01*
X156849400Y-161320500D01*
X156953200Y-161326800D01*
X156961600Y-161326800D01*
X156971900Y-161326800D01*
X156984400Y-161326800D01*
X157001000Y-161324700D01*
X157017700Y-161322600D01*
X157034300Y-161320500D01*
X157050900Y-161318400D01*
X157069600Y-161314300D01*
X157094500Y-161310100D01*
X157117400Y-161308100D01*
X157134000Y-161308100D01*
X157148600Y-161312200D01*
X157161000Y-161316400D01*
X157173500Y-161326800D01*
X157186000Y-161339200D01*
X157198400Y-161355800D01*
X157208800Y-161370400D01*
X157217100Y-161384900D01*
X157225500Y-161399500D01*
X157231700Y-161416100D01*
X157235800Y-161434800D01*
X157240000Y-161451400D01*
X157244200Y-161468100D01*
X157244200Y-161482600D01*
X157242100Y-161522100D01*
X157231700Y-161553200D01*
X157206800Y-161576100D01*
X157165200Y-161592700D01*
X157098700Y-161603100D01*
X157005200Y-161611400D01*
X156878400Y-161615600D01*
X156714300Y-161617700D01*
X156624900Y-161617700D01*
X156539700Y-161617700D01*
X156458700Y-161617700D01*
X156383900Y-161615600D01*
X156319500Y-161613500D01*
X156267500Y-161611400D01*
X156228100Y-161609400D01*
X156205200Y-161607300D01*
X156184400Y-161603100D01*
X156167800Y-161601000D01*
X156153200Y-161601000D01*
X156138700Y-161603100D01*
X156128300Y-161607300D01*
X156117900Y-161611400D01*
X156107500Y-161619700D01*
X156099200Y-161630100D01*
X156082600Y-161650900D01*
X156068100Y-161671700D01*
X156059700Y-161690400D01*
X156053500Y-161709100D01*
X156051400Y-161725700D01*
X156053500Y-161742300D01*
X156059700Y-161759000D01*
X156070100Y-161775600D01*
X156078400Y-161786000D01*
X156090900Y-161794300D01*
X156107500Y-161800500D01*
X156126200Y-161806800D01*
X156153200Y-161808800D01*
X156186500Y-161813000D01*
X156230100Y-161813000D01*
X156282100Y-161815100D01*
X156327800Y-161815100D01*
X156390100Y-161815100D01*
X156462900Y-161817100D01*
X156546000Y-161817100D01*
X156637400Y-161819200D01*
X156733000Y-161819200D01*
X156830600Y-161821300D01*
X156926200Y-161823400D01*
X157387500Y-161831700D01*
X157466500Y-161769400D01*
X157516400Y-161731900D01*
X157570400Y-161702900D01*
X157622300Y-161680000D01*
X157674300Y-161665500D01*
X157722100Y-161657100D01*
X157763600Y-161657100D01*
X157799000Y-161667500D01*
X157823900Y-161684200D01*
X157828100Y-161696600D01*
X157832200Y-161717400D01*
X157836400Y-161746500D01*
X157840500Y-161786000D01*
X157844700Y-161831700D01*
X157846800Y-161883600D01*
X157850900Y-161941800D01*
X157850900Y-162006200D01*
X157853000Y-162097700D01*
X157853000Y-162168300D01*
X157853000Y-162222300D01*
X157848800Y-162261800D01*
X157844700Y-162290900D01*
X157838400Y-162311700D01*
X157828100Y-162328300D01*
X157813500Y-162342900D01*
X157792700Y-162361600D01*
X157769900Y-162371900D01*
X157749100Y-162374000D01*
X157730400Y-162367800D01*
X157709600Y-162351200D01*
X157688800Y-162326200D01*
X157670100Y-162293000D01*
X157649300Y-162249400D01*
X157632700Y-162218200D01*
X157620300Y-162191200D01*
X157605700Y-162170400D01*
X157591200Y-162151700D01*
X157572500Y-162137100D01*
X157551700Y-162122600D01*
X157524700Y-162110100D01*
X157491400Y-162095600D01*
X157454000Y-162079000D01*
X157416600Y-162068600D01*
X157368800Y-162060300D01*
X157300300Y-162054000D01*
X157206800Y-162051900D01*
X157073800Y-162049900D01*
X156897100Y-162049900D01*
X156664400Y-162049900D01*
X156508600Y-162049900D01*
X156367300Y-162047800D01*
X156238400Y-162045700D01*
X156128300Y-162043600D01*
X156036900Y-162041600D01*
X155966200Y-162037400D01*
X155916400Y-162033200D01*
X155893500Y-162029100D01*
X155881000Y-162024900D01*
X155868600Y-162016600D01*
X155856100Y-162006200D01*
X155843600Y-161993800D01*
X155831200Y-161979200D01*
X155820800Y-161964700D01*
X155808300Y-161950100D01*
X155800000Y-161935600D01*
X155791700Y-161919000D01*
X155779200Y-161904400D01*
X155768800Y-161889900D01*
X155754300Y-161875300D01*
X155741800Y-161860800D01*
X155727300Y-161848300D01*
X155714800Y-161840000D01*
X155702300Y-161831700D01*
X155689900Y-161825500D01*
X155679500Y-161819200D01*
X155669100Y-161815100D01*
X155660800Y-161808800D01*
X155654500Y-161804700D01*
X155648300Y-161800500D01*
X155646200Y-161798400D01*
X155644200Y-161796400D01*
X155644200Y-161792200D01*
X155642100Y-161781800D01*
X155640000Y-161765200D01*
X155635800Y-161744400D01*
X155631700Y-161719500D01*
X155625500Y-161690400D01*
X155621300Y-161657100D01*
X155615100Y-161623900D01*
X155602600Y-161559500D01*
X155588100Y-161497100D01*
X155573500Y-161443100D01*
X155559000Y-161397400D01*
X155544400Y-161357900D01*
X155529900Y-161328800D01*
X155515300Y-161310100D01*
X155502900Y-161303900D01*
X155496600Y-161301800D01*
X155484200Y-161293500D01*
X155467500Y-161283100D01*
X155448800Y-161266500D01*
X155426000Y-161249900D01*
X155399000Y-161227000D01*
X155371900Y-161204200D01*
X155342900Y-161179200D01*
X155309600Y-161152200D01*
X155278400Y-161125200D01*
X155249300Y-161104400D01*
X155220300Y-161083600D01*
X155195300Y-161069100D01*
X155170400Y-161056600D01*
X155149600Y-161046200D01*
X155130900Y-161042100D01*
X155093500Y-161037900D01*
X155051900Y-161042100D01*
X155010400Y-161050400D01*
X154966800Y-161064900D01*
X154927300Y-161083600D01*
X154889900Y-161106500D01*
X154858700Y-161131400D01*
X154833800Y-161158400D01*
X154823400Y-161170900D01*
X154810900Y-161185500D01*
X154796400Y-161200000D01*
X154781800Y-161214500D01*
X154765200Y-161229100D01*
X154748600Y-161241600D01*
X154731900Y-161254000D01*
X154717400Y-161264400D01*
X154696600Y-161279000D01*
X154677900Y-161293500D01*
X154659200Y-161312200D01*
X154642600Y-161333000D01*
X154626000Y-161357900D01*
X154609300Y-161387000D01*
X154592700Y-161420300D01*
X154574000Y-161457700D01*
X154559500Y-161488800D01*
X154542900Y-161520000D01*
X154524200Y-161551200D01*
X154507500Y-161580300D01*
X154488800Y-161607300D01*
X154472200Y-161630100D01*
X154455600Y-161650900D01*
X154443100Y-161665500D01*
X154424400Y-161682100D01*
X154409900Y-161700800D01*
X154399500Y-161717400D01*
X154389100Y-161736100D01*
X154380800Y-161756900D01*
X154374500Y-161781800D01*
X154370400Y-161808800D01*
X154366200Y-161842100D01*
X154357900Y-161904400D01*
X154349600Y-161962600D01*
X154339200Y-162014500D01*
X154326800Y-162060300D01*
X154312200Y-162101800D01*
X154297700Y-162139200D01*
X154279000Y-162168300D01*
X154262300Y-162195300D01*
X154239500Y-162224400D01*
X154218700Y-162259700D01*
X154202100Y-162301300D01*
X154189600Y-162351200D01*
X154177100Y-162411400D01*
X154166800Y-162482100D01*
X154156400Y-162567300D01*
X154148100Y-162667000D01*
X154137700Y-162783400D01*
X154125200Y-162876900D01*
X154108600Y-162947500D01*
X154089900Y-162997400D01*
X154067000Y-163028600D01*
X154040000Y-163043100D01*
X154006800Y-163039000D01*
X153969400Y-163018200D01*
X153942300Y-162997400D01*
X153921600Y-162968300D01*
X153907000Y-162933000D01*
X153896600Y-162891400D01*
X153892500Y-162837400D01*
X153894500Y-162773000D01*
X153900800Y-162696100D01*
X153911200Y-162604700D01*
X153917400Y-162556900D01*
X153925700Y-162507000D01*
X153934000Y-162459200D01*
X153942300Y-162411400D01*
X153950600Y-162367800D01*
X153959000Y-162330400D01*
X153965200Y-162297100D01*
X153971400Y-162272200D01*
X153981800Y-162230600D01*
X153988100Y-162193200D01*
X153988100Y-162162100D01*
X153981800Y-162137100D01*
X153969400Y-162114300D01*
X153950600Y-162095600D01*
X153923600Y-162079000D01*
X153892500Y-162064400D01*
X153857100Y-162058200D01*
X153786500Y-162054000D01*
X153678400Y-162049900D01*
X153524700Y-162047800D01*
X153321000Y-162047800D01*
X153065500Y-162047800D01*
X152749600Y-162049900D01*
X152371400Y-162051900D01*
X152076400Y-162054000D01*
X151800000Y-162054000D01*
X151544400Y-162056100D01*
X151315800Y-162054000D01*
X151124700Y-162054000D01*
X150975100Y-162051900D01*
X150871200Y-162049900D01*
X150823400Y-162047800D01*
X150802600Y-162043600D01*
X150781800Y-162037400D01*
X150763100Y-162031200D01*
X150744400Y-162022900D01*
X150729900Y-162014500D01*
X150715300Y-162006200D01*
X150702900Y-161995800D01*
X150692500Y-161985500D01*
X150680000Y-161970900D01*
X150671700Y-161960500D01*
X150667500Y-161950100D01*
X150665500Y-161941800D01*
X150667500Y-161933500D01*
X150673800Y-161925200D01*
X150682100Y-161912700D01*
X150694500Y-161900300D01*
X150734000Y-161871200D01*
X150790100Y-161846200D01*
X150881600Y-161829600D01*
X151027000Y-161817100D01*
X151243100Y-161808800D01*
X151550600Y-161804700D01*
X151962100Y-161802600D01*
X152498200Y-161802600D01*
X152930400Y-161802600D01*
X153275300Y-161802600D01*
X153543400Y-161800500D01*
X153742900Y-161796400D01*
X153884200Y-161794300D01*
X153977700Y-161788100D01*
X154031700Y-161781800D01*
X154056600Y-161773500D01*
X154067000Y-161763100D01*
X154075300Y-161754800D01*
X154081600Y-161742300D01*
X154087800Y-161727800D01*
X154089900Y-161711200D01*
X154091900Y-161690400D01*
X154094000Y-161665500D01*
X154091900Y-161636400D01*
X154087800Y-161578200D01*
X154075300Y-161530400D01*
X154056600Y-161497100D01*
X154033800Y-161476400D01*
X154006800Y-161470100D01*
X153973500Y-161476400D01*
X153938200Y-161499200D01*
X153898700Y-161534500D01*
X153880000Y-161557400D01*
X153863400Y-161571900D01*
X153848800Y-161582300D01*
X153832200Y-161588600D01*
X153815600Y-161592700D01*
X153794800Y-161590700D01*
X153767800Y-161586500D01*
X153732500Y-161580300D01*
X153705500Y-161576100D01*
X153676400Y-161571900D01*
X153643100Y-161569900D01*
X153605700Y-161569900D01*
X153568300Y-161569900D01*
X153528800Y-161569900D01*
X153487300Y-161571900D01*
X153445700Y-161576100D01*
X153169300Y-161592700D01*
X152741300Y-161607300D01*
X152219700Y-161619700D01*
X151658700Y-161628100D01*
X151110100Y-161634300D01*
X150634300Y-161634300D01*
X150281000Y-161630100D01*
X150108600Y-161617700D01*
X150060800Y-161603100D01*
X150029600Y-161578200D01*
X150013000Y-161549100D01*
X150013000Y-161515800D01*
X150025500Y-161478400D01*
X150054500Y-161439000D01*
X150096100Y-161399500D01*
X150154300Y-161360000D01*
X150272700Y-161287300D01*
X151550600Y-161285200D01*
X151814500Y-161283100D01*
X152078400Y-161281000D01*
X152331900Y-161279000D01*
X152568800Y-161276900D01*
X152784900Y-161272700D01*
X152969900Y-161270600D01*
X153117400Y-161266500D01*
X153223400Y-161262300D01*
X153308600Y-161258200D01*
X153402100Y-161254000D01*
X153499700Y-161251900D01*
X153599500Y-161247800D01*
X153697100Y-161245700D01*
X153788600Y-161243600D01*
X153873800Y-161243600D01*
X153948600Y-161241600D01*
X154281000Y-161241600D01*
X154443100Y-161079500D01*
X154484700Y-161035800D01*
X154520000Y-160998400D01*
X154547000Y-160967300D01*
X154569900Y-160940300D01*
X154586500Y-160915300D01*
X154596900Y-160894500D01*
X154603100Y-160877900D01*
X154605200Y-160861300D01*
X154605200Y-160805200D01*
X155016600Y-160805200D01*
X155099700Y-160805200D01*
X155178700Y-160807300D01*
G37*
G36*
X149179700Y-164821800D02*
G01*
X149250400Y-164828100D01*
X149337700Y-164838400D01*
X149379200Y-164840500D01*
X149441600Y-164844700D01*
X149522600Y-164844700D01*
X149618200Y-164846800D01*
X149724200Y-164846800D01*
X149840500Y-164846800D01*
X149961000Y-164846800D01*
X150085700Y-164844700D01*
X150333000Y-164838400D01*
X150517900Y-164838400D01*
X150646800Y-164846800D01*
X150738200Y-164869600D01*
X150800500Y-164909100D01*
X150844200Y-164975600D01*
X150885700Y-165071200D01*
X150935600Y-165200000D01*
X150950100Y-165241600D01*
X150966800Y-165289400D01*
X150981300Y-165343400D01*
X150997900Y-165397400D01*
X151012500Y-165453500D01*
X151027000Y-165507500D01*
X151039500Y-165561600D01*
X151049900Y-165609400D01*
X151058200Y-165657100D01*
X151070600Y-165707000D01*
X151083100Y-165756900D01*
X151097700Y-165806800D01*
X151110100Y-165856600D01*
X151124700Y-165900300D01*
X151139200Y-165939700D01*
X151153800Y-165973000D01*
X151166200Y-166006200D01*
X151180800Y-166045700D01*
X151195300Y-166089300D01*
X151209900Y-166137100D01*
X151222300Y-166189100D01*
X151234800Y-166239000D01*
X151247300Y-166288800D01*
X151257700Y-166336600D01*
X151266000Y-166384400D01*
X151278400Y-166434300D01*
X151290900Y-166484200D01*
X151305500Y-166534000D01*
X151317900Y-166583900D01*
X151332500Y-166627500D01*
X151347000Y-166667000D01*
X151359500Y-166700300D01*
X151374000Y-166733500D01*
X151388600Y-166770900D01*
X151401000Y-166814500D01*
X151415600Y-166862300D01*
X151430100Y-166910100D01*
X151442600Y-166957900D01*
X151455100Y-167005700D01*
X151463400Y-167049400D01*
X151473800Y-167095100D01*
X151486200Y-167142900D01*
X151498700Y-167192700D01*
X151511200Y-167242600D01*
X151525700Y-167292500D01*
X151540300Y-167338200D01*
X151554800Y-167377700D01*
X151567300Y-167413000D01*
X151579700Y-167448300D01*
X151594300Y-167483600D01*
X151606800Y-167519000D01*
X151621300Y-167556400D01*
X151633800Y-167591700D01*
X151646200Y-167624900D01*
X151656600Y-167656100D01*
X151664900Y-167681000D01*
X151673200Y-167706000D01*
X151683600Y-167730900D01*
X151696100Y-167755800D01*
X151710600Y-167780800D01*
X151723100Y-167803600D01*
X151737700Y-167826500D01*
X151752200Y-167845200D01*
X151766800Y-167859700D01*
X151781300Y-167874300D01*
X151795800Y-167890900D01*
X151810400Y-167907500D01*
X151824900Y-167924200D01*
X151839500Y-167938700D01*
X151851900Y-167955300D01*
X151862300Y-167969900D01*
X151872700Y-167982300D01*
X151893500Y-168007300D01*
X151920500Y-168026000D01*
X151953800Y-168042600D01*
X151995300Y-168055100D01*
X152043100Y-168065500D01*
X152101300Y-168071700D01*
X152167800Y-168075800D01*
X152246800Y-168077900D01*
X152317400Y-168075800D01*
X152377700Y-168069600D01*
X152427500Y-168059200D01*
X152469100Y-168042600D01*
X152504400Y-168019700D01*
X152535600Y-167988600D01*
X152562600Y-167949100D01*
X152589600Y-167901300D01*
X152608300Y-167859700D01*
X152618700Y-167818200D01*
X152624900Y-167776600D01*
X152624900Y-167730900D01*
X152618700Y-167683100D01*
X152606200Y-167631200D01*
X152587500Y-167573000D01*
X152560500Y-167504400D01*
X152550100Y-167475300D01*
X152537700Y-167440000D01*
X152525200Y-167400500D01*
X152514800Y-167359000D01*
X152502300Y-167315300D01*
X152491900Y-167269600D01*
X152483600Y-167226000D01*
X152475300Y-167184400D01*
X152462900Y-167120000D01*
X152452500Y-167063900D01*
X152442100Y-167016100D01*
X152429600Y-166968300D01*
X152413000Y-166920500D01*
X152394300Y-166868600D01*
X152371400Y-166806200D01*
X152342300Y-166733500D01*
X152334000Y-166706500D01*
X152323600Y-166675300D01*
X152313200Y-166640000D01*
X152302900Y-166602600D01*
X152292500Y-166561000D01*
X152282100Y-166521600D01*
X152273800Y-166480000D01*
X152267500Y-166442600D01*
X152255100Y-166367800D01*
X152242600Y-166309600D01*
X152234300Y-166261800D01*
X152223900Y-166220300D01*
X152211400Y-166180800D01*
X152194800Y-166139200D01*
X152176100Y-166089300D01*
X152151200Y-166027000D01*
X152138700Y-165991700D01*
X152124200Y-165952200D01*
X152109600Y-165906500D01*
X152095100Y-165858700D01*
X152082600Y-165808800D01*
X152068100Y-165756900D01*
X152057700Y-165709100D01*
X152047300Y-165663400D01*
X152036900Y-165617700D01*
X152024400Y-165567800D01*
X152011900Y-165515800D01*
X151997400Y-165466000D01*
X151980800Y-165416100D01*
X151964200Y-165368300D01*
X151949600Y-165326800D01*
X151933000Y-165291400D01*
X151918400Y-165258200D01*
X151906000Y-165222900D01*
X151893500Y-165189600D01*
X151883100Y-165158400D01*
X151874800Y-165127300D01*
X151868600Y-165100300D01*
X151864400Y-165077400D01*
X151862300Y-165060800D01*
X151864400Y-165025500D01*
X151874800Y-164992200D01*
X151887300Y-164961000D01*
X151906000Y-164934000D01*
X151930900Y-164909100D01*
X151957900Y-164888300D01*
X151989100Y-164869600D01*
X152024400Y-164857100D01*
X152055600Y-164853000D01*
X152111700Y-164848800D01*
X152192700Y-164844700D01*
X152294500Y-164842600D01*
X152417100Y-164840500D01*
X152556400Y-164838400D01*
X152712200Y-164836400D01*
X152882600Y-164836400D01*
X153663900Y-164836400D01*
X153761600Y-164909100D01*
X153796900Y-164940300D01*
X153830100Y-164971400D01*
X153857100Y-165002600D01*
X153880000Y-165033800D01*
X153896600Y-165064900D01*
X153909100Y-165096100D01*
X153917400Y-165127300D01*
X153919500Y-165158400D01*
X153923600Y-165210400D01*
X153936100Y-165283100D01*
X153954800Y-165368300D01*
X153975600Y-165461800D01*
X154000500Y-165553200D01*
X154025500Y-165636400D01*
X154046200Y-165700800D01*
X154064900Y-165742300D01*
X154075300Y-165761000D01*
X154087800Y-165790100D01*
X154100300Y-165827500D01*
X154112700Y-165871200D01*
X154127300Y-165921000D01*
X154141800Y-165973000D01*
X154154300Y-166029100D01*
X154168800Y-166087300D01*
X154181300Y-166145500D01*
X154195800Y-166203600D01*
X154210400Y-166261800D01*
X154224900Y-166315800D01*
X154239500Y-166365700D01*
X154254000Y-166411400D01*
X154268600Y-166448800D01*
X154279000Y-166477900D01*
X154291400Y-166504900D01*
X154303900Y-166540300D01*
X154316400Y-166581800D01*
X154328800Y-166625500D01*
X154343400Y-166673200D01*
X154355800Y-166723100D01*
X154366200Y-166773000D01*
X154376600Y-166820800D01*
X154387000Y-166868600D01*
X154399500Y-166920500D01*
X154411900Y-166972500D01*
X154426500Y-167022300D01*
X154441000Y-167070100D01*
X154455600Y-167115800D01*
X154470100Y-167155300D01*
X154482600Y-167186500D01*
X154497100Y-167223900D01*
X154511700Y-167265500D01*
X154524200Y-167309100D01*
X154538700Y-167359000D01*
X154549100Y-167413000D01*
X154561600Y-167471200D01*
X154574000Y-167535600D01*
X154584400Y-167602100D01*
X154592700Y-167662300D01*
X154603100Y-167722600D01*
X154613500Y-167782900D01*
X154621800Y-167841000D01*
X154632200Y-167897100D01*
X154642600Y-167947000D01*
X154650900Y-167990600D01*
X154657100Y-168026000D01*
X154671700Y-168104900D01*
X154682100Y-168175600D01*
X154686200Y-168242100D01*
X154684200Y-168308600D01*
X154677900Y-168375100D01*
X154663400Y-168447800D01*
X154642600Y-168526800D01*
X154613500Y-168618200D01*
X154592700Y-168682600D01*
X154574000Y-168734500D01*
X154557400Y-168778200D01*
X154542900Y-168811400D01*
X154526200Y-168840500D01*
X154511700Y-168861300D01*
X154495100Y-168880000D01*
X154476400Y-168894500D01*
X154463900Y-168904900D01*
X154449300Y-168917400D01*
X154434800Y-168934000D01*
X154420300Y-168948600D01*
X154407800Y-168967300D01*
X154395300Y-168983900D01*
X154382900Y-169000500D01*
X154374500Y-169017100D01*
X154364200Y-169033800D01*
X154353800Y-169050400D01*
X154343400Y-169067000D01*
X154328800Y-169083600D01*
X154316400Y-169098200D01*
X154303900Y-169110600D01*
X154289300Y-169121000D01*
X154276900Y-169131400D01*
X154264400Y-169139700D01*
X154249900Y-169150100D01*
X154233200Y-169162600D01*
X154216600Y-169175100D01*
X154197900Y-169189600D01*
X154181300Y-169204200D01*
X154162600Y-169220800D01*
X154148100Y-169235300D01*
X154129300Y-169249900D01*
X154108600Y-169266500D01*
X154083600Y-169281000D01*
X154056600Y-169297700D01*
X154027500Y-169314300D01*
X153998400Y-169330900D01*
X153969400Y-169343400D01*
X153940300Y-169355800D01*
X153913200Y-169368300D01*
X153882100Y-169380800D01*
X153853000Y-169393200D01*
X153823900Y-169407800D01*
X153796900Y-169422300D01*
X153771900Y-169434800D01*
X153751200Y-169447300D01*
X153732500Y-169459700D01*
X153682600Y-169486800D01*
X153614000Y-169509600D01*
X153528800Y-169530400D01*
X153422900Y-169549100D01*
X153298200Y-169561600D01*
X153152700Y-169574000D01*
X152986500Y-169582300D01*
X152797400Y-169588600D01*
X152666500Y-169590600D01*
X152554300Y-169592700D01*
X152456600Y-169592700D01*
X152367300Y-169588600D01*
X152282100Y-169584400D01*
X152194800Y-169578200D01*
X152101300Y-169567800D01*
X151997400Y-169555300D01*
X151864400Y-169536600D01*
X151754300Y-169522100D01*
X151667000Y-169507500D01*
X151598400Y-169495100D01*
X151542300Y-169480500D01*
X151496600Y-169466000D01*
X151457100Y-169449300D01*
X151419700Y-169428600D01*
X151405200Y-169420300D01*
X151384400Y-169409900D01*
X151359500Y-169399500D01*
X151332500Y-169389100D01*
X151305500Y-169376600D01*
X151276400Y-169366200D01*
X151247300Y-169355800D01*
X151218200Y-169345500D01*
X151189100Y-169335100D01*
X151157900Y-169322600D01*
X151126800Y-169310100D01*
X151095600Y-169295600D01*
X151064400Y-169283100D01*
X151037400Y-169268600D01*
X151010400Y-169254000D01*
X150989600Y-169241600D01*
X150968800Y-169229100D01*
X150943900Y-169214500D01*
X150916900Y-169200000D01*
X150889900Y-169185500D01*
X150860800Y-169168800D01*
X150831700Y-169156400D01*
X150802600Y-169141800D01*
X150777700Y-169131400D01*
X150752700Y-169119000D01*
X150729900Y-169106500D01*
X150707000Y-169094000D01*
X150686200Y-169081600D01*
X150667500Y-169067000D01*
X150653000Y-169056600D01*
X150640500Y-169044200D01*
X150632200Y-169033800D01*
X150626000Y-169025500D01*
X150615600Y-169013000D01*
X150605200Y-169002600D01*
X150592700Y-168990100D01*
X150578200Y-168977700D01*
X150563600Y-168967300D01*
X150547000Y-168956900D01*
X150532500Y-168946500D01*
X150507500Y-168931900D01*
X150482600Y-168913200D01*
X150453500Y-168890400D01*
X150422300Y-168863400D01*
X150384900Y-168830100D01*
X150339200Y-168786500D01*
X150285200Y-168734500D01*
X150220800Y-168670100D01*
X150164700Y-168616100D01*
X150121000Y-168568300D01*
X150083600Y-168528800D01*
X150052500Y-168491400D01*
X150027500Y-168458200D01*
X150006800Y-168427000D01*
X149990100Y-168397900D01*
X149975600Y-168366800D01*
X149965200Y-168346000D01*
X149954800Y-168325200D01*
X149944400Y-168304400D01*
X149931900Y-168283600D01*
X149919500Y-168262900D01*
X149907000Y-168244200D01*
X149894500Y-168227500D01*
X149884200Y-168213000D01*
X149859200Y-168181800D01*
X149838400Y-168154800D01*
X149821800Y-168125700D01*
X149805200Y-168096600D01*
X149792700Y-168061300D01*
X149778200Y-168019700D01*
X149761600Y-167967800D01*
X149744900Y-167905500D01*
X149734500Y-167872200D01*
X149724200Y-167836900D01*
X149711700Y-167801600D01*
X149699200Y-167768300D01*
X149686800Y-167737100D01*
X149674300Y-167710100D01*
X149661800Y-167685200D01*
X149651400Y-167666500D01*
X149630600Y-167635300D01*
X149614000Y-167600000D01*
X149599500Y-167562600D01*
X149584900Y-167521000D01*
X149572500Y-167477400D01*
X149562100Y-167427500D01*
X149553800Y-167371400D01*
X149545500Y-167309100D01*
X149541300Y-167282100D01*
X149535100Y-167253000D01*
X149524700Y-167217700D01*
X149514300Y-167182300D01*
X149503900Y-167144900D01*
X149489400Y-167107500D01*
X149476900Y-167072200D01*
X149462300Y-167039000D01*
X149445700Y-167001600D01*
X149431200Y-166957900D01*
X149414500Y-166910100D01*
X149400000Y-166860300D01*
X149385500Y-166806200D01*
X149370900Y-166752200D01*
X149358400Y-166698200D01*
X149348100Y-166644200D01*
X149337700Y-166594300D01*
X149325200Y-166540300D01*
X149312700Y-166486200D01*
X149298200Y-166434300D01*
X149283600Y-166384400D01*
X149269100Y-166336600D01*
X149254500Y-166297100D01*
X149242100Y-166263900D01*
X149227500Y-166230600D01*
X149213000Y-166191200D01*
X149198400Y-166147500D01*
X149186000Y-166099700D01*
X149171400Y-166047800D01*
X149159000Y-165997900D01*
X149146500Y-165948100D01*
X149138200Y-165900300D01*
X149127800Y-165854500D01*
X149117400Y-165808800D01*
X149107000Y-165763100D01*
X149094500Y-165719500D01*
X149084200Y-165680000D01*
X149073800Y-165644700D01*
X149063400Y-165617700D01*
X149055100Y-165594800D01*
X149044700Y-165574000D01*
X149034300Y-165544900D01*
X149021800Y-165509600D01*
X149007300Y-165470100D01*
X148994800Y-165426500D01*
X148980300Y-165380800D01*
X148965700Y-165333000D01*
X148953200Y-165287300D01*
X148932500Y-165200000D01*
X148917900Y-165127300D01*
X148911700Y-165067000D01*
X148911700Y-165017100D01*
X148917900Y-164971400D01*
X148932500Y-164934000D01*
X148955300Y-164898700D01*
X148984400Y-164865500D01*
X149005200Y-164846800D01*
X149026000Y-164834300D01*
X149050900Y-164826000D01*
X149084200Y-164819700D01*
X149125700Y-164819700D01*
X149179700Y-164821800D01*
G37*
G36*
X159775100Y-164522600D02*
G01*
X159770900Y-164605700D01*
X159758400Y-164674300D01*
X159737700Y-164728300D01*
X159706500Y-164767800D01*
X159667000Y-164794800D01*
X159615100Y-164811400D01*
X159552700Y-164815600D01*
X159538200Y-164815600D01*
X159521600Y-164819700D01*
X159502900Y-164823900D01*
X159482100Y-164828100D01*
X159459200Y-164834300D01*
X159436400Y-164842600D01*
X159415600Y-164850900D01*
X159394800Y-164859200D01*
X159365700Y-164871700D01*
X159340800Y-164880000D01*
X159315800Y-164888300D01*
X159290900Y-164892500D01*
X159266000Y-164894500D01*
X159241000Y-164896600D01*
X159211900Y-164894500D01*
X159180800Y-164892500D01*
X159135100Y-164888300D01*
X159093500Y-164890400D01*
X159056100Y-164894500D01*
X159027000Y-164902900D01*
X159000000Y-164915300D01*
X158979200Y-164934000D01*
X158960500Y-164956900D01*
X158948100Y-164983900D01*
X158937700Y-165010900D01*
X158933500Y-165037900D01*
X158933500Y-165062900D01*
X158941800Y-165087800D01*
X158952200Y-165110700D01*
X158970900Y-165135600D01*
X158995800Y-165158400D01*
X159024900Y-165183400D01*
X159043600Y-165197900D01*
X159060300Y-165216600D01*
X159076900Y-165235300D01*
X159093500Y-165256100D01*
X159110100Y-165279000D01*
X159124700Y-165303900D01*
X159139200Y-165328800D01*
X159149600Y-165355800D01*
X159162100Y-165378700D01*
X159174500Y-165403600D01*
X159189100Y-165430600D01*
X159203600Y-165455600D01*
X159218200Y-165478400D01*
X159232700Y-165501300D01*
X159247300Y-165520000D01*
X159259700Y-165536600D01*
X159282600Y-165565700D01*
X159303400Y-165596900D01*
X159322100Y-165632200D01*
X159336600Y-165669600D01*
X159347000Y-165707000D01*
X159355300Y-165748600D01*
X159361600Y-165788100D01*
X159363600Y-165829600D01*
X159365700Y-165850400D01*
X159369900Y-165869100D01*
X159376100Y-165889900D01*
X159388600Y-165910700D01*
X159405200Y-165933500D01*
X159428100Y-165960500D01*
X159457100Y-165993800D01*
X159492500Y-166031200D01*
X159521600Y-166058200D01*
X159550600Y-166085200D01*
X159579700Y-166110100D01*
X159608800Y-166133000D01*
X159637900Y-166153800D01*
X159662900Y-166172500D01*
X159685700Y-166187000D01*
X159704400Y-166195300D01*
X159723100Y-166203600D01*
X159741800Y-166214000D01*
X159760500Y-166226500D01*
X159781300Y-166239000D01*
X159802100Y-166253500D01*
X159820800Y-166268100D01*
X159837400Y-166282600D01*
X159851900Y-166297100D01*
X159866500Y-166311700D01*
X159885200Y-166326200D01*
X159903900Y-166340800D01*
X159924700Y-166353200D01*
X159945500Y-166365700D01*
X159966200Y-166378200D01*
X159987000Y-166386500D01*
X160005700Y-166394800D01*
X160024400Y-166401000D01*
X160045200Y-166411400D01*
X160066000Y-166421800D01*
X160084700Y-166434300D01*
X160103400Y-166448800D01*
X160122100Y-166461300D01*
X160136600Y-166475800D01*
X160149100Y-166490400D01*
X160163600Y-166504900D01*
X160178200Y-166519500D01*
X160196900Y-166536100D01*
X160215600Y-166550600D01*
X160236400Y-166565200D01*
X160257100Y-166577700D01*
X160277900Y-166590100D01*
X160298700Y-166598400D01*
X160319500Y-166608800D01*
X160338200Y-166619200D01*
X160359000Y-166631700D01*
X160379700Y-166644200D01*
X160398400Y-166656600D01*
X160417100Y-166671200D01*
X160431700Y-166683600D01*
X160444200Y-166696100D01*
X160456600Y-166708600D01*
X160475300Y-166721000D01*
X160494000Y-166737700D01*
X160519000Y-166752200D01*
X160543900Y-166768800D01*
X160568800Y-166783400D01*
X160595800Y-166797900D01*
X160622900Y-166810400D01*
X160654000Y-166824900D01*
X160681000Y-166839500D01*
X160706000Y-166854000D01*
X160728800Y-166868600D01*
X160747500Y-166885200D01*
X160764200Y-166899700D01*
X160776600Y-166916400D01*
X160789100Y-166933000D01*
X160797400Y-166945500D01*
X160809900Y-166960000D01*
X160822300Y-166974500D01*
X160839000Y-166987000D01*
X160855600Y-166999500D01*
X160872200Y-167009900D01*
X160888800Y-167020300D01*
X160907500Y-167028600D01*
X160924200Y-167036900D01*
X160942900Y-167045200D01*
X160961600Y-167055600D01*
X160980300Y-167068100D01*
X160999000Y-167080500D01*
X161015600Y-167095100D01*
X161030100Y-167107500D01*
X161042600Y-167120000D01*
X161082100Y-167157400D01*
X161122600Y-167184400D01*
X161125700Y-167186500D01*
X161175600Y-167211400D01*
X161235800Y-167228100D01*
X161304400Y-167240500D01*
X161385500Y-167248800D01*
X161483100Y-167253000D01*
X161595300Y-167253000D01*
X161722100Y-167248800D01*
X161821800Y-167244700D01*
X161896600Y-167236400D01*
X161952700Y-167221800D01*
X161996400Y-167199000D01*
X162031700Y-167165700D01*
X162062900Y-167122100D01*
X162096100Y-167066000D01*
X162170900Y-166928800D01*
X162131400Y-166812500D01*
X162121000Y-166781300D01*
X162110600Y-166739700D01*
X162102300Y-166689900D01*
X162091900Y-166631700D01*
X162081600Y-166567300D01*
X162071200Y-166498700D01*
X162062900Y-166423900D01*
X162054500Y-166347000D01*
X162040000Y-166207800D01*
X162027500Y-166097700D01*
X162015100Y-166010400D01*
X162000500Y-165939700D01*
X161983900Y-165883600D01*
X161963100Y-165833800D01*
X161938200Y-165786000D01*
X161907000Y-165738200D01*
X161892500Y-165713200D01*
X161877900Y-165688300D01*
X161861300Y-165661300D01*
X161846800Y-165632200D01*
X161832200Y-165605200D01*
X161819700Y-165578200D01*
X161809300Y-165553200D01*
X161799000Y-165530400D01*
X161788600Y-165497100D01*
X161776100Y-165474300D01*
X161765700Y-165453500D01*
X161753200Y-165439000D01*
X161738700Y-165428600D01*
X161717900Y-165420300D01*
X161693000Y-165411900D01*
X161661800Y-165403600D01*
X161622300Y-165397400D01*
X161555800Y-165391200D01*
X161460300Y-165387000D01*
X161333500Y-165382900D01*
X161179700Y-165378700D01*
X160994800Y-165376600D01*
X160778700Y-165372500D01*
X160529300Y-165370400D01*
X160271700Y-165368300D01*
X160053500Y-165364200D01*
X159872700Y-165362100D01*
X159725200Y-165357900D01*
X159610900Y-165353800D01*
X159529900Y-165349600D01*
X159475800Y-165343400D01*
X159450900Y-165337100D01*
X159440500Y-165330900D01*
X159430100Y-165322600D01*
X159421800Y-165314300D01*
X159415600Y-165303900D01*
X159411400Y-165293500D01*
X159407300Y-165281000D01*
X159405200Y-165266500D01*
X159405200Y-165251900D01*
X159409400Y-165222900D01*
X159421800Y-165195800D01*
X159440500Y-165175100D01*
X159469600Y-165158400D01*
X159507000Y-165143900D01*
X159550600Y-165133500D01*
X159606800Y-165127300D01*
X159669100Y-165125200D01*
X159737700Y-165123100D01*
X159793800Y-165119000D01*
X159839500Y-165112700D01*
X159874800Y-165100300D01*
X159906000Y-165081600D01*
X159935100Y-165054500D01*
X159964200Y-165021300D01*
X159995300Y-164977700D01*
X160022300Y-164938200D01*
X160041000Y-164909100D01*
X160053500Y-164884200D01*
X160061800Y-164865500D01*
X160063900Y-164846800D01*
X160061800Y-164828100D01*
X160053500Y-164807300D01*
X160043100Y-164780300D01*
X160036900Y-164759500D01*
X160030600Y-164728300D01*
X160022300Y-164690900D01*
X160014000Y-164645200D01*
X160007800Y-164595300D01*
X159999500Y-164541300D01*
X159993200Y-164487300D01*
X159987000Y-164431200D01*
X159976600Y-164316900D01*
X159966200Y-164225500D01*
X159955800Y-164152700D01*
X159943400Y-164094500D01*
X159930900Y-164050900D01*
X159914300Y-164015600D01*
X159893500Y-163986500D01*
X159870600Y-163961600D01*
X159858200Y-163949100D01*
X159845700Y-163934500D01*
X159833200Y-163915800D01*
X159818700Y-163895100D01*
X159804200Y-163874300D01*
X159791700Y-163851400D01*
X159779200Y-163830600D01*
X159768800Y-163807800D01*
X159750100Y-163768300D01*
X159727300Y-163730900D01*
X159700300Y-163695600D01*
X159671200Y-163662300D01*
X159637900Y-163631200D01*
X159600500Y-163600000D01*
X159559000Y-163570900D01*
X159513200Y-163541800D01*
X159486200Y-163527300D01*
X159453000Y-163514800D01*
X159401000Y-163506500D01*
X159317900Y-163502300D01*
X159193200Y-163500300D01*
X159014500Y-163498200D01*
X158767300Y-163500300D01*
X158439000Y-163502300D01*
X158210400Y-163502300D01*
X158008800Y-163504400D01*
X157832200Y-163508600D01*
X157682600Y-163510700D01*
X157562100Y-163514800D01*
X157468600Y-163519000D01*
X157406200Y-163523100D01*
X157373000Y-163529400D01*
X157339700Y-163541800D01*
X157312700Y-163558400D01*
X157291900Y-163581300D01*
X157279500Y-163612500D01*
X157271200Y-163654000D01*
X157269100Y-163706000D01*
X157269100Y-163774500D01*
X157275300Y-163861800D01*
X157279500Y-163928300D01*
X157281600Y-163982300D01*
X157281600Y-164026000D01*
X157279500Y-164063400D01*
X157275300Y-164094500D01*
X157269100Y-164121600D01*
X157260800Y-164148600D01*
X157248300Y-164179700D01*
X157223400Y-164229600D01*
X157194300Y-164269100D01*
X157156900Y-164298200D01*
X157102900Y-164321000D01*
X157026000Y-164335600D01*
X156920000Y-164346000D01*
X156780800Y-164354300D01*
X156600000Y-164360500D01*
X156433800Y-164366800D01*
X156304900Y-164373000D01*
X156205200Y-164381300D01*
X156126200Y-164391700D01*
X156061800Y-164404200D01*
X156001600Y-164422900D01*
X155941300Y-164449900D01*
X155868600Y-164483100D01*
X155827000Y-164501800D01*
X155787500Y-164516400D01*
X155752200Y-164528800D01*
X155714800Y-164539200D01*
X155673200Y-164545500D01*
X155627500Y-164551700D01*
X155571400Y-164555800D01*
X155502900Y-164560000D01*
X155409300Y-164564200D01*
X155326200Y-164562100D01*
X155251400Y-164557900D01*
X155187000Y-164549600D01*
X155133000Y-164535100D01*
X155087300Y-164518400D01*
X155047800Y-164495600D01*
X155018700Y-164468600D01*
X155006200Y-164458200D01*
X154991700Y-164445700D01*
X154973000Y-164431200D01*
X154954300Y-164416600D01*
X154933500Y-164404200D01*
X154912700Y-164389600D01*
X154891900Y-164377100D01*
X154871200Y-164366800D01*
X154848300Y-164354300D01*
X154827500Y-164341800D01*
X154806800Y-164327300D01*
X154790100Y-164312700D01*
X154773500Y-164296100D01*
X154759000Y-164281600D01*
X154748600Y-164264900D01*
X154738200Y-164248300D01*
X154729900Y-164233800D01*
X154721600Y-164217100D01*
X154709100Y-164200500D01*
X154696600Y-164183900D01*
X154684200Y-164165200D01*
X154671700Y-164148600D01*
X154659200Y-164134000D01*
X154646800Y-164119500D01*
X154634300Y-164104900D01*
X154619700Y-164084200D01*
X154607300Y-164061300D01*
X154592700Y-164036400D01*
X154578200Y-164007300D01*
X154563600Y-163980300D01*
X154553200Y-163951200D01*
X154540800Y-163922100D01*
X154532500Y-163895100D01*
X154520000Y-163866000D01*
X154509600Y-163839000D01*
X154497100Y-163814000D01*
X154486800Y-163791200D01*
X154476400Y-163772500D01*
X154468100Y-163755800D01*
X154459700Y-163745500D01*
X154436900Y-163718400D01*
X154418200Y-163691400D01*
X154405700Y-163666500D01*
X154395300Y-163641600D01*
X154387000Y-163616600D01*
X154384900Y-163591700D01*
X154384900Y-163566800D01*
X154389100Y-163539700D01*
X154405700Y-163483600D01*
X154434800Y-163437900D01*
X154472200Y-163404700D01*
X154517900Y-163383900D01*
X154569900Y-163373500D01*
X154626000Y-163377700D01*
X154684200Y-163394300D01*
X154744400Y-163427500D01*
X154763100Y-163437900D01*
X154788100Y-163450400D01*
X154817100Y-163464900D01*
X154848300Y-163477400D01*
X154883600Y-163491900D01*
X154919000Y-163504400D01*
X154952200Y-163514800D01*
X154987500Y-163525200D01*
X155020800Y-163535600D01*
X155056100Y-163546000D01*
X155091400Y-163556400D01*
X155124700Y-163568800D01*
X155155800Y-163579200D01*
X155182900Y-163589600D01*
X155207800Y-163600000D01*
X155226500Y-163610400D01*
X155288800Y-163635300D01*
X155361600Y-163656100D01*
X155448800Y-163670700D01*
X155556900Y-163681000D01*
X155683600Y-163685200D01*
X155835300Y-163685200D01*
X156011900Y-163681000D01*
X156219700Y-163672700D01*
X156365200Y-163664400D01*
X156485700Y-163660300D01*
X156587500Y-163658200D01*
X156666500Y-163656100D01*
X156730900Y-163656100D01*
X156780800Y-163658200D01*
X156818200Y-163664400D01*
X156847300Y-163668600D01*
X156863900Y-163674800D01*
X156880500Y-163679000D01*
X156897100Y-163681000D01*
X156913800Y-163683100D01*
X156928300Y-163683100D01*
X156942900Y-163683100D01*
X156953200Y-163683100D01*
X156961600Y-163681000D01*
X156986500Y-163664400D01*
X157001000Y-163637400D01*
X157009400Y-163602100D01*
X157007300Y-163558400D01*
X156996900Y-163508600D01*
X156980300Y-163452500D01*
X156953200Y-163392200D01*
X156920000Y-163327800D01*
X156897100Y-163280000D01*
X156880500Y-163230100D01*
X156874300Y-163178200D01*
X156872200Y-163130400D01*
X156878400Y-163082600D01*
X156893000Y-163041000D01*
X156913800Y-163007800D01*
X156940800Y-162982900D01*
X156953200Y-162974500D01*
X156965700Y-162970400D01*
X156980300Y-162968300D01*
X156994800Y-162970400D01*
X157013500Y-162976600D01*
X157038400Y-162987000D01*
X157067500Y-163001600D01*
X157102900Y-163020300D01*
X157125700Y-163032700D01*
X157146500Y-163045200D01*
X157169400Y-163061800D01*
X157188100Y-163078400D01*
X157206800Y-163095100D01*
X157225500Y-163113800D01*
X157240000Y-163130400D01*
X157252500Y-163149100D01*
X157262900Y-163165700D01*
X157273200Y-163180300D01*
X157285700Y-163196900D01*
X157296100Y-163211400D01*
X157306500Y-163226000D01*
X157316900Y-163236400D01*
X157325200Y-163246800D01*
X157333500Y-163253000D01*
X157356400Y-163263400D01*
X157400000Y-163269600D01*
X157466500Y-163273800D01*
X157557900Y-163273800D01*
X157678400Y-163269600D01*
X157828100Y-163261300D01*
X158010900Y-163250900D01*
X158227000Y-163234300D01*
X158339200Y-163228100D01*
X158434800Y-163221800D01*
X158515800Y-163219700D01*
X158588600Y-163217700D01*
X158655100Y-163219700D01*
X158719500Y-163221800D01*
X158783900Y-163228100D01*
X158850400Y-163234300D01*
X158904400Y-163240500D01*
X158964700Y-163246800D01*
X159029100Y-163253000D01*
X159099700Y-163257100D01*
X159170400Y-163263400D01*
X159239000Y-163269600D01*
X159307500Y-163273800D01*
X159367800Y-163277900D01*
X159471700Y-163284200D01*
X159550600Y-163290400D01*
X159610900Y-163298700D01*
X159654500Y-163311200D01*
X159687800Y-163325700D01*
X159712700Y-163348600D01*
X159733500Y-163377700D01*
X159754300Y-163415100D01*
X159762600Y-163429600D01*
X159773000Y-163446200D01*
X159787500Y-163460800D01*
X159800000Y-163477400D01*
X159814500Y-163491900D01*
X159831200Y-163506500D01*
X159845700Y-163521000D01*
X159862300Y-163531400D01*
X159876900Y-163543900D01*
X159891400Y-163556400D01*
X159906000Y-163568800D01*
X159918400Y-163583400D01*
X159928800Y-163597900D01*
X159937100Y-163612500D01*
X159945500Y-163627000D01*
X159949600Y-163641600D01*
X159953800Y-163656100D01*
X159957900Y-163672700D01*
X159962100Y-163691400D01*
X159968300Y-163712200D01*
X159972500Y-163733000D01*
X159978700Y-163753800D01*
X159982900Y-163774500D01*
X159987000Y-163793200D01*
X159993200Y-163811900D01*
X159999500Y-163830600D01*
X160007800Y-163849400D01*
X160016100Y-163866000D01*
X160024400Y-163882600D01*
X160034800Y-163897100D01*
X160043100Y-163909600D01*
X160051400Y-163917900D01*
X160078400Y-163942900D01*
X160101300Y-163974000D01*
X160120000Y-164007300D01*
X160136600Y-164050900D01*
X160149100Y-164100800D01*
X160159500Y-164165200D01*
X160167800Y-164242100D01*
X160176100Y-164333500D01*
X160184400Y-164454000D01*
X160194800Y-164553800D01*
X160205200Y-164634800D01*
X160215600Y-164699200D01*
X160226000Y-164751200D01*
X160240500Y-164792700D01*
X160257100Y-164826000D01*
X160273800Y-164853000D01*
X160284200Y-164865500D01*
X160296600Y-164882100D01*
X160309100Y-164900800D01*
X160321600Y-164921600D01*
X160334000Y-164942300D01*
X160346500Y-164963100D01*
X160359000Y-164986000D01*
X160371400Y-165006800D01*
X160381800Y-165025500D01*
X160392200Y-165044200D01*
X160404700Y-165060800D01*
X160415100Y-165077400D01*
X160425500Y-165089900D01*
X160433800Y-165100300D01*
X160442100Y-165108600D01*
X160448300Y-165112700D01*
X160462900Y-165114800D01*
X160496100Y-165114800D01*
X160541800Y-165116900D01*
X160602100Y-165116900D01*
X160672700Y-165114800D01*
X160753800Y-165114800D01*
X160841000Y-165112700D01*
X160934500Y-165110700D01*
X161146500Y-165108600D01*
X161331400Y-165110700D01*
X161485200Y-165119000D01*
X161611900Y-165133500D01*
X161713800Y-165152200D01*
X161790600Y-165179200D01*
X161844700Y-165210400D01*
X161875800Y-165249900D01*
X161882100Y-165258200D01*
X161890400Y-165268600D01*
X161900800Y-165279000D01*
X161913200Y-165289400D01*
X161925700Y-165301800D01*
X161940300Y-165312200D01*
X161956900Y-165322600D01*
X161971400Y-165333000D01*
X161990100Y-165343400D01*
X162006800Y-165357900D01*
X162021300Y-165372500D01*
X162037900Y-165389100D01*
X162050400Y-165407800D01*
X162062900Y-165426500D01*
X162075300Y-165447300D01*
X162085700Y-165470100D01*
X162094000Y-165488800D01*
X162104400Y-165507500D01*
X162114800Y-165524200D01*
X162123100Y-165540800D01*
X162133500Y-165553200D01*
X162143900Y-165565700D01*
X162152200Y-165571900D01*
X162158400Y-165576100D01*
X162177100Y-165588600D01*
X162193800Y-165605200D01*
X162210400Y-165630100D01*
X162224900Y-165661300D01*
X162237400Y-165700800D01*
X162249900Y-165746500D01*
X162260300Y-165798400D01*
X162270600Y-165858700D01*
X162281000Y-165931400D01*
X162291400Y-165997900D01*
X162301800Y-166056100D01*
X162314300Y-166108100D01*
X162324700Y-166155800D01*
X162337100Y-166197400D01*
X162349600Y-166236900D01*
X162364200Y-166274300D01*
X162389100Y-166340800D01*
X162407800Y-166419700D01*
X162424400Y-166513200D01*
X162436900Y-166625500D01*
X162447300Y-166752200D01*
X162453500Y-166899700D01*
X162457700Y-167068100D01*
X162459700Y-167257100D01*
X162459700Y-167462900D01*
X162462800Y-167583400D01*
X162463900Y-167627000D01*
X162470100Y-167757900D01*
X162478400Y-167861800D01*
X162490900Y-167940800D01*
X162509600Y-168005200D01*
X162532500Y-168057100D01*
X162561600Y-168104900D01*
X162590600Y-168148600D01*
X162613500Y-168196400D01*
X162616400Y-168204700D01*
X162632200Y-168250400D01*
X162646800Y-168308600D01*
X162657100Y-168375100D01*
X162663400Y-168445700D01*
X162665500Y-168526800D01*
X162663400Y-168616100D01*
X162661300Y-168682600D01*
X162659200Y-168732500D01*
X162655100Y-168771900D01*
X162654200Y-168776100D01*
X162648800Y-168803100D01*
X162640500Y-168830100D01*
X162628100Y-168853000D01*
X162613500Y-168875800D01*
X162592700Y-168902900D01*
X162580300Y-168919500D01*
X162565700Y-168938200D01*
X162553200Y-168954800D01*
X162542900Y-168973500D01*
X162532500Y-168992200D01*
X162524200Y-169006800D01*
X162515800Y-169021300D01*
X162511700Y-169033800D01*
X162499200Y-169073200D01*
X162482600Y-169110600D01*
X162463900Y-169150100D01*
X162443100Y-169187500D01*
X162420300Y-169222900D01*
X162395300Y-169258200D01*
X162370400Y-169289400D01*
X162343400Y-169316400D01*
X162328800Y-169333000D01*
X162316400Y-169347500D01*
X162303900Y-169362100D01*
X162293500Y-169376600D01*
X162285200Y-169389100D01*
X162279000Y-169401600D01*
X162274800Y-169411900D01*
X162272700Y-169418200D01*
X162260300Y-169443100D01*
X162229100Y-169484700D01*
X162185500Y-169534500D01*
X162131400Y-169590600D01*
X162075300Y-169646800D01*
X162021300Y-169694500D01*
X161977700Y-169729900D01*
X161946500Y-169748600D01*
X161917400Y-169761000D01*
X161890400Y-169775600D01*
X161863400Y-169792200D01*
X161840500Y-169813000D01*
X161821800Y-169833800D01*
X161807300Y-169854500D01*
X161799000Y-169877400D01*
X161794800Y-169896100D01*
X161796900Y-169925200D01*
X161809300Y-169948100D01*
X161832200Y-169964700D01*
X161867500Y-169975100D01*
X161921600Y-169981300D01*
X161996400Y-169983400D01*
X162094000Y-169981300D01*
X162218700Y-169977100D01*
X162559500Y-169962600D01*
X162653000Y-170060300D01*
X162671700Y-170079000D01*
X162690400Y-170097700D01*
X162709100Y-170112200D01*
X162725700Y-170126800D01*
X162740300Y-170139200D01*
X162752700Y-170147500D01*
X162763100Y-170153800D01*
X162769400Y-170155800D01*
X162783900Y-170160000D01*
X162800500Y-170170400D01*
X162817100Y-170184900D01*
X162835800Y-170203600D01*
X162850400Y-170226500D01*
X162862900Y-170247300D01*
X162871200Y-170268100D01*
X162875300Y-170284700D01*
X162877400Y-170295100D01*
X162881600Y-170307500D01*
X162889900Y-170322100D01*
X162900300Y-170338700D01*
X162912700Y-170357400D01*
X162927300Y-170376100D01*
X162941800Y-170394800D01*
X162958400Y-170413500D01*
X162977100Y-170436400D01*
X162995800Y-170459200D01*
X163012500Y-170482100D01*
X163029100Y-170509100D01*
X163041600Y-170534000D01*
X163054000Y-170559000D01*
X163064400Y-170586000D01*
X163072700Y-170610900D01*
X163083100Y-170635800D01*
X163091400Y-170660800D01*
X163101800Y-170683600D01*
X163114300Y-170702300D01*
X163126800Y-170721000D01*
X163141300Y-170739700D01*
X163157900Y-170754300D01*
X163174500Y-170768800D01*
X163189100Y-170781300D01*
X163203600Y-170793800D01*
X163218200Y-170810400D01*
X163232700Y-170824900D01*
X163245200Y-170841600D01*
X163255600Y-170856100D01*
X163263900Y-170870600D01*
X163270100Y-170885200D01*
X163276400Y-170897700D01*
X163284700Y-170910100D01*
X163293000Y-170922600D01*
X163301300Y-170935100D01*
X163311700Y-170947500D01*
X163322100Y-170955800D01*
X163330400Y-170964200D01*
X163340800Y-170970400D01*
X163359500Y-170976600D01*
X163396900Y-170982900D01*
X163448800Y-170987000D01*
X163519500Y-170991200D01*
X163608800Y-170993200D01*
X163712700Y-170997400D01*
X163835300Y-170999500D01*
X163976600Y-170999500D01*
X164099200Y-171001600D01*
X164221800Y-171003600D01*
X164340300Y-171005700D01*
X164452500Y-171007800D01*
X164554300Y-171009900D01*
X164643600Y-171011900D01*
X164714300Y-171014000D01*
X164766200Y-171016100D01*
X164807800Y-171018200D01*
X164849400Y-171018200D01*
X164893000Y-171018200D01*
X164932500Y-171018200D01*
X164969900Y-171018200D01*
X165005200Y-171016100D01*
X165034300Y-171014000D01*
X165055100Y-171011900D01*
X165084200Y-171007800D01*
X165104900Y-171001600D01*
X165121600Y-170995300D01*
X165136100Y-170989100D01*
X165146500Y-170978700D01*
X165152700Y-170966200D01*
X165159000Y-170949600D01*
X165165200Y-170930900D01*
X165173500Y-170903900D01*
X165183900Y-170883100D01*
X165200500Y-170864400D01*
X165221300Y-170845700D01*
X165250400Y-170829100D01*
X165287800Y-170810400D01*
X165337700Y-170791700D01*
X165397900Y-170770900D01*
X165437400Y-170756400D01*
X165466500Y-170743900D01*
X165489400Y-170731400D01*
X165508100Y-170719000D01*
X165522600Y-170704400D01*
X165533000Y-170685700D01*
X165543400Y-170662900D01*
X165553800Y-170633800D01*
X165570400Y-170588100D01*
X165589100Y-170546500D01*
X165605700Y-170507000D01*
X165624400Y-170473800D01*
X165641000Y-170444700D01*
X165655600Y-170423900D01*
X165670100Y-170409300D01*
X165680500Y-170405200D01*
X165699200Y-170399000D01*
X165715800Y-170378200D01*
X165732500Y-170347000D01*
X165744900Y-170299200D01*
X165757400Y-170236900D01*
X165767800Y-170162100D01*
X165776100Y-170070600D01*
X165784400Y-169964700D01*
X165790600Y-169891900D01*
X165796900Y-169823400D01*
X165803100Y-169756900D01*
X165811400Y-169694500D01*
X165819700Y-169636400D01*
X165828100Y-169584400D01*
X165836400Y-169538700D01*
X165844700Y-169501300D01*
X165877900Y-169376600D01*
X165904900Y-169262300D01*
X165923600Y-169141800D01*
X165936100Y-168998400D01*
X165944400Y-168817700D01*
X165948600Y-168580800D01*
X165950600Y-168269100D01*
X165950600Y-167870100D01*
X165950600Y-167504400D01*
X165950600Y-167228100D01*
X165948600Y-167024400D01*
X165944400Y-166881000D01*
X165940300Y-166787500D01*
X165931900Y-166729400D01*
X165921600Y-166694000D01*
X165909100Y-166669100D01*
X165886200Y-166629600D01*
X165867500Y-166583900D01*
X165850900Y-166531900D01*
X165834300Y-166471700D01*
X165821800Y-166403100D01*
X165807300Y-166322100D01*
X165794800Y-166230600D01*
X165784400Y-166126800D01*
X165774000Y-166043600D01*
X165767800Y-165979200D01*
X165759500Y-165929400D01*
X165749100Y-165891900D01*
X165738700Y-165860800D01*
X165724200Y-165835800D01*
X165703400Y-165808800D01*
X165676400Y-165777700D01*
X165661800Y-165759000D01*
X165645200Y-165740300D01*
X165632700Y-165723600D01*
X165620300Y-165707000D01*
X165611900Y-165692500D01*
X165603600Y-165680000D01*
X165599500Y-165671700D01*
X165597400Y-165665500D01*
X165591200Y-165646800D01*
X165570400Y-165619700D01*
X165541300Y-165584400D01*
X165503900Y-165547000D01*
X165464400Y-165507500D01*
X165424900Y-165470100D01*
X165385500Y-165439000D01*
X165352200Y-165414000D01*
X165327300Y-165399500D01*
X165300300Y-165389100D01*
X165264900Y-165380800D01*
X165219200Y-165374500D01*
X165154800Y-165370400D01*
X165069600Y-165366200D01*
X164955300Y-165362100D01*
X164809900Y-165360000D01*
X164645700Y-165357900D01*
X164483600Y-165360000D01*
X164325700Y-165362100D01*
X164178200Y-165368300D01*
X164047300Y-165376600D01*
X163939200Y-165384900D01*
X163856100Y-165395300D01*
X163806200Y-165407800D01*
X163800000Y-165411900D01*
X163791700Y-165418200D01*
X163783400Y-165426500D01*
X163775100Y-165436900D01*
X163766800Y-165447300D01*
X163758400Y-165459700D01*
X163752200Y-165474300D01*
X163746000Y-165486800D01*
X163737700Y-165501300D01*
X163727300Y-165520000D01*
X163712700Y-165542900D01*
X163698200Y-165565700D01*
X163679500Y-165588600D01*
X163660800Y-165613500D01*
X163640000Y-165638400D01*
X163619200Y-165661300D01*
X163598400Y-165686200D01*
X163577700Y-165711200D01*
X163561000Y-165736100D01*
X163544400Y-165759000D01*
X163531900Y-165781800D01*
X163521600Y-165802600D01*
X163515300Y-165821300D01*
X163511200Y-165837900D01*
X163496600Y-165925200D01*
X163484200Y-165995800D01*
X163471700Y-166054000D01*
X163461300Y-166103900D01*
X163448800Y-166143400D01*
X163436400Y-166180800D01*
X163421800Y-166214000D01*
X163405200Y-166247300D01*
X163390600Y-166278400D01*
X163378200Y-166307500D01*
X163369900Y-166336600D01*
X163363600Y-166365700D01*
X163357400Y-166399000D01*
X163355300Y-166436400D01*
X163353200Y-166480000D01*
X163353200Y-166534000D01*
X163353200Y-166577700D01*
X163351200Y-166617100D01*
X163349100Y-166656600D01*
X163344900Y-166691900D01*
X163338700Y-166725200D01*
X163334500Y-166754300D01*
X163326200Y-166781300D01*
X163317900Y-166806200D01*
X163307500Y-166833200D01*
X163301300Y-166856100D01*
X163297100Y-166872700D01*
X163295100Y-166887300D01*
X163297100Y-166897700D01*
X163301300Y-166908100D01*
X163307500Y-166918400D01*
X163317900Y-166928800D01*
X163324200Y-166935100D01*
X163332500Y-166941300D01*
X163340800Y-166945500D01*
X163351200Y-166947500D01*
X163359500Y-166949600D01*
X163367800Y-166951700D01*
X163378200Y-166949600D01*
X163386500Y-166947500D01*
X163394800Y-166943400D01*
X163403100Y-166937100D01*
X163407300Y-166930900D01*
X163411400Y-166920500D01*
X163413500Y-166908100D01*
X163411400Y-166891400D01*
X163409400Y-166870600D01*
X163405200Y-166845700D01*
X163396900Y-166777100D01*
X163392700Y-166721000D01*
X163396900Y-166677400D01*
X163409400Y-166644200D01*
X163430100Y-166619200D01*
X163461300Y-166604700D01*
X163500800Y-166594300D01*
X163550600Y-166592200D01*
X163573500Y-166592200D01*
X163596400Y-166594300D01*
X163615100Y-166598400D01*
X163631700Y-166602600D01*
X163648300Y-166608800D01*
X163660800Y-166615100D01*
X163675300Y-166625500D01*
X163687800Y-166635800D01*
X163710600Y-166669100D01*
X163735600Y-166714800D01*
X163756400Y-166775100D01*
X163775100Y-166847800D01*
X163793800Y-166930900D01*
X163808300Y-167024400D01*
X163820800Y-167126200D01*
X163831200Y-167236400D01*
X163849900Y-167487800D01*
X163864400Y-167691400D01*
X163874800Y-167857700D01*
X163883100Y-167994800D01*
X163887300Y-168109100D01*
X163891400Y-168206800D01*
X163893500Y-168300300D01*
X163893500Y-168391700D01*
X163893500Y-168470600D01*
X163895600Y-168537100D01*
X163897700Y-168591200D01*
X163901800Y-168634800D01*
X163908100Y-168672200D01*
X163914300Y-168703400D01*
X163924700Y-168732500D01*
X163935100Y-168759500D01*
X163955800Y-168801000D01*
X163978700Y-168828100D01*
X164001600Y-168842600D01*
X164024400Y-168842600D01*
X164051400Y-168830100D01*
X164082600Y-168805200D01*
X164115800Y-168763600D01*
X164155300Y-168709600D01*
X164240500Y-168580800D01*
X164255100Y-168304400D01*
X164257100Y-168244200D01*
X164261300Y-168177700D01*
X164263400Y-168109100D01*
X164267500Y-168040500D01*
X164271700Y-167971900D01*
X164273800Y-167907500D01*
X164277900Y-167847300D01*
X164280000Y-167795300D01*
X164284200Y-167726800D01*
X164284200Y-167666500D01*
X164284200Y-167610400D01*
X164282100Y-167556400D01*
X164275800Y-167500300D01*
X164267500Y-167440000D01*
X164255100Y-167369400D01*
X164238400Y-167286200D01*
X164228100Y-167226000D01*
X164215600Y-167157400D01*
X164201000Y-167086800D01*
X164188600Y-167014000D01*
X164176100Y-166941300D01*
X164163600Y-166870600D01*
X164153200Y-166806200D01*
X164142900Y-166748100D01*
X164124200Y-166640000D01*
X164107500Y-166548600D01*
X164088800Y-166475800D01*
X164070100Y-166415600D01*
X164051400Y-166365700D01*
X164026500Y-166324200D01*
X164001600Y-166288800D01*
X163970400Y-166255600D01*
X163955800Y-166241000D01*
X163941300Y-166224400D01*
X163926800Y-166205700D01*
X163914300Y-166187000D01*
X163901800Y-166166200D01*
X163891400Y-166145500D01*
X163883100Y-166126800D01*
X163876900Y-166110100D01*
X163870600Y-166091400D01*
X163864400Y-166072700D01*
X163856100Y-166056100D01*
X163847800Y-166037400D01*
X163837400Y-166020800D01*
X163829100Y-166004200D01*
X163818700Y-165989600D01*
X163810400Y-165979200D01*
X163789600Y-165950100D01*
X163777100Y-165925200D01*
X163770900Y-165902300D01*
X163775100Y-165881600D01*
X163787500Y-165860800D01*
X163806200Y-165844200D01*
X163835300Y-165829600D01*
X163870600Y-165815100D01*
X163912200Y-165804700D01*
X163949600Y-165798400D01*
X163982900Y-165800500D01*
X164014000Y-165806800D01*
X164041000Y-165819200D01*
X164066000Y-165835800D01*
X164090900Y-165860800D01*
X164111700Y-165891900D01*
X164122100Y-165908600D01*
X164134500Y-165927300D01*
X164149100Y-165948100D01*
X164165700Y-165970900D01*
X164184400Y-165995800D01*
X164203100Y-166018700D01*
X164221800Y-166043600D01*
X164240500Y-166066500D01*
X164261300Y-166091400D01*
X164280000Y-166118400D01*
X164296600Y-166145500D01*
X164311200Y-166170400D01*
X164323600Y-166197400D01*
X164334000Y-166224400D01*
X164344400Y-166251400D01*
X164350600Y-166278400D01*
X164356900Y-166301300D01*
X164367300Y-166328300D01*
X164377700Y-166357400D01*
X164390100Y-166388600D01*
X164402600Y-166419700D01*
X164417100Y-166448800D01*
X164433800Y-166477900D01*
X164448300Y-166504900D01*
X164479500Y-166563100D01*
X164506500Y-166623400D01*
X164525200Y-166700300D01*
X164539700Y-166800000D01*
X164550100Y-166935100D01*
X164556400Y-167117900D01*
X164562600Y-167359000D01*
X164568800Y-167670600D01*
X164570900Y-167882600D01*
X164575100Y-168057100D01*
X164579200Y-168198400D01*
X164583400Y-168308600D01*
X164589600Y-168391700D01*
X164595800Y-168449900D01*
X164602100Y-168489300D01*
X164610400Y-168514300D01*
X164618700Y-168528800D01*
X164633200Y-168545500D01*
X164649900Y-168568300D01*
X164670600Y-168591200D01*
X164695600Y-168616100D01*
X164720500Y-168643100D01*
X164747500Y-168670100D01*
X164774500Y-168695100D01*
X164820300Y-168740800D01*
X164863900Y-168786500D01*
X164899200Y-168832200D01*
X164932500Y-168877900D01*
X164957400Y-168923600D01*
X164978200Y-168965200D01*
X164990600Y-169002600D01*
X164994800Y-169035800D01*
X164994800Y-169044200D01*
X164999000Y-169054500D01*
X165005200Y-169069100D01*
X165013500Y-169083600D01*
X165021800Y-169098200D01*
X165032200Y-169114800D01*
X165044700Y-169131400D01*
X165057100Y-169148100D01*
X165080000Y-169179200D01*
X165098700Y-169208300D01*
X165109100Y-169237400D01*
X165115300Y-169268600D01*
X165115300Y-169306000D01*
X165111200Y-169353800D01*
X165100800Y-169409900D01*
X165086200Y-169482600D01*
X165075800Y-169534500D01*
X165069600Y-169576100D01*
X165065500Y-169611400D01*
X165065500Y-169642600D01*
X165069600Y-169677900D01*
X165077900Y-169717400D01*
X165092500Y-169767300D01*
X165109100Y-169829600D01*
X165113100Y-169844200D01*
X165129900Y-169904400D01*
X165144400Y-169966800D01*
X165150600Y-170020800D01*
X165150600Y-170068600D01*
X165144400Y-170110100D01*
X165127800Y-170151700D01*
X165107000Y-170193200D01*
X165075800Y-170239000D01*
X165040500Y-170284700D01*
X165003100Y-170320000D01*
X164955300Y-170347000D01*
X164890900Y-170365700D01*
X164801600Y-170378200D01*
X164679000Y-170386500D01*
X164514800Y-170392700D01*
X164302900Y-170399000D01*
X164086800Y-170403100D01*
X163914300Y-170403100D01*
X163777100Y-170399000D01*
X163669100Y-170392700D01*
X163588100Y-170378200D01*
X163523600Y-170359500D01*
X163473800Y-170334500D01*
X163430100Y-170303400D01*
X163413500Y-170290900D01*
X163396900Y-170274300D01*
X163376100Y-170259700D01*
X163353200Y-170241000D01*
X163328300Y-170224400D01*
X163305500Y-170207800D01*
X163282600Y-170191200D01*
X163259700Y-170174500D01*
X163207800Y-170135100D01*
X163149600Y-170085200D01*
X163087300Y-170027000D01*
X163022900Y-169962600D01*
X162962600Y-169896100D01*
X162946310Y-169877400D01*
X163519500Y-169877400D01*
X163525700Y-169933500D01*
X163542300Y-169987500D01*
X163563100Y-170035300D01*
X163590100Y-170074800D01*
X163621300Y-170097700D01*
X163691900Y-170106000D01*
X163827000Y-170110100D01*
X164007800Y-170108100D01*
X164209300Y-170103900D01*
X164410900Y-170095600D01*
X164591700Y-170087300D01*
X164730900Y-170074800D01*
X164801600Y-170062300D01*
X164818200Y-170054000D01*
X164834800Y-170043600D01*
X164849400Y-170031200D01*
X164863900Y-170016600D01*
X164878400Y-170002100D01*
X164890900Y-169983400D01*
X164903400Y-169962600D01*
X164915800Y-169939700D01*
X164932500Y-169900300D01*
X164942900Y-169869100D01*
X164944900Y-169844200D01*
X164936600Y-169823400D01*
X164920000Y-169806800D01*
X164888800Y-169790100D01*
X164847300Y-169775600D01*
X164791200Y-169759000D01*
X164753800Y-169748600D01*
X164710100Y-169742300D01*
X164660300Y-169736100D01*
X164595800Y-169731900D01*
X164516900Y-169729900D01*
X164415100Y-169729900D01*
X164288300Y-169731900D01*
X164132500Y-169734000D01*
X164022300Y-169738200D01*
X163920500Y-169740300D01*
X163824900Y-169744400D01*
X163739700Y-169748600D01*
X163669100Y-169750600D01*
X163613000Y-169756900D01*
X163573500Y-169761000D01*
X163556900Y-169763100D01*
X163534000Y-169788100D01*
X163521600Y-169827500D01*
X163519500Y-169877400D01*
X162946310Y-169877400D01*
X162906500Y-169831700D01*
X162858700Y-169771400D01*
X162823400Y-169719500D01*
X162810900Y-169700800D01*
X162798400Y-169682100D01*
X162786000Y-169665500D01*
X162773500Y-169648800D01*
X162763100Y-169634300D01*
X162752700Y-169623900D01*
X162744400Y-169615600D01*
X162738200Y-169609400D01*
X162696600Y-169571900D01*
X162669600Y-169520000D01*
X162657100Y-169459700D01*
X162657100Y-169397400D01*
X162669600Y-169337100D01*
X162694500Y-169289400D01*
X162729900Y-169254000D01*
X162775600Y-169241600D01*
X162804700Y-169251900D01*
X162846200Y-169279000D01*
X162894000Y-169318400D01*
X162946000Y-169366200D01*
X162997900Y-169422300D01*
X163047800Y-169478400D01*
X163087300Y-169532500D01*
X163116400Y-169578200D01*
X163139200Y-169617700D01*
X163160000Y-169646800D01*
X163182900Y-169665500D01*
X163207800Y-169675800D01*
X163232700Y-169677900D01*
X163261800Y-169671700D01*
X163290900Y-169655100D01*
X163326200Y-169630100D01*
X163365700Y-169599000D01*
X163407300Y-169576100D01*
X163457100Y-169557400D01*
X163521600Y-169544900D01*
X163604700Y-169538700D01*
X163714800Y-169532500D01*
X163856100Y-169532500D01*
X164036900Y-169532500D01*
X164138700Y-169532500D01*
X164234300Y-169534500D01*
X164323600Y-169534500D01*
X164400500Y-169536600D01*
X164464900Y-169538700D01*
X164514800Y-169540800D01*
X164548100Y-169542900D01*
X164562600Y-169544900D01*
X164593800Y-169551200D01*
X164633200Y-169544900D01*
X164681000Y-169526200D01*
X164728800Y-169499200D01*
X164774500Y-169468100D01*
X164814000Y-169432700D01*
X164839000Y-169397400D01*
X164849400Y-169364200D01*
X164849400Y-169353800D01*
X164845200Y-169341300D01*
X164841000Y-169324700D01*
X164834800Y-169306000D01*
X164826500Y-169283100D01*
X164818200Y-169262300D01*
X164809900Y-169239500D01*
X164799500Y-169216600D01*
X164789100Y-169193800D01*
X164778700Y-169168800D01*
X164770400Y-169143900D01*
X164760000Y-169119000D01*
X164751700Y-169096100D01*
X164745500Y-169075300D01*
X164739200Y-169056600D01*
X164735100Y-169040000D01*
X164728800Y-169010900D01*
X164718400Y-168988100D01*
X164706000Y-168967300D01*
X164689300Y-168950600D01*
X164666500Y-168938200D01*
X164637400Y-168923600D01*
X164597900Y-168911200D01*
X164550100Y-168898700D01*
X164502300Y-168886200D01*
X164464900Y-168880000D01*
X164433800Y-168877900D01*
X164406800Y-168884200D01*
X164386000Y-168894500D01*
X164365200Y-168913200D01*
X164346500Y-168938200D01*
X164327800Y-168971400D01*
X164309100Y-169000500D01*
X164290400Y-169023400D01*
X164269600Y-169044200D01*
X164246800Y-169060800D01*
X164217700Y-169075300D01*
X164186500Y-169085700D01*
X164149100Y-169096100D01*
X164103400Y-169104400D01*
X164041000Y-169108600D01*
X163978700Y-169100300D01*
X163920500Y-169079500D01*
X163864400Y-169046200D01*
X163812500Y-169002600D01*
X163766800Y-168948600D01*
X163727300Y-168886200D01*
X163696100Y-168813500D01*
X163671200Y-168753200D01*
X163652500Y-168709600D01*
X163633800Y-168682600D01*
X163617100Y-168670100D01*
X163598400Y-168674300D01*
X163581800Y-168693000D01*
X163563100Y-168726200D01*
X163540300Y-168774000D01*
X163507000Y-168836400D01*
X163473800Y-168877900D01*
X163434300Y-168902900D01*
X163394800Y-168911200D01*
X163353200Y-168900800D01*
X163311700Y-168871700D01*
X163270100Y-168823900D01*
X163228600Y-168759500D01*
X163193200Y-168697100D01*
X163166200Y-168641000D01*
X163147500Y-168572500D01*
X163135100Y-168474800D01*
X163128800Y-168327300D01*
X163126800Y-168113200D01*
X163126800Y-167814000D01*
X163128800Y-167410900D01*
X163130900Y-166263900D01*
X163180800Y-166170400D01*
X163191200Y-166149600D01*
X163201600Y-166122600D01*
X163214000Y-166091400D01*
X163224400Y-166058200D01*
X163234800Y-166024900D01*
X163245200Y-165989600D01*
X163253500Y-165954300D01*
X163259700Y-165921000D01*
X163276400Y-165844200D01*
X163290900Y-165779700D01*
X163303400Y-165729900D01*
X163317900Y-165688300D01*
X163332500Y-165655100D01*
X163347000Y-165630100D01*
X163365700Y-165611400D01*
X163386500Y-165594800D01*
X163399000Y-165586500D01*
X163409400Y-165574000D01*
X163421800Y-165559500D01*
X163434300Y-165542900D01*
X163446800Y-165526200D01*
X163459200Y-165507500D01*
X163469600Y-165488800D01*
X163477900Y-165468100D01*
X163488300Y-165447300D01*
X163498700Y-165426500D01*
X163511200Y-165409900D01*
X163523600Y-165393200D01*
X163536100Y-165380800D01*
X163548600Y-165368300D01*
X163561000Y-165357900D01*
X163575600Y-165351700D01*
X163588100Y-165345500D01*
X163604700Y-165335100D01*
X163621300Y-165324700D01*
X163637900Y-165310100D01*
X163656600Y-165295600D01*
X163673200Y-165279000D01*
X163689900Y-165264400D01*
X163706500Y-165247800D01*
X163779200Y-165166800D01*
X164608300Y-165158400D01*
X164776600Y-165158400D01*
X164934500Y-165158400D01*
X165080000Y-165158400D01*
X165208800Y-165158400D01*
X165316900Y-165160500D01*
X165402100Y-165162600D01*
X165458200Y-165166800D01*
X165485200Y-165168800D01*
X165495600Y-165175100D01*
X165508100Y-165183400D01*
X165518400Y-165193800D01*
X165530900Y-165206200D01*
X165543400Y-165220800D01*
X165553800Y-165235300D01*
X165564200Y-165251900D01*
X165574500Y-165268600D01*
X165584900Y-165285200D01*
X165595300Y-165303900D01*
X165609900Y-165322600D01*
X165624400Y-165341300D01*
X165639000Y-165357900D01*
X165655600Y-165376600D01*
X165672200Y-165391200D01*
X165686800Y-165403600D01*
X165705500Y-165418200D01*
X165722100Y-165434800D01*
X165736600Y-165451400D01*
X165749100Y-165470100D01*
X165757400Y-165490900D01*
X165765700Y-165515800D01*
X165774000Y-165542900D01*
X165782300Y-165578200D01*
X165788600Y-165611400D01*
X165796900Y-165640500D01*
X165805200Y-165665500D01*
X165817700Y-165688300D01*
X165830100Y-165709100D01*
X165844700Y-165729900D01*
X165863400Y-165750700D01*
X165886200Y-165771400D01*
X165911200Y-165796400D01*
X165931900Y-165817100D01*
X165946500Y-165837900D01*
X165956900Y-165860800D01*
X165965200Y-165889900D01*
X165969300Y-165927300D01*
X165973500Y-165977100D01*
X165979700Y-166041600D01*
X165992200Y-166222300D01*
X166004700Y-166361600D01*
X166015100Y-166461300D01*
X166029600Y-166527800D01*
X166046200Y-166569400D01*
X166069100Y-166592200D01*
X166100300Y-166600500D01*
X166139700Y-166602600D01*
X166200000Y-166602600D01*
X166200000Y-168202600D01*
X166200000Y-169802600D01*
X166152200Y-169821300D01*
X166121000Y-169835800D01*
X166096100Y-169854500D01*
X166075300Y-169883600D01*
X166056600Y-169927300D01*
X166037900Y-169989600D01*
X166019200Y-170076900D01*
X165998400Y-170193200D01*
X165973500Y-170342900D01*
X165967300Y-170378200D01*
X165961000Y-170409300D01*
X165952700Y-170436400D01*
X165944400Y-170459200D01*
X165936100Y-170477900D01*
X165925700Y-170494500D01*
X165913200Y-170509100D01*
X165898700Y-170523600D01*
X165888300Y-170534000D01*
X165875800Y-170550600D01*
X165861300Y-170567300D01*
X165848800Y-170588100D01*
X165834300Y-170610900D01*
X165821800Y-170633800D01*
X165809300Y-170656600D01*
X165796900Y-170681600D01*
X165784400Y-170710600D01*
X165771900Y-170735600D01*
X165757400Y-170756400D01*
X165744900Y-170773000D01*
X165730400Y-170789600D01*
X165715800Y-170802100D01*
X165701300Y-170810400D01*
X165682600Y-170818700D01*
X165670100Y-170824900D01*
X165657700Y-170831200D01*
X165647300Y-170837400D01*
X165636900Y-170843600D01*
X165628600Y-170847800D01*
X165622300Y-170854000D01*
X165620300Y-170858200D01*
X165618200Y-170862300D01*
X165614000Y-170881000D01*
X165599500Y-170901800D01*
X165576600Y-170922600D01*
X165549600Y-170941300D01*
X165518400Y-170960000D01*
X165485200Y-170976600D01*
X165449900Y-170989100D01*
X165414500Y-170995300D01*
X165335600Y-171007800D01*
X165275300Y-171016100D01*
X165233800Y-171024400D01*
X165206800Y-171034800D01*
X165192200Y-171047300D01*
X165183900Y-171063900D01*
X165181800Y-171084700D01*
X165181800Y-171113800D01*
X165181800Y-171194800D01*
X164134500Y-171194800D01*
X163087300Y-171194800D01*
X163076900Y-171134500D01*
X163072700Y-171122100D01*
X163068600Y-171111700D01*
X163062300Y-171099200D01*
X163056100Y-171088800D01*
X163049900Y-171078400D01*
X163041600Y-171070100D01*
X163035300Y-171063900D01*
X163027000Y-171059700D01*
X162975100Y-171053500D01*
X162837900Y-171047300D01*
X162592700Y-171041000D01*
X162216600Y-171036900D01*
X161682600Y-171032700D01*
X160969900Y-171028600D01*
X160053500Y-171024400D01*
X158910600Y-171018200D01*
X157904900Y-171014000D01*
X157161000Y-171009900D01*
X156641600Y-171003600D01*
X156304900Y-170995300D01*
X156109600Y-170980800D01*
X156022300Y-170957900D01*
X155997400Y-170926800D01*
X155997400Y-170885200D01*
X155997400Y-170872700D01*
X156001600Y-170860300D01*
X156003600Y-170845700D01*
X156009900Y-170833200D01*
X156016100Y-170820800D01*
X156022300Y-170808300D01*
X156030600Y-170797900D01*
X156039000Y-170789600D01*
X156051400Y-170775100D01*
X156090900Y-170764700D01*
X156211400Y-170758400D01*
X156467000Y-170752200D01*
X156913800Y-170750100D01*
X157605700Y-170750100D01*
X158596900Y-170752200D01*
X159943400Y-170754300D01*
X160826500Y-170756400D01*
X161506000Y-170756400D01*
X162013000Y-170756400D01*
X162368300Y-170754300D01*
X162603100Y-170750100D01*
X162742300Y-170743900D01*
X162810900Y-170735600D01*
X162835800Y-170725200D01*
X162854500Y-170704400D01*
X162867000Y-170683600D01*
X162873200Y-170660800D01*
X162873200Y-170637900D01*
X162869100Y-170615100D01*
X162858700Y-170594300D01*
X162842100Y-170575600D01*
X162819200Y-170556900D01*
X162806800Y-170548600D01*
X162792200Y-170536100D01*
X162777700Y-170523600D01*
X162761000Y-170509100D01*
X162744400Y-170494500D01*
X162725700Y-170477900D01*
X162711200Y-170463400D01*
X162694500Y-170446800D01*
X162626000Y-170376100D01*
X159268100Y-170371900D01*
X158058700Y-170369900D01*
X157169400Y-170367800D01*
X156550100Y-170363600D01*
X156153200Y-170355300D01*
X155928800Y-170340800D01*
X155831200Y-170317900D01*
X155808300Y-170286800D01*
X155810400Y-170243100D01*
X155816600Y-170195300D01*
X155835300Y-170151700D01*
X155866500Y-170118400D01*
X155908100Y-170091400D01*
X155962100Y-170072700D01*
X156026500Y-170060300D01*
X156099200Y-170058200D01*
X156184400Y-170062300D01*
X156223900Y-170066500D01*
X156290400Y-170068600D01*
X156377700Y-170070600D01*
X156481600Y-170072700D01*
X156600000Y-170074800D01*
X156730900Y-170076900D01*
X156868100Y-170076900D01*
X157009400Y-170079000D01*
X157213000Y-170079000D01*
X157375100Y-170076900D01*
X157499700Y-170076900D01*
X157591200Y-170072700D01*
X157655600Y-170068600D01*
X157701300Y-170062300D01*
X157730400Y-170056100D01*
X157751200Y-170045700D01*
X157778200Y-170022900D01*
X157801000Y-169991700D01*
X157817700Y-169954300D01*
X157830100Y-169910600D01*
X157836400Y-169858700D01*
X157838400Y-169796400D01*
X157836400Y-169725700D01*
X157828100Y-169644700D01*
X157823900Y-169603100D01*
X157819700Y-169561600D01*
X157815600Y-169517900D01*
X157811400Y-169474300D01*
X157809400Y-169434800D01*
X157807300Y-169397400D01*
X157805200Y-169364200D01*
X157805200Y-169337100D01*
X157805200Y-169312200D01*
X157803100Y-169285200D01*
X157801000Y-169256100D01*
X157799000Y-169224900D01*
X157794800Y-169195800D01*
X157790600Y-169168800D01*
X157786500Y-169141800D01*
X157782300Y-169119000D01*
X157778200Y-169091900D01*
X157774000Y-169064900D01*
X157772390Y-169044200D01*
X158098200Y-169044200D01*
X158098200Y-169191700D01*
X158100300Y-169376600D01*
X158102300Y-169530400D01*
X158104400Y-169648800D01*
X158108600Y-169740300D01*
X158112700Y-169808800D01*
X158119000Y-169858700D01*
X158127300Y-169896100D01*
X158137700Y-169925200D01*
X158150100Y-169948100D01*
X158173000Y-169985500D01*
X158197900Y-170014500D01*
X158224900Y-170035300D01*
X158256100Y-170051900D01*
X158295600Y-170062300D01*
X158341300Y-170066500D01*
X158397400Y-170068600D01*
X158466000Y-170066500D01*
X158501300Y-170064400D01*
X158538700Y-170064400D01*
X158574000Y-170064400D01*
X158609300Y-170066500D01*
X158640500Y-170068600D01*
X158667500Y-170070600D01*
X158692500Y-170074800D01*
X158709100Y-170079000D01*
X158746500Y-170087300D01*
X158779700Y-170089300D01*
X158810900Y-170085200D01*
X158835800Y-170074800D01*
X158858700Y-170058200D01*
X158879500Y-170035300D01*
X158896100Y-170006200D01*
X158908600Y-169968800D01*
X158914800Y-169941800D01*
X158921000Y-169912700D01*
X158923100Y-169879500D01*
X158923100Y-169840000D01*
X158923100Y-169790100D01*
X158919000Y-169731900D01*
X158914800Y-169661300D01*
X158906500Y-169578200D01*
X158902300Y-169511700D01*
X158896100Y-169439000D01*
X158889900Y-169362100D01*
X158883600Y-169285200D01*
X158879500Y-169208300D01*
X158875300Y-169133500D01*
X158871200Y-169064900D01*
X158867000Y-169006800D01*
X158862900Y-168927800D01*
X158861221Y-168902900D01*
X159184900Y-168902900D01*
X159184900Y-169000500D01*
X159189100Y-169121000D01*
X159195300Y-169283100D01*
X159209900Y-169432700D01*
X159228600Y-169565700D01*
X159253500Y-169684200D01*
X159284700Y-169788100D01*
X159285500Y-169790100D01*
X159322100Y-169877400D01*
X159365700Y-169954300D01*
X159413500Y-170016600D01*
X159430100Y-170033200D01*
X159444700Y-170047800D01*
X159461300Y-170056100D01*
X159482100Y-170062300D01*
X159509100Y-170064400D01*
X159542300Y-170064400D01*
X159588100Y-170062300D01*
X159646200Y-170060300D01*
X159700300Y-170058200D01*
X159777100Y-170054000D01*
X159876900Y-170051900D01*
X159995300Y-170047800D01*
X160128300Y-170043600D01*
X160271700Y-170039500D01*
X160421300Y-170037400D01*
X160573000Y-170033200D01*
X160851400Y-170027000D01*
X161061300Y-170018700D01*
X161208800Y-170010400D01*
X161308600Y-169997900D01*
X161370900Y-169977100D01*
X161404200Y-169950100D01*
X161420800Y-169910600D01*
X161429100Y-169858700D01*
X161441600Y-169804700D01*
X161462300Y-169750600D01*
X161491400Y-169696600D01*
X161524700Y-169646800D01*
X161562100Y-169601000D01*
X161603600Y-169563600D01*
X161645200Y-169534500D01*
X161686800Y-169513800D01*
X161709600Y-169505500D01*
X161730400Y-169497100D01*
X161749100Y-169486800D01*
X161767800Y-169474300D01*
X161784400Y-169461800D01*
X161799000Y-169445200D01*
X161813500Y-169428600D01*
X161828100Y-169407800D01*
X161838400Y-169393200D01*
X161853000Y-169376600D01*
X161865500Y-169360000D01*
X161880000Y-169345500D01*
X161894500Y-169330900D01*
X161909100Y-169318400D01*
X161921600Y-169310100D01*
X161934000Y-169301800D01*
X161944400Y-169293500D01*
X161959000Y-169283100D01*
X161971400Y-169270600D01*
X161983900Y-169254000D01*
X161996400Y-169237400D01*
X162006800Y-169218700D01*
X162019200Y-169200000D01*
X162027500Y-169179200D01*
X162035800Y-169158400D01*
X162048300Y-169137700D01*
X162060800Y-169116900D01*
X162073200Y-169094000D01*
X162087800Y-169073200D01*
X162102300Y-169052500D01*
X162116900Y-169035800D01*
X162129300Y-169021300D01*
X162170900Y-168973500D01*
X162200000Y-168925700D01*
X162220800Y-168875800D01*
X162231200Y-168826000D01*
X162233200Y-168776100D01*
X162224900Y-168724200D01*
X162206200Y-168674300D01*
X162177100Y-168624400D01*
X162166800Y-168609900D01*
X162158400Y-168597400D01*
X162148100Y-168589100D01*
X162137700Y-168584900D01*
X162127300Y-168580800D01*
X162112700Y-168580800D01*
X162098200Y-168582900D01*
X162079500Y-168587000D01*
X161948600Y-168593200D01*
X161657700Y-168597400D01*
X161258700Y-168597400D01*
X160805700Y-168597400D01*
X160352700Y-168595300D01*
X159953800Y-168591200D01*
X159660800Y-168584900D01*
X159527800Y-168578700D01*
X159500800Y-168574500D01*
X159469600Y-168574500D01*
X159438400Y-168576600D01*
X159405200Y-168584900D01*
X159369900Y-168595300D01*
X159336600Y-168611900D01*
X159299200Y-168628600D01*
X159263900Y-168651400D01*
X159239000Y-168672200D01*
X159218200Y-168695100D01*
X159203600Y-168728300D01*
X159193200Y-168769900D01*
X159187000Y-168828100D01*
X159184900Y-168902900D01*
X158861221Y-168902900D01*
X158858700Y-168865500D01*
X158854500Y-168817700D01*
X158850400Y-168780300D01*
X158844200Y-168753200D01*
X158835800Y-168734500D01*
X158825500Y-168720000D01*
X158815100Y-168709600D01*
X158777700Y-168697100D01*
X158711200Y-168688800D01*
X158626000Y-168682600D01*
X158526200Y-168680500D01*
X158426500Y-168680500D01*
X158335100Y-168682600D01*
X158260300Y-168690900D01*
X158210400Y-168701300D01*
X158175100Y-168720000D01*
X158146000Y-168747000D01*
X158125200Y-168786500D01*
X158112700Y-168846800D01*
X158102300Y-168929900D01*
X158098200Y-169044200D01*
X157772390Y-169044200D01*
X157771900Y-169037900D01*
X157769900Y-169013000D01*
X157771900Y-168988100D01*
X157774000Y-168961000D01*
X157778200Y-168934000D01*
X157782300Y-168904900D01*
X157788600Y-168880000D01*
X157792700Y-168855100D01*
X157796900Y-168826000D01*
X157801000Y-168799000D01*
X157803100Y-168771900D01*
X157807300Y-168744900D01*
X157809400Y-168720000D01*
X157809400Y-168699200D01*
X157811400Y-168670100D01*
X157809400Y-168645200D01*
X157805200Y-168622300D01*
X157796900Y-168599500D01*
X157782300Y-168576600D01*
X157761600Y-168549600D01*
X157736600Y-168516400D01*
X157701300Y-168476900D01*
X157678400Y-168449900D01*
X157653500Y-168424900D01*
X157632700Y-168402100D01*
X157609900Y-168381300D01*
X157591200Y-168364700D01*
X157574500Y-168350100D01*
X157562100Y-168341800D01*
X157551700Y-168335600D01*
X157524700Y-168321000D01*
X157483100Y-168285700D01*
X157431200Y-168240000D01*
X157373000Y-168186000D01*
X157316900Y-168129900D01*
X157267000Y-168077900D01*
X157227500Y-168032200D01*
X157204700Y-168001000D01*
X157198400Y-167990600D01*
X157192200Y-167980300D01*
X157181800Y-167969900D01*
X157169400Y-167957400D01*
X157159000Y-167947000D01*
X157146500Y-167936600D01*
X157131900Y-167926200D01*
X157119500Y-167917900D01*
X157107000Y-167909600D01*
X157092500Y-167899200D01*
X157080000Y-167886800D01*
X157065500Y-167872200D01*
X157053000Y-167855600D01*
X157042600Y-167841000D01*
X157032200Y-167824400D01*
X157023900Y-167807800D01*
X157015600Y-167793200D01*
X157005200Y-167776600D01*
X156992700Y-167757900D01*
X156980300Y-167741300D01*
X156965700Y-167722600D01*
X156951200Y-167706000D01*
X156936600Y-167691400D01*
X156922100Y-167679000D01*
X156909600Y-167666500D01*
X156895100Y-167651900D01*
X156880500Y-167633200D01*
X156868100Y-167616600D01*
X156857700Y-167595800D01*
X156847300Y-167577100D01*
X156839000Y-167558400D01*
X156832700Y-167539700D01*
X156826500Y-167523100D01*
X156818200Y-167504400D01*
X156809900Y-167487800D01*
X156799500Y-167469100D01*
X156789100Y-167454500D01*
X156778700Y-167440000D01*
X156768300Y-167427500D01*
X156757900Y-167419200D01*
X156737100Y-167400500D01*
X156716400Y-167377700D01*
X156697700Y-167350600D01*
X156681000Y-167321600D01*
X156666500Y-167290400D01*
X156651900Y-167257100D01*
X156639500Y-167221800D01*
X156631200Y-167184400D01*
X156627000Y-167167800D01*
X156618700Y-167151200D01*
X156610400Y-167132500D01*
X156600000Y-167113800D01*
X156587500Y-167095100D01*
X156573000Y-167078400D01*
X156558400Y-167061800D01*
X156543900Y-167047300D01*
X156525200Y-167028600D01*
X156508600Y-167009900D01*
X156491900Y-166987000D01*
X156477400Y-166962100D01*
X156462900Y-166935100D01*
X156448300Y-166906000D01*
X156433800Y-166874800D01*
X156421300Y-166843600D01*
X156408800Y-166810400D01*
X156396400Y-166779200D01*
X156381800Y-166752200D01*
X156367300Y-166725200D01*
X156350600Y-166700300D01*
X156336100Y-166679500D01*
X156319500Y-166660800D01*
X156302900Y-166644200D01*
X156288300Y-166631700D01*
X156273800Y-166615100D01*
X156259200Y-166596400D01*
X156246800Y-166577700D01*
X156234300Y-166556900D01*
X156223900Y-166538200D01*
X156215600Y-166519500D01*
X156207300Y-166500800D01*
X156203100Y-166484200D01*
X156194800Y-166465500D01*
X156186500Y-166448800D01*
X156176100Y-166432200D01*
X156167800Y-166415600D01*
X156157400Y-166401000D01*
X156147000Y-166388600D01*
X156136600Y-166380300D01*
X156126200Y-166369900D01*
X156111700Y-166355300D01*
X156097100Y-166338700D01*
X156080500Y-166317900D01*
X156063900Y-166295100D01*
X156047300Y-166270100D01*
X156030600Y-166243100D01*
X156014000Y-166218200D01*
X155997400Y-166191200D01*
X155978700Y-166166200D01*
X155962100Y-166141300D01*
X155943400Y-166116400D01*
X155924700Y-166095600D01*
X155908100Y-166074800D01*
X155891400Y-166060300D01*
X155876900Y-166047800D01*
X155864400Y-166037400D01*
X155851900Y-166024900D01*
X155837400Y-166010400D01*
X155824900Y-165995800D01*
X155812500Y-165979200D01*
X155800000Y-165962600D01*
X155789600Y-165946000D01*
X155781300Y-165929400D01*
X155773000Y-165912700D01*
X155762600Y-165896100D01*
X155750100Y-165881600D01*
X155737700Y-165867000D01*
X155723100Y-165852500D01*
X155706500Y-165842100D01*
X155691900Y-165831700D01*
X155675300Y-165821300D01*
X155660800Y-165813000D01*
X155646200Y-165804700D01*
X155631700Y-165792200D01*
X155617100Y-165779700D01*
X155604700Y-165767300D01*
X155594300Y-165752700D01*
X155583900Y-165740300D01*
X155577700Y-165725700D01*
X155569300Y-165709100D01*
X155559000Y-165694500D01*
X155544400Y-165680000D01*
X155527800Y-165665500D01*
X155507000Y-165650900D01*
X155482100Y-165636400D01*
X155455100Y-165619700D01*
X155419700Y-165605200D01*
X155371900Y-165580300D01*
X155332500Y-165555300D01*
X155301300Y-165530400D01*
X155278400Y-165505500D01*
X155263900Y-165478400D01*
X155259700Y-165451400D01*
X155259700Y-165420300D01*
X155270100Y-165387000D01*
X155276400Y-165370400D01*
X155284700Y-165360000D01*
X155293000Y-165349600D01*
X155305500Y-165343400D01*
X155322100Y-165339200D01*
X155344900Y-165337100D01*
X155374000Y-165335100D01*
X155411400Y-165335100D01*
X155457100Y-165337100D01*
X155498700Y-165341300D01*
X155534000Y-165349600D01*
X155563100Y-165362100D01*
X155588100Y-165376600D01*
X155608800Y-165397400D01*
X155627500Y-165422300D01*
X155642100Y-165453500D01*
X155648300Y-165466000D01*
X155656600Y-165478400D01*
X155664900Y-165493000D01*
X155677400Y-165505500D01*
X155689900Y-165517900D01*
X155702300Y-165528300D01*
X155714800Y-165538700D01*
X155727300Y-165547000D01*
X155741800Y-165555300D01*
X155756400Y-165565700D01*
X155770900Y-165580300D01*
X155783400Y-165592700D01*
X155797900Y-165609400D01*
X155810400Y-165623900D01*
X155822900Y-165640500D01*
X155833200Y-165655100D01*
X155843600Y-165669600D01*
X155854000Y-165686200D01*
X155868600Y-165702900D01*
X155883100Y-165719500D01*
X155899700Y-165734000D01*
X155916400Y-165748600D01*
X155933000Y-165759000D01*
X155947500Y-165769400D01*
X155962100Y-165779700D01*
X155978700Y-165792200D01*
X155991200Y-165804700D01*
X156005700Y-165819200D01*
X156018200Y-165831700D01*
X156028600Y-165846200D01*
X156036900Y-165860800D01*
X156041000Y-165873200D01*
X156047300Y-165887800D01*
X156055600Y-165900300D01*
X156066000Y-165914800D01*
X156076400Y-165929400D01*
X156090900Y-165943900D01*
X156103400Y-165956400D01*
X156117900Y-165966800D01*
X156132500Y-165977100D01*
X156147000Y-165987500D01*
X156163600Y-166000000D01*
X156178200Y-166012500D01*
X156194800Y-166029100D01*
X156209400Y-166045700D01*
X156221800Y-166062300D01*
X156234300Y-166081000D01*
X156242600Y-166097700D01*
X156253000Y-166114300D01*
X156263400Y-166130900D01*
X156277900Y-166149600D01*
X156290400Y-166166200D01*
X156304900Y-166182900D01*
X156319500Y-166199500D01*
X156334000Y-166211900D01*
X156348600Y-166222300D01*
X156361000Y-166234800D01*
X156375600Y-166249300D01*
X156390100Y-166266000D01*
X156404700Y-166284700D01*
X156419200Y-166305500D01*
X156431700Y-166326200D01*
X156444200Y-166347000D01*
X156454500Y-166367800D01*
X156464900Y-166390600D01*
X156477400Y-166413500D01*
X156489900Y-166438400D01*
X156504400Y-166461300D01*
X156519000Y-166486200D01*
X156533500Y-166509100D01*
X156548100Y-166529900D01*
X156562600Y-166546500D01*
X156577100Y-166567300D01*
X156591700Y-166590100D01*
X156604200Y-166615100D01*
X156616600Y-166642100D01*
X156629100Y-166669100D01*
X156639500Y-166700300D01*
X156647800Y-166731400D01*
X156656100Y-166762600D01*
X156664400Y-166797900D01*
X156674800Y-166829100D01*
X156685200Y-166858200D01*
X156697700Y-166885200D01*
X156710100Y-166910100D01*
X156724700Y-166933000D01*
X156739200Y-166955800D01*
X156757900Y-166976600D01*
X156772500Y-166993200D01*
X156784900Y-167007800D01*
X156797400Y-167024400D01*
X156807800Y-167039000D01*
X156816100Y-167051400D01*
X156822300Y-167061800D01*
X156826500Y-167072200D01*
X156828600Y-167078400D01*
X156830600Y-167103400D01*
X156841000Y-167132500D01*
X156853500Y-167163600D01*
X156868100Y-167196900D01*
X156886800Y-167226000D01*
X156905500Y-167253000D01*
X156926200Y-167275800D01*
X156942900Y-167288300D01*
X156955300Y-167296600D01*
X156967800Y-167304900D01*
X156980300Y-167317400D01*
X156994800Y-167331900D01*
X157009400Y-167348600D01*
X157023900Y-167365200D01*
X157036400Y-167383900D01*
X157048800Y-167400500D01*
X157080000Y-167442100D01*
X157129900Y-167498200D01*
X157192200Y-167562600D01*
X157262900Y-167633200D01*
X157337700Y-167703900D01*
X157410400Y-167770400D01*
X157476900Y-167826500D01*
X157533000Y-167872200D01*
X157549600Y-167882600D01*
X157568300Y-167897100D01*
X157584900Y-167911700D01*
X157603600Y-167926200D01*
X157622300Y-167940800D01*
X157639000Y-167955300D01*
X157653500Y-167967800D01*
X157668100Y-167980300D01*
X157680500Y-167990600D01*
X157695100Y-168003100D01*
X157711700Y-168013500D01*
X157728300Y-168021800D01*
X157744900Y-168030100D01*
X157761600Y-168038400D01*
X157776100Y-168044700D01*
X157790600Y-168046800D01*
X157807300Y-168053000D01*
X157830100Y-168059200D01*
X157859200Y-168067500D01*
X157890400Y-168080000D01*
X157923600Y-168092500D01*
X157959000Y-168107000D01*
X157996400Y-168121600D01*
X158033800Y-168138200D01*
X158087800Y-168161000D01*
X158133500Y-168177700D01*
X158175100Y-168192200D01*
X158212500Y-168200500D01*
X158249900Y-168206800D01*
X158291400Y-168210900D01*
X158339200Y-168213000D01*
X158397400Y-168213000D01*
X158453500Y-168213000D01*
X158499200Y-168210900D01*
X158536600Y-168208800D01*
X158565700Y-168204700D01*
X158590600Y-168198400D01*
X158613500Y-168188100D01*
X158634300Y-168175600D01*
X158640859Y-168171400D01*
X159243100Y-168171400D01*
X159243100Y-168183900D01*
X159243100Y-168196400D01*
X159245200Y-168208800D01*
X159251400Y-168219200D01*
X159272200Y-168246200D01*
X159297100Y-168269100D01*
X159334500Y-168283600D01*
X159390600Y-168294000D01*
X159467500Y-168300300D01*
X159575600Y-168302300D01*
X159719000Y-168300300D01*
X159903900Y-168296100D01*
X160028600Y-168294000D01*
X160176100Y-168289900D01*
X160344400Y-168287800D01*
X160527300Y-168285700D01*
X160716400Y-168285700D01*
X160909600Y-168283600D01*
X161100800Y-168283600D01*
X161281600Y-168281600D01*
X161551700Y-168281600D01*
X161757400Y-168281600D01*
X161909100Y-168279500D01*
X162013000Y-168277400D01*
X162079500Y-168271200D01*
X162119000Y-168264900D01*
X162139700Y-168254500D01*
X162150100Y-168242100D01*
X162158400Y-168221300D01*
X162160500Y-168204700D01*
X162158400Y-168188100D01*
X162148100Y-168173500D01*
X162127300Y-168156900D01*
X162098200Y-168140300D01*
X162058700Y-168119500D01*
X162008800Y-168096600D01*
X161979700Y-168084200D01*
X161952700Y-168069600D01*
X161925700Y-168053000D01*
X161900800Y-168038400D01*
X161877900Y-168021800D01*
X161857100Y-168007300D01*
X161842600Y-167994800D01*
X161830100Y-167982300D01*
X161819700Y-167969900D01*
X161807300Y-167957400D01*
X161794800Y-167947000D01*
X161778200Y-167934500D01*
X161761600Y-167924200D01*
X161744900Y-167913800D01*
X161728300Y-167903400D01*
X161713800Y-167897100D01*
X161697100Y-167888800D01*
X161678400Y-167880500D01*
X161659700Y-167868100D01*
X161639000Y-167855600D01*
X161620300Y-167841000D01*
X161599500Y-167826500D01*
X161582900Y-167811900D01*
X161566200Y-167797400D01*
X161549600Y-167782900D01*
X161526800Y-167766200D01*
X161503900Y-167749600D01*
X161476900Y-167733000D01*
X161447800Y-167716400D01*
X161418700Y-167701800D01*
X161389600Y-167687300D01*
X161362600Y-167674800D01*
X161335600Y-167664400D01*
X161306500Y-167649900D01*
X161279500Y-167637400D01*
X161250400Y-167622900D01*
X161225500Y-167608300D01*
X161202600Y-167593800D01*
X161181800Y-167579200D01*
X161167300Y-167568800D01*
X161146500Y-167552200D01*
X161130379Y-167539700D01*
X161749100Y-167539700D01*
X161753200Y-167562600D01*
X161769900Y-167587500D01*
X161801000Y-167614500D01*
X161842600Y-167645700D01*
X161898700Y-167679000D01*
X161917400Y-167689300D01*
X161938200Y-167701800D01*
X161956900Y-167712200D01*
X161973500Y-167722600D01*
X161990100Y-167733000D01*
X162004700Y-167743400D01*
X162015100Y-167749600D01*
X162023400Y-167755800D01*
X162064900Y-167782900D01*
X162102300Y-167795300D01*
X162137700Y-167795300D01*
X162170900Y-167784900D01*
X162197900Y-167762100D01*
X162216600Y-167728800D01*
X162231200Y-167685200D01*
X162235300Y-167633200D01*
X162235300Y-167583400D01*
X162227000Y-167543900D01*
X162212500Y-167512700D01*
X162189600Y-167489900D01*
X162158400Y-167473200D01*
X162116900Y-167462900D01*
X162064900Y-167456600D01*
X161998400Y-167454500D01*
X161969300Y-167454500D01*
X161940300Y-167456600D01*
X161911200Y-167458700D01*
X161884200Y-167460800D01*
X161859200Y-167464900D01*
X161838400Y-167469100D01*
X161821800Y-167473200D01*
X161809300Y-167477400D01*
X161778200Y-167498200D01*
X161757400Y-167519000D01*
X161749100Y-167539700D01*
X161130379Y-167539700D01*
X161127800Y-167537700D01*
X161111200Y-167529300D01*
X161094500Y-167523100D01*
X161073800Y-167521000D01*
X161050900Y-167521000D01*
X161021800Y-167523100D01*
X160986500Y-167527300D01*
X160961600Y-167531400D01*
X160932500Y-167535600D01*
X160901300Y-167541800D01*
X160868100Y-167548100D01*
X160836900Y-167556400D01*
X160803600Y-167564700D01*
X160774500Y-167573000D01*
X160745500Y-167579200D01*
X160676900Y-167597900D01*
X160595800Y-167614500D01*
X160500300Y-167629100D01*
X160394300Y-167639500D01*
X160280000Y-167649900D01*
X160155300Y-167658200D01*
X160024400Y-167662300D01*
X159885200Y-167664400D01*
X159822900Y-167664400D01*
X159760500Y-167666500D01*
X159700300Y-167668600D01*
X159646200Y-167672700D01*
X159596400Y-167676900D01*
X159554800Y-167681000D01*
X159521600Y-167685200D01*
X159498700Y-167689300D01*
X159471700Y-167697700D01*
X159450900Y-167708100D01*
X159434300Y-167718400D01*
X159421800Y-167733000D01*
X159409400Y-167751700D01*
X159396900Y-167778700D01*
X159384400Y-167814000D01*
X159369900Y-167859700D01*
X159359500Y-167890900D01*
X159347000Y-167924200D01*
X159336600Y-167955300D01*
X159322100Y-167988600D01*
X159309600Y-168019700D01*
X159299200Y-168048800D01*
X159286800Y-168073800D01*
X159276400Y-168094500D01*
X159263900Y-168117400D01*
X159255600Y-168138200D01*
X159247300Y-168156900D01*
X159243100Y-168171400D01*
X158640859Y-168171400D01*
X158657100Y-168161000D01*
X158673800Y-168150600D01*
X158690400Y-168138200D01*
X158711200Y-168125700D01*
X158729900Y-168113200D01*
X158750600Y-168102900D01*
X158771400Y-168092500D01*
X158790100Y-168082100D01*
X158806800Y-168073800D01*
X158825500Y-168065500D01*
X158844200Y-168053000D01*
X158860800Y-168040500D01*
X158875300Y-168026000D01*
X158889900Y-168009300D01*
X158904400Y-167992700D01*
X158916900Y-167971900D01*
X158929400Y-167951200D01*
X158939700Y-167932500D01*
X158950100Y-167913800D01*
X158962600Y-167895100D01*
X158975100Y-167876400D01*
X158987500Y-167859700D01*
X159000000Y-167845200D01*
X159010400Y-167832700D01*
X159020800Y-167824400D01*
X159033200Y-167814000D01*
X159043600Y-167801600D01*
X159051900Y-167787000D01*
X159062300Y-167770400D01*
X159070600Y-167751700D01*
X159079000Y-167730900D01*
X159085200Y-167710100D01*
X159091400Y-167687300D01*
X159106000Y-167602100D01*
X159118400Y-167471200D01*
X159128800Y-167309100D01*
X159131252Y-167265500D01*
X159396900Y-167265500D01*
X159396900Y-167288300D01*
X159396900Y-167315300D01*
X159396900Y-167338200D01*
X159401000Y-167356900D01*
X159405200Y-167371400D01*
X159413500Y-167381800D01*
X159423900Y-167392200D01*
X159438400Y-167402600D01*
X159457100Y-167413000D01*
X159513200Y-167429600D01*
X159594300Y-167440000D01*
X159698200Y-167440000D01*
X159822900Y-167433800D01*
X159966200Y-167417100D01*
X160128300Y-167392200D01*
X160307000Y-167359000D01*
X160500300Y-167319500D01*
X160523100Y-167311200D01*
X160546000Y-167300800D01*
X160564700Y-167288300D01*
X160581300Y-167271700D01*
X160593800Y-167253000D01*
X160602100Y-167230100D01*
X160608300Y-167207300D01*
X160610400Y-167184400D01*
X160608300Y-167159500D01*
X160600000Y-167136600D01*
X160587500Y-167117900D01*
X160570900Y-167099200D01*
X160548100Y-167084700D01*
X160521000Y-167070100D01*
X160487800Y-167059700D01*
X160450400Y-167049400D01*
X160435800Y-167045200D01*
X160419200Y-167039000D01*
X160404700Y-167032700D01*
X160388100Y-167022300D01*
X160373500Y-167011900D01*
X160359000Y-167001600D01*
X160346500Y-166989100D01*
X160336100Y-166976600D01*
X160323600Y-166964200D01*
X160307000Y-166949600D01*
X160288300Y-166933000D01*
X160265500Y-166916400D01*
X160240500Y-166901800D01*
X160215600Y-166885200D01*
X160188600Y-166868600D01*
X160161600Y-166856100D01*
X160134500Y-166841600D01*
X160109600Y-166827000D01*
X160084700Y-166810400D01*
X160061800Y-166795800D01*
X160041000Y-166779200D01*
X160022300Y-166764700D01*
X160009900Y-166750100D01*
X159999500Y-166737700D01*
X159991200Y-166725200D01*
X159978700Y-166712700D01*
X159964200Y-166700300D01*
X159947500Y-166687800D01*
X159930900Y-166675300D01*
X159912200Y-166664900D01*
X159893500Y-166654500D01*
X159874800Y-166644200D01*
X159856100Y-166635800D01*
X159835300Y-166625500D01*
X159816600Y-166613000D01*
X159797900Y-166598400D01*
X159779200Y-166583900D01*
X159764700Y-166569400D01*
X159750100Y-166556900D01*
X159739700Y-166542300D01*
X159721000Y-166519500D01*
X159700300Y-166500800D01*
X159681600Y-166488300D01*
X159662900Y-166482100D01*
X159644200Y-166480000D01*
X159625500Y-166484200D01*
X159608800Y-166492500D01*
X159592200Y-166509100D01*
X159588100Y-166519500D01*
X159579700Y-166536100D01*
X159573500Y-166561000D01*
X159565200Y-166592200D01*
X159559000Y-166627500D01*
X159550600Y-166667000D01*
X159544400Y-166708600D01*
X159538200Y-166752200D01*
X159529900Y-166802100D01*
X159521600Y-166849900D01*
X159511200Y-166895600D01*
X159500800Y-166939200D01*
X159490400Y-166978700D01*
X159477900Y-167016100D01*
X159465500Y-167049400D01*
X159453000Y-167080500D01*
X159440500Y-167105500D01*
X159430100Y-167132500D01*
X159421800Y-167161600D01*
X159413500Y-167188600D01*
X159405200Y-167215600D01*
X159401000Y-167240500D01*
X159396900Y-167265500D01*
X159131252Y-167265500D01*
X159139200Y-167124200D01*
X159145500Y-166930900D01*
X159149600Y-166739700D01*
X159151700Y-166565200D01*
X159147500Y-166415600D01*
X159141300Y-166280500D01*
X159133000Y-166164200D01*
X159122600Y-166066500D01*
X159108100Y-165981300D01*
X159091400Y-165912700D01*
X159070600Y-165852500D01*
X159045700Y-165802600D01*
X159014500Y-165759000D01*
X159002100Y-165740300D01*
X158987500Y-165717400D01*
X158973000Y-165694500D01*
X158960500Y-165667500D01*
X158946000Y-165640500D01*
X158933500Y-165613500D01*
X158923100Y-165588600D01*
X158914800Y-165563600D01*
X158906500Y-165534500D01*
X158894000Y-165507500D01*
X158883600Y-165482600D01*
X158869100Y-165459700D01*
X158854500Y-165439000D01*
X158837900Y-165418200D01*
X158821300Y-165399500D01*
X158800500Y-165380800D01*
X158783900Y-165366200D01*
X158769400Y-165351700D01*
X158754800Y-165335100D01*
X158742300Y-165322600D01*
X158734000Y-165308100D01*
X158725700Y-165297700D01*
X158721600Y-165287300D01*
X158719500Y-165279000D01*
X158717400Y-165270600D01*
X158711200Y-165258200D01*
X158702900Y-165243600D01*
X158690400Y-165227000D01*
X158675800Y-165208300D01*
X158659200Y-165189600D01*
X158640500Y-165168800D01*
X158619700Y-165148100D01*
X158599000Y-165125200D01*
X158574000Y-165100300D01*
X158547000Y-165073200D01*
X158520000Y-165044200D01*
X158493000Y-165013000D01*
X158466000Y-164983900D01*
X158441000Y-164956900D01*
X158418200Y-164929900D01*
X158395300Y-164904900D01*
X158370400Y-164880000D01*
X158345500Y-164855100D01*
X158318400Y-164830100D01*
X158293500Y-164809400D01*
X158268600Y-164788600D01*
X158245700Y-164771900D01*
X158224900Y-164759500D01*
X158206200Y-164747000D01*
X158187500Y-164734500D01*
X158170900Y-164720000D01*
X158154300Y-164705500D01*
X158137700Y-164690900D01*
X158125200Y-164676400D01*
X158114800Y-164661800D01*
X158106500Y-164649400D01*
X158098200Y-164634800D01*
X158085700Y-164622300D01*
X158073200Y-164607800D01*
X158056600Y-164595300D01*
X158037900Y-164582900D01*
X158015100Y-164570400D01*
X157992200Y-164557900D01*
X157965200Y-164547500D01*
X157907000Y-164518400D01*
X157855100Y-164481000D01*
X157807300Y-164435300D01*
X157805565Y-164433200D01*
X158495100Y-164433200D01*
X158497100Y-164458200D01*
X158503400Y-164485200D01*
X158517900Y-164516400D01*
X158538700Y-164553800D01*
X158561600Y-164591200D01*
X158582300Y-164622300D01*
X158603100Y-164643100D01*
X158623900Y-164657700D01*
X158644700Y-164666000D01*
X158669600Y-164666000D01*
X158694500Y-164661800D01*
X158723600Y-164651400D01*
X158765200Y-164636900D01*
X158810900Y-164624400D01*
X158860800Y-164614000D01*
X158919000Y-164605700D01*
X158981300Y-164597400D01*
X159049900Y-164593200D01*
X159126800Y-164589100D01*
X159211900Y-164589100D01*
X159293000Y-164587000D01*
X159357400Y-164584900D01*
X159407300Y-164580800D01*
X159442600Y-164574500D01*
X159469600Y-164564200D01*
X159490400Y-164549600D01*
X159504900Y-164528800D01*
X159519500Y-164501800D01*
X159529900Y-164476900D01*
X159536100Y-164449900D01*
X159536100Y-164422900D01*
X159531900Y-164397900D01*
X159523600Y-164375100D01*
X159511200Y-164354300D01*
X159494500Y-164339700D01*
X159473800Y-164329400D01*
X159459200Y-164327300D01*
X159432200Y-164325200D01*
X159394800Y-164321000D01*
X159347000Y-164319000D01*
X159290900Y-164314800D01*
X159228600Y-164310700D01*
X159164200Y-164308600D01*
X159093500Y-164304400D01*
X159022900Y-164302300D01*
X158956400Y-164298200D01*
X158894000Y-164294000D01*
X158840000Y-164289900D01*
X158790100Y-164285700D01*
X158752700Y-164281600D01*
X158723600Y-164277400D01*
X158709100Y-164273200D01*
X158686200Y-164264900D01*
X158665500Y-164260800D01*
X158646800Y-164258700D01*
X158630100Y-164262900D01*
X158615600Y-164269100D01*
X158596900Y-164283600D01*
X158578200Y-164302300D01*
X158555300Y-164327300D01*
X158530400Y-164358400D01*
X158511700Y-164385500D01*
X158499200Y-164410400D01*
X158495100Y-164433200D01*
X157805565Y-164433200D01*
X157767800Y-164387500D01*
X157736600Y-164339700D01*
X157717900Y-164291900D01*
X157713800Y-164248300D01*
X157722100Y-164210900D01*
X157736600Y-164192200D01*
X157757400Y-164179700D01*
X157780300Y-164173500D01*
X157805200Y-164171400D01*
X157832200Y-164175600D01*
X157859200Y-164186000D01*
X157884200Y-164202600D01*
X157909100Y-164223400D01*
X157934000Y-164242100D01*
X157967300Y-164262900D01*
X158010900Y-164279500D01*
X158054500Y-164294000D01*
X158100300Y-164306500D01*
X158143900Y-164312700D01*
X158179200Y-164314800D01*
X158206200Y-164310700D01*
X158214500Y-164306500D01*
X158222900Y-164298200D01*
X158231200Y-164287800D01*
X158241600Y-164273200D01*
X158251900Y-164258700D01*
X158262300Y-164242100D01*
X158270600Y-164223400D01*
X158281000Y-164204700D01*
X158306000Y-164156900D01*
X158335100Y-164121600D01*
X158366200Y-164094500D01*
X158401600Y-164082100D01*
X158441000Y-164077900D01*
X158482600Y-164084200D01*
X158528300Y-164102900D01*
X158576100Y-164131900D01*
X158594800Y-164144400D01*
X158611400Y-164152700D01*
X158628100Y-164156900D01*
X158648800Y-164159000D01*
X158677900Y-164154800D01*
X158713200Y-164148600D01*
X158763100Y-164138200D01*
X158825500Y-164121600D01*
X158879500Y-164109100D01*
X158929400Y-164098700D01*
X158975100Y-164090400D01*
X159018700Y-164086200D01*
X159062300Y-164082100D01*
X159108100Y-164080000D01*
X159155800Y-164080000D01*
X159207800Y-164082100D01*
X159293000Y-164086200D01*
X159378200Y-164096600D01*
X159459200Y-164107000D01*
X159536100Y-164121600D01*
X159602600Y-164136100D01*
X159658700Y-164154800D01*
X159700300Y-164171400D01*
X159725200Y-164190100D01*
X159731400Y-164200500D01*
X159737700Y-164217100D01*
X159746000Y-164237900D01*
X159750100Y-164264900D01*
X159756400Y-164296100D01*
X159760500Y-164333500D01*
X159766800Y-164375100D01*
X159768800Y-164420800D01*
X159769000Y-164422900D01*
X159775100Y-164522600D01*
G37*
%TO.C,R3*%
D13*
X263927500Y-132887742D02*
X263927500Y-133362258D01*
X264972500Y-132887742D02*
X264972500Y-133362258D01*
%TO.C,C25*%
X114161252Y-177665000D02*
X113638748Y-177665000D01*
X114161252Y-179135000D02*
X113638748Y-179135000D01*
%TO.C,D17*%
X121150000Y-127490000D02*
X121150000Y-133000000D01*
X121150000Y-127490000D02*
X124450000Y-127490000D01*
X124450000Y-127490000D02*
X124450000Y-133000000D01*
%TO.C,C119*%
X121459420Y-124790000D02*
X121740580Y-124790000D01*
X121459420Y-125810000D02*
X121740580Y-125810000D01*
%TO.C,R118*%
X150862742Y-126477500D02*
X151337258Y-126477500D01*
X150862742Y-127522500D02*
X151337258Y-127522500D01*
%TO.C,C113*%
X150959420Y-128990000D02*
X151240580Y-128990000D01*
X150959420Y-130010000D02*
X151240580Y-130010000D01*
%TO.C,R2*%
X262427500Y-132362258D02*
X262427500Y-131887742D01*
X263472500Y-132362258D02*
X263472500Y-131887742D01*
%TD*%
M02*
