%TF.GenerationSoftware,KiCad,Pcbnew,10.0.6*%
%TF.CreationDate,2026-09-23T19:27:55-03:00*%
%TF.ProjectId,FE_UFPR_4_0,46455f55-4650-4525-9f34-5f302e6b6963,4.0*%
%TF.SameCoordinates,Original*%
%TF.FileFunction,Soldermask,Bot*%
%TF.FilePolarity,Negative*%
%FSLAX46Y46*%
G04 Gerber Fmt 4.6, Leading zero omitted, Abs format (unit mm)*
G04 Created by KiCad (PCBNEW 10.0.6) date 2026-09-23 19:27:55*
%MOMM*%
%LPD*%
G01*
G04 APERTURE LIST*
G04 Aperture macros list*
%AMRoundRect*
0 Rectangle with rounded corners*
0 $1 Rounding radius*
0 $2 $3 $4 $5 $6 $7 $8 $9 X,Y pos of 4 corners*
0 Add a 4 corners polygon primitive as box body*
4,1,4,$2,$3,$4,$5,$6,$7,$8,$9,$2,$3,0*
0 Add four circle primitives for the rounded corners*
1,1,$1+$1,$2,$3*
1,1,$1+$1,$4,$5*
1,1,$1+$1,$6,$7*
1,1,$1+$1,$8,$9*
0 Add four rect primitives between the rounded corners*
20,1,$1+$1,$2,$3,$4,$5,0*
20,1,$1+$1,$4,$5,$6,$7,0*
20,1,$1+$1,$6,$7,$8,$9,0*
20,1,$1+$1,$8,$9,$2,$3,0*%
G04 Aperture macros list end*
%ADD10RoundRect,0.250001X-1.399999X1.099999X-1.399999X-1.099999X1.399999X-1.099999X1.399999X1.099999X0*%
%ADD11O,3.300000X2.700000*%
%ADD12R,2.400000X2.400000*%
%ADD13C,2.400000*%
%ADD14C,4.300000*%
%ADD15R,1.600000X1.600000*%
%ADD16C,1.600000*%
%ADD17C,4.000000*%
%ADD18C,2.200000*%
%ADD19R,2.000000X2.000000*%
%ADD20C,2.000000*%
%ADD21R,1.700000X1.700000*%
%ADD22C,1.700000*%
%ADD23C,1.500000*%
%ADD24RoundRect,0.225000X0.225000X0.250000X-0.225000X0.250000X-0.225000X-0.250000X0.225000X-0.250000X0*%
%ADD25RoundRect,0.200000X-0.200000X-0.275000X0.200000X-0.275000X0.200000X0.275000X-0.200000X0.275000X0*%
%ADD26RoundRect,0.250000X-0.250000X-0.475000X0.250000X-0.475000X0.250000X0.475000X-0.250000X0.475000X0*%
%ADD27RoundRect,0.225000X-0.225000X-0.250000X0.225000X-0.250000X0.225000X0.250000X-0.225000X0.250000X0*%
%ADD28RoundRect,0.200000X-0.275000X0.200000X-0.275000X-0.200000X0.275000X-0.200000X0.275000X0.200000X0*%
%ADD29RoundRect,0.250000X0.250000X0.475000X-0.250000X0.475000X-0.250000X-0.475000X0.250000X-0.475000X0*%
%ADD30RoundRect,0.250000X-0.650000X1.000000X-0.650000X-1.000000X0.650000X-1.000000X0.650000X1.000000X0*%
%ADD31RoundRect,0.225000X-0.250000X0.225000X-0.250000X-0.225000X0.250000X-0.225000X0.250000X0.225000X0*%
%ADD32RoundRect,0.225000X0.250000X-0.225000X0.250000X0.225000X-0.250000X0.225000X-0.250000X-0.225000X0*%
%ADD33RoundRect,0.200000X0.275000X-0.200000X0.275000X0.200000X-0.275000X0.200000X-0.275000X-0.200000X0*%
%ADD34C,0.350000*%
G04 APERTURE END LIST*
D10*
%TO.C,J1*%
X257270000Y-94400000D03*
D11*
X251770000Y-94400000D03*
%TD*%
D12*
%TO.C,U4*%
X164297500Y-207290000D03*
D13*
X164297500Y-202210000D03*
X143977500Y-194590000D03*
X143977500Y-204750000D03*
X143977500Y-214910000D03*
%TD*%
D14*
%TO.C,H2*%
X268950000Y-94900000D03*
%TD*%
D15*
%TO.C,J2*%
X243950000Y-210500000D03*
D16*
X241180000Y-210500000D03*
X238410000Y-210500000D03*
X235640000Y-210500000D03*
X232870000Y-210500000D03*
X230100000Y-210500000D03*
X227330000Y-210500000D03*
X224560000Y-210500000D03*
X221790000Y-210500000D03*
X219020000Y-210500000D03*
X216250000Y-210500000D03*
X213480000Y-210500000D03*
X210710000Y-210500000D03*
X207940000Y-210500000D03*
X205170000Y-210500000D03*
X202400000Y-210500000D03*
X199630000Y-210500000D03*
X196860000Y-210500000D03*
X194090000Y-210500000D03*
X242565000Y-213040000D03*
X239795000Y-213040000D03*
X237025000Y-213040000D03*
X234255000Y-213040000D03*
X231485000Y-213040000D03*
X228715000Y-213040000D03*
X225945000Y-213040000D03*
X223175000Y-213040000D03*
X220405000Y-213040000D03*
X217635000Y-213040000D03*
X214865000Y-213040000D03*
X212095000Y-213040000D03*
X209325000Y-213040000D03*
X206555000Y-213040000D03*
X203785000Y-213040000D03*
X201015000Y-213040000D03*
X198245000Y-213040000D03*
X195475000Y-213040000D03*
D17*
X187270000Y-211770000D03*
X250770000Y-211770000D03*
%TD*%
D14*
%TO.C,H4*%
X268950000Y-214900000D03*
%TD*%
D18*
%TO.C,J3*%
X158500000Y-152700000D03*
X158500000Y-186990000D03*
D19*
X160595500Y-159367500D03*
D20*
X160595500Y-163558500D03*
X160595500Y-167749500D03*
X160595500Y-171940500D03*
X160595500Y-176131500D03*
X160595500Y-180322500D03*
X156404500Y-180322500D03*
X156404500Y-176131500D03*
X156404500Y-171940500D03*
X156404500Y-167749500D03*
X156404500Y-163558500D03*
X156404500Y-159367500D03*
%TD*%
D19*
%TO.C,J5*%
X173736500Y-93075000D03*
D20*
X169545500Y-93075000D03*
X165354500Y-93075000D03*
X161163500Y-93075000D03*
X161163500Y-99425000D03*
X165354500Y-99425000D03*
X169545500Y-99425000D03*
X173736500Y-99425000D03*
%TD*%
D21*
%TO.C,J22*%
X193950000Y-167400000D03*
D22*
X196490000Y-167400000D03*
X193950000Y-169940000D03*
X196490000Y-169940000D03*
X193950000Y-172480000D03*
X196490000Y-172480000D03*
X193950000Y-175020000D03*
X196490000Y-175020000D03*
X193950000Y-177560000D03*
X196490000Y-177560000D03*
X193950000Y-180100000D03*
X196490000Y-180100000D03*
X193950000Y-182640000D03*
X196490000Y-182640000D03*
X193950000Y-185180000D03*
X196490000Y-185180000D03*
X193950000Y-187720000D03*
X196490000Y-187720000D03*
X193950000Y-190260000D03*
X196490000Y-190260000D03*
%TD*%
D21*
%TO.C,J21*%
X237130000Y-103900000D03*
D22*
X239670000Y-103900000D03*
X237130000Y-106440000D03*
X239670000Y-106440000D03*
X237130000Y-108980000D03*
X239670000Y-108980000D03*
X237130000Y-111520000D03*
X239670000Y-111520000D03*
X237130000Y-114060000D03*
X239670000Y-114060000D03*
X237130000Y-116600000D03*
X239670000Y-116600000D03*
X237130000Y-119140000D03*
X239670000Y-119140000D03*
X237130000Y-121680000D03*
X239670000Y-121680000D03*
X237130000Y-124220000D03*
X239670000Y-124220000D03*
X237130000Y-126760000D03*
X239670000Y-126760000D03*
%TD*%
D23*
%TO.C,TP47*%
X212350000Y-201050000D03*
%TD*%
D14*
%TO.C,H1*%
X132950000Y-94900000D03*
%TD*%
D21*
%TO.C,J20*%
X193950000Y-103900000D03*
D22*
X196490000Y-103900000D03*
X193950000Y-106440000D03*
X196490000Y-106440000D03*
X193950000Y-108980000D03*
X196490000Y-108980000D03*
X193950000Y-111520000D03*
X196490000Y-111520000D03*
X193950000Y-114060000D03*
X196490000Y-114060000D03*
X193950000Y-116600000D03*
X196490000Y-116600000D03*
X193950000Y-119140000D03*
X196490000Y-119140000D03*
X193950000Y-121680000D03*
X196490000Y-121680000D03*
X193950000Y-124220000D03*
X196490000Y-124220000D03*
X193950000Y-126760000D03*
X196490000Y-126760000D03*
%TD*%
D21*
%TO.C,J23*%
X237130000Y-167400000D03*
D22*
X239670000Y-167400000D03*
X237130000Y-169940000D03*
X239670000Y-169940000D03*
X237130000Y-172480000D03*
X239670000Y-172480000D03*
X237130000Y-175020000D03*
X239670000Y-175020000D03*
X237130000Y-177560000D03*
X239670000Y-177560000D03*
X237130000Y-180100000D03*
X239670000Y-180100000D03*
X237130000Y-182640000D03*
X239670000Y-182640000D03*
X237130000Y-185180000D03*
X239670000Y-185180000D03*
X237130000Y-187720000D03*
X239670000Y-187720000D03*
X237130000Y-190260000D03*
X239670000Y-190260000D03*
%TD*%
D18*
%TO.C,J4*%
X158495500Y-106832500D03*
X158495500Y-141122500D03*
D19*
X160591000Y-113500000D03*
D20*
X160591000Y-117691000D03*
X160591000Y-121882000D03*
X160591000Y-126073000D03*
X160591000Y-130264000D03*
X160591000Y-134455000D03*
X156400000Y-134455000D03*
X156400000Y-130264000D03*
X156400000Y-126073000D03*
X156400000Y-121882000D03*
X156400000Y-117691000D03*
X156400000Y-113500000D03*
%TD*%
D14*
%TO.C,H3*%
X132950000Y-214900000D03*
%TD*%
D23*
%TO.C,TP46*%
X186200000Y-118700000D03*
%TD*%
D24*
%TO.C,C26*%
X159300000Y-161200000D03*
X157750000Y-161200000D03*
%TD*%
D25*
%TO.C,R119*%
X157750000Y-119800000D03*
X159400000Y-119800000D03*
%TD*%
D26*
%TO.C,C27*%
X157750000Y-174100000D03*
X159650000Y-174100000D03*
%TD*%
D24*
%TO.C,C120*%
X159400000Y-136550000D03*
X157850000Y-136550000D03*
%TD*%
D27*
%TO.C,C28*%
X157850000Y-177950000D03*
X159400000Y-177950000D03*
%TD*%
D28*
%TO.C,R3*%
X264450000Y-132300000D03*
X264450000Y-133950000D03*
%TD*%
D29*
%TO.C,C25*%
X159550000Y-157250000D03*
X157650000Y-157250000D03*
%TD*%
D30*
%TO.C,D17*%
X177150000Y-93700000D03*
X177150000Y-97700000D03*
%TD*%
D31*
%TO.C,C119*%
X169550000Y-95275000D03*
X169550000Y-96825000D03*
%TD*%
D25*
%TO.C,R118*%
X157700000Y-124050000D03*
X159350000Y-124050000D03*
%TD*%
D32*
%TO.C,C113*%
X154400000Y-121350000D03*
X154400000Y-119800000D03*
%TD*%
D33*
%TO.C,R2*%
X262950000Y-132950000D03*
X262950000Y-131300000D03*
%TD*%
D34*
X257270000Y-94400000D03*
X251770000Y-94400000D03*
X164297500Y-207290000D03*
X164297500Y-202210000D03*
X143977500Y-194590000D03*
X143977500Y-204750000D03*
X143977500Y-214910000D03*
X268950000Y-94900000D03*
X243950000Y-210500000D03*
X241180000Y-210500000D03*
X238410000Y-210500000D03*
X235640000Y-210500000D03*
X232870000Y-210500000D03*
X230100000Y-210500000D03*
X227330000Y-210500000D03*
X224560000Y-210500000D03*
X221790000Y-210500000D03*
X219020000Y-210500000D03*
X216250000Y-210500000D03*
X213480000Y-210500000D03*
X210710000Y-210500000D03*
X207940000Y-210500000D03*
X205170000Y-210500000D03*
X202400000Y-210500000D03*
X199630000Y-210500000D03*
X196860000Y-210500000D03*
X194090000Y-210500000D03*
X242565000Y-213040000D03*
X239795000Y-213040000D03*
X237025000Y-213040000D03*
X234255000Y-213040000D03*
X231485000Y-213040000D03*
X228715000Y-213040000D03*
X225945000Y-213040000D03*
X223175000Y-213040000D03*
X220405000Y-213040000D03*
X217635000Y-213040000D03*
X214865000Y-213040000D03*
X212095000Y-213040000D03*
X209325000Y-213040000D03*
X206555000Y-213040000D03*
X203785000Y-213040000D03*
X201015000Y-213040000D03*
X198245000Y-213040000D03*
X195475000Y-213040000D03*
X187270000Y-211770000D03*
X250770000Y-211770000D03*
X268950000Y-214900000D03*
X158500000Y-152700000D03*
X158500000Y-186990000D03*
X160595500Y-159367500D03*
X160595500Y-163558500D03*
X160595500Y-167749500D03*
X160595500Y-171940500D03*
X160595500Y-176131500D03*
X160595500Y-180322500D03*
X156404500Y-180322500D03*
X156404500Y-176131500D03*
X156404500Y-171940500D03*
X156404500Y-167749500D03*
X156404500Y-163558500D03*
X156404500Y-159367500D03*
X173736500Y-93075000D03*
X169545500Y-93075000D03*
X165354500Y-93075000D03*
X161163500Y-93075000D03*
X161163500Y-99425000D03*
X165354500Y-99425000D03*
X169545500Y-99425000D03*
X173736500Y-99425000D03*
X193950000Y-167400000D03*
X196490000Y-167400000D03*
X193950000Y-169940000D03*
X196490000Y-169940000D03*
X193950000Y-172480000D03*
X196490000Y-172480000D03*
X193950000Y-175020000D03*
X196490000Y-175020000D03*
X193950000Y-177560000D03*
X196490000Y-177560000D03*
X193950000Y-180100000D03*
X196490000Y-180100000D03*
X193950000Y-182640000D03*
X196490000Y-182640000D03*
X193950000Y-185180000D03*
X196490000Y-185180000D03*
X193950000Y-187720000D03*
X196490000Y-187720000D03*
X193950000Y-190260000D03*
X196490000Y-190260000D03*
X237130000Y-103900000D03*
X239670000Y-103900000D03*
X237130000Y-106440000D03*
X239670000Y-106440000D03*
X237130000Y-108980000D03*
X239670000Y-108980000D03*
X237130000Y-111520000D03*
X239670000Y-111520000D03*
X237130000Y-114060000D03*
X239670000Y-114060000D03*
X237130000Y-116600000D03*
X239670000Y-116600000D03*
X237130000Y-119140000D03*
X239670000Y-119140000D03*
X237130000Y-121680000D03*
X239670000Y-121680000D03*
X237130000Y-124220000D03*
X239670000Y-124220000D03*
X237130000Y-126760000D03*
X239670000Y-126760000D03*
X212350000Y-201050000D03*
X132950000Y-94900000D03*
X193950000Y-103900000D03*
X196490000Y-103900000D03*
X193950000Y-106440000D03*
X196490000Y-106440000D03*
X193950000Y-108980000D03*
X196490000Y-108980000D03*
X193950000Y-111520000D03*
X196490000Y-111520000D03*
X193950000Y-114060000D03*
X196490000Y-114060000D03*
X193950000Y-116600000D03*
X196490000Y-116600000D03*
X193950000Y-119140000D03*
X196490000Y-119140000D03*
X193950000Y-121680000D03*
X196490000Y-121680000D03*
X193950000Y-124220000D03*
X196490000Y-124220000D03*
X193950000Y-126760000D03*
X196490000Y-126760000D03*
X237130000Y-167400000D03*
X239670000Y-167400000D03*
X237130000Y-169940000D03*
X239670000Y-169940000D03*
X237130000Y-172480000D03*
X239670000Y-172480000D03*
X237130000Y-175020000D03*
X239670000Y-175020000D03*
X237130000Y-177560000D03*
X239670000Y-177560000D03*
X237130000Y-180100000D03*
X239670000Y-180100000D03*
X237130000Y-182640000D03*
X239670000Y-182640000D03*
X237130000Y-185180000D03*
X239670000Y-185180000D03*
X237130000Y-187720000D03*
X239670000Y-187720000D03*
X237130000Y-190260000D03*
X239670000Y-190260000D03*
X158495500Y-106832500D03*
X158495500Y-141122500D03*
X160591000Y-113500000D03*
X160591000Y-117691000D03*
X160591000Y-121882000D03*
X160591000Y-126073000D03*
X160591000Y-130264000D03*
X160591000Y-134455000D03*
X156400000Y-134455000D03*
X156400000Y-130264000D03*
X156400000Y-126073000D03*
X156400000Y-121882000D03*
X156400000Y-117691000D03*
X156400000Y-113500000D03*
X132950000Y-214900000D03*
X186200000Y-118700000D03*
M02*
