M48
; DRILL file KiCad 10.0.6 date 2026-09-24T10:33:38
; FORMAT={-:-/ absolute / metric / decimal}
; #@! TF.CreationDate,2026-09-24T10:33:38-03:00
; #@! TF.GenerationSoftware,Kicad,Pcbnew,10.0.6
; #@! TF.FileFunction,Plated,1,4,PTH
FMAT,2
METRIC
; #@! TA.AperFunction,Plated,PTH,ViaDrill
T1C0.300
; #@! TA.AperFunction,Plated,PTH,ComponentDrill
T2C0.300
; #@! TA.AperFunction,Plated,PTH,ViaDrill
T3C0.400
; #@! TA.AperFunction,Plated,PTH,ViaDrill
T4C0.500
; #@! TA.AperFunction,Plated,PTH,ComponentDrill
T5C0.700
; #@! TA.AperFunction,Plated,PTH,ComponentDrill
T6C1.000
; #@! TA.AperFunction,Plated,PTH,ComponentDrill
T7C1.400
; #@! TA.AperFunction,Plated,PTH,ComponentDrill
T8C1.500
; #@! TA.AperFunction,Plated,PTH,ComponentDrill
T9C2.000
; #@! TA.AperFunction,Plated,PTH,ComponentDrill
T10C3.200
%
G90
G05
T1
X112.6Y-130.73
X129.4Y-91.35
X129.4Y-103.35
X129.4Y-109.35
X129.4Y-115.35
X129.4Y-121.35
X129.4Y-127.35
X129.4Y-133.35
X129.4Y-139.35
X129.4Y-145.35
X135.4Y-91.35
X139.9Y-101.85
X139.9Y-115.85
X139.9Y-122.85
X139.9Y-129.85
X139.9Y-136.85
X141.4Y-91.35
X146.9Y-101.85
X146.9Y-108.85
X146.9Y-115.85
X146.9Y-143.85
X147.4Y-91.35
X153.4Y-91.35
X153.9Y-101.85
X153.9Y-108.85
X153.9Y-129.85
X153.9Y-143.85
X159.4Y-91.35
X160.575Y-124.05
X160.625Y-119.8
X160.9Y-101.85
X161.9Y-128.85
X164.9Y-187.5
X167.9Y-108.85
X167.9Y-115.85
X167.9Y-129.85
X167.9Y-143.85
X167.9Y-150.85
X167.9Y-157.85
X167.9Y-164.85
X167.9Y-170.85
X167.9Y-207.85
X167.9Y-213.85
X168.2Y-195.8
X168.2Y-197.0
X168.3Y-101.5
X168.9Y-136.85
X169.6Y-186.875
X169.6Y-195.8
X169.6Y-197.0
X169.65Y-181.175
X169.75Y-124.675
X170.6Y-200.2
X171.6Y-201.2
X173.0Y-151.8
X173.0Y-165.0
X173.0Y-196.8
X173.4Y-106.6
X173.45Y-107.95
X173.87Y-110.15
X174.197Y-218.4
X174.2Y-217.6
X174.65Y-172.45
X174.9Y-122.85
X174.9Y-136.85
X174.9Y-157.85
X174.9Y-165.85
X174.9Y-213.85
X175.9Y-116.85
X175.9Y-185.85
X175.9Y-206.85
X176.37Y-147.59
X176.375Y-169.85
X176.42Y-149.49
X176.425Y-192.7
X176.475Y-194.6
X176.858Y-150.333
X176.863Y-172.593
X177.15Y-99.7
X177.4Y-91.35
X178.0Y-189.2
X178.2Y-198.6
X178.2Y-199.4
X178.4Y-203.6
X178.8Y-153.6
X178.8Y-154.4
X178.8Y-176.0
X178.8Y-177.0
X179.4Y-198.6
X179.4Y-199.4
X179.8Y-153.6
X179.8Y-154.4
X180.0Y-176.0
X180.0Y-177.0
X180.9Y-163.85
X180.9Y-185.85
X180.9Y-191.85
X181.9Y-107.85
X181.9Y-122.85
X181.9Y-136.85
X181.9Y-142.85
X182.0Y-208.8
X182.0Y-209.8
X182.0Y-210.8
X182.0Y-211.8
X182.0Y-212.6
X182.0Y-213.6
X182.6Y-148.2
X182.6Y-170.2
X182.6Y-193.0
X183.2Y-197.6
X183.4Y-91.35
X183.4Y-208.8
X183.4Y-209.8
X183.4Y-210.8
X183.4Y-211.8
X183.4Y-212.6
X183.4Y-213.6
X183.8Y-152.6
X183.8Y-165.0
X185.0Y-152.6
X185.0Y-199.9
X185.2Y-158.4
X185.2Y-180.6
X186.2Y-111.0
X186.2Y-152.6
X186.2Y-175.0
X186.8Y-188.4
X187.0Y-175.0
X187.2Y-154.0
X187.2Y-197.4
X187.829Y-174.921
X187.9Y-109.85
X187.9Y-115.85
X187.9Y-122.85
X187.9Y-142.85
X188.9Y-164.85
X188.9Y-185.85
X188.9Y-193.85
X188.9Y-206.85
X189.4Y-91.35
X189.9Y-136.85
X189.9Y-212.85
X190.65Y-169.325
X191.875Y-98.25
X192.2Y-195.0
X192.2Y-196.0
X192.8Y-193.2
X193.0Y-195.0
X193.0Y-196.0
X194.0Y-200.8
X194.0Y-203.35
X194.8Y-195.0
X194.8Y-196.0
X195.4Y-91.35
X195.6Y-195.0
X195.6Y-196.0
X195.9Y-143.85
X195.9Y-150.85
X195.9Y-156.85
X195.9Y-164.85
X197.306Y-201.643
X197.775Y-113.975
X197.8Y-115.2
X197.8Y-117.6
X197.987Y-118.664
X198.207Y-107.343
X198.35Y-121.05
X198.4Y-123.0
X198.491Y-138.182
X199.45Y-107.4
X199.55Y-208.15
X199.739Y-113.911
X199.8Y-128.325
X200.0Y-124.2
X200.121Y-197.263
X200.125Y-169.55
X200.175Y-198.275
X200.4Y-133.8
X200.625Y-167.55
X200.993Y-198.517
X201.375Y-173.275
X201.4Y-91.35
X201.55Y-107.325
X202.316Y-196.916
X202.4Y-205.4
X202.5Y-183.9
X202.575Y-108.8
X202.6Y-180.3
X202.6Y-200.6
X202.6Y-201.6
X202.8Y-187.65
X202.825Y-182.1
X202.825Y-189.5
X202.9Y-101.85
X202.9Y-143.85
X202.9Y-150.85
X202.9Y-157.85
X203.275Y-185.75
X203.514Y-123.044
X203.575Y-178.4
X203.8Y-120.8
X204.0Y-127.0
X204.0Y-197.2
X204.0Y-198.4
X204.0Y-200.6
X204.0Y-201.6
X204.0Y-208.15
X204.375Y-109.05
X204.4Y-133.6
X204.4Y-134.8
X204.4Y-135.8
X204.4Y-136.8
X204.409Y-205.684
X204.5Y-116.4
X204.8Y-124.2
X205.4Y-185.8
X205.4Y-186.8
X205.4Y-187.8
X205.4Y-188.8
X205.4Y-189.8
X205.4Y-200.6
X205.4Y-201.6
X205.593Y-172.408
X205.6Y-133.6
X205.6Y-134.8
X205.6Y-135.8
X205.6Y-136.8
X205.6Y-181.05
X206.161Y-126.539
X206.425Y-133.6
X206.8Y-200.6
X206.8Y-201.6
X206.975Y-135.6
X207.0Y-141.6
X207.0Y-142.6
X207.0Y-143.6
X207.0Y-146.0
X207.0Y-147.0
X207.4Y-91.35
X208.0Y-142.6
X208.0Y-143.6
X208.234Y-205.684
X208.293Y-201.993
X208.4Y-146.0
X208.4Y-147.0
X208.9Y-193.85
X209.0Y-203.7
X209.6Y-123.8
X209.8Y-131.6
X209.9Y-143.85
X209.9Y-150.85
X209.9Y-157.85
X209.9Y-164.85
X209.916Y-209.016
X210.05Y-193.6
X210.225Y-126.625
X210.884Y-110.934
X210.9Y-122.85
X211.65Y-127.7
X211.693Y-207.681
X211.8Y-113.15
X211.8Y-115.1
X212.125Y-173.775
X212.25Y-182.15
X212.45Y-128.85
X212.45Y-129.65
X212.65Y-136.25
X212.65Y-137.15
X213.4Y-91.35
X213.417Y-116.138
X213.525Y-102.26
X214.15Y-139.1
X214.582Y-193.381
X215.566Y-207.859
X216.9Y-122.85
X216.9Y-130.85
X216.9Y-135.85
X216.9Y-143.85
X216.9Y-150.85
X216.9Y-157.85
X216.9Y-164.85
X216.9Y-171.85
X216.9Y-178.85
X216.9Y-185.85
X217.175Y-126.375
X217.6Y-120.05
X217.8Y-112.4
X217.8Y-197.2
X217.9Y-108.85
X219.0Y-206.0
X219.2Y-193.0
X219.4Y-91.35
X219.4Y-218.45
X221.75Y-103.685
X221.817Y-106.328
X222.9Y-128.85
X222.9Y-135.85
X222.9Y-185.85
X222.9Y-193.85
X223.283Y-204.058
X223.9Y-115.85
X223.9Y-122.85
X223.9Y-143.85
X223.9Y-150.85
X223.9Y-157.85
X223.9Y-170.85
X223.9Y-178.85
X224.6Y-193.2
X224.6Y-194.0
X224.6Y-194.8
X224.6Y-195.6
X225.4Y-91.35
X225.4Y-218.45
X225.6Y-193.2
X225.6Y-194.0
X225.6Y-194.8
X225.7Y-104.75
X226.4Y-194.0
X227.0Y-196.0
X227.347Y-181.947
X227.525Y-173.6
X227.55Y-164.25
X227.6Y-195.4
X228.2Y-196.0
X228.542Y-182.777
X228.692Y-173.427
X228.767Y-164.072
X228.8Y-205.4
X229.9Y-136.85
X229.9Y-199.85
X230.125Y-180.105
X230.193Y-112.006
X230.3Y-170.75
X230.325Y-161.4
X230.565Y-113.05
X230.638Y-178.769
X230.9Y-122.85
X230.9Y-129.85
X230.9Y-150.85
X230.925Y-159.5
X231.2Y-116.0
X231.4Y-91.35
X231.4Y-218.45
X231.9Y-100.85
X232.024Y-157.831
X232.819Y-178.818
X232.919Y-169.618
X232.969Y-160.268
X232.994Y-205.518
X233.2Y-168.4
X233.482Y-182.481
X233.582Y-173.281
X233.632Y-163.931
X234.2Y-168.4
X234.6Y-159.85
X234.8Y-164.8
X235.6Y-131.2
X235.716Y-157.391
X235.75Y-130.3
X235.95Y-148.325
X236.0Y-164.8
X236.044Y-205.618
X237.4Y-91.35
X237.4Y-218.45
X237.641Y-135.116
X237.65Y-148.325
X237.9Y-101.85
X238.2Y-193.2
X238.2Y-194.0
X239.169Y-205.518
X239.2Y-193.2
X239.2Y-194.0
X239.2Y-194.8
X240.425Y-158.625
X241.6Y-185.0
X241.825Y-204.825
X242.344Y-205.568
X242.4Y-185.4
X242.5Y-165.975
X243.2Y-194.75
X243.4Y-91.35
X244.2Y-161.6
X244.2Y-162.6
X244.2Y-163.6
X244.2Y-164.6
X244.225Y-197.6
X244.406Y-205.568
X244.591Y-194.816
X244.9Y-101.85
X244.9Y-108.85
X244.9Y-115.85
X244.9Y-157.85
X244.9Y-171.85
X245.394Y-209.432
X245.4Y-126.8
X245.4Y-161.6
X245.4Y-162.6
X245.4Y-163.6
X245.4Y-164.6
X245.9Y-123.85
X245.9Y-129.85
X245.9Y-136.85
X245.9Y-142.85
X245.9Y-150.85
X245.9Y-178.85
X247.2Y-203.2
X247.419Y-192.857
X247.6Y-161.6
X247.6Y-162.7
X247.718Y-218.556
X247.8Y-154.8
X247.8Y-155.6
X247.8Y-156.4
X248.8Y-154.8
X248.8Y-155.6
X248.8Y-156.4
X248.841Y-207.566
X249.25Y-208.3
X249.4Y-91.35
X249.8Y-154.8
X249.8Y-155.6
X249.8Y-156.4
X250.05Y-131.65
X250.52Y-146.65
X250.7Y-203.2
X250.8Y-154.8
X250.8Y-155.6
X250.8Y-156.4
X250.925Y-204.7
X251.795Y-102.75
X251.9Y-108.85
X251.9Y-122.85
X251.9Y-136.85
X251.9Y-171.85
X251.9Y-178.85
X251.9Y-198.85
X252.624Y-96.317
X252.9Y-116.85
X252.9Y-157.85
X254.02Y-149.575
X254.95Y-203.2
X255.313Y-164.932
X255.4Y-91.35
X256.632Y-214.481
X256.682Y-218.519
X257.332Y-160.356
X257.45Y-194.713
X257.52Y-149.575
X257.591Y-193.641
X257.625Y-128.65
X257.75Y-205.925
X258.15Y-166.325
X258.275Y-197.6
X258.67Y-129.544
X258.67Y-135.456
X258.9Y-101.85
X258.9Y-108.85
X258.9Y-171.85
X258.9Y-178.85
X258.9Y-185.85
X258.95Y-203.2
X259.15Y-198.825
X259.2Y-142.6
X259.2Y-143.4
X259.2Y-144.2
X259.561Y-162.561
X260.0Y-142.6
X260.0Y-143.4
X260.0Y-144.2
X260.45Y-191.775
X260.595Y-119.45
X260.96Y-135.694
X261.22Y-122.9
X261.4Y-91.35
X261.75Y-131.65
X261.986Y-217.524
X262.55Y-137.475
X262.75Y-149.1
X263.942Y-134.733
X264.52Y-115.45
X264.85Y-147.45
X264.9Y-121.85
X265.363Y-134.403
X265.6Y-160.8
X265.9Y-171.85
X265.9Y-178.85
X265.9Y-185.85
X265.9Y-192.85
X265.9Y-199.85
X265.9Y-206.85
X265.9Y-213.85
X266.323Y-164.05
X266.4Y-160.8
X266.4Y-161.6
X266.9Y-108.85
X267.4Y-91.35
X267.4Y-218.45
X271.125Y-149.975
X271.2Y-132.6
X272.02Y-115.4
X272.2Y-132.6
X272.5Y-91.35
X272.5Y-97.35
X272.5Y-103.35
X272.5Y-109.35
X272.5Y-121.35
X272.5Y-145.35
X272.5Y-163.35
X272.5Y-169.35
X272.5Y-175.35
X272.5Y-181.35
X272.5Y-187.35
X272.5Y-193.35
X272.5Y-199.35
X272.5Y-205.35
X272.5Y-211.35
X272.5Y-217.35
X272.831Y-125.611
X272.886Y-153.816
T2
X256.795Y-130.55
X256.795Y-131.85
X256.795Y-133.15
X256.795Y-134.45
X258.095Y-130.55
X258.095Y-131.85
X258.095Y-133.15
X258.095Y-134.45
T3
X142.4Y-193.0
X165.2Y-184.2
X165.8Y-163.6
X165.8Y-169.4
X165.8Y-173.6
X165.8Y-197.0
X176.0Y-184.2
X179.5Y-93.3
X180.8Y-106.4
X181.75Y-154.0
X181.75Y-176.4
X181.8Y-199.2
X182.3Y-100.5
X184.6Y-175.2
X186.8Y-169.6
X190.2Y-110.2
X190.2Y-125.0
X198.494Y-193.106
X199.4Y-102.8
X199.4Y-206.6
X201.0Y-193.0
X202.1Y-127.95
X202.8Y-114.0
X202.8Y-135.8
X205.2Y-127.95
X208.0Y-141.6
X208.4Y-166.0
X210.4Y-180.8
X220.7Y-186.95
X221.95Y-186.95
X224.0Y-198.0
X224.051Y-187.849
X224.95Y-167.95
X225.45Y-177.45
X225.45Y-186.95
X225.7Y-188.7
X227.6Y-187.8
X229.2Y-189.7
X229.893Y-190.489
X230.95Y-186.95
X231.45Y-202.2
X231.95Y-167.95
X231.95Y-177.45
X233.0Y-119.2
X233.0Y-157.0
X234.4Y-153.0
X234.7Y-202.2
X237.95Y-202.2
X239.6Y-153.0
X240.402Y-202.2
X240.45Y-163.4
X240.6Y-156.95
X240.752Y-130.152
X241.6Y-134.2
X241.604Y-202.2
X242.8Y-188.495
X243.936Y-202.539
X244.6Y-121.6
X244.6Y-123.0
X247.0Y-188.8
X249.8Y-198.6
X251.85Y-127.05
X252.2Y-218.8
X257.4Y-187.0
X262.2Y-189.0
X266.65Y-140.25
T4
X219.7Y-207.95
X260.8Y-208.2
X262.95Y-134.2
X267.95Y-125.7
T5
X186.2Y-118.7
X212.35Y-201.05
T6
X193.95Y-103.9
X193.95Y-106.44
X193.95Y-108.98
X193.95Y-111.52
X193.95Y-114.06
X193.95Y-116.6
X193.95Y-119.14
X193.95Y-121.68
X193.95Y-124.22
X193.95Y-126.76
X193.95Y-167.4
X193.95Y-169.94
X193.95Y-172.48
X193.95Y-175.02
X193.95Y-177.56
X193.95Y-180.1
X193.95Y-182.64
X193.95Y-185.18
X193.95Y-187.72
X193.95Y-190.26
X194.09Y-210.5
X195.475Y-213.04
X196.49Y-103.9
X196.49Y-106.44
X196.49Y-108.98
X196.49Y-111.52
X196.49Y-114.06
X196.49Y-116.6
X196.49Y-119.14
X196.49Y-121.68
X196.49Y-124.22
X196.49Y-126.76
X196.49Y-167.4
X196.49Y-169.94
X196.49Y-172.48
X196.49Y-175.02
X196.49Y-177.56
X196.49Y-180.1
X196.49Y-182.64
X196.49Y-185.18
X196.49Y-187.72
X196.49Y-190.26
X196.86Y-210.5
X198.245Y-213.04
X199.63Y-210.5
X201.015Y-213.04
X202.4Y-210.5
X203.785Y-213.04
X205.17Y-210.5
X206.555Y-213.04
X207.94Y-210.5
X209.325Y-213.04
X210.71Y-210.5
X212.095Y-213.04
X213.48Y-210.5
X214.865Y-213.04
X216.25Y-210.5
X217.635Y-213.04
X219.02Y-210.5
X220.405Y-213.04
X221.79Y-210.5
X223.175Y-213.04
X224.56Y-210.5
X225.945Y-213.04
X227.33Y-210.5
X228.715Y-213.04
X230.1Y-210.5
X231.485Y-213.04
X232.87Y-210.5
X234.255Y-213.04
X235.64Y-210.5
X237.025Y-213.04
X237.13Y-103.9
X237.13Y-106.44
X237.13Y-108.98
X237.13Y-111.52
X237.13Y-114.06
X237.13Y-116.6
X237.13Y-119.14
X237.13Y-121.68
X237.13Y-124.22
X237.13Y-126.76
X237.13Y-167.4
X237.13Y-169.94
X237.13Y-172.48
X237.13Y-175.02
X237.13Y-177.56
X237.13Y-180.1
X237.13Y-182.64
X237.13Y-185.18
X237.13Y-187.72
X237.13Y-190.26
X238.41Y-210.5
X239.67Y-103.9
X239.67Y-106.44
X239.67Y-108.98
X239.67Y-111.52
X239.67Y-114.06
X239.67Y-116.6
X239.67Y-119.14
X239.67Y-121.68
X239.67Y-124.22
X239.67Y-126.76
X239.67Y-167.4
X239.67Y-169.94
X239.67Y-172.48
X239.67Y-175.02
X239.67Y-177.56
X239.67Y-180.1
X239.67Y-182.64
X239.67Y-185.18
X239.67Y-187.72
X239.67Y-190.26
X239.795Y-213.04
X241.18Y-210.5
X242.565Y-213.04
X243.95Y-210.5
T7
X251.77Y-94.4
X257.27Y-94.4
T8
X143.977Y-194.59
X143.977Y-204.75
X143.977Y-214.91
X164.297Y-202.21
X164.297Y-207.29
T9
X109.64Y-120.825
X109.64Y-125.27
X109.64Y-130.73
X109.64Y-135.175
X109.94Y-178.39
X109.94Y-182.83
X109.94Y-187.28
X109.94Y-191.72
X109.94Y-196.17
X109.94Y-200.61
X118.76Y-120.825
X118.76Y-125.27
X118.76Y-130.73
X118.76Y-135.175
X119.06Y-178.39
X119.06Y-182.83
X119.06Y-187.28
X119.06Y-191.72
X119.06Y-196.17
X119.06Y-200.61
X146.54Y-118.09
X146.54Y-122.53
X146.54Y-126.98
X146.54Y-131.42
X146.54Y-135.87
X146.54Y-140.31
X155.66Y-118.09
X155.66Y-122.53
X155.66Y-126.98
X155.66Y-131.42
X155.66Y-135.87
X155.66Y-140.31
T10
X187.27Y-211.77
X250.77Y-211.77
M30
